<?xml version="1.0" encoding="utf-8"?>
<!-- Generator: Adobe Illustrator 25.0.0, SVG Export Plug-In . SVG Version: 6.00 Build 0)  -->
<svg version="1.1" id="Layer_1" xmlns="http://www.w3.org/2000/svg" xmlns:xlink="http://www.w3.org/1999/xlink" x="0px" y="0px"
	 viewBox="0 0 54.8 35.2" style="enable-background:new 0 0 54.8 35.2;" xml:space="preserve">
<style type="text/css">
	.st0{fill:#23ADF0;}
	.st1{fill:#D31C5B;}
	.st2{fill:#D4145A;}
</style>
<g transform="translate(-4.195 -106.816)">
	<path class="st0" d="M31.6,106.8c-0.9,0-1.8,0-2.7,0.1c-0.9,0.1-1.8,0.2-2.6,0.4s-1.7,0.4-2.6,0.6s-1.7,0.6-2.5,0.9
		c-1.6,0.7-3.2,1.5-4.7,2.5c-0.7,0.5-1.5,1-2.1,1.6c-1.4,1.1-2.6,2.4-3.8,3.8c-0.6,0.7-1.1,1.4-1.6,2.1c-0.5,0.7-1,1.5-1.4,2.3
		c-0.4,0.8-0.8,1.6-1.1,2.4c-0.3,0.8-0.6,1.7-0.9,2.5c-0.3,0.9-0.5,1.7-0.7,2.6c-0.2,0.9-0.3,1.8-0.4,2.6c-0.1,0.9-0.1,1.8-0.1,2.7
		c0,0.5,0.4,0.9,0.9,0.9h19.3c0.2,0,0.5-0.1,0.6-0.3c0.2-0.2,0.3-0.4,0.3-0.6c0-3.3,2.7-6.1,6-6.1c1.9,0,3.8,0.8,5,2.4l-7.5,4.8
		c-0.2,0.2-0.4,0.3-0.6,0.5c-0.2,0.2-0.4,0.4-0.5,0.6c-0.1,0.2-0.3,0.5-0.4,0.8c-0.1,0.3-0.1,0.5-0.2,0.8c0,0.3,0,0.6,0,0.8
		c0,0.3,0.1,0.5,0.2,0.8c0.1,0.3,0.2,0.5,0.4,0.7c0.1,0.2,0.3,0.4,0.5,0.6c0.2,0.2,0.4,0.4,0.6,0.5c0.5,0.3,1,0.5,1.6,0.5
		c0.6,0.1,1.1,0,1.6-0.2c0.3-0.1,0.5-0.2,0.7-0.3c0.2-0.1,0.5-0.3,0.7-0.5c0.2-0.2,0.4-0.4,0.5-0.6l3.8-5.8c0.1,0.3,0.4,0.6,0.8,0.5
		h19.3c0.2,0,0.5-0.1,0.6-0.3c0.2-0.2,0.3-0.4,0.3-0.6c0-0.9,0-1.8-0.1-2.7c-0.1-0.9-0.2-1.8-0.4-2.6c-0.3-1.7-0.9-3.5-1.5-5.1
		c-0.3-0.8-0.7-1.6-1.1-2.4s-0.9-1.5-1.4-2.3c-0.5-0.7-1-1.5-1.6-2.1c-0.6-0.7-1.2-1.3-1.8-2c-0.6-0.6-1.3-1.2-2-1.8
		c-0.7-0.6-1.4-1.1-2.1-1.6c-0.7-0.5-1.5-1-2.3-1.4c-0.8-0.4-1.6-0.8-2.4-1.1c-0.8-0.3-1.7-0.6-2.5-0.9s-1.7-0.5-2.6-0.6
		s-1.8-0.3-2.6-0.4C33.4,106.9,32.5,106.8,31.6,106.8z M23.7,133.1H6.1c0.3-8.4,4.7-16.1,11.8-20.6l8.9,15.2
		c-0.9,0.6-1.6,1.5-2.1,2.4C24.2,131,23.8,132,23.7,133.1z M28.4,126.8l-8.9-15.2c7.6-4.1,16.7-4.1,24.2,0l-8.9,15.2
		C32.7,125.9,30.4,125.9,28.4,126.8L28.4,126.8z M32.5,139.2c-0.2,0.2-0.4,0.5-0.6,0.6c-0.3,0.2-0.5,0.3-0.8,0.3
		c-0.9,0.1-1.8-0.4-2.1-1.3c-0.2-0.6-0.1-1.2,0.2-1.7c0.2-0.3,0.4-0.5,0.6-0.6l7.6-4.9L32.5,139.2z M39.4,133.1c0-0.3-0.1-0.7-0.2-1
		l1.9-2.9c0.3-0.4,0.1-1-0.3-1.2c-0.1-0.1-0.2-0.1-0.4-0.1c-0.2,0-0.4,0-0.6,0.1l-2,1.3c-0.5-0.6-1-1.1-1.6-1.6l8.9-15.2
		c7.1,4.5,11.5,12.2,11.8,20.6L39.4,133.1z"/>
</g>
<path class="st0" d="M33.5,10.5c0-0.4,0-0.8-0.1-1.2c-0.1-0.4-0.2-0.8-0.4-1.2c-0.3-0.7-0.8-1.4-1.3-2c-0.6-0.6-1.3-1-2-1.3
	c-0.7-0.3-1.5-0.5-2.4-0.5c-0.4,0-0.8,0-1.2,0.1c-0.4,0.1-0.8,0.2-1.2,0.4C24.6,5,24.3,5.2,24,5.4c-1,0.7-1.8,1.6-2.3,2.8
	c-0.2,0.4-0.3,0.8-0.3,1.2c-0.2,0.8-0.2,1.6,0,2.4c0.2,1.2,0.8,2.3,1.7,3.1c0.3,0.3,0.6,0.5,0.9,0.8c0.3,0.2,0.7,0.4,1.1,0.6
	c0.4,0.2,0.8,0.3,1.2,0.4c0.4,0.1,0.8,0.1,1.2,0.1c0.4,0,0.8,0,1.2-0.1c0.4-0.1,0.8-0.2,1.2-0.3c0.4-0.2,0.7-0.3,1.1-0.6
	c0.3-0.2,0.6-0.5,0.9-0.8c0.3-0.3,0.5-0.6,0.8-0.9c0.2-0.3,0.4-0.7,0.6-1.1c0.2-0.4,0.3-0.8,0.4-1.2C33.5,11.3,33.5,10.9,33.5,10.5z
	 M23,10.5c0-0.3,0-0.6,0.1-0.9c0.1-0.3,0.1-0.6,0.2-0.8c0.1-0.3,0.2-0.5,0.4-0.8c0.2-0.2,0.3-0.5,0.5-0.7c0.2-0.2,0.4-0.4,0.7-0.5
	c0.7-0.5,1.6-0.7,2.4-0.7c0.6,0,1.1,0.1,1.7,0.3c0.3,0.1,0.5,0.2,0.8,0.4c0.2,0.2,0.5,0.3,0.7,0.5c0.2,0.2,0.4,0.4,0.5,0.7
	c0.2,0.2,0.3,0.5,0.4,0.8c0.1,0.3,0.2,0.5,0.2,0.8c0.1,0.6,0.1,1.1,0,1.7c-0.1,0.3-0.1,0.6-0.2,0.8c-0.1,0.3-0.2,0.5-0.4,0.8
	c-0.2,0.2-0.3,0.5-0.5,0.7c-0.2,0.2-0.4,0.4-0.7,0.5c-0.2,0.2-0.5,0.3-0.8,0.4c-0.3,0.1-0.5,0.2-0.8,0.2c-0.3,0.1-0.6,0.1-0.9,0.1
	c-0.3,0-0.6,0-0.9-0.1c-0.3-0.1-0.6-0.1-0.8-0.2c-0.3-0.1-0.5-0.2-0.8-0.4c-0.5-0.3-0.9-0.7-1.2-1.2c-0.3-0.5-0.5-1-0.7-1.6
	C23,11.1,23,10.8,23,10.5z"/>
<path class="st0" d="M24.7,7.9h1.8v1.8h-1.8V7.9z"/>
<path class="st0" d="M28.3,7.9H30v1.8h-1.8V7.9z"/>
<path class="st0" d="M24.7,11.4H30v1.8h-5.3L24.7,11.4z"/>
<path class="st0" d="M12.4,12.3c-0.4,0-0.8,0-1.2,0.1c-0.4,0.1-0.8,0.2-1.2,0.3C9,13.2,8,14,7.3,15c-0.2,0.3-0.4,0.7-0.6,1.1
	c-0.2,0.4-0.3,0.8-0.4,1.1c-0.2,0.8-0.2,1.6,0,2.4c0.1,0.4,0.2,0.8,0.4,1.2c0.3,0.7,0.8,1.4,1.3,2c0.9,0.9,2,1.4,3.1,1.7
	c1.2,0.2,2.4,0.1,3.6-0.3c0.4-0.2,0.7-0.3,1.1-0.6c0.3-0.2,0.6-0.5,0.9-0.8c0.3-0.3,0.5-0.6,0.8-0.9c0.2-0.3,0.4-0.7,0.6-1.1
	c0.2-0.4,0.3-0.8,0.4-1.2c0.1-0.4,0.1-0.8,0.1-1.2c0-0.4,0-0.8-0.1-1.2c-0.2-1.2-0.8-2.3-1.7-3.1c-0.3-0.3-0.6-0.5-0.9-0.8
	c-0.3-0.2-0.7-0.4-1.1-0.6c-0.4-0.2-0.8-0.3-1.2-0.4C13.2,12.3,12.8,12.3,12.4,12.3z M12.4,22.8c-0.6,0-1.1-0.1-1.7-0.3
	c-0.3-0.1-0.5-0.2-0.8-0.4c-0.2-0.2-0.5-0.3-0.7-0.5c-0.4-0.4-0.7-0.9-1-1.4c-0.1-0.3-0.2-0.5-0.2-0.8c-0.1-0.6-0.1-1.1,0-1.7
	c0.1-0.3,0.1-0.6,0.2-0.8c0.1-0.3,0.2-0.5,0.4-0.8c0.3-0.5,0.7-0.9,1.2-1.2c0.2-0.2,0.5-0.3,0.8-0.4c0.3-0.1,0.5-0.2,0.8-0.2
	c0.6-0.1,1.1-0.1,1.7,0c0.3,0.1,0.6,0.1,0.8,0.2c0.8,0.3,1.5,0.9,2,1.6c0.2,0.2,0.3,0.5,0.4,0.8c0.1,0.3,0.2,0.5,0.2,0.8
	c0.1,0.3,0.1,0.6,0.1,0.9c0,0.3,0,0.6-0.1,0.9c-0.1,0.3-0.1,0.6-0.2,0.8c-0.1,0.3-0.2,0.5-0.4,0.8c-0.3,0.5-0.7,0.9-1.2,1.2
	c-0.2,0.2-0.5,0.3-0.8,0.4c-0.3,0.1-0.5,0.2-0.8,0.2C13,22.8,12.7,22.8,12.4,22.8z"/>
<path class="st0" d="M9.8,15.8h1.8v1.8H9.8V15.8z"/>
<path class="st0" d="M13.3,15.8h1.8v1.8h-1.8V15.8z"/>
<path class="st0" d="M12.4,18.4c-1.4,0-2.7,0.8-3.3,2.1L9,20.7l1.6,0.8l0.1-0.2c0.5-1,1.7-1.4,2.6-0.9c0.4,0.2,0.7,0.5,0.9,0.9
	l0.1,0.2l1.6-0.8l-0.1-0.2C15.1,19.2,13.9,18.4,12.4,18.4z"/>
<path class="st1" d="M36.2,18.4c0,0.4,0,0.8,0.1,1.2c0.1,0.4,0.2,0.8,0.3,1.2c0.2,0.4,0.3,0.7,0.6,1.1c0.2,0.3,0.5,0.6,0.8,0.9
	c0.3,0.3,0.6,0.5,0.9,0.8c0.3,0.2,0.7,0.4,1.1,0.6c1.5,0.6,3.2,0.6,4.7,0c0.4-0.2,0.7-0.3,1.1-0.6c0.3-0.2,0.6-0.5,0.9-0.8
	c0.3-0.3,0.5-0.6,0.8-0.9c1.1-1.7,1.4-3.9,0.6-5.8c-0.2-0.4-0.3-0.7-0.6-1.1c-0.2-0.3-0.5-0.6-0.8-0.9c-0.3-0.3-0.6-0.5-0.9-0.8
	c-0.3-0.2-0.7-0.4-1.1-0.6c-0.7-0.3-1.5-0.5-2.4-0.5c-0.4,0-0.8,0-1.2,0.1c-0.4,0.1-0.8,0.2-1.2,0.4c-0.7,0.3-1.4,0.8-2,1.3
	c-0.3,0.3-0.5,0.6-0.8,0.9c-0.2,0.3-0.4,0.7-0.6,1.1c-0.2,0.4-0.3,0.8-0.4,1.1C36.2,17.6,36.2,18,36.2,18.4z M46.7,18.4
	c0,0.3,0,0.6-0.1,0.9c-0.1,0.3-0.1,0.6-0.2,0.8c-0.4,1.1-1.3,1.9-2.4,2.4c-0.3,0.1-0.5,0.2-0.8,0.2c-0.6,0.1-1.1,0.1-1.7,0
	c-0.3-0.1-0.6-0.1-0.8-0.2c-1.1-0.4-1.9-1.3-2.4-2.4c-0.1-0.3-0.2-0.5-0.2-0.8c-0.1-0.6-0.1-1.1,0-1.7c0.1-0.3,0.1-0.6,0.2-0.8
	c0.2-0.5,0.5-1,0.9-1.4c0.2-0.2,0.4-0.4,0.7-0.5c0.5-0.3,1-0.5,1.6-0.7c0.3-0.1,0.6-0.1,0.9-0.1c0.3,0,0.6,0,0.9,0.1
	c0.3,0.1,0.6,0.1,0.8,0.2c0.3,0.1,0.5,0.2,0.8,0.4c0.2,0.2,0.5,0.3,0.7,0.5c0.2,0.2,0.4,0.4,0.5,0.7c0.2,0.2,0.3,0.5,0.4,0.8
	c0.1,0.3,0.2,0.5,0.2,0.8C46.7,17.8,46.7,18.1,46.7,18.4z"/>
<path class="st1" d="M39.7,15.8h1.8v1.8h-1.8V15.8z"/>
<path class="st1" d="M43.2,15.8h1.8v1.8h-1.8V15.8z"/>
<path class="st2" d="M44.1,19.1c-0.5,1-1.7,1.4-2.6,0.9c-0.4-0.2-0.7-0.5-0.9-0.9l-0.1-0.2l-1.6,0.8l0.1,0.2
	c0.3,0.6,0.8,1.1,1.4,1.5c1.7,1.1,4,0.5,5.1-1.2c0.1-0.1,0.1-0.2,0.2-0.3l0.1-0.2l-1.6-0.8L44.1,19.1z"/>
</svg>
