<?xml version="1.0" encoding="utf-8"?>
<!-- Generator: Adobe Illustrator 25.0.0, SVG Export Plug-In . SVG Version: 6.00 Build 0)  -->
<svg version="1.1" id="Layer_1" xmlns="http://www.w3.org/2000/svg" xmlns:xlink="http://www.w3.org/1999/xlink" x="0px" y="0px"
	 viewBox="0 0 42 40.5" style="enable-background:new 0 0 42 40.5;" xml:space="preserve">
<style type="text/css">
	.st0{fill:#D4145A;}
	.st1{fill:#23ADF0;}
</style>
<path class="st0" d="M19.7,9.3L21,9.6l0.3-1.5h3.1V6.7h-2.8l0.3-1.3h2.6V4.1h-2.3l0.2-1.2L21,2.6L20.7,4h-3.1v1.4h2.8l-0.3,1.3h-2.6
	v1.4h2.3L19.7,9.3z"/>
<path class="st1" d="M38.6,33.1L38.6,33.1c0.4-0.6,0.7-1.3,0.7-2c0-1.9-1.6-3.4-3.4-3.3c-1.8,0-3.3,1.5-3.3,3.3c0,0.7,0.2,1.4,0.7,2
	h0c-1.9,0-3.4,1.5-3.4,3.4v4h1.4v-4c0-1.1,0.9-2,2-2h5.4c1.1,0,2,0.9,2,2v4H42v-4C42,34.6,40.5,33.1,38.6,33.1z M33.9,31.1
	c0-1.1,0.9-2,2-2c1.1,0,2,0.9,2,2c0,1.1-0.9,2-2,2c0,0,0,0,0,0C34.8,33.1,33.9,32.2,33.9,31.1z"/>
<path class="st1" d="M31.8,36.5h1.4v4h-1.4V36.5z"/>
<path class="st1" d="M38.6,36.5H40v4h-1.4V36.5z"/>
<path class="st1" d="M1.4,36.5c0-1.1,0.9-2,2-2h5.4c1.1,0,2,0.9,2,2v4h1.4v-4c0-1.9-1.5-3.4-3.4-3.4h0c0.4-0.6,0.7-1.3,0.7-2
	c0-1.9-1.6-3.4-3.4-3.3c-1.8,0-3.3,1.5-3.3,3.3c0,0.7,0.3,1.4,0.7,2h0c-1.9,0-3.4,1.5-3.4,3.4c0,0,0,0,0,0v4h1.4L1.4,36.5z
	 M4.1,31.1c0-1.1,0.9-2,2-2c1.1,0,2,0.9,2,2c0,1.1-0.9,2-2,2c0,0,0,0,0,0C5,33.1,4.1,32.2,4.1,31.1C4.1,31.1,4.1,31.1,4.1,31.1
	L4.1,31.1z"/>
<path class="st1" d="M2,36.5h1.4v4H2V36.5z"/>
<path class="st1" d="M8.8,36.5h1.4v4H8.8V36.5z"/>
<path class="st1" d="M6.1,24.3c2.6,0,4.7-2.1,4.7-4.7c0-0.4-0.3-0.7-0.7-0.7c0,0,0,0,0,0H9.9l-3-7.6C7.5,11,7.9,10.6,8,10l7.3-1.6
	c0.9,2,2.8,3.5,4.9,3.7v17.6H19c-0.4,0-0.7,0.3-0.7,0.7c0,0,0,0,0,0v2c-0.3,0-0.5,0.1-0.6,0.4l-1.4,2.7c-0.1,0.2-0.1,0.5,0,0.7
	c0.1,0.2,0.3,0.3,0.6,0.3h8.1c0.2,0,0.5-0.1,0.6-0.3c0.1-0.2,0.1-0.4,0-0.7l-1.4-2.7c-0.1-0.2-0.4-0.4-0.6-0.4v-2
	c0-0.4-0.3-0.7-0.7-0.7c0,0,0,0,0,0h-1.4V12.1c3.1-0.3,5.4-2.9,5.4-6c0-0.1,0-0.2,0-0.2l7-1.5C34.3,4.7,34.6,5,35,5.2l-3,7.6h-0.2
	c-0.4,0-0.7,0.3-0.7,0.7c0,0,0,0,0,0c0,2.6,2.1,4.7,4.7,4.7c2.6,0,4.7-2.1,4.7-4.7c0-0.4-0.3-0.7-0.7-0.7c0,0,0,0,0,0h-0.2l-3-7.6
	c1-0.5,1.4-1.7,0.9-2.7c-0.5-1-1.7-1.4-2.7-0.9C34.4,1.8,34,2.4,33.9,3l-7,1.5c-0.9-3.2-4.3-5.2-7.5-4.3c-2.6,0.7-4.5,3.1-4.5,5.8
	c0,0.3,0,0.7,0.1,1L8,8.6c-0.4-1-1.6-1.5-2.7-1.1c-1,0.4-1.5,1.6-1.1,2.7c0.2,0.5,0.5,0.8,1,1l-2.9,7.6H2c-0.4,0-0.7,0.3-0.7,0.7
	c0,0,0,0,0,0C1.4,22.2,3.5,24.3,6.1,24.3z M24,35.1H18l0.7-1.4h4.6L24,35.1z M22.4,32.4h-2.7v-1.3h2.7V32.4z M35.9,16.9
	c-1.6,0-3-1.1-3.3-2.7h6.6C38.9,15.7,37.5,16.9,35.9,16.9z M33.5,12.8l2.4-6.2l2.4,6.2H33.5z M35.9,2.7c0.4,0,0.7,0.3,0.7,0.7
	c0,0.4-0.3,0.7-0.7,0.7c-0.3,0-0.5-0.2-0.6-0.4l-0.1-0.3C35.2,3,35.5,2.7,35.9,2.7z M21,1.4c2.6,0,4.7,2.1,4.7,4.7
	c0,2.6-2.1,4.7-4.7,4.7c-2.6,0-4.7-2.1-4.7-4.7C16.3,3.5,18.4,1.4,21,1.4z M6.1,23c-1.6,0-3-1.1-3.3-2.7h6.6C9.1,21.8,7.7,23,6.1,23
	L6.1,23z M6.1,8.8c0.4,0,0.7,0.3,0.7,0.7c0,0.4-0.3,0.7-0.7,0.7c-0.4,0-0.7-0.3-0.7-0.7C5.4,9.1,5.7,8.8,6.1,8.8
	C6.1,8.8,6.1,8.8,6.1,8.8L6.1,8.8z M6.1,12.7l2.4,6.2H3.7L6.1,12.7z"/>
</svg>
