<svg xmlns="http://www.w3.org/2000/svg" width="99.723" height="99.723"><defs><clipPath id="a"><path d="M38.9 145.5h99.723v99.723H38.9Zm0 0" data-name="Path 68"/></clipPath></defs><g data-name="Excel Skills"><path fill="#f2f6f8" d="M98.739 49.855a48.885 48.885 0 1 0-48.883 48.887 48.881 48.881 0 0 0 48.883-48.887" data-name="Path 66"/><g clip-path="url(#a)" data-name="Group 4" transform="translate(-38.902 -145.5)"><path fill="#29abe2" d="M88.758 147.445a47.912 47.912 0 1 0 47.91 47.91 47.968 47.968 0 0 0-47.91-47.91Zm0 97.77a49.859 49.859 0 1 1 35.254-14.606 49.531 49.531 0 0 1-35.254 14.606" data-name="Path 67"/></g><path fill="#fafcfd" d="M94.629 49.855a44.773 44.773 0 1 0-44.773 44.774 44.775 44.775 0 0 0 44.773-44.774" data-name="Path 69"/><path fill="#fff" d="M91.407 49.855A41.551 41.551 0 1 0 49.856 91.41a41.549 41.549 0 0 0 41.551-41.555" data-name="Path 70"/><path fill="#d4145a" d="M38.325 66.145h-2.618v-5.477h2.617Zm.391-7.422h-3.4a1.557 1.557 0 0 0-1.555 1.558v6.25a1.554 1.554 0 0 0 1.555 1.555h3.4a1.556 1.556 0 0 0 1.555-1.555v-6.25a1.559 1.559 0 0 0-1.555-1.558" data-name="Path 71"/><path fill="#d4145a" d="M46.887 66.145h-2.621v-12.9h2.621Zm.387-14.84h-3.4a1.558 1.558 0 0 0-1.555 1.554v13.672a1.556 1.556 0 0 0 1.555 1.555h3.4a1.554 1.554 0 0 0 1.555-1.555V52.859a1.556 1.556 0 0 0-1.555-1.554" data-name="Path 72"/><path fill="#d4145a" d="M55.446 66.145h-2.621v-9.473h2.621Zm.387-11.415h-3.395a1.558 1.558 0 0 0-1.558 1.555v10.246a1.557 1.557 0 0 0 1.558 1.555h3.395a1.557 1.557 0 0 0 1.559-1.555V56.285a1.558 1.558 0 0 0-1.559-1.555" data-name="Path 73"/><path fill="#d4145a" d="M64.004 66.145h-2.621V49.254h2.621Zm.391-18.832h-3.397a1.553 1.553 0 0 0-1.555 1.554v17.664a1.554 1.554 0 0 0 1.555 1.555h3.4a1.557 1.557 0 0 0 1.555-1.555V48.867a1.556 1.556 0 0 0-1.555-1.554" data-name="Path 74"/><path fill="#29abe2" d="M65.34 31.6H49.192a.973.973 0 1 0 0 1.945H65.34a.973.973 0 1 0 0-1.945" data-name="Path 75"/><path fill="#29abe2" d="M59.298 42.188a.973.973 0 0 0 0-1.946h-10.1a.973.973 0 0 0 0 1.946h10.1" data-name="Path 76"/><path fill="#29abe2" d="M35.34 33.547h8.426v6.7H35.34Zm9.4 8.641a.973.973 0 0 0 .973-.973v-8.641a.972.972 0 0 0-.973-.972H34.368a.972.972 0 0 0-.973.972v8.641a.973.973 0 0 0 .973.973h10.371" data-name="Path 77"/><path fill="#29abe2" d="M65.34 35.922H49.192a.973.973 0 1 0 0 1.945H65.34a.973.973 0 1 0 0-1.945" data-name="Path 78"/><path fill="#29abe2" d="M64.977 70.922H34.735a.971.971 0 1 0 0 1.941h30.242a.971.971 0 1 0 0-1.941" data-name="Path 79"/><path fill="#29abe2" d="m74.172 46.684-.074 30.179a3.887 3.887 0 0 1-3.82 3.129H29.434a3.9 3.9 0 0 1-3.895-3.894V23.617a3.9 3.9 0 0 1 3.895-3.9h12.43V24.8a.972.972 0 0 0 .969.973h14.042a.973.973 0 0 0 .973-.973v-5.078h12.43a3.9 3.9 0 0 1 3.894 3.9ZM43.805 19.719h12.093v4.105h-12.1Zm26.473-1.942H29.434a5.846 5.846 0 0 0-5.84 5.84V76.1a5.849 5.849 0 0 0 5.84 5.84h40.844a5.831 5.831 0 0 0 5.75-4.813 1.14 1.14 0 0 0 .015-.168l.075-30.269V23.617a5.847 5.847 0 0 0-5.84-5.84" data-name="Path 80"/></g></svg>