<svg width="60" height="60" viewBox="0 0 60 60" fill="none" xmlns="http://www.w3.org/2000/svg">
<path opacity="0.35" d="M52.3922 17.5692L29.5691 4.39231C25.3675 1.9665 19.9949 3.40608 17.5691 7.6077L4.39219 30.4308C1.96638 34.6324 3.40596 40.005 7.60758 42.4308L30.4307 55.6077C34.6323 58.0336 40.0049 56.594 42.4307 52.3924L55.6076 29.5692C58.0334 25.3676 56.5939 19.995 52.3922 17.5692Z" fill="white"/>
<path opacity="0.35" d="M55.6078 30.4308L42.4309 7.6077C40.0051 3.40608 34.6325 1.9665 30.4309 4.39231L7.60776 17.5692C3.40615 19.995 1.96657 25.3676 4.39237 29.5692L17.5693 52.3924C19.9951 56.594 25.3677 58.0336 29.5693 55.6077L52.3924 42.4308C56.594 40.005 58.0336 34.6324 55.6078 30.4308Z" fill="white"/>
<path opacity="0.35" d="M43.177 8.03857H16.8232C11.9716 8.03857 8.03857 11.9716 8.03857 16.8232V43.177C8.03857 48.0287 11.9716 51.9617 16.8232 51.9617H43.177C48.0287 51.9617 51.9617 48.0287 51.9617 43.177V16.8232C51.9617 11.9716 48.0287 8.03857 43.177 8.03857Z" fill="white"/>
<path d="M35.2621 14.2754V32.2452H33.4437V14.2754H31.6253V32.2452H27.9885V14.2754H26.17V32.2452H24.3516V14.2754H22.5332V45.5838H24.3516V37.7005H26.17V45.5838H27.9885V37.7005H31.6253V45.5838H33.4437V35.882H24.3516V34.0636H35.2621V45.5838H37.0805V14.2754H35.2621Z" fill="#6E6E6E"/>
</svg>
