<?xml version="1.0" encoding="utf-8"?>
<!-- Generator: Adobe Illustrator 25.0.0, SVG Export Plug-In . SVG Version: 6.00 Build 0)  -->
<svg version="1.1" id="Layer_1" xmlns="http://www.w3.org/2000/svg" xmlns:xlink="http://www.w3.org/1999/xlink" x="0px" y="0px"
	 viewBox="0 0 40.5 42" style="enable-background:new 0 0 40.5 42;" xml:space="preserve">
<style type="text/css">
	.st0{fill:#D4145A;}
	.st1{fill:#23ADF0;}
</style>
<path class="st0" d="M23.2,21.2c-0.1-1.2-1-2.2-2.1-2.5v-3.2c0-0.5-0.4-0.9-0.8-0.9c-0.5,0-0.9,0.4-0.9,0.8v3.3
	c-1.6,0.5-2.5,2.2-2,3.8c0.2,0.7,0.7,1.3,1.2,1.7l-4,3.8c-0.3,0.3-0.4,0.9,0,1.2c0.2,0.2,0.4,0.3,0.6,0.3c0.2,0,0.4-0.1,0.6-0.2
	l4.8-4.5C22.3,24.4,23.4,22.9,23.2,21.2z M20.3,22.9c-0.7,0-1.3-0.6-1.3-1.3v0c0-0.7,0.6-1.3,1.3-1.3c0.7,0,1.3,0.6,1.3,1.3
	C21.6,22.3,21,22.9,20.3,22.9z"/>
<path class="st1" d="M5.9,9.8c-0.5,0.6-1,1.3-1.4,2c-0.1,0.2-0.4,0.4-0.7,0.4c-0.2,0-0.3,0-0.5-0.1c-0.4-0.2-0.5-0.8-0.3-1.2
	c0.5-0.8,1-1.5,1.6-2.2c0.3-0.4,0.8-0.4,1.2-0.1c0,0,0,0,0,0C6.2,8.9,6.2,9.4,5.9,9.8z"/>
<path class="st1" d="M3.3,13.9c-0.3,0.8-0.6,1.5-0.9,2.3c-0.1,0.4-0.4,0.6-0.8,0.6c-0.1,0-0.2,0-0.2,0c-0.5-0.1-0.7-0.6-0.6-1.1v0
	c0.2-0.8,0.6-1.7,0.9-2.5c0.2-0.4,0.7-0.6,1.1-0.4c0,0,0,0,0,0C3.3,13,3.5,13.5,3.3,13.9z"/>
<path class="st1" d="M40.5,21.6v0.1c0,0.1,0,0.1,0,0.2c0,0.3,0,0.7,0,1l0,0.4c0,0.3,0,0.6-0.1,0.9c0,0.1,0,0.1,0,0.2l0,0
	c-0.1,0.8-0.3,1.7-0.5,2.5c0,0,0,0,0,0.1c0,0.1-0.1,0.2-0.1,0.3c-0.1,0.2-0.1,0.5-0.2,0.7c0,0.2-0.1,0.3-0.2,0.5
	c-0.1,0.2-0.2,0.4-0.2,0.6c-0.1,0.1-0.1,0.3-0.2,0.5c0,0,0,0,0,0c-0.3,0.8-0.7,1.5-1.1,2.2c0,0,0,0.1-0.1,0.1
	c-0.5,0.8-1,1.5-1.5,2.2c0,0-0.1,0.1-0.1,0.1c-0.5,0.6-1,1.2-1.6,1.8c0,0,0,0.1-0.1,0.1c-0.2,0.2-0.3,0.3-0.5,0.5
	c-0.5,0.5-1,0.9-1.5,1.3c0,0,0,0-0.1,0c-0.7,0.5-1.3,0.9-2,1.3c0,0-0.1,0.1-0.1,0.1c-0.6,0.3-1.2,0.6-1.7,0.9
	c-0.1,0-0.3,0.1-0.4,0.2c-0.1,0-0.2,0.1-0.3,0.1c0,0-0.1,0-0.1,0c-0.8,0.3-1.6,0.6-2.4,0.8c0,0,0,0,0,0c-0.1,0-0.2,0-0.2,0
	c-0.3,0.1-0.6,0.1-0.9,0.2l-0.4,0.1c-0.3,0-0.6,0.1-0.9,0.1c-0.1,0-0.1,0-0.2,0c0,0,0,0-0.1,0c-0.8,0.1-1.5,0.1-2.2,0.1h-0.3
	c-0.1,0-0.2,0-0.2,0c-0.3,0-0.6,0-0.9,0c-0.5,0-1-0.1-1.4-0.2l-0.1,0c0,0,0,0,0,0c-0.8-0.1-1.7-0.3-2.5-0.6c0,0,0,0,0,0
	c-0.1,0-0.1,0-0.2-0.1c-0.2-0.1-0.5-0.1-0.7-0.2c-0.3-0.1-0.6-0.2-0.8-0.3c-0.2-0.1-0.4-0.1-0.5-0.2c-0.1,0-0.1-0.1-0.2-0.1
	c0,0-0.1,0-0.1-0.1c-0.8-0.3-1.5-0.7-2.2-1.1c0,0,0,0-0.1,0c-0.6-0.3-1.1-0.7-1.6-1.1c0,0,0,0,0,0c-0.2-0.1-0.4-0.3-0.5-0.4
	c0,0-0.1-0.1-0.1-0.1c-0.6-0.5-1.2-1-1.8-1.6c0,0-0.1-0.1-0.1-0.1c-0.1-0.1-0.2-0.2-0.3-0.4l0-0.1c-0.5-0.5-0.9-1.1-1.3-1.6
	c0-0.1-0.1-0.1-0.1-0.1c-0.5-0.7-0.9-1.4-1.3-2.1c0,0,0,0,0-0.1c-0.1-0.3-0.3-0.5-0.4-0.8c0,0,0-0.1-0.1-0.1
	c-0.1-0.2-0.2-0.4-0.3-0.7c-0.1-0.1-0.1-0.3-0.2-0.4c-0.1-0.1-0.1-0.3-0.2-0.4c0,0,0-0.1,0-0.1C1,28,0.8,27.2,0.6,26.4
	c0,0,0,0,0-0.1c0-0.1,0-0.2,0-0.2c-0.1-0.3-0.1-0.6-0.2-0.9l-0.1-0.3c-0.1-0.4-0.1-0.8-0.2-1.2C0,23,0,22.3,0,21.6
	c0-0.1,0-0.2,0-0.3c0-0.1,0-0.2,0-0.3c0-0.9,0.1-1.8,0.2-2.7c0.1-0.5,0.5-0.8,1-0.7c0.5,0.1,0.8,0.5,0.7,1c-0.1,0.8-0.2,1.6-0.2,2.5
	c0,0.1,0,0.2,0,0.3c0,0.1,0,0.2,0,0.3c0,0.6,0,1.3,0.1,1.9C1.9,24.3,2,25,2.2,25.7c0.2,1,0.5,2,0.9,2.9L3.2,29
	c0.1,0.2,0.2,0.4,0.3,0.6c0,0,0,0,0,0c0.8,1.6,1.8,3.1,2.9,4.4c0,0,0,0,0,0c0.8,0.9,1.7,1.7,2.6,2.4c0,0,0,0,0,0
	c1.2,0.9,2.5,1.6,3.8,2.2c0.1,0,0.2,0.1,0.3,0.1c0.3,0.1,0.6,0.2,0.9,0.4l0.6,0.2c0.9,0.3,1.8,0.5,2.7,0.6c0.3,0,0.6,0.1,1,0.1
	c0.1,0,0.2,0,0.3,0c0.3,0,0.5,0,0.8,0c0.2,0,0.4,0,0.5,0c0.8,0,1.6,0,2.3-0.1c0.3,0,0.5-0.1,0.8-0.1c0.1,0,0.2,0,0.3-0.1
	c0.3,0,0.5-0.1,0.8-0.2c1-0.2,1.9-0.5,2.8-0.9c0.1,0,0.2-0.1,0.3-0.1c1.8-0.8,3.5-1.9,5-3.2l0.1-0.1c2.1-1.9,3.7-4.3,4.7-6.9
	c0.1-0.2,0.1-0.3,0.2-0.5c0.1-0.4,0.2-0.7,0.4-1.1c0.3-0.9,0.5-1.9,0.6-2.8c0-0.3,0.1-0.6,0.1-0.8c0-0.1,0-0.2,0-0.3
	c0-0.3,0-0.6,0-0.9c0-0.1,0-0.2,0-0.3c0-0.8,0-1.6-0.2-2.4c0-0.3-0.1-0.7-0.2-1c0-0.1,0-0.2-0.1-0.3c0-0.3-0.1-0.5-0.2-0.8
	c-0.2-1-0.6-2-1-3c-0.1-0.2-0.1-0.3-0.2-0.5c-0.1-0.2-0.2-0.3-0.2-0.5c-0.1-0.1-0.1-0.3-0.2-0.4c-0.5-0.9-1.1-1.8-1.7-2.6
	c-0.2-0.2-0.3-0.4-0.5-0.6c-0.1-0.1-0.1-0.1-0.2-0.2c-0.2-0.3-0.5-0.5-0.7-0.8c-2.4-2.5-5.5-4.2-8.9-5l-0.2,1.7l-4.1-3l4.7-2.1
	l-0.2,1.7c3.7,0.8,7.1,2.7,9.8,5.4c0,0,0,0,0,0l0,0c0.3,0.3,0.5,0.6,0.8,0.9c0.1,0.1,0.1,0.2,0.2,0.2C35.8,8.6,36,8.8,36.2,9
	c0.1,0.1,0.1,0.2,0.2,0.2c0,0,0,0,0,0c0.5,0.7,1,1.4,1.4,2.1c0,0,0,0,0,0c0.1,0.2,0.2,0.3,0.2,0.4c0.1,0.2,0.2,0.3,0.2,0.5
	c0.1,0.2,0.2,0.4,0.3,0.5s0.2,0.4,0.3,0.6c0,0.1,0.1,0.2,0.2,0.4c0,0,0,0.1,0,0.1c0.3,0.8,0.6,1.6,0.8,2.4c0,0,0,0,0,0
	c0,0.1,0,0.2,0,0.2c0.1,0.4,0.2,0.8,0.3,1.2c0.1,0.4,0.1,0.8,0.2,1.1c0,0,0,0,0,0.1v0C40.5,19.9,40.5,20.7,40.5,21.6z"/>
<path class="st1" d="M20.4,6.8c-8.2,0-14.9,6.6-14.9,14.8v0.1c0,8.2,6.6,14.8,14.8,14.8c8.2,0,14.8-6.6,14.9-14.8
	C35.2,13.5,28.6,6.8,20.4,6.8z M21.1,34.7v-1.2c0-0.5-0.4-0.9-0.8-0.9c-0.5,0-0.9,0.4-0.9,0.8v1.2C12.9,34.2,7.7,29,7.2,22.5h1.2
	c0.5,0,0.9-0.4,0.9-0.9c0-0.5-0.4-0.9-0.9-0.9H7.2C7.7,14.2,12.9,9,19.4,8.5v1.2c0,0.5,0.3,0.9,0.8,0.9c0.5,0,0.9-0.4,0.9-0.8V8.5
	c6.5,0.5,11.7,5.7,12.2,12.2h-1.2c-0.5,0-0.9,0.4-0.9,0.9c0,0.5,0.4,0.9,0.9,0.9h1.2C32.8,29,27.7,34.2,21.1,34.7z"/>
</svg>
