<svg xmlns="http://www.w3.org/2000/svg" width="99.727" height="99.723"><defs><clipPath id="a"><path d="M194.5 145.5h99.727v99.723H194.5Zm0 0" data-name="Path 95"/></clipPath></defs><g data-name="Simulation Traits"><path fill="#f2f6f8" d="M98.742 49.855a48.884 48.884 0 1 0-48.883 48.887 48.884 48.884 0 0 0 48.883-48.887" data-name="Path 93"/><g clip-path="url(#a)" data-name="Group 6" transform="translate(-194.5 -145.5)"><path fill="#29abe2" d="M244.359 147.445a47.912 47.912 0 1 0 47.911 47.91 47.966 47.966 0 0 0-47.911-47.91Zm0 97.77a49.861 49.861 0 1 1 35.254-14.606 49.52 49.52 0 0 1-35.254 14.606" data-name="Path 94"/></g><path fill="#fafcfd" d="M94.633 49.855a44.773 44.773 0 1 0-44.774 44.774 44.775 44.775 0 0 0 44.774-44.774" data-name="Path 96"/><path fill="#fff" d="M91.41 49.855A41.553 41.553 0 1 0 49.859 91.41 41.551 41.551 0 0 0 91.41 49.855" data-name="Path 97"/><path fill="#d4145a" d="M49.984 76.477a.972.972 0 0 0-1.269-.524l-1.84.762-1.789-3.524a1.753 1.753 0 0 0-1.7-.953 11.1 11.1 0 0 1-1.61 0 1.76 1.76 0 0 0-1.695.949l-1.789 3.524-3.879-1.61 1.227-3.75a1.757 1.757 0 0 0-.528-1.871 11.534 11.534 0 0 1-1.136-1.14 1.749 1.749 0 0 0-1.872-.531l-3.757 1.226-1.606-3.879 3.524-1.789a1.743 1.743 0 0 0 .949-1.7 11.679 11.679 0 0 1 0-1.609 1.753 1.753 0 0 0-.949-1.7l-3.52-1.785 1.606-3.883 3.754 1.227a1.753 1.753 0 0 0 1.871-.524 11.117 11.117 0 0 1 1.14-1.136 1.763 1.763 0 0 0 .532-1.875l-1.231-3.754 3.879-1.61 1.789 3.528a1.75 1.75 0 0 0 1.7.945 11.689 11.689 0 0 1 1.61 0 1.748 1.748 0 0 0 1.695-.953l1.789-3.52 1.7.7a.973.973 0 1 0 .742-1.8l-1.867-.774a1.755 1.755 0 0 0-2.226.824l-1.809 3.567a13.871 13.871 0 0 0-1.656 0l-1.813-3.571a1.755 1.755 0 0 0-2.226-.824L33.5 44.91a1.747 1.747 0 0 0-.988 2.153l1.242 3.808a12.669 12.669 0 0 0-1.172 1.168l-3.805-1.242a1.755 1.755 0 0 0-2.156.988l-1.746 4.223a1.751 1.751 0 0 0 .824 2.222l3.567 1.813a12.71 12.71 0 0 0 0 1.656l-3.571 1.809a1.755 1.755 0 0 0-.824 2.226l1.746 4.219a1.754 1.754 0 0 0 2.156.992l3.809-1.242a12.668 12.668 0 0 0 1.168 1.172l-1.242 3.8a1.751 1.751 0 0 0 .988 2.156l4.219 1.75a1.714 1.714 0 0 0 .664.129 1.751 1.751 0 0 0 1.562-.953l1.809-3.567a13.656 13.656 0 0 0 1.656 0l1.813 3.57a1.754 1.754 0 0 0 2.226.824l2.008-.832a.975.975 0 0 0 .527-1.273" data-name="Path 98"/><path fill="#d4145a" d="M46.883 62.652a4.655 4.655 0 0 1-8.6 0 4.653 4.653 0 1 1 8.6 0Zm1.8-4.3a6.59 6.59 0 1 0-6.094 9.125 6.6 6.6 0 0 0 6.094-9.129" data-name="Path 99"/><path fill="#29abe2" d="M60.863 18.941a5.483 5.483 0 1 1-5.484 5.485 5.488 5.488 0 0 1 5.484-5.485Zm0 12.911a7.426 7.426 0 1 0-7.425-7.426 7.435 7.435 0 0 0 7.425 7.426" data-name="Path 100"/><path fill="#29abe2" d="M72.789 56.023a1.713 1.713 0 0 1-1.605 1.907 1.881 1.881 0 0 1-1.848-1.875V41.777a.973.973 0 0 0-1.945 0v35.3a1.922 1.922 0 0 1-1.813 2.137 2.107 2.107 0 0 1-2.078-2.136V61.3a2.64 2.64 0 1 0-5.281 0v15.781a2.107 2.107 0 0 1-2.071 2.137 1.921 1.921 0 0 1-1.812-2.137V45.113a7.841 7.841 0 0 0-2.316-5.578L41.215 28.727A1.712 1.712 0 0 1 41 26.246a1.8 1.8 0 0 1 1.309-.531 1.956 1.956 0 0 1 1.347.57l8.059 8.063a5.116 5.116 0 0 0 3.637 1.5h12.41a5.031 5.031 0 0 1 5.027 5.027Zm-5.027-22.117h-12.41a3.179 3.179 0 0 1-2.262-.933l-8.059-8.063a3.832 3.832 0 0 0-5.406-.039 3.628 3.628 0 0 0 .215 5.234L50.645 40.91a5.907 5.907 0 0 1 1.746 4.2v31.965a3.841 3.841 0 0 0 3.757 4.082 4.054 4.054 0 0 0 4.016-4.082V61.3a.7.7 0 0 1 1.395 0v15.781a4.057 4.057 0 0 0 4.019 4.082 3.841 3.841 0 0 0 3.758-4.082V59.387a3.754 3.754 0 0 0 1.848.488 3.629 3.629 0 0 0 3.55-3.852V40.879a6.982 6.982 0 0 0-6.972-6.973" data-name="Path 101"/><path fill="#29abe2" d="m29.332 33.449-.684.684a.973.973 0 0 0 .688 1.66.987.987 0 0 0 .687-.285l.684-.684a.972.972 0 0 0-1.375-1.375" data-name="Path 102"/><path fill="#29abe2" d="m33.02 29.762-.684.683a.972.972 0 1 0 1.375 1.375l.684-.683a.972.972 0 0 0-1.375-1.375" data-name="Path 103"/><path fill="#29abe2" d="M33.711 33.449a.972.972 0 0 0-1.375 1.375l.684.684a.972.972 0 0 0 1.375-1.375l-.684-.684" data-name="Path 104"/><path fill="#29abe2" d="M30.023 29.762a.972.972 0 0 0-1.375 1.375l.684.683a.972.972 0 0 0 1.375-1.375l-.684-.683" data-name="Path 105"/><path fill="#29abe2" d="M23.531 40.813a.972.972 0 0 0-1.375 1.375l.188.187A.972.972 0 0 0 23.719 41l-.188-.187" data-name="Path 106"/><path fill="#29abe2" d="M26.219 43.5a.974.974 0 0 0-1.379 1.375l.191.188a.977.977 0 0 0 .688.285.987.987 0 0 0 .687-.285.974.974 0 0 0 0-1.375l-.187-.188" data-name="Path 107"/><path fill="#29abe2" d="m22.344 43.5-.188.188a.974.974 0 0 0 0 1.375.992.992 0 0 0 .688.285.973.973 0 0 0 .687-.285l.188-.188a.972.972 0 0 0-1.375-1.375" data-name="Path 108"/><path fill="#29abe2" d="M25.031 40.813 24.84 41a.974.974 0 0 0 1.379 1.375l.187-.187a.972.972 0 0 0-1.375-1.375" data-name="Path 109"/></g></svg>