<svg xmlns="http://www.w3.org/2000/svg" width="456.4" height="428.665" viewBox="0 0 456.4 428.665">
  <g id="_4270179" data-name="4270179" transform="translate(-21.8 -44.335)">
    <g id="Floor">
      <ellipse id="Ellipse_10" data-name="Ellipse 10" cx="228.2" cy="135.4" rx="228.2" ry="135.4" transform="translate(21.8 202.2)" fill="#f5f5f5"/>
    </g>
    <g id="Shadows">
      <path id="Path_37" data-name="Path 37" d="M341.1,250.9l-9.3-5.4a8.144,8.144,0,0,0-8,0L112.6,367.4a2.918,2.918,0,0,0,0,5.1l9.3,5.4a8.144,8.144,0,0,0,8,0l54.6-32,33.9,19.5a6.872,6.872,0,0,0,6.8,0l58.7-33.8a2.068,2.068,0,0,0,0-3.6l-34.3-19.7L341,256A2.884,2.884,0,0,0,341.1,250.9Z" fill="#e0e0e0"/>
      <ellipse id="Ellipse_11" data-name="Ellipse 11" cx="46.4" cy="25.2" rx="46.4" ry="25.2" transform="translate(276.6 378.5)" fill="#e0e0e0"/>
    </g>
    <g id="Clouds">
      <g id="Group_34" data-name="Group 34">
        <path id="Path_38" data-name="Path 38" d="M160.4,75.9l-7.6,4.4v-6c0-3.5-2.9-4.7-6.3-2.7l-.3.2a14.41,14.41,0,0,0-4,3.8c-.2-5.9-5.1-7.9-11.2-4.4l-.5.3c-6.2,3.6-11.2,11.5-11.2,17.7V99.7l-7,4c-3,1.7-5.4,5.5-5.4,8.5s2.4,4,5.4,2.3l9.3-5.4h0l18.2-10.5h0l20.5-11.8c3-1.7,5.4-5.5,5.4-8.5C165.8,75.3,163.3,74.2,160.4,75.9Z" fill="#e6e6e6"/>
        <path id="Path_39" data-name="Path 39" d="M109.2,66.9l-5.1,3V65.8c0-2.4-1.9-3.2-4.3-1.8h-.3a8.343,8.343,0,0,0-2.7,2.6c-.1-4-3.5-5.3-7.6-3l-.3.2c-4.2,2.4-7.6,7.8-7.6,12V83l-4.7,2.7c-2,1.2-3.7,3.8-3.7,5.8s1.6,2.7,3.7,1.5l6.3-3.6h0l12.4-7.1h0l13.9-8c2-1.2,3.7-3.8,3.7-5.8C112.8,66.4,111.2,65.7,109.2,66.9Z" fill="#e6e6e6"/>
      </g>
    </g>
    <g id="Plant">
      <g id="Group_38" data-name="Group 38">
        <g id="Group_36" data-name="Group 36">
          <path id="Path_40" data-name="Path 40" d="M420.3,275.3l2.5,1.1.9.4,2.1.9s.4-14,4.8-24.3,12.2-19.9,13.6-25.7-3.1-8-3.1-8c-9.3-3.6-18.4,10-20.9,21.3C417.8,252.4,420.3,275.3,420.3,275.3Z" fill="#29abe2"/>
          <path id="Path_41" data-name="Path 41" d="M420.3,275.3l2.5,1.1.9.4,2.1.9s.4-14,4.8-24.3,12.2-19.9,13.6-25.7-3.1-8-3.1-8c-9.3-3.6-18.4,10-20.9,21.3C417.8,252.4,420.3,275.3,420.3,275.3Z" opacity="0.4"/>
          <g id="Group_35" data-name="Group 35">
            <path id="Path_42" data-name="Path 42" d="M422.8,276.5l.9.4c-2-39.3,15.4-53.3,15.6-53.4a.482.482,0,0,0,.1-.6.471.471,0,0,0-.6-.1C438.6,222.9,421,236.9,422.8,276.5Z" fill="#fff"/>
          </g>
        </g>
        <g id="Group_37" data-name="Group 37">
          <path id="Path_43" data-name="Path 43" d="M421.2,271.2c-.2,3.6,3.7,10.1,3.7,10.1l6.7,4.7.9.6,9.8,6.9a8.882,8.882,0,0,0,7.4-5c2.6-5-1.2-10.4-.1-13.9s7.7-4.5,7.4-8.5-6.9-8.5-5.9-12.1,3.3-5,4-8a3.792,3.792,0,0,0-3-4.9c-2.2-.4-5.1.1-8,2.9-2.9,2.7-4,4.6-7.2,5.4s-6.6.3-8.4,3c-1.7,2.7.3,8.2-1.5,10.4C425.3,265.1,421.4,267.6,421.2,271.2Z" fill="#29abe2"/>
          <path id="Path_44" data-name="Path 44" d="M431.6,286l.9.6a77.195,77.195,0,0,1,4.2-20.1c5.6-1.7,13.1-1,13.2-1a.453.453,0,1,0,.1-.9c-.3,0-7.3-.6-12.9.8,5.2-14,12.7-20.9,12.8-21,.2-.2.2-.5,0-.6a.483.483,0,0,0-.7,0c-.1.1-8,7.4-13.3,22.1a.367.367,0,0,0-.1.3A85.9,85.9,0,0,0,431.6,286Z" fill="#fff"/>
        </g>
      </g>
    </g>
    <g id="Device">
      <g id="Group_81" data-name="Group 81">
        <g id="Group_39" data-name="Group 39">
          <path id="Path_45" data-name="Path 45" d="M284.4,317.3s0,2.9-2,4.1l-57.9,33a5.658,5.658,0,0,1-2.5.8,6.406,6.406,0,0,1-3.8-.8l-26.7-15.3a3.337,3.337,0,0,1-1.6-3.2l2.8-19.4,4.3,2.6,61-33-1,9.9a11.236,11.236,0,0,0,5.7,11l1.2.7L279,316a7.346,7.346,0,0,0-.2-.8l3.5-3C282.4,312.3,284.4,313.3,284.4,317.3Z" fill="#263238"/>
          <path id="Path_46" data-name="Path 46" d="M284.4,317.3s0,2.9-2,4.1l-57.9,33a5.658,5.658,0,0,1-2.5.8v-7.8l6.2-16.3s27.2-18,35.7-23.4L279,316a7.346,7.346,0,0,0-.2-.8l3.5-3C282.4,312.3,284.4,313.3,284.4,317.3Z" fill="#455a64"/>
          <path id="Path_47" data-name="Path 47" d="M282.4,315.7l-57.1,32.6a6.237,6.237,0,0,1-6.2,0L197,335.8a2.7,2.7,0,0,1-.8-.7,2.88,2.88,0,0,1-.7-2.5l2.8-19.2,60.1-32.5-1.1,9.8a10.878,10.878,0,0,0,2.2,7.8,12.244,12.244,0,0,0,3.4,3l19.4,10.7A2.02,2.02,0,0,1,282.4,315.7Z" fill="#37474f"/>
          <path id="Path_48" data-name="Path 48" d="M259.5,298.5l-63.3,36.6a2.88,2.88,0,0,1-.7-2.5l2.8-19.2,60.1-32.5-1.1,9.8A11.746,11.746,0,0,0,259.5,298.5Z" fill="#263238"/>
          <path id="Path_49" data-name="Path 49" d="M342.5,52.8c0,.6-6.6,4.1-9.9,5.9V225.8a5.727,5.727,0,0,1-3,5.1L117.9,354.3l1.6,11c-2.6,1.1-6.4-.1-8.3-1.2a8.282,8.282,0,0,1-4.2-6.3V177.5a5.876,5.876,0,0,1,1.3-3.6,4.428,4.428,0,0,1,1.5-1.2L329.2,45a1.1,1.1,0,0,1,.4-.2.349.349,0,0,0,.2-.1,9.237,9.237,0,0,1,8.1,1.5C342.6,49.3,342.5,52,342.5,52.8Z" fill="#263238"/>
          <path id="Path_50" data-name="Path 50" d="M342.5,52.8c0,.6-6.6,4.1-9.9,5.9V72L127.4,185.1l-19-11.2a4.428,4.428,0,0,1,1.5-1.2L329.2,45a1.1,1.1,0,0,1,.4-.2.349.349,0,0,0,.2-.1,9.237,9.237,0,0,1,8.1,1.5C342.6,49.3,342.5,52,342.5,52.8Z" fill="#455a64"/>
          <path id="Path_51" data-name="Path 51" d="M342.5,53V232a6,6,0,0,1-3,5.2l-220,128.1a1.693,1.693,0,0,1-2.5-1.4V183.6a5.589,5.589,0,0,1,2.8-4.8L339.1,51.1A2.247,2.247,0,0,1,342.5,53Z" fill="#37474f"/>
          <path id="Path_52" data-name="Path 52" d="M331.5,63a2.063,2.063,0,0,1,3.1,1.8V219.1a5.386,5.386,0,0,1-2.8,4.8L127.2,343a1.516,1.516,0,0,1-2.3-1.3V186.2a5.249,5.249,0,0,1,2.6-4.5" fill="#fff"/>
          <path id="Path_53" data-name="Path 53" d="M239.9,289.9l-21.6,12.6a2.247,2.247,0,0,1-3.4-1.9h0a6.3,6.3,0,0,1,3.1-5.4l20.1-11.7a2.738,2.738,0,0,1,4.1,2.4h0A4.518,4.518,0,0,1,239.9,289.9Z" fill="#ebebeb"/>
        </g>
        <g id="Group_80" data-name="Group 80">
          <g id="Group_69" data-name="Group 69">
            <g id="Group_53" data-name="Group 53">
              <g id="Group_40" data-name="Group 40">
                <path id="Path_54" data-name="Path 54" d="M232.9,157.8l-1.3.7c-.4.2-.8.2-.9-.2a9.854,9.854,0,0,0-2.4-4.4,1.072,1.072,0,0,1,.1-1.2l.9-1.4c.4-.6.4-1.3,0-1.5l-3.7-1.6c-.4-.2-1.1.2-1.5.9l-.9,1.4a1.565,1.565,0,0,1-1.1.8,15.52,15.52,0,0,0-5.8.9c-.4.1-.7,0-.7-.5v-1.3c0-.6-.5-.8-1.1-.4l-5.2,3a2.173,2.173,0,0,0-1.1,1.7V156a1.889,1.889,0,0,1-.7,1.3,44.572,44.572,0,0,0-5.8,5.7c-.4.4-.8.7-1.1.5l-.9-.4c-.4-.2-1.1.2-1.5.9l-3.7,5.8c-.4.6-.4,1.3,0,1.5l1.1.6a.8.8,0,0,1-.1.8,34.978,34.978,0,0,0-2.4,7.1,1.863,1.863,0,0,1-.9,1.2l-1.3.7a2.173,2.173,0,0,0-1.1,1.7v5.2c0,.6.5.8,1.1.4l1.3-.7c.4-.2.8-.2.9.2a9.854,9.854,0,0,0,2.4,4.4,1.072,1.072,0,0,1-.1,1.2l-.9,1.4c-.4.6-.4,1.3,0,1.5l5.4,3.1,1.5-3.1a3.962,3.962,0,0,0,.2-1.5h.1a15.52,15.52,0,0,0,5.8-.9c.4-.1.7,0,.7.5v1.3c0,.6.5.8,1.1.4l5.2-3a2.173,2.173,0,0,0,1.1-1.7V191a1.889,1.889,0,0,1,.7-1.3,44.572,44.572,0,0,0,5.8-5.7c.4-.4.8-.7,1.1-.5l.9.4c.4.2,1.1-.2,1.5-.9l3.7-5.8c.4-.6.4-1.3,0-1.5l-.9-.4c-.3-.1-.3-.6-.1-1.1a34.978,34.978,0,0,0,2.4-7.1,1.863,1.863,0,0,1,.9-1.2l1.3-.7a2.173,2.173,0,0,0,1.1-1.7v-5.2C234,157.7,233.5,157.5,232.9,157.8Zm-9.7,10.6c-.6,5.5-4.7,12-9.9,15.5-6.7,4.6-12.4,2.6-12.4-3.9,0-6.2,5-14,11.2-17.6C218.7,158.5,223.9,161.2,223.2,168.4Z" fill="#29abe2"/>
              </g>
              <g id="Group_41" data-name="Group 41">
                <path id="Path_55" data-name="Path 55" d="M232.9,157.8l-1.3.7c-.4.2-.8.2-.9-.2a9.854,9.854,0,0,0-2.4-4.4,1.072,1.072,0,0,1,.1-1.2l.9-1.4c.4-.7.4-1.3,0-1.5l-3.7-1.5c-.4-.2-1.1.2-1.5.9l-.9,1.4a1.565,1.565,0,0,1-1.1.8,16.949,16.949,0,0,0-3.8.4,8.929,8.929,0,0,0-2,.6c-.4.1-.7,0-.7-.5v-1.3a.6.6,0,0,0-.3-.6.878.878,0,0,0-.7.1l-5.2,3a2.173,2.173,0,0,0-1.1,1.7v1.3a1.889,1.889,0,0,1-.7,1.3,44.572,44.572,0,0,0-5.8,5.7c-.4.4-.8.7-1.1.5l-.9-.4c-.4-.2-1.1.2-1.5.9l-3.7,5.8c-.4.7-.4,1.3,0,1.5l1.1.6a1.185,1.185,0,0,1-.1.8,34.978,34.978,0,0,0-2.4,7.1,1.863,1.863,0,0,1-.9,1.2l-1.3.7a2.173,2.173,0,0,0-1.1,1.7v5.2c0,.6.5.8,1.1.4l1.3-.7c.4-.2.8-.2.9.2a9.854,9.854,0,0,0,2.4,4.4,1.072,1.072,0,0,1-.1,1.2l-.9,1.4c-.4.7-.4,1.3,0,1.5l5.4,3.1,1.5-3.1a3.962,3.962,0,0,0,.2-1.5h.1a15.817,15.817,0,0,0,5.8-.9c.4-.2.7,0,.7.5v1.3c0,.6.5.8,1.1.4l5.2-3a2.173,2.173,0,0,0,1.1-1.7V191a1.889,1.889,0,0,1,.7-1.3,44.572,44.572,0,0,0,5.8-5.7c.4-.4.8-.7,1.1-.5l.9.4c.4.2,1.1-.2,1.5-.9l3.7-5.8c.4-.7.4-1.3,0-1.5l-.9-.4c-.3-.1-.3-.6-.1-1.1a34.978,34.978,0,0,0,2.4-7.1,1.863,1.863,0,0,1,.9-1.2l1.3-.7a2.062,2.062,0,0,0,1-1.7v-5.2C234,157.7,233.5,157.5,232.9,157.8Zm-9.7,10.6c-.6,5.5-4.7,12-9.9,15.5-6.7,4.6-12.4,2.6-12.4-4,0-6.2,5-14,11.2-17.6C218.7,158.5,223.9,161.2,223.2,168.4Z" fill="#29abe2"/>
              </g>
              <g id="Group_42" data-name="Group 42">
                <path id="Path_56" data-name="Path 56" d="M238.9,160.8l-5.2-3.1-.1,3.1s2.5,2.2,2.8,2.3h1.3Z" fill="#29abe2"/>
              </g>
              <g id="Group_43" data-name="Group 43">
                <path id="Path_57" data-name="Path 57" d="M208.7,197l5.3,3.1.3-2.9-2.8-.4Z" fill="#29abe2"/>
              </g>
              <g id="Group_44" data-name="Group 44" opacity="0.2">
                <path id="Path_58" data-name="Path 58" d="M232.9,157.8l-1.3.7c-.4.2-.8.2-.9-.2a9.854,9.854,0,0,0-2.4-4.4,1.072,1.072,0,0,1,.1-1.2l.9-1.4c.4-.6.4-1.3,0-1.5l-3.7-1.6c-.4-.2-1.1.2-1.5.9l-.9,1.4a1.565,1.565,0,0,1-1.1.8,15.52,15.52,0,0,0-5.8.9c-.4.1-.7,0-.7-.5v-1.3c0-.6-.5-.8-1.1-.4l-5.2,3a2.173,2.173,0,0,0-1.1,1.7V156a1.889,1.889,0,0,1-.7,1.3,44.572,44.572,0,0,0-5.8,5.7c-.4.4-.8.7-1.1.5l-.9-.4c-.4-.2-1.1.2-1.5.9l-3.7,5.8c-.4.6-.4,1.3,0,1.5l1.1.6a.8.8,0,0,1-.1.8,34.978,34.978,0,0,0-2.4,7.1,1.863,1.863,0,0,1-.9,1.2l-1.3.7a2.173,2.173,0,0,0-1.1,1.7v5.2c0,.6.5.8,1.1.4l1.3-.7c.4-.2.8-.2.9.2a9.854,9.854,0,0,0,2.4,4.4,1.072,1.072,0,0,1-.1,1.2l-.9,1.4c-.4.6-.4,1.3,0,1.5l5.4,3.1,1.5-3.1a3.962,3.962,0,0,0,.2-1.5h.1a15.52,15.52,0,0,0,5.8-.9c.4-.1.7,0,.7.5v1.3c0,.6.5.8,1.1.4l5.2-3a2.173,2.173,0,0,0,1.1-1.7V191a1.889,1.889,0,0,1,.7-1.3,44.572,44.572,0,0,0,5.8-5.7c.4-.4.8-.7,1.1-.5l.9.4c.4.2,1.1-.2,1.5-.9l3.7-5.8c.4-.6.4-1.3,0-1.5l-.9-.4c-.3-.1-.3-.6-.1-1.1a34.978,34.978,0,0,0,2.4-7.1,1.863,1.863,0,0,1,.9-1.2l1.3-.7a2.173,2.173,0,0,0,1.1-1.7v-5.2C234,157.7,233.5,157.5,232.9,157.8Zm-9.7,10.6c-.6,5.5-4.7,12-9.9,15.5-6.7,4.6-12.4,2.6-12.4-3.9,0-6.2,5-14,11.2-17.6C218.7,158.5,223.9,161.2,223.2,168.4Z"/>
              </g>
              <g id="Group_45" data-name="Group 45" opacity="0.2">
                <path id="Path_59" data-name="Path 59" d="M232.9,157.8l-1.3.7c-.4.2-.8.2-.9-.2a9.854,9.854,0,0,0-2.4-4.4,1.072,1.072,0,0,1,.1-1.2l.9-1.4c.4-.7.4-1.3,0-1.5l-3.7-1.5c-.4-.2-1.1.2-1.5.9l-.9,1.4a1.565,1.565,0,0,1-1.1.8,16.949,16.949,0,0,0-3.8.4,8.929,8.929,0,0,0-2,.6c-.4.1-.7,0-.7-.5v-1.3a.6.6,0,0,0-.3-.6.878.878,0,0,0-.7.1l-5.2,3a2.173,2.173,0,0,0-1.1,1.7v1.3a1.889,1.889,0,0,1-.7,1.3,44.572,44.572,0,0,0-5.8,5.7c-.4.4-.8.7-1.1.5l-.9-.4c-.4-.2-1.1.2-1.5.9l-3.7,5.8c-.4.7-.4,1.3,0,1.5l1.1.6a1.185,1.185,0,0,1-.1.8,34.978,34.978,0,0,0-2.4,7.1,1.863,1.863,0,0,1-.9,1.2l-1.3.7a2.173,2.173,0,0,0-1.1,1.7v5.2c0,.6.5.8,1.1.4l1.3-.7c.4-.2.8-.2.9.2a9.854,9.854,0,0,0,2.4,4.4,1.072,1.072,0,0,1-.1,1.2l-.9,1.4c-.4.7-.4,1.3,0,1.5l5.4,3.1,1.5-3.1a3.962,3.962,0,0,0,.2-1.5h.1a15.817,15.817,0,0,0,5.8-.9c.4-.2.7,0,.7.5v1.3c0,.6.5.8,1.1.4l5.2-3a2.173,2.173,0,0,0,1.1-1.7V191a1.889,1.889,0,0,1,.7-1.3,44.572,44.572,0,0,0,5.8-5.7c.4-.4.8-.7,1.1-.5l.9.4c.4.2,1.1-.2,1.5-.9l3.7-5.8c.4-.7.4-1.3,0-1.5l-.9-.4c-.3-.1-.3-.6-.1-1.1a34.978,34.978,0,0,0,2.4-7.1,1.863,1.863,0,0,1,.9-1.2l1.3-.7a2.062,2.062,0,0,0,1-1.7v-5.2C234,157.7,233.5,157.5,232.9,157.8Zm-9.7,10.6c-.6,5.5-4.7,12-9.9,15.5-6.7,4.6-12.4,2.6-12.4-4,0-6.2,5-14,11.2-17.6C218.7,158.5,223.9,161.2,223.2,168.4Z"/>
              </g>
              <g id="Group_46" data-name="Group 46" opacity="0.2">
                <path id="Path_60" data-name="Path 60" d="M208.7,197l5.3,3.1.3-2.9-2.8-.4Z"/>
              </g>
              <g id="Group_47" data-name="Group 47">
                <path id="Path_61" data-name="Path 61" d="M196.6,192.3l1.3-.7c.4-.2.8-.2.9.2a9.854,9.854,0,0,0,2.4,4.4,1.072,1.072,0,0,1-.1,1.2l-.9,1.4c-.4.6-.4,1.3,0,1.5l3.7,1.6c.4.2,1.1-.2,1.5-.9l.9-1.4a1.565,1.565,0,0,1,1.1-.8,15.52,15.52,0,0,0,5.8-.9c.4-.1.7,0,.7.5v1.3c0,.6.5.8,1.1.4l5.2-3a2.173,2.173,0,0,0,1.1-1.7v-1.3a1.889,1.889,0,0,1,.7-1.3,44.572,44.572,0,0,0,5.8-5.7c.4-.4.8-.7,1.1-.5l.9.4c.4.2,1.1-.2,1.5-.9l3.7-5.8c.4-.6.4-1.3,0-1.5l-.9-.4c-.3-.1-.3-.6-.1-1.1a34.978,34.978,0,0,0,2.4-7.1,1.863,1.863,0,0,1,.9-1.2l1.3-.7a2.173,2.173,0,0,0,1.1-1.7v-5.2c0-.6-.5-.8-1.1-.4l-1.3.7c-.4.2-.8.2-.9-.2a9.854,9.854,0,0,0-2.4-4.4,1.072,1.072,0,0,1,.1-1.2l.9-1.4c.4-.6.4-1.3,0-1.5l-3.7-1.6c-.4-.2-1.1.2-1.5.9l-.9,1.4a1.565,1.565,0,0,1-1.1.8,15.52,15.52,0,0,0-5.8.9c-.4.1-.7,0-.7-.5v-1.3c0-.6-.5-.8-1.1-.4l-5.2,3a2.173,2.173,0,0,0-1.1,1.7v1.3a1.889,1.889,0,0,1-.7,1.3,44.572,44.572,0,0,0-5.8,5.7c-.4.4-.8.7-1.1.5l-.9-.4c-.4-.2-1.1.2-1.5.9l-3.7,5.8c-.4.6-.4,1.3,0,1.5l.9.4c.3.1.3.6.1,1.1a34.978,34.978,0,0,0-2.4,7.1,1.863,1.863,0,0,1-.9,1.2l-1.3.7a2.173,2.173,0,0,0-1.1,1.7v5.2C195.5,192.4,196,192.6,196.6,192.3Zm9.7-9.3c0-6.2,5-14,11.2-17.6,6.6-3.8,11.9-1.1,11.1,6.1-.6,5.5-4.7,12-9.9,15.5C212,191.6,206.3,189.6,206.3,183Z" fill="#29abe2"/>
              </g>
              <g id="Group_48" data-name="Group 48">
                <path id="Path_62" data-name="Path 62" d="M195.5,191.9a.764.764,0,0,0,.2.5l-1-.6-4.2-2.5h-.1a.1.1,0,0,1-.1-.1c-.1-.1-.1-.2-.1-.4v-5.2a2.078,2.078,0,0,1,.5-1.2l5.4,3.1a2.078,2.078,0,0,0-.5,1.2v5.2Z" fill="#29abe2"/>
              </g>
              <g id="Group_49" data-name="Group 49">
                <path id="Path_63" data-name="Path 63" d="M220.8,153.1c-.2-.1-.4,0-.7.1l-5.2,3a2.336,2.336,0,0,0-.7.7l-5.4-3.1a2.336,2.336,0,0,1,.7-.7l5.2-3c.3-.2.6-.2.7-.1l.1.1,2.9,1.7Z" fill="#29abe2"/>
              </g>
              <g id="Group_50" data-name="Group 50">
                <path id="Path_64" data-name="Path 64" d="M207.3,166.1h0c-.4.5-.9.7-1.1.5l-.9-.4-5.4-3.1.9.4a1.14,1.14,0,0,0,1.1-.5Z" fill="#29abe2"/>
              </g>
              <g id="Group_51" data-name="Group 51">
                <path id="Path_65" data-name="Path 65" d="M231.1,151.4c-.4-.2-1.1.2-1.5.9l-.9,1.4-.3.3a1.2,1.2,0,0,1-.8.4h0l-5.4-3.1a1.4,1.4,0,0,0,1.1-.8l.9-1.4a1.577,1.577,0,0,1,1.5-.9Z" fill="#29abe2"/>
              </g>
              <g id="Group_52" data-name="Group 52">
                <path id="Path_66" data-name="Path 66" d="M229.5,149.9l5.3,3.1-3.7-1.6-5.4-3.1Z" fill="#29abe2"/>
              </g>
            </g>
            <g id="Group_67" data-name="Group 67">
              <g id="Group_54" data-name="Group 54">
                <path id="Path_67" data-name="Path 67" d="M260.8,179.8l-.9.5a.43.43,0,0,1-.7-.2,7.536,7.536,0,0,0-1.7-3.2c-.2-.2-.1-.5.1-.9l.6-1c.3-.5.3-1,0-1.1l-2.7-1.1c-.3-.1-.8.2-1.1.6l-.6,1a1.072,1.072,0,0,1-.8.6,10.888,10.888,0,0,0-4.2.7c-.3.1-.5,0-.5-.3v-.9c0-.4-.3-.6-.8-.3l-3.8,2.2a1.644,1.644,0,0,0-.8,1.2v.9a1.591,1.591,0,0,1-.5,1,27.79,27.79,0,0,0-4.2,4.2c-.3.3-.6.5-.8.4l-.6-.3c-.3-.1-.8.2-1.1.6l-2.7,4.2c-.3.5-.3,1,0,1.1l.8.5a.661.661,0,0,1-.1.6A21.072,21.072,0,0,0,232,196a1.5,1.5,0,0,1-.7.9l-.9.5a1.644,1.644,0,0,0-.8,1.2v3.8c0,.4.3.6.8.3l.9-.5a.43.43,0,0,1,.7.2,7.536,7.536,0,0,0,1.7,3.2c.2.2.1.5-.1.9l-.7,1c-.3.5-.3,1,0,1.1l3.9,2.3,1.1-2.3a5.433,5.433,0,0,0,.2-1.1h0a10.888,10.888,0,0,0,4.2-.7c.3-.1.5,0,.5.3v.9c0,.4.3.6.8.3l3.8-2.2a1.644,1.644,0,0,0,.8-1.2V204a1.591,1.591,0,0,1,.5-1,27.79,27.79,0,0,0,4.2-4.2c.3-.3.6-.5.8-.4l.7.3c.3.1.8-.2,1.1-.6l2.7-4.2c.3-.5.3-1,0-1.1l-.7-.3c-.2-.1-.3-.4-.1-.8a21.074,21.074,0,0,0,1.7-5.2,1.5,1.5,0,0,1,.7-.9l.9-.5a1.644,1.644,0,0,0,.8-1.2v-3.8C261.6,179.7,261.2,179.5,260.8,179.8Zm-7.1,7.7c-.4,4-3.5,8.8-7.2,11.3-4.9,3.4-9.1,1.9-9.1-2.9,0-4.5,3.7-10.3,8.2-12.9C250.4,180.3,254.2,182.3,253.7,187.5Z" fill="#29abe2"/>
              </g>
              <g id="Group_55" data-name="Group 55">
                <path id="Path_68" data-name="Path 68" d="M260.8,179.8l-.9.5a.43.43,0,0,1-.7-.2,6.588,6.588,0,0,0-1.7-3.2c-.2-.2-.1-.5.1-.9l.6-1c.3-.5.3-1,0-1.1l-2.7-1.1c-.3-.1-.8.2-1.1.6l-.6,1a1.072,1.072,0,0,1-.8.6,14.066,14.066,0,0,0-2.8.3,5.733,5.733,0,0,0-1.4.4c-.3.1-.5,0-.5-.3v-.9c0-.2-.1-.4-.2-.4-.1-.1-.3,0-.5.1l-3.8,2.2a1.644,1.644,0,0,0-.8,1.2v.9a1.591,1.591,0,0,1-.5,1,27.79,27.79,0,0,0-4.2,4.2c-.3.3-.6.5-.8.4l-.6-.3c-.3-.1-.8.2-1.1.6l-2.7,4.2c-.3.5-.3,1,0,1.1l.8.5a.661.661,0,0,1-.1.6,21.072,21.072,0,0,0-1.7,5.2,1.5,1.5,0,0,1-.7.9l-.9.5a1.644,1.644,0,0,0-.8,1.2v3.8c0,.4.3.6.8.3l.9-.5a.43.43,0,0,1,.7.2,6.588,6.588,0,0,0,1.7,3.2c.2.2.1.5-.1.9l-.6,1c-.3.5-.3,1,0,1.1l3.9,2.3,1.1-2.3a5.433,5.433,0,0,0,.2-1.1h.1a10.888,10.888,0,0,0,4.2-.7c.3-.1.5,0,.5.3v.9c0,.4.3.6.8.3l3.8-2.2a1.644,1.644,0,0,0,.8-1.2V204a1.591,1.591,0,0,1,.5-1,27.79,27.79,0,0,0,4.2-4.2c.3-.3.6-.5.8-.4l.7.3c.3.1.8-.2,1.1-.6l2.7-4.2c.3-.5.3-1,0-1.1l-.6-.3c-.2-.1-.3-.4-.1-.8a21.074,21.074,0,0,0,1.7-5.2,1.5,1.5,0,0,1,.7-.9l.9-.5a1.644,1.644,0,0,0,.8-1.2v-3.8C261.6,179.7,261.2,179.5,260.8,179.8Zm-7.1,7.7c-.4,4-3.5,8.8-7.2,11.3-4.9,3.4-9.1,1.9-9.1-2.9,0-4.5,3.7-10.3,8.2-12.9C250.4,180.3,254.2,182.3,253.7,187.5Z" fill="#29abe2"/>
              </g>
              <g id="Group_56" data-name="Group 56">
                <path id="Path_69" data-name="Path 69" d="M265.2,181.9l-3.8-2.2-.1,2.2s1.8,1.6,2,1.7h1Z" fill="#29abe2"/>
              </g>
              <g id="Group_57" data-name="Group 57">
                <path id="Path_70" data-name="Path 70" d="M243.1,208.4l3.9,2.3.2-2.2-2.1-.2Z" fill="#29abe2"/>
              </g>
              <g id="Group_58" data-name="Group 58" opacity="0.2">
                <path id="Path_71" data-name="Path 71" d="M260.8,179.8l-.9.5a.43.43,0,0,1-.7-.2,7.536,7.536,0,0,0-1.7-3.2c-.2-.2-.1-.5.1-.9l.6-1c.3-.5.3-1,0-1.1l-2.7-1.1c-.3-.1-.8.2-1.1.6l-.6,1a1.072,1.072,0,0,1-.8.6,10.888,10.888,0,0,0-4.2.7c-.3.1-.5,0-.5-.3v-.9c0-.4-.3-.6-.8-.3l-3.8,2.2a1.644,1.644,0,0,0-.8,1.2v.9a1.591,1.591,0,0,1-.5,1,27.79,27.79,0,0,0-4.2,4.2c-.3.3-.6.5-.8.4l-.6-.3c-.3-.1-.8.2-1.1.6l-2.7,4.2c-.3.5-.3,1,0,1.1l.8.5a.661.661,0,0,1-.1.6A21.072,21.072,0,0,0,232,196a1.5,1.5,0,0,1-.7.9l-.9.5a1.644,1.644,0,0,0-.8,1.2v3.8c0,.4.3.6.8.3l.9-.5a.43.43,0,0,1,.7.2,7.536,7.536,0,0,0,1.7,3.2c.2.2.1.5-.1.9l-.7,1c-.3.5-.3,1,0,1.1l3.9,2.3,1.1-2.3a5.433,5.433,0,0,0,.2-1.1h0a10.888,10.888,0,0,0,4.2-.7c.3-.1.5,0,.5.3v.9c0,.4.3.6.8.3l3.8-2.2a1.644,1.644,0,0,0,.8-1.2V204a1.591,1.591,0,0,1,.5-1,27.79,27.79,0,0,0,4.2-4.2c.3-.3.6-.5.8-.4l.7.3c.3.1.8-.2,1.1-.6l2.7-4.2c.3-.5.3-1,0-1.1l-.7-.3c-.2-.1-.3-.4-.1-.8a21.074,21.074,0,0,0,1.7-5.2,1.5,1.5,0,0,1,.7-.9l.9-.5a1.644,1.644,0,0,0,.8-1.2v-3.8C261.6,179.7,261.2,179.5,260.8,179.8Zm-7.1,7.7c-.4,4-3.5,8.8-7.2,11.3-4.9,3.4-9.1,1.9-9.1-2.9,0-4.5,3.7-10.3,8.2-12.9C250.4,180.3,254.2,182.3,253.7,187.5Z"/>
              </g>
              <g id="Group_59" data-name="Group 59" opacity="0.2">
                <path id="Path_72" data-name="Path 72" d="M260.8,179.8l-.9.5a.43.43,0,0,1-.7-.2,6.588,6.588,0,0,0-1.7-3.2c-.2-.2-.1-.5.1-.9l.6-1c.3-.5.3-1,0-1.1l-2.7-1.1c-.3-.1-.8.2-1.1.6l-.6,1a1.072,1.072,0,0,1-.8.6,14.066,14.066,0,0,0-2.8.3,5.733,5.733,0,0,0-1.4.4c-.3.1-.5,0-.5-.3v-.9c0-.2-.1-.4-.2-.4-.1-.1-.3,0-.5.1l-3.8,2.2a1.644,1.644,0,0,0-.8,1.2v.9a1.591,1.591,0,0,1-.5,1,27.79,27.79,0,0,0-4.2,4.2c-.3.3-.6.5-.8.4l-.6-.3c-.3-.1-.8.2-1.1.6l-2.7,4.2c-.3.5-.3,1,0,1.1l.8.5a.661.661,0,0,1-.1.6,21.072,21.072,0,0,0-1.7,5.2,1.5,1.5,0,0,1-.7.9l-.9.5a1.644,1.644,0,0,0-.8,1.2v3.8c0,.4.3.6.8.3l.9-.5a.43.43,0,0,1,.7.2,6.588,6.588,0,0,0,1.7,3.2c.2.2.1.5-.1.9l-.6,1c-.3.5-.3,1,0,1.1l3.9,2.3,1.1-2.3a5.433,5.433,0,0,0,.2-1.1h.1a10.888,10.888,0,0,0,4.2-.7c.3-.1.5,0,.5.3v.9c0,.4.3.6.8.3l3.8-2.2a1.644,1.644,0,0,0,.8-1.2V204a1.591,1.591,0,0,1,.5-1,27.79,27.79,0,0,0,4.2-4.2c.3-.3.6-.5.8-.4l.7.3c.3.1.8-.2,1.1-.6l2.7-4.2c.3-.5.3-1,0-1.1l-.6-.3c-.2-.1-.3-.4-.1-.8a21.074,21.074,0,0,0,1.7-5.2,1.5,1.5,0,0,1,.7-.9l.9-.5a1.644,1.644,0,0,0,.8-1.2v-3.8C261.6,179.7,261.2,179.5,260.8,179.8Zm-7.1,7.7c-.4,4-3.5,8.8-7.2,11.3-4.9,3.4-9.1,1.9-9.1-2.9,0-4.5,3.7-10.3,8.2-12.9C250.4,180.3,254.2,182.3,253.7,187.5Z"/>
              </g>
              <g id="Group_60" data-name="Group 60" opacity="0.2">
                <path id="Path_73" data-name="Path 73" d="M243.1,208.4l3.9,2.3.2-2.2-2.1-.2Z"/>
              </g>
              <g id="Group_61" data-name="Group 61">
                <path id="Path_74" data-name="Path 74" d="M234.2,205l.9-.5a.43.43,0,0,1,.7.2,7.536,7.536,0,0,0,1.7,3.2c.2.2.1.5-.1.9l-.7,1c-.3.5-.3,1,0,1.1l2.7,1.1c.3.1.8-.2,1.1-.6l.7-1a1.072,1.072,0,0,1,.8-.6,10.888,10.888,0,0,0,4.2-.7c.3-.1.5,0,.5.3v.9c0,.4.3.6.8.3l3.8-2.2a1.644,1.644,0,0,0,.8-1.2v-.9a1.591,1.591,0,0,1,.5-1,27.79,27.79,0,0,0,4.2-4.2c.3-.3.6-.5.8-.4l.7.3c.3.1.8-.2,1.1-.6l2.7-4.2c.3-.5.3-1,0-1.1l-.7-.3c-.2-.1-.3-.4-.1-.8a21.074,21.074,0,0,0,1.7-5.2,1.5,1.5,0,0,1,.7-.9l.9-.5a1.644,1.644,0,0,0,.8-1.2v-3.8c0-.4-.3-.6-.8-.3l-.9.5a.43.43,0,0,1-.7-.2,7.536,7.536,0,0,0-1.7-3.2c-.2-.2-.1-.5.1-.9l.7-1c.3-.5.3-1,0-1.1l-2.7-1.1c-.3-.1-.8.2-1.1.6l-.6,1a1.072,1.072,0,0,1-.8.6,10.888,10.888,0,0,0-4.2.7c-.3.1-.5,0-.5-.3v-.9c0-.4-.3-.6-.8-.3l-3.8,2.2a1.644,1.644,0,0,0-.8,1.2v.9a1.591,1.591,0,0,1-.5,1,27.79,27.79,0,0,0-4.2,4.2c-.3.3-.6.5-.8.4l-.6-.3c-.3-.1-.8.2-1.1.6l-2.7,4.2c-.3.5-.3,1,0,1.1l.7.3c.2.1.3.4.1.8a21.072,21.072,0,0,0-1.7,5.2,1.5,1.5,0,0,1-.7.9l-.9.5a1.644,1.644,0,0,0-.8,1.2v3.8C233.5,205.1,233.8,205.2,234.2,205Zm7.1-6.8c0-4.5,3.7-10.3,8.2-12.9,4.8-2.8,8.7-.8,8.1,4.5-.4,4-3.5,8.8-7.2,11.3C245.5,204.5,241.3,203,241.3,198.2Z" fill="#29abe2"/>
              </g>
              <g id="Group_62" data-name="Group 62">
                <path id="Path_75" data-name="Path 75" d="M233.5,204.7a.52.52,0,0,0,.2.4l-.8-.4-3.1-1.8h-.1l-.1-.1a.367.367,0,0,1-.1-.3v-3.8a1.8,1.8,0,0,1,.4-.9l3.9,2.3a1.8,1.8,0,0,0-.4.9v3.7Z" fill="#29abe2"/>
              </g>
              <g id="Group_63" data-name="Group 63">
                <path id="Path_76" data-name="Path 76" d="M251.9,176.3c-.1-.1-.3,0-.5.1l-3.8,2.2a1.205,1.205,0,0,0-.5.5l-3.9-2.3a1.205,1.205,0,0,1,.5-.5l3.8-2.2a1.087,1.087,0,0,1,.5-.1l.1.1,2.1,1.2Z" fill="#29abe2"/>
              </g>
              <g id="Group_64" data-name="Group 64">
                <path id="Path_77" data-name="Path 77" d="M242.1,185.8c0,.1-.1.1,0,0-.3.3-.6.5-.8.4l-.7-.3-3.9-2.3.6.3c.2.1.6-.1.8-.4Z" fill="#29abe2"/>
              </g>
              <g id="Group_65" data-name="Group 65">
                <path id="Path_78" data-name="Path 78" d="M259.5,175.1c-.3-.1-.8.2-1.1.6l-.7,1c-.1.1-.1.2-.2.3a.864.864,0,0,1-.6.3h0L253,175a.938.938,0,0,0,.8-.6l.6-1c.3-.5.8-.8,1.1-.6Z" fill="#29abe2"/>
              </g>
              <g id="Group_66" data-name="Group 66">
                <path id="Path_79" data-name="Path 79" d="M258.3,174l3.9,2.2-2.7-1.1-4-2.3Z" fill="#29abe2"/>
              </g>
            </g>
            <g id="Group_68" data-name="Group 68">
              <path id="Path_80" data-name="Path 80" d="M207.7,233.1a.367.367,0,0,1-.3-.1l-2.2-.9a.781.781,0,0,1-.4-.4,1.3,1.3,0,0,1,.2-1l.5-.8a.774.774,0,0,0,.1-.3,6.142,6.142,0,0,1-1.5-2.6h0l-.7.4a.8.8,0,0,1-.8.1.6.6,0,0,1-.3-.6v-3.1a1.561,1.561,0,0,1,.8-1.3l.7-.4a1,1,0,0,0,.4-.5,26.828,26.828,0,0,1,1.4-4.3c0-.1,0-.1.1-.2l-.5-.2a.781.781,0,0,1-.4-.4,1.3,1.3,0,0,1,.2-1l2.2-3.4a1.127,1.127,0,0,1,1.3-.6l.5.2a1.237,1.237,0,0,1,.3-.2,22.45,22.45,0,0,1,3.5-3.4.683.683,0,0,0,.3-.5v-.7a1.561,1.561,0,0,1,.8-1.3l3.1-1.8a.8.8,0,0,1,.8-.1.6.6,0,0,1,.3.6v.7a11.693,11.693,0,0,1,3.5-.6c.1,0,.2-.1.4-.3l.5-.8a1.127,1.127,0,0,1,1.3-.6l2.2.9a.781.781,0,0,1,.4.4,1.3,1.3,0,0,1-.2,1l-.5.8a.774.774,0,0,0-.1.3,6.142,6.142,0,0,1,1.5,2.6h0l.7-.4a.8.8,0,0,1,.8-.1.6.6,0,0,1,.3.6v3.1a1.561,1.561,0,0,1-.8,1.3l-.7.4a1,1,0,0,0-.4.5,26.828,26.828,0,0,1-1.4,4.3.31.31,0,0,0-.1.2l.5.2a.781.781,0,0,1,.4.4,1.3,1.3,0,0,1-.2,1l-2.2,3.4a1.127,1.127,0,0,1-1.3.6l-.5-.2a1.237,1.237,0,0,1-.3.2,22.45,22.45,0,0,1-3.5,3.4.683.683,0,0,0-.3.5v.8a1.561,1.561,0,0,1-.8,1.3l-3.1,1.8a.8.8,0,0,1-.8.1.6.6,0,0,1-.3-.6v-.7a11.693,11.693,0,0,1-3.5.6h0c-.1,0-.2.1-.4.3l-.5.8A1.1,1.1,0,0,1,207.7,233.1Zm-3.3-6.8h.2a.781.781,0,0,1,.4.4,5.534,5.534,0,0,0,1.3,2.4c.3.3.2.7,0,1.2l-.5.8a1,1,0,0,0-.1.4l2.1.9c.1,0,.3-.1.4-.4l.5-.8a.95.95,0,0,1,1-.6,10.194,10.194,0,0,0,3.3-.5c.2-.1.5-.1.6.1a.6.6,0,0,1,.3.6v.7h.1l3.1-1.8c.3-.1.4-.5.4-.7v-.8a1.1,1.1,0,0,1,.6-1,35.142,35.142,0,0,0,3.4-3.3c.3-.4.8-.6,1.1-.4l.5.2c.1,0,.3-.1.4-.4l2.2-3.4a1,1,0,0,0,.1-.4l-.5-.2c-.1-.1-.3-.2-.3-.3a.8.8,0,0,1,.1-.8,24.886,24.886,0,0,0,1.4-4.1,1.834,1.834,0,0,1,.7-1l.7-.4c.3-.1.4-.5.4-.7v-3.1h-.1l-.7.4a.878.878,0,0,1-.7.1.781.781,0,0,1-.4-.4,5.534,5.534,0,0,0-1.3-2.4c-.3-.3-.2-.7,0-1.2l.5-.8a1,1,0,0,0,.1-.4l-2.1-.9h0c-.1,0-.3.1-.4.4l-.5.8a1.1,1.1,0,0,1-1,.6h0a10.194,10.194,0,0,0-3.3.5c-.2.1-.5.1-.6-.1a.6.6,0,0,1-.3-.6v-.7h-.1l-3.1,1.8c-.3.1-.4.5-.4.7v.7a1.1,1.1,0,0,1-.6,1,35.142,35.142,0,0,0-3.4,3.3c-.3.4-.8.6-1.1.4l-.5-.2a.683.683,0,0,0-.4.4l-2.2,3.4a1,1,0,0,0-.1.4l.5.2c.1.1.3.2.3.3a.8.8,0,0,1-.1.8,24.886,24.886,0,0,0-1.4,4.1,1.834,1.834,0,0,1-.7,1l-.7.4c-.3.1-.4.5-.4.7v3.1h.1l.7-.4Zm8-.5a3.922,3.922,0,0,1-1.8-.4,4.011,4.011,0,0,1-1.9-3.8c0-3.8,3-8.6,6.8-10.7,2.1-1.2,4.1-1.4,5.5-.5,1.2.8,1.8,2.4,1.6,4.5a14.725,14.725,0,0,1-6,9.4A7.961,7.961,0,0,1,212.4,225.8Zm6.6-15.2a5.912,5.912,0,0,0-3.1,1c-3.5,2-6.4,6.6-6.4,10.1a3.185,3.185,0,0,0,1.5,3.1c1.3.7,3.3.3,5.3-1.1a14.292,14.292,0,0,0,5.7-8.9c.2-1.8-.3-3.1-1.3-3.8A3.533,3.533,0,0,0,219,210.6Z" fill="#29abe2"/>
            </g>
          </g>
          <g id="Group_79" data-name="Group 79">
            <g id="Group_70" data-name="Group 70">
              <path id="Path_81" data-name="Path 81" d="M173.2,292.5a5.656,5.656,0,0,1-2.8-.8,5.43,5.43,0,0,1-2.8-4.9,10.878,10.878,0,0,1,5.4-9.4l114.4-65.9a5.6,5.6,0,0,1,5.6,0,5.43,5.43,0,0,1,2.8,4.9,10.878,10.878,0,0,1-5.4,9.4L176,291.8A5.547,5.547,0,0,1,173.2,292.5Zm117-80.6a4.645,4.645,0,0,0-2.3.6L173.5,278.4a9.828,9.828,0,0,0-4.9,8.5,4.6,4.6,0,0,0,6.9,4L289.9,225a9.828,9.828,0,0,0,4.9-8.5,4.7,4.7,0,0,0-2.3-4A4.645,4.645,0,0,0,290.2,211.9Z" fill="#29abe2"/>
            </g>
            <g id="Group_71" data-name="Group 71">
              <path id="Path_82" data-name="Path 82" d="M245.1,238.9v10.2L175.7,289a3.511,3.511,0,0,1-5.3-3,5.986,5.986,0,0,1,1-3.5,6.506,6.506,0,0,1,2.6-2.6Z" fill="#29abe2"/>
            </g>
            <g id="Group_78" data-name="Group 78">
              <g id="Group_72" data-name="Group 72">
                <path id="Path_83" data-name="Path 83" d="M206.8,252.1c-.7-.3-1-1.1-1-2.3v-5l1.3-.7V249c0,1.9.8,2.3,2.5,1.4a5.162,5.162,0,0,0,1.8-1.8,4.871,4.871,0,0,0,.6-2.5v-4.9l1.2-.7v5a6.2,6.2,0,0,1-1,3.5,9.579,9.579,0,0,1-2.7,2.6A3.182,3.182,0,0,1,206.8,252.1Z" fill="#29abe2"/>
              </g>
              <g id="Group_73" data-name="Group 73">
                <path id="Path_84" data-name="Path 84" d="M222,236.3c.7.2,1,.7,1,1.7a4.378,4.378,0,0,1-1,2.8,9.1,9.1,0,0,1-2.7,2.4l-2.2,1.3v2.7l-1.3.7V239l3.4-2A3.72,3.72,0,0,1,222,236.3Zm-.9,4.2a3.226,3.226,0,0,0,.6-1.8c0-.6-.2-1-.6-1.1a3.046,3.046,0,0,0-1.8.5l-2.1,1.2v3.9l2.1-1.2A5.353,5.353,0,0,0,221.1,240.5Z" fill="#29abe2"/>
              </g>
              <g id="Group_74" data-name="Group 74">
                <path id="Path_85" data-name="Path 85" d="M224.8,233.8l3.7-2.1a7.62,7.62,0,0,1,2.5-.9,2,2,0,0,1,1.7.6,2.707,2.707,0,0,1,.6,1.9,6.159,6.159,0,0,1-.6,2.6,10.453,10.453,0,0,1-4.2,4.5l-3.7,2.1Zm3.6,5.6a8.96,8.96,0,0,0,1.9-1.5,5.537,5.537,0,0,0,1.2-1.9,4.767,4.767,0,0,0,.4-2,2.235,2.235,0,0,0-.4-1.5,1.286,1.286,0,0,0-1.2-.4,4.457,4.457,0,0,0-1.9.7l-2.4,1.4v6.6Z" fill="#29abe2"/>
              </g>
              <g id="Group_75" data-name="Group 75">
                <path id="Path_86" data-name="Path 86" d="M240.6,231.3l-4.7,2.7-1,2.8-1.3.7,4-11.1,1.2-.7,4,6.5-1.3.8Zm-.4-.8-1.9-3.2-1.9,5.4Z" fill="#29abe2"/>
              </g>
              <g id="Group_76" data-name="Group 76">
                <path id="Path_87" data-name="Path 87" d="M245.5,222.9l-3,1.7v-1.1l7.3-4.2v1.1l-3,1.7v7.7l-1.2.7v-7.6Z" fill="#29abe2"/>
              </g>
              <g id="Group_77" data-name="Group 77">
                <path id="Path_88" data-name="Path 88" d="M257.5,222.6v1.1l-6.4,3.7v-8.8l6.2-3.6v1.1l-4.9,2.9v2.7l4.4-2.5v1.1l-4.4,2.5v2.8Z" fill="#29abe2"/>
              </g>
            </g>
          </g>
        </g>
      </g>
    </g>
    <g id="Floder">
      <g id="Group_83" data-name="Group 83">
        <path id="Path_89" data-name="Path 89" d="M331.2,85.6l41.4-24.2,1.5.9L332.5,86.4l-1.1-.7" fill="#29abe2"/>
        <path id="Path_90" data-name="Path 90" d="M318.5,89.6v50l.2,1.3,6.2-1.9,49.2-27.2V62.3L332.5,86.4l-1.6-3.9-12.4,7.1" fill="#29abe2"/>
        <path id="Path_91" data-name="Path 91" d="M318.5,89.6v50l.2,1.3,6.2-1.9,49.2-27.2V62.3L332.5,86.4l-1.6-3.9-12.4,7.1" opacity="0.2"/>
        <g id="Group_82" data-name="Group 82">
          <path id="Path_92" data-name="Path 92" d="M377.4,56.9c0-.4-.4-.6-.8-.4L335.8,80.3a2.107,2.107,0,0,0-1.1,1.8v36.1a.641.641,0,0,0,.8.6,1.932,1.932,0,0,1-1.6,0,1.342,1.342,0,0,1-.7-1.3V81.4a2.836,2.836,0,0,1,.4-1.3l.6-.6L375,55.8a1.44,1.44,0,0,1,1.4,0C377.2,56.3,377.4,56.6,377.4,56.9Z" fill="#e0e0e0"/>
          <path id="Path_93" data-name="Path 93" d="M377.4,56.9c0-.4-.4-.6-.8-.4L335.8,80.3a1.419,1.419,0,0,0-.8.9l-1.3-1,.6-.6L375,55.8a1.44,1.44,0,0,1,1.4,0C377.2,56.3,377.4,56.6,377.4,56.9Z" fill="#fafafa"/>
          <path id="Path_94" data-name="Path 94" d="M376,95.2l-40.4,23.5c-.4.3-1-.1-1-.6v-36a1.889,1.889,0,0,1,1.1-1.8l40.8-23.8a.523.523,0,0,1,.8.4v36A2.377,2.377,0,0,1,376,95.2Z" fill="#ebebeb"/>
        </g>
        <path id="Path_95" data-name="Path 95" d="M329.7,100.3l53.9-31.2-9.5,42.7L320.2,143a2.386,2.386,0,0,1-1.4.2s.1.1.6-1.6C320,139.9,329.7,100.3,329.7,100.3Z" fill="#29abe2"/>
        <path id="Path_96" data-name="Path 96" d="M382.2,68.5l1.4.6-53.9,31.2-1.3-.7Z" fill="#29abe2"/>
        <path id="Path_97" data-name="Path 97" d="M317.4,88.9l12.4-7.2,1.1.8-12.4,7.1-1.1-.7" fill="#29abe2"/>
        <path id="Path_98" data-name="Path 98" d="M332,85.2l40.6-23.8,1.5.9L332.5,86.4l-.5-1.2" fill="#fff" opacity="0.2"/>
        <path id="Path_99" data-name="Path 99" d="M382.2,68.5l1.4.6-53.9,31.2-1.3-.7Z" fill="#fff" opacity="0.2"/>
        <path id="Path_100" data-name="Path 100" d="M317.4,88.9l12.4-7.2,1.1.8-12.4,7.1-1.1-.7" fill="#fff" opacity="0.2"/>
        <path id="Path_101" data-name="Path 101" d="M317.4,88.9v52a2.871,2.871,0,0,0,.7,1.9,1.1,1.1,0,0,0,1.8-.4l9.7-42.1-1.3-.6-9,40.2a.412.412,0,1,1-.8-.2v-50Z" fill="#29abe2"/>
        <path id="Path_102" data-name="Path 102" d="M317.4,88.9v52a2.871,2.871,0,0,0,.7,1.9,1.1,1.1,0,0,0,1.8-.4l9.7-42.1-1.3-.6-9,40.2a.412.412,0,1,1-.8-.2v-50Z" opacity="0.4"/>
      </g>
    </g>
    <g id="Icon">
      <g id="Group_86" data-name="Group 86">
        <path id="Path_103" data-name="Path 103" d="M141.9,248.2l-3.5.8v45.8a2.851,2.851,0,0,1-1.4,2.5L70.3,336v4.7a3.964,3.964,0,0,1-3.6-.2,2.851,2.851,0,0,1-1.4-2.5V287.4a3.6,3.6,0,0,1,.2-1.1,2.758,2.758,0,0,1,1.2-1.4l69.7-40.5a.1.1,0,0,0,.1-.1h0a3.776,3.776,0,0,1,3.3.3A3.526,3.526,0,0,1,141.9,248.2Z" fill="#29abe2"/>
        <path id="Path_104" data-name="Path 104" d="M141.9,248.2l-3.5.8v45.8a2.851,2.851,0,0,1-1.4,2.5L70.3,336v4.7a3.964,3.964,0,0,1-3.6-.2,2.851,2.851,0,0,1-1.4-2.5V287.4a3.6,3.6,0,0,1,.2-1.1,2.758,2.758,0,0,1,1.2-1.4l69.7-40.5a.1.1,0,0,0,.1-.1h0a3.776,3.776,0,0,1,3.3.3A3.526,3.526,0,0,1,141.9,248.2Z" opacity="0.2"/>
        <path id="Path_105" data-name="Path 105" d="M141.9,248.2l-3.5.8v1.8L70.5,289l-4.9-2.8a2.758,2.758,0,0,1,1.2-1.4l69.7-40.5a.1.1,0,0,0,.1-.1h0a3.776,3.776,0,0,1,3.3.3A3.868,3.868,0,0,1,141.9,248.2Z" fill="#29abe2"/>
        <path id="Path_106" data-name="Path 106" d="M141.9,248.2l-3.5.8v1.8L70.5,289l-4.9-2.8a2.758,2.758,0,0,1,1.2-1.4l69.7-40.5a.1.1,0,0,0,.1-.1h0a3.776,3.776,0,0,1,3.3.3A3.868,3.868,0,0,1,141.9,248.2Z" fill="#fff" opacity="0.2"/>
        <path id="Path_107" data-name="Path 107" d="M70.3,287.6,140,247.1a1.264,1.264,0,0,1,1.9,1.1v49.3a3.081,3.081,0,0,1-1.4,2.5L70.8,340.5a1.264,1.264,0,0,1-1.9-1.1V290.1A2.659,2.659,0,0,1,70.3,287.6Z" fill="#29abe2"/>
        <g id="Group_85" data-name="Group 85">
          <g id="Group_84" data-name="Group 84">
            <path id="Path_108" data-name="Path 108" d="M121.2,270.8l-2.3,3.7c-3.3-1.9-8.1-1.5-13.5,1.6C96.9,281,89.8,291,88.1,300c-.1.7.4,1,1,.7l2.4-1.4a2.122,2.122,0,0,0,1-1.3,29.155,29.155,0,0,1,12.9-17.4c4.2-2.4,7.9-2.6,10.4-1l-3,4.8c-.6,1-.2,1.8.6,1.4l8.1-3.9a2.841,2.841,0,0,0,1.5-2.3v-8.9C122.9,269.6,121.8,269.8,121.2,270.8Z" fill="#fff"/>
            <path id="Path_109" data-name="Path 109" d="M105.4,307.2c-4.2,2.4-7.9,2.6-10.4,1l3-4.8c.6-1,.2-1.8-.6-1.4l-8.1,3.9a2.841,2.841,0,0,0-1.5,2.3v8.9c0,.9,1.1.7,1.8-.3l2.3-3.7c3.3,1.9,8.1,1.5,13.5-1.6,8.5-4.9,15.6-14.9,17.3-23.9.1-.7-.4-1-1-.7l-2.4,1.4a2.122,2.122,0,0,0-1,1.3A29,29,0,0,1,105.4,307.2Z" fill="#fff"/>
          </g>
        </g>
      </g>
    </g>
    <g id="Speech_bubbles">
      <g id="Group_87" data-name="Group 87">
        <path id="Path_110" data-name="Path 110" d="M323.8,183.8l4,5.3,4.6,2.5-1.2-12Z" fill="#29abe2"/>
        <path id="Path_111" data-name="Path 111" d="M323.8,183.8l4,5.3,4.6,2.5-1.2-12Z" opacity="0.2"/>
        <path id="Path_112" data-name="Path 112" d="M328.4,186.3l4,5.3,3.4-9.5Z" fill="#29abe2"/>
        <path id="Path_113" data-name="Path 113" d="M397.8,121.3l-3.5.8v20.1a2.851,2.851,0,0,1-1.4,2.5l-70.3,40.8v4.7a3.964,3.964,0,0,1-3.6-.2,2.851,2.851,0,0,1-1.4-2.5V162.6a3.6,3.6,0,0,1,.2-1.1,2.758,2.758,0,0,1,1.2-1.4l73.3-42.5a.1.1,0,0,0,.1-.1h0a3.776,3.776,0,0,1,3.3.3A3.473,3.473,0,0,1,397.8,121.3Z" fill="#29abe2"/>
        <path id="Path_114" data-name="Path 114" d="M397.8,121.3l-3.5.8v20.1a2.851,2.851,0,0,1-1.4,2.5l-70.3,40.8v4.7a3.964,3.964,0,0,1-3.6-.2,2.851,2.851,0,0,1-1.4-2.5V162.6a3.6,3.6,0,0,1,.2-1.1,2.758,2.758,0,0,1,1.2-1.4l73.3-42.5a.1.1,0,0,0,.1-.1h0a3.776,3.776,0,0,1,3.3.3A3.473,3.473,0,0,1,397.8,121.3Z" opacity="0.2"/>
        <path id="Path_115" data-name="Path 115" d="M397.8,121.3l-3.5.8v1.8l-71.5,40.3-4.9-2.8a2.758,2.758,0,0,1,1.2-1.4l73.3-42.5a.1.1,0,0,0,.1-.1h0a3.98,3.98,0,0,1,5.3,3.9Z" fill="#29abe2"/>
        <path id="Path_116" data-name="Path 116" d="M397.8,121.3l-3.5.8v1.8l-71.5,40.3-4.9-2.8a2.758,2.758,0,0,1,1.2-1.4l73.3-42.5a.1.1,0,0,0,.1-.1h0a3.98,3.98,0,0,1,5.3,3.9Z" fill="#fff" opacity="0.2"/>
        <path id="Path_117" data-name="Path 117" d="M322.6,162.8l73.3-42.5a1.264,1.264,0,0,1,1.9,1.1V145a3.081,3.081,0,0,1-1.4,2.5L323,190a1.264,1.264,0,0,1-1.9-1.1V165.3A2.946,2.946,0,0,1,322.6,162.8Z" fill="#29abe2"/>
        <path id="Path_118" data-name="Path 118" d="M326,167.2a.755.755,0,0,1-.7-.4.829.829,0,0,1,.3-1.1l66.9-38.5a.806.806,0,0,1,.8,1.4l-66.9,38.5C326.3,167.2,326.2,167.2,326,167.2Z" fill="#fff"/>
        <path id="Path_119" data-name="Path 119" d="M326,172.5a.755.755,0,0,1-.7-.4.829.829,0,0,1,.3-1.1l66.9-38.5a.806.806,0,0,1,.8,1.4l-66.9,38.5C326.3,172.5,326.2,172.5,326,172.5Z" fill="#fff"/>
        <path id="Path_120" data-name="Path 120" d="M326,177.8a.755.755,0,0,1-.7-.4.829.829,0,0,1,.3-1.1l57.7-33.2a.806.806,0,0,1,.8,1.4l-57.7,33.2C326.3,177.8,326.2,177.8,326,177.8Z" fill="#fff"/>
        <path id="Path_121" data-name="Path 121" d="M326,183.1a.755.755,0,0,1-.7-.4.829.829,0,0,1,.3-1.1l66.9-38.5a.806.806,0,0,1,.8,1.4L326.4,183C326.3,183.1,326.2,183.1,326,183.1Z" fill="#fff"/>
      </g>
      <g id="Group_89" data-name="Group 89">
        <path id="Path_122" data-name="Path 122" d="M89.8,248.5l1.3-4.1-5.3,3,2.5,4.2.1.1h0l3.2,1.8v-6.3Z" fill="#29abe2"/>
        <path id="Path_123" data-name="Path 123" d="M89.8,248.5l1.3-4.1-5.3,3,2.5,4.2.1.1h0l3.2,1.8v-6.3Z" opacity="0.2"/>
        <path id="Path_124" data-name="Path 124" d="M103.6,218.7l-4.3,1.6v16a4.033,4.033,0,0,1-2,3.5l-14.4,8.3v5.1c-1.5.7-3.4-.5-3.4-.5-2.2-1.2-2.1-2.8-2.1-2.8V229a2.6,2.6,0,0,1,.4-1.5,2.949,2.949,0,0,1,1.3-1.4L98,215.3a3.207,3.207,0,0,1,2.6-.2C102,215.6,103.6,216.9,103.6,218.7Z" fill="#29abe2"/>
        <path id="Path_125" data-name="Path 125" d="M103.6,218.7l-4.3,1.6v16a4.033,4.033,0,0,1-2,3.5l-14.4,8.3v5.1c-1.5.7-3.4-.5-3.4-.5-2.2-1.2-2.1-2.8-2.1-2.8V229a2.6,2.6,0,0,1,.4-1.5,2.949,2.949,0,0,1,1.3-1.4L98,215.3a3.207,3.207,0,0,1,2.6-.2C102,215.6,103.6,216.9,103.6,218.7Z" opacity="0.2"/>
        <path id="Path_126" data-name="Path 126" d="M103.6,218.7l-4.3,1.6v1.9l-16.8,8.3-4.7-2.9a2.949,2.949,0,0,1,1.3-1.4L98,215.4a3.207,3.207,0,0,1,2.6-.2A3.957,3.957,0,0,1,103.6,218.7Z" fill="#29abe2"/>
        <path id="Path_127" data-name="Path 127" d="M103.6,218.7l-4.3,1.6v1.9l-16.8,8.3-4.7-2.9a2.949,2.949,0,0,1,1.3-1.4L98,215.4a3.207,3.207,0,0,1,2.6-.2A3.957,3.957,0,0,1,103.6,218.7Z" fill="#fff" opacity="0.2"/>
        <path id="Path_128" data-name="Path 128" d="M103.6,218.7V239a4.033,4.033,0,0,1-2,3.5L82.9,253.3a.744.744,0,0,1-1.1-.7V231.7a3.242,3.242,0,0,1,1.7-2.9L102.4,218C102.8,217.6,103.6,218,103.6,218.7Z" fill="#29abe2"/>
        <path id="Path_129" data-name="Path 129" d="M89,249.1l2.5,4.2a.341.341,0,0,0,.6-.1l2.3-7.1Z" fill="#29abe2"/>
        <g id="Group_88" data-name="Group 88">
          <path id="Path_130" data-name="Path 130" d="M96.9,233c0,1,.8,1.3,1.7.7a3.549,3.549,0,0,0,1.7-2.7c0-.9-.8-1.3-1.7-.7A3.493,3.493,0,0,0,96.9,233Z" fill="#fff"/>
          <path id="Path_131" data-name="Path 131" d="M90.7,236.6c0,1,.8,1.3,1.7.7a3.846,3.846,0,0,0,1.7-2.7c0-1-.8-1.3-1.7-.7A3.493,3.493,0,0,0,90.7,236.6Z" fill="#fff"/>
          <path id="Path_132" data-name="Path 132" d="M84.5,240.2c0,1,.8,1.3,1.7.7a3.549,3.549,0,0,0,1.7-2.7c0-.9-.8-1.3-1.7-.7A3.257,3.257,0,0,0,84.5,240.2Z" fill="#fff"/>
        </g>
      </g>
    </g>
    <g id="Suitcase">
      <g id="Group_90" data-name="Group 90">
        <path id="Path_133" data-name="Path 133" d="M389.1,391.2l-6.4,3.7a.908.908,0,0,1-1,0l-37.3-21.5a.283.283,0,0,1,0-.5l6.4-3.7a.908.908,0,0,1,1,0l37.3,21.5C389.3,390.8,389.3,391,389.1,391.2Z" fill="#e6e6e6"/>
        <path id="Path_134" data-name="Path 134" d="M389.2,353.5v30.9a3.063,3.063,0,0,1-1.4,2.5,17.44,17.44,0,0,1-3.4,1.8,8.565,8.565,0,0,1-3.5.7l1.2-31.8,1.5-2.5Z" fill="#29abe2"/>
        <path id="Path_135" data-name="Path 135" d="M382.1,357.6v30.5a1.181,1.181,0,0,1-1.3,1.2,3.546,3.546,0,0,1-1.6-.6c-2.6-1.5-32.2-18.6-32.2-18.6a6.032,6.032,0,0,1-2.7-5V335.7l6.7,1.8,27.2,16.4Z" fill="#29abe2"/>
        <path id="Path_136" data-name="Path 136" d="M382.1,357.6v30.5a1.181,1.181,0,0,1-1.3,1.2,3.546,3.546,0,0,1-1.6-.6c-2.6-1.5-32.2-18.6-32.2-18.6a6.032,6.032,0,0,1-2.7-5V335.7l6.7,1.8,27.2,16.4Z" opacity="0.4"/>
        <path id="Path_137" data-name="Path 137" d="M344.3,347.6s-.2,2.3,3,4.1c3,1.7,28.8,16.5,32.3,18.5a1.6,1.6,0,0,0,1.5.1,2.482,2.482,0,0,0,1.1-2.4v-11l-36.7-21.4-1.2.2v11.9Z" fill="#29abe2"/>
        <path id="Path_138" data-name="Path 138" d="M344.3,347.6s-.2,2.3,3,4.1c3,1.7,28.8,16.5,32.3,18.5a1.6,1.6,0,0,0,1.5.1,2.482,2.482,0,0,0,1.1-2.4v-11l-36.7-21.4-1.2.2v11.9Z" opacity="0.2"/>
        <path id="Path_139" data-name="Path 139" d="M389.1,353.8l-6.4,3.7a.908.908,0,0,1-1,0L344.4,336a.283.283,0,0,1,0-.5l6.4-3.7a.908.908,0,0,1,1,0l37.3,21.5A.283.283,0,0,1,389.1,353.8Z" fill="#29abe2"/>
        <path id="Path_140" data-name="Path 140" d="M389.1,353.8l-6.4,3.7a.908.908,0,0,1-1,0L344.4,336a.283.283,0,0,1,0-.5l6.4-3.7a.908.908,0,0,1,1,0l37.3,21.5A.283.283,0,0,1,389.1,353.8Z" fill="#fff" opacity="0.1"/>
        <path id="Path_141" data-name="Path 141" d="M359,357.1v2.3a1.709,1.709,0,0,0,.7,1.3l6.2,3.6a.569.569,0,0,0,.8-.5v-2.3a1.709,1.709,0,0,0-.7-1.3l-6.2-3.6C359.4,356.5,359,356.7,359,357.1Z" fill="#37474f"/>
        <path id="Path_142" data-name="Path 142" d="M360.9,332.8a3.662,3.662,0,0,0-1.8,1l1.8,2.8v3.9l1.2.7v-5l10.1,5.9.7,7.3,1.8-1v-7.7Z" fill="#455a64"/>
        <path id="Path_143" data-name="Path 143" d="M362,336l-1.7-.3v6.5l1.7-1Z" fill="#263238"/>
        <path id="Path_144" data-name="Path 144" d="M359.1,333.8v7.7a3.1,3.1,0,0,0,1.2.7v-6.5l11.4,6.6v6.5a2.345,2.345,0,0,0,1.2.7v-7.7Z" fill="#37474f"/>
      </g>
    </g>
    <g id="Character">
      <g id="Group_99" data-name="Group 99">
        <path id="Path_145" data-name="Path 145" d="M345,391.7s.4.1.4,1.2a27.733,27.733,0,0,1,0,5c-.2.8-1.8,1.9-3.9,1.7s-3.5-1.8-4.5-3.4-5.5-7-6.4-8.3c-.8-1.3-2.1-4.8-.5-6.2,1.3-1.2,6.4,1.5,7.7,3C339.2,386.3,345,391.7,345,391.7Z" fill="#263238"/>
        <path id="Path_146" data-name="Path 146" d="M323.6,407.2a6.255,6.255,0,0,1,1,2.5,33.74,33.74,0,0,1,0,6.4,3.389,3.389,0,0,1-2.9,1.5c-1.1.1-2.5.1-3.6.1a4.282,4.282,0,0,0-2.2.6c-1.2.6-3.4,1.7-5.7,2.6a13.2,13.2,0,0,1-8.1.7,10.555,10.555,0,0,1-5.6-3.1,1.813,1.813,0,0,1-.1-2.1c.3-.4,5.4-2.5,8-3.8s10.2-4.3,10.8-4.9C315.9,407.1,323.6,407.2,323.6,407.2Z" fill="#263238"/>
        <path id="Path_147" data-name="Path 147" d="M308.6,219.8a4.552,4.552,0,0,0,.5-2v-5.3c.2-3.4,1.3-4.8,1.3-4.8,4.2-5.5,19.6-4.3,20.7-1.2s3.2,20-1.5,23c.5,2.6,1.9,9.1,1.9,9.1-3.8,3.5-11.9,2.4-11.9,2.4.2-1.2-.8-5.9-1.4-8.3-3.3.4-6.1.3-7.1-.3h0l-.2-.2c-.7-1-1.2-3.3-1.5-8a3.406,3.406,0,0,1-2.3-.5C306.9,223.2,307.8,221.3,308.6,219.8Z" fill="#ffa8a7"/>
        <g id="Group_98" data-name="Group 98">
          <g id="Group_91" data-name="Group 91">
            <path id="Path_148" data-name="Path 148" d="M318.4,269.8,304.9,233a2.433,2.433,0,0,0-1.3-1.5l.3-.4-1.8.1h0a1.922,1.922,0,0,0-1.2.4l-20.5,11.8a2.742,2.742,0,0,0-1.2,3.4l13.5,36.8a2.837,2.837,0,0,0,2.3,1.8h0l1.6.1-.2-.3c.1-.1.3-.1.4-.2l20.5-11.8A3.089,3.089,0,0,0,318.4,269.8Z" fill="#374d56"/>
            <path id="Path_149" data-name="Path 149" d="M280.6,246.6l13.6,37.1a2.7,2.7,0,0,0,3.8,1.4l20.8-12a2.554,2.554,0,0,0,1.1-3.2l-13.6-37.1a2.7,2.7,0,0,0-3.8-1.4l-20.8,12A2.846,2.846,0,0,0,280.6,246.6Z" fill="#556f77"/>
            <path id="Path_150" data-name="Path 150" d="M282.5,246.4l12.7,34.7a1.165,1.165,0,0,0,1.7.6L317.1,270a1.15,1.15,0,0,0,.5-1.4l-12.7-34.7a1.165,1.165,0,0,0-1.7-.6L283,244.9A1.24,1.24,0,0,0,282.5,246.4Z" fill="#fff"/>
          </g>
          <g id="Group_97" data-name="Group 97">
            <g id="Group_93" data-name="Group 93">
              <g id="Group_92" data-name="Group 92">
                <path id="Path_151" data-name="Path 151" d="M297.8,261.4h0l-.5-.3-.1-.1c0-.1-.1-.1-.1-.2v-.2c-.2-.2-.3-.4-.5-.6h0l-.1.1h-.1l-.1-.1-.3-.6v-.2l.1-.1V259a2.2,2.2,0,0,1-.1-.8h0l-.1-.1-.1-.1c0-.1-.1-.1-.1-.2l.1-.6c0-.1.1-.1.2-.1l.1.1h0a2.187,2.187,0,0,1,.3-.5v-.1l-.1-.1v-.2l.4-.2h.1l.1.1.1.1h.6v-.1c0-.1.1-.1.2-.1l.5.3.1.1c0,.1.1.1.1.2v.2c.2.2.3.4.5.6h0l.1-.1h.1l.1.1.3.6v.2l-.1.1v.1a2.2,2.2,0,0,1,.1.8h.1l.1.1c0,.1.1.1.1.2l-.1.6c0,.1-.1.1-.2.1l-.1-.1h0a2.187,2.187,0,0,1-.3.5v.1l.1.1v.2l-.4.2h-.1l-.1-.1-.1-.1H298v.1C297.9,261.4,297.9,261.4,297.8,261.4Zm-1.2-1.5h0a.1.1,0,0,1,.1.1,2.181,2.181,0,0,0,.4.5.31.31,0,0,1,.1.2v.2l.4.3V261c0-.1,0-.1.1-.1.2,0,.4.1.5,0h.1l.1.1.1.1h0l.4-.2v-.1l-.1-.1v-.2a2.185,2.185,0,0,0,.3-.5c0-.1.1-.1.2,0l.1.1V260l.1-.6v-.1l-.1-.1a.1.1,0,0,1-.1-.1l-.1-.1c0-.2-.1-.5-.1-.8V258l.1-.1v-.1l-.3-.6h0l-.1.1h-.1l-.1-.1a2.181,2.181,0,0,0-.4-.5.31.31,0,0,1-.1-.2v-.2l-.4-.3h0v.2a.1.1,0,0,1-.1.1h0c-.2,0-.4-.1-.5,0H297l-.1-.1-.1-.1h0l-.4.2v.1l.1.1v.2a2.185,2.185,0,0,0-.3.5c0,.1-.1.1-.2,0l-.1-.1v.1l.1.8v.1l.1.1a.1.1,0,0,1,.1.1l.1.1c0,.2.1.5.1.8v.2l-.1.1v.1l.3.6h0v-.3Zm1.4.3c-.1,0-.2-.1-.3-.2a2.7,2.7,0,0,1-.7-.8,1.6,1.6,0,0,1,.2-1.8.761.761,0,0,1,.9.1,2.178,2.178,0,0,1,.7.9,1.708,1.708,0,0,1-.2,1.6A.735.735,0,0,1,298,260.2Zm-.2-2.7a.9.9,0,0,0-.5.1,1.435,1.435,0,0,0-.2,1.7,1.794,1.794,0,0,0,.5.7.6.6,0,0,0,.8,0,1.51,1.51,0,0,0,.2-1.5,1.555,1.555,0,0,0-.6-.8C298,257.5,297.9,257.5,297.8,257.5Z" fill="#29abe2"/>
              </g>
              <path id="Path_152" data-name="Path 152" d="M300,257l.1-.1a.1.1,0,0,1,.1.1,4.351,4.351,0,0,0,.6.7.349.349,0,0,1,.1.2v.2c0,.1,0,.2.1.2l.6.3c.1,0,.1,0,.1-.1v-.2c0-.1,0-.1.1-.1a.854.854,0,0,0,.7,0,.1.1,0,0,1,.1.1l.1.2c0,.1.1.1.2.1l.5-.3c.1,0,.1-.1,0-.2l-.1-.2v-.2a2.092,2.092,0,0,0,.4-.6c0-.1.1-.1.1,0l.1.1c.1,0,.1,0,.1-.1l.1-.7c0-.1,0-.2-.1-.2l-.1-.1a.349.349,0,0,1-.1-.2,2.92,2.92,0,0,0-.2-.9v-.1l.1-.1c.1,0,.1-.1,0-.2l-.3-.7c0-.1-.1-.1-.2-.1l-.1.1a.1.1,0,0,1-.1-.1,4.349,4.349,0,0,0-.6-.7.349.349,0,0,1-.1-.2v-.2c0-.1,0-.2-.1-.2l-.6-.3c-.1,0-.1,0-.1.1v.2c0,.1,0,.1-.1.1a.854.854,0,0,0-.7,0,.1.1,0,0,1-.1-.1l-.1-.2c0-.1-.1-.1-.2-.1l-.5.3c-.1,0-.1.1,0,.2l.1.2v.2a2.092,2.092,0,0,0-.4.6c0,.1-.1.1-.1,0l-.1-.1c-.1,0-.1,0-.1.1l-.1.7c0,.1,0,.2.1.2l.1.1a.349.349,0,0,1,.1.2,2.92,2.92,0,0,0,.2.9v.1l-.1.1c-.1,0-.1.1,0,.2l.3.7C299.8,257,299.9,257,300,257Zm.6-1c-.4-.9-.3-1.9.3-2.2s1.4.2,1.8,1.2c.3.8.2,1.6-.3,1.9C301.9,257.4,301,256.9,300.6,256Z" fill="#29abe2"/>
              <path id="Path_153" data-name="Path 153" d="M292.3,253l.2-.1c.1,0,.1,0,.2.1a3.916,3.916,0,0,0,.8,1c.1.1.1.1.1.2v.2a.367.367,0,0,0,.1.3l.8.5c.1.1.2,0,.2-.1v-.2a.1.1,0,0,1,.1-.1,1.387,1.387,0,0,0,.9,0c.1,0,.1,0,.2.1l.1.2c.1.1.2.2.2.1l.6-.4c.1,0,.1-.2,0-.3l-.1-.2v-.2a1.934,1.934,0,0,0,.5-.9c0-.1.1-.1.2-.1l.2.1c.1.1.2,0,.2-.1l.1-1a.367.367,0,0,0-.1-.3l-.2-.1c-.1,0-.1-.1-.1-.2a5.852,5.852,0,0,0-.2-1.3V250l.2-.1c.1,0,.1-.2,0-.3l-.5-1c-.1-.1-.2-.2-.2-.1l-.2.1c-.1,0-.1,0-.2-.1a3.916,3.916,0,0,0-.8-1c-.1-.1-.1-.1-.1-.2v-.2a.367.367,0,0,0-.1-.3l-.8-.5c-.1-.1-.2,0-.2.1v.2a.1.1,0,0,1-.1.1,1.387,1.387,0,0,0-.9,0c-.1,0-.1,0-.2-.1l-.1-.2c-.1-.1-.2-.2-.2-.1l-.6.4c-.1,0-.1.2,0,.3l.1.2v.2a1.934,1.934,0,0,0-.5.9c0,.1-.1.1-.2.1l-.2-.1c-.1-.1-.2,0-.2.1l-.1,1a.367.367,0,0,0,.1.3l.2.1c.1,0,.1.1.1.2a5.852,5.852,0,0,0,.2,1.3v.2l-.2.1c-.1,0-.1.2,0,.3l.5,1C292.1,253,292.2,253,292.3,253Zm.8-1.4c-.5-1.2-.4-2.5.4-3s2,.3,2.5,1.6a2.552,2.552,0,0,1-.3,2.6C294.9,253.5,293.7,252.9,293.1,251.6Z" fill="#29abe2"/>
            </g>
            <g id="Group_96" data-name="Group 96">
              <g id="Group_94" data-name="Group 94">
                <path id="Path_154" data-name="Path 154" d="M297.1,271.6a.864.864,0,0,1-.6-.3,3.126,3.126,0,0,1-.9-1.1c-.3-.8-.3-1.4.1-1.6l14.1-8.2a1.363,1.363,0,0,1,1,.2,3.126,3.126,0,0,1,.9,1.1c.3.8.3,1.4-.1,1.6l-14.1,8.2C297.4,271.6,297.3,271.6,297.1,271.6Zm13.2-11H310l-14.1,8.2c-.4.2-.4.8-.1,1.5a2.166,2.166,0,0,0,.8.9.882.882,0,0,0,.8.2l14.1-8.2c.4-.2.4-.8.1-1.5a2.166,2.166,0,0,0-.8-.9C310.6,260.7,310.4,260.7,310.3,260.6Z" fill="#29abe2"/>
              </g>
              <path id="Path_155" data-name="Path 155" d="M304.9,264.1l.9,2-8.5,5c-.3.2-.9-.3-1.2-.8a.878.878,0,0,1-.1-.7.52.52,0,0,1,.2-.4Z" fill="#29abe2"/>
              <g id="Group_95" data-name="Group 95">
                <path id="Path_156" data-name="Path 156" d="M298.6,265.7a1.082,1.082,0,0,1-.4-.5l-.4-1,.2-.1.4,1c.2.4.4.5.6.4.1-.1.2-.1.2-.3a1.087,1.087,0,0,0-.1-.5l-.4-1,.1-.1.4,1c.1.2.2.5.1.6a.52.52,0,0,1-.2.4A1.087,1.087,0,0,1,298.6,265.7Z" fill="#29abe2"/>
                <path id="Path_157" data-name="Path 157" d="M299.8,263.2a1.38,1.38,0,0,1,.3.4,1.087,1.087,0,0,1,.1.5c0,.2-.1.3-.3.4l-.3.2.2.5-.2.1-.8-1.7.4-.2C299.6,263.1,299.7,263.1,299.8,263.2Zm.2.8a.367.367,0,0,0-.1-.3c-.1-.1-.1-.2-.2-.2h-.3l-.3.2.3.8.3-.2C300,264.2,300,264.1,300,264Z" fill="#29abe2"/>
                <path id="Path_158" data-name="Path 158" d="M300.1,262.8l.5-.3c.1-.1.2-.1.4-.1.1,0,.2.1.3.2a1.38,1.38,0,0,1,.3.4.9.9,0,0,1,.1.5c0,.2,0,.3-.1.4s-.1.2-.3.3l-.5.3Zm1.1,1.3c.1-.1.2-.1.2-.2s.1-.2.1-.3a.756.756,0,0,0-.1-.4c-.1-.1-.1-.2-.2-.3a.5.5,0,0,0-.6,0l-.3.2.6,1.3Z" fill="#29abe2"/>
                <path id="Path_159" data-name="Path 159" d="M302.6,263l-.6.3.1.5-.2.1-.3-2,.2-.1,1.3,1.4-.2.1Zm-.1-.2-.6-.7.1,1Z" fill="#29abe2"/>
                <path id="Path_160" data-name="Path 160" d="M302.7,261.6l-.4.2-.1-.2.9-.5.1.2-.4.2.7,1.5-.2.1Z" fill="#29abe2"/>
                <path id="Path_161" data-name="Path 161" d="M304.8,262l.1.2-.8.5-.8-1.7.8-.4.1.2-.6.4.2.5.5-.3.1.2-.5.3.3.6Z" fill="#29abe2"/>
              </g>
            </g>
          </g>
        </g>
        <path id="Path_162" data-name="Path 162" d="M311,232.2c.9.7,3.8.7,7.1.3a5.428,5.428,0,0,0,1.8-1.8C319.6,230.9,314.4,233.2,311,232.2Z" fill="#f28f8f"/>
        <path id="Path_163" data-name="Path 163" d="M323.6,402.2v4.9a4.962,4.962,0,0,1-5.8,2.5,4.475,4.475,0,0,1-2.6-2s-.2-4-.3-5.4" fill="#ffa8a7"/>
        <path id="Path_164" data-name="Path 164" d="M345,388.7v3a3.661,3.661,0,0,1-3.5,1.5,4.3,4.3,0,0,1-3.3-1.7l-.1-3.2" fill="#ffa8a7"/>
        <path id="Path_165" data-name="Path 165" d="M352.2,259.5l-11.6,3.1.9,3.8-1.3-.8-4.7,7.6,8.8,4.7s3.6,2.4,6.1,2.4a6.1,6.1,0,0,0,5.6-5.6C356.5,270.8,352.2,259.5,352.2,259.5Z" fill="#ffa8a7"/>
        <path id="Path_166" data-name="Path 166" d="M341.8,266.5s1.9,6,2.9,7.5a42.053,42.053,0,0,1-4.3-7.9" fill="#f28f8f"/>
        <path id="Path_167" data-name="Path 167" d="M306.8,297s.5,49.8.9,55.7c.4,6,7.2,50.7,7.2,50.7,5.4,2.6,9.1,0,9.1,0a23.6,23.6,0,0,1,0-4.2c.2-2.6,2.2-25.6,2-33.8a39.3,39.3,0,0,0-2.7-13.8l2.7-39.8,1.4-.6s.3,5.6.7,12.2v.1c.4,7.7,1,16.7,1.4,19.7.7,5.7,4.9,26.5,6.1,31.3,1.2,4.9,2.5,14.1,2.5,14.1,2.4,2.4,7.2.5,7.2.5s.1-6.1.3-9.9c.3-3.8,1.8-20.6,1.2-25s-3-12.3-3.2-13.9,1.1-36.8,1.1-36.8a23.985,23.985,0,0,0,.3-11.1Z" fill="#37474f"/>
        <path id="Path_168" data-name="Path 168" d="M339,238.1a19.618,19.618,0,0,1,9.3,8.5,110.356,110.356,0,0,1,6,14.3s-5.9,5.6-13.5,5.9Z" fill="#29abe2"/>
        <path id="Path_169" data-name="Path 169" d="M339,238.1a19.618,19.618,0,0,1,9.3,8.5,110.356,110.356,0,0,1,6,14.3s-5.9,5.6-13.5,5.9Z" opacity="0.2"/>
        <path id="Path_170" data-name="Path 170" d="M345,292.3h0s-5.7,6.1-16.5,7.7c-9.9,1.5-20.2-2.2-22-2.8.3-6.4,1.1-20.2,1.5-27.3.2-2.6.3-4.3.3-4.3h0l-1.9,1.9v-2.3s-1.7-21.7,13.4-25a22.256,22.256,0,0,0,11.5-2.6,22.874,22.874,0,0,1,2.5-.5,7.664,7.664,0,0,1,7.2,2.8,17.571,17.571,0,0,1,3.3,7.5c1.5,6.5-4.8,25.5-5.2,27.4C338.6,276.7,344.5,289.4,345,292.3Z" fill="#29abe2"/>
        <path id="Path_171" data-name="Path 171" d="M304.9,268.4s-7.6,9.6-10.8,11.2c-3.2,1.5-24.9-14.5-27.8-15.7-2.8-1.2-9.7-4.1-10.7-5.6a2.479,2.479,0,0,1,0-3.2,2.337,2.337,0,0,1,1.2-2.3s.1-2.6,1.7-3.1c0,0-4.9-6.4-4.2-7.3.6-.9,2.2-.4,3.6,1.1s7.5,9,8.1,9.3c.7.2,1.2-2.4,2.3-4,1.1-1.5,2.9-1.5,2.8-.3-.1,1.3-1.1,4.8-1,6.4,0,1.6,1.4,2.8,2.6,3.7s17.8,9.2,17.8,9.2l6.5-7.4" fill="#ffa8a7"/>
        <path id="Path_172" data-name="Path 172" d="M316.6,241.2s-4.6-.4-10,4.9c-5.5,5.2-12,14.4-12,14.4a25.955,25.955,0,0,0,10.3,10.1S318,257.3,320.5,251C323.1,244.6,316.6,241.2,316.6,241.2Z" fill="#29abe2"/>
        <path id="Path_173" data-name="Path 173" d="M316.6,241.2s-4.6-.4-10,4.9c-5.5,5.2-12,14.4-12,14.4a25.955,25.955,0,0,0,10.3,10.1S318,257.3,320.5,251C323.1,244.6,316.6,241.2,316.6,241.2Z" opacity="0.2"/>
        <path id="Path_174" data-name="Path 174" d="M327.4,311.2s.3,5.6.7,12.2v.1l.6-11.4a23.635,23.635,0,0,0,5.4-5.3A23.175,23.175,0,0,1,327.4,311.2Z" fill="#263238"/>
        <path id="Path_175" data-name="Path 175" d="M316,202.5s-2.1-2.8-6.2-.7c-5.5,2.8-.7,12.9-.7,12.9a13.1,13.1,0,0,1,6.1-8.5s-1,8.2-.7,10.8a4.76,4.76,0,0,0,1.7,3.5s1.1-3.1,3.8-2.1c2.6,1,3.3,7.5-2.3,8.2,0,0,2.7,5.2,5.4,6.2s8.1.4,10.9-2.5a22.265,22.265,0,0,0,4.1-5.9l1,.2s-.8,7,3,11.2a11.457,11.457,0,0,0,8.5,4.1,20.68,20.68,0,0,1-.7-5.8c.2-2.5,1.6-15.5-.4-19.8a9.043,9.043,0,0,0-11.4-4.9s-.8-5.1-7.1-7.7C320.8,197.4,316,202.5,316,202.5Z" fill="#263238"/>
        <path id="Path_176" data-name="Path 176" d="M338,209.3s-2.3-.7-3.3,4.1c-1.1,4.8.1,10.4,4.4,11.1,0,0-5.3,1-6.6-4.3C331.3,215.8,332.1,207.5,338,209.3Z" fill="#29abe2"/>
      </g>
    </g>
  </g>
</svg>
