<svg xmlns="http://www.w3.org/2000/svg" width="395.786" height="453.54" viewBox="0 0 395.786 453.54">
  <g id="_4036659" data-name="4036659" transform="translate(-41.461 -46.96)">
    <g id="OBJECTS">
      <rect id="Rectangle_2" data-name="Rectangle 2" width="13.66" height="23.91" transform="translate(243.17 437.32)" fill="#692248"/>
      <path id="Path_3" data-name="Path 3" d="M253.42,439c35.85-8.54,111-42.69,116.11-44.4s17.07-5.12,15.37,3.42c0,0-5.13-1.71-6.83,3.41s6.83,10.25,13.66,3.42,3.41-20.49-10.25-20.49S302.93,411.71,250,411.71s-117.82-27.32-131.48-27.32-17.08,13.66-10.25,20.49,15.37,1.7,13.66-3.42-6.83-3.41-6.83-3.41c-1.7-8.54,10.25-5.13,15.37-3.42s80.26,35.86,116.11,44.4h6.84Z" fill="#9d2e6a"/>
      <path id="Path_4" data-name="Path 4" d="M104.86,374.14l4.16,9.72a3.68,3.68,0,0,0,3.39,2.23h17.34a3.68,3.68,0,0,0,3.39-2.23l4.16-9.72Z" fill="#692248"/>
      <path id="Path_5" data-name="Path 5" d="M168,358.77S157.79,381,120.23,381s-47.81-23.9-47.81-23.9H168Z" fill="#9d2e6a"/>
      <path id="Path_6" data-name="Path 6" d="M209.02,474.89l-6.83,17.07H296.1l-5.12-17.07Z" fill="#9d2e6a"/>
      <rect id="Rectangle_3" data-name="Rectangle 3" width="99.04" height="11.95" rx="1" transform="translate(200.48 488.55)" fill="#692248"/>
      <path id="Path_7" data-name="Path 7" d="M236.06,464.64l1.99-5.12h22.2l3.41,6.83Z" fill="#692248"/>
      <path id="Path_8" data-name="Path 8" d="M222.68,464.64h52.93l15.37,10.25H209.02Z" fill="#8b2a5f"/>
      <path id="Path_9" data-name="Path 9" d="M395.14,374.14,391,383.86a3.68,3.68,0,0,1-3.39,2.23H370.25a3.68,3.68,0,0,1-3.39-2.23l-4.16-9.72Z" fill="#692248"/>
      <path id="Path_10" data-name="Path 10" d="M332,358.77S342.21,381,379.77,381s47.81-23.9,47.81-23.9H332Z" fill="#9d2e6a"/>
      <circle id="Ellipse_1" data-name="Ellipse 1" cx="7" cy="7" r="7" transform="translate(243 418)" fill="#692248"/>
      <g id="Group_2" data-name="Group 2" opacity="0.35">
        <path id="Path_11" data-name="Path 11" d="M251,418.08A7,7,0,0,1,246,430a6.24,6.24,0,0,1-1-.08,7,7,0,1,0,6-11.84Z" fill="#8c8c8c"/>
      </g>
      <path id="Path_12" data-name="Path 12" d="M427.52,357.2l-23,9.8S399,377,380,381v5.09h7.59a3.68,3.68,0,0,0,3.39-2.23l1.68-3.92C418.44,375.57,426.77,358.82,427.52,357.2Z" fill="#8c8c8c" opacity="0.35"/>
      <path id="Path_13" data-name="Path 13" d="M169.52,357.11l-23,9.8s-5.5,10-24.5,14V386h7.59a3.69,3.69,0,0,0,3.39-2.24l1.68-3.92C160.44,375.48,168.77,358.72,169.52,357.11Z" fill="#8c8c8c" opacity="0.35"/>
      <ellipse id="Ellipse_2" data-name="Ellipse 2" cx="50" cy="14.29" rx="50" ry="14.29" transform="translate(329 340.42)" fill="#692248"/>
      <ellipse id="Ellipse_3" data-name="Ellipse 3" cx="39" cy="9.5" rx="39" ry="9.5" transform="translate(340 345)" opacity="0.19"/>
      <path id="Path_14" data-name="Path 14" d="M298.52,500.5a1,1,0,0,0,1-1v-9.95a1,1,0,0,0-1-1h-3.44L291,474.89l-15.37-10.25h-12.8l-2.56-5.12h-3.42V438.19l-1.08.31s-.75.5-5.75.5v25.5L262,475l4,14v11.5Z" fill="#8c8c8c" opacity="0.35"/>
      <path id="Path_15" data-name="Path 15" d="M384,392c-6.71-4.47-21,3-55,16-31.77,12.15-79,31-79,31h3.42c35.85-8.54,111-42.69,116.11-44.4s17-5.09,15.38,3.31l.09.06C386,398,387,394,384,392Z" fill="#8c8c8c" opacity="0.35"/>
      <path id="Path_16" data-name="Path 16" d="M391.73,404.88a11.83,11.83,0,0,0,3.38-9.17c-.31,1.77-2.05,9.29-9.11,9.29-6.35,0-6.4-4.41-6.15-6.23a5.43,5.43,0,0,0-1.78,2.69C376.36,406.58,384.9,411.71,391.73,404.88Z" fill="#8c8c8c" opacity="0.35"/>
      <ellipse id="Ellipse_4" data-name="Ellipse 4" cx="50" cy="14.29" rx="50" ry="14.29" transform="translate(70 340.42)" fill="#692248"/>
      <ellipse id="Ellipse_5" data-name="Ellipse 5" cx="39" cy="9.5" rx="39" ry="9.5" transform="translate(80 345)" opacity="0.19"/>
      <rect id="Rectangle_4" data-name="Rectangle 4" width="77" height="15" transform="translate(211.5 195)" fill="#9d2e6a"/>
      <rect id="Rectangle_5" data-name="Rectangle 5" width="77" height="15" transform="translate(212 226)" fill="#9d2e6a"/>
      <path id="Path_17" data-name="Path 17" d="M364.15,333.67c.45,2.68.84,5.24,1.16,7.63,0,0-.81,2.63,3.44,2.22S372,341.3,372,341.3a15.48,15.48,0,0,0,.48-4.36c0-1.41,0-2.83.1-4.24Z" fill="#d4a288"/>
      <path id="Path_18" data-name="Path 18" d="M350.54,148.93l-10.4-12.18s-7.42,7.59-12.28,28.44c0,0-15-7.16-26.36-13.88a32.5,32.5,0,0,1-1.11-4.26c-.27-1.22-1.74-3.91-1.52-5.87.27-2.42.45-3.52.43-3.69-.87-1.09-2.39,0-3,1.95-.39,1.16.15,3.93-2.06,3.56-1.83-.3-4.35-1-7.07-1.6-3.91-.87-9.9-3.37-10.28-2.25-.57,1.72,6.62,3.49,11.18,5-3.47-.38-12.2-3-13.87-2.66a.89.89,0,0,0,0,1.68c5.19,2.13,12.18,3,12.76,3.29-5.79,0-13.65-1.88-13.87-.51-.4,2.44,13.1,2.44,13.1,3.21,0,.39-4.19-.31-7.71,0a4.88,4.88,0,0,0-2,.59c-.34.27-.54,1.31.4,1.22,2.79-.26,4.33.12,8.58.89,3.47,1.16,3.85,2.7,10.78,4.28,10.8,13.24,19.61,25.76,37,28.27,0,0,1.82,2.23,3.44-.61,0,0,11.18-14.45,15.08-24.23Z" fill="#d4a288"/>
      <path id="Path_19" data-name="Path 19" d="M337.38,136.65s13.76-23.49,18.62-26.52,14.17-5.26,14.17-5.26L383.94,103s16.8,3.85,25.91,15.59,15.58,26.72,15.58,26.72l-18.82,14.58s-4.66,12.34-6.28,20.24c0,0-31,4.05-45.54,2.63,0,0-2.84-20.65-4.25-33C350.54,149.8,341,142.52,337.38,136.65Z" fill="#6ca5bf"/>
      <path id="Path_20" data-name="Path 20" d="M361.27,67.65s-3.24,10.09-4,14.75c0,0-1.22,10.32,1.62,11.33s11.32,2.68,11.32,2.68a24.9,24.9,0,0,1,0,8.46s.41,4,5.87,4.45a7.21,7.21,0,0,0,7.9-6.48s0-11.74,2-18.22c0,0,7.29-6.88,5.06-17s-15-4.05-15-4.05Z" fill="#d4a288"/>
      <path id="Path_21" data-name="Path 21" d="M381,73s5-2,6,2-2,7-3,8c0,0,7-3,7-7s-3-7-6-6a6.93,6.93,0,0,0-4,3Z" fill="#8c8c8c" opacity="0.2"/>
      <g id="Group_3" data-name="Group 3" opacity="0.2">
        <path id="Path_22" data-name="Path 22" d="M370.16,96.41s10-3.91,11.56-5.84,1.55-5.78,4.63-6.94c0,0-1.43,3.42-2.05,11-.05.58-13.76,5.58-13.81,4.82S370.35,97.69,370.16,96.41Z" fill="#8c8c8c"/>
      </g>
      <path id="Path_23" data-name="Path 23" d="M359.24,74.73s-2,2.23-3,3.24,1.52,2.29,1.52,2.29l3.1-1.26Z" fill="#d4a288"/>
      <path id="Path_24" data-name="Path 24" d="M350.54,149.8s-1.42-10.72-1.62-14.17l.4,13.16Z" fill="#466a79"/>
      <path id="Path_25" data-name="Path 25" d="M364.15,333.67c-4.07-24.4-12.66-59.46-13.21-76.78-.61-19.23,3.85-68.83,3.85-68.83V183l45.54-2.83a142.629,142.629,0,0,1,7.29,43.11c.32,17.27-6.62,42-7,47-.39,5.78,2.31,12.72,1.92,23.52-.43,12.17-2.87,25.76-3.93,38.16l-8.4.39c-2.46-14-8.49-53.59-9.26-65.93-2-26.36.74-38.69-2.31-44.34-2.7,20.44-9.31,36.4-6.17,51.28,5.33,25.24.83,42.62.1,59.38Z" fill="#2a2b54"/>
      <path id="Path_26" data-name="Path 26" d="M406.61,159.93a167.77,167.77,0,0,1-11.95-19s8.59,13.3,12.9,18.29Z" fill="#466a79"/>
      <path id="Path_27" data-name="Path 27" d="M327.86,165.19s3,2.22,4.26,3.24l-3.86-4.89Z" fill="#be8b72"/>
      <path id="Path_28" data-name="Path 28" d="M354.93,188.89a.2.2,0,0,1-.02-.39L402,185a.19.19,0,0,1,.21.18.18.18,0,0,1-.18.2l-47,3.47Z" fill="#fff"/>
      <path id="Path_29" data-name="Path 29" d="M386.06,186.49a.19.19,0,0,1-.19-.18l-.48-4.94a.2.2,0,0,1,.17-.21.19.19,0,0,1,.21.18l.48,4.94a.19.19,0,0,1-.17.21Z" fill="#fff"/>
      <path id="Path_30" data-name="Path 30" d="M388,186.49a.19.19,0,0,1-.19-.18l-.48-4.94a.19.19,0,0,1,.17-.21.2.2,0,0,1,.21.18l.48,4.94a.2.2,0,0,1-.17.21Z" fill="#fff"/>
      <path id="Path_31" data-name="Path 31" d="M363.31,188a.19.19,0,0,1-.19-.17l-.48-5a.2.2,0,0,1,.17-.21.19.19,0,0,1,.21.18l.49,4.94a.19.19,0,0,1-.18.21Z" fill="#fff"/>
      <path id="Path_32" data-name="Path 32" d="M365.24,188a.19.19,0,0,1-.19-.17l-.48-5a.2.2,0,0,1,.17-.21.19.19,0,0,1,.21.18l.48,4.94a.19.19,0,0,1-.17.21Z" fill="#fff"/>
      <path id="Path_33" data-name="Path 33" d="M353.39,202.77a.193.193,0,0,1-.05-.38c6-1.49,5.51-13.89,5.51-14a.19.19,0,1,1,.38,0,32.459,32.459,0,0,1-.51,6.57c-.86,4.47-2.69,7.18-5.29,7.83Z" fill="#fff"/>
      <path id="Path_34" data-name="Path 34" d="M403.51,202.77h0c-3.22-.64-5.94-3.76-7.85-9a40.3,40.3,0,0,1-1.94-7.79.18.18,0,0,1,.16-.21.19.19,0,0,1,.22.16c0,.15,2,15,9.49,16.48a.2.2,0,0,1,0,.39Z" fill="#fff"/>
      <path id="Path_35" data-name="Path 35" d="M378.39,220.32c-1.08,0-5.07-.42-5.92-6.44-1-6.78-1.44-26-1.44-26.24a.18.18,0,0,1,.18-.2.19.19,0,0,1,.2.19c0,.19.49,19.44,1.44,26.19.83,5.85,4.7,6.13,5.59,6.11l-1.53-32.83a.2.2,0,0,1,.39-.02l1.53,33a.19.19,0,0,1-.17.2Z" fill="#fff"/>
      <path id="Path_36" data-name="Path 36" d="M382.85,222.06a7.86,7.86,0,0,1-4.32-1,.18.18,0,0,1-.08-.18.21.21,0,0,1,.13-.16,17.68,17.68,0,0,0,8.76-7.23.19.19,0,1,1,.33.19,18.05,18.05,0,0,1-8.57,7.26c.84.4,3.19,1.24,7,.36a.2.2,0,0,1,.24.14.19.19,0,0,1-.15.23A14.621,14.621,0,0,1,382.85,222.06Z" fill="#fff"/>
      <path id="Path_37" data-name="Path 37" d="M370.74,224a.2.2,0,0,1-.2-.17.19.19,0,0,1,.17-.21,12,12,0,0,0,5.24-2,20.4,20.4,0,0,1-8.79-3.1.19.19,0,0,1-.05-.27.18.18,0,0,1,.26-.05c.05,0,4.64,3.05,9.15,3.05a.19.19,0,0,1,.18.13.17.17,0,0,1-.06.21,11.92,11.92,0,0,1-5.88,2.36Z" fill="#fff"/>
      <path id="Path_38" data-name="Path 38" d="M390.21,332.31a87.857,87.857,0,0,1,1.22,9h6.88s-.39-1.28,0-5.13c.08-1.4.19-2.82.31-4.25" fill="#d4a288"/>
      <path id="Path_39" data-name="Path 39" d="M361.27,67.65S367,70,377,68c0,0,.16,10.53-1,14-1,3-8,4-8,4s10,4,12-6c0-4,1-12,1-12l5-7Z" fill="#8c8c8c" opacity="0.2"/>
      <path id="Path_40" data-name="Path 40" d="M409.85,118.63c-8.58-11-24-15.11-25.74-15.54,1.23,1,13.3,10.63,20.89,23.91,8,14,13,24,13,24l4.35-3.27,3.08-2.38S419,130.37,409.85,118.63Z" fill="#8c8c8c" opacity="0.2"/>
      <path id="Path_41" data-name="Path 41" d="M394,180.92c3.86-.43,6.32-.75,6.32-.75,1.62-7.9,6.28-20.24,6.28-20.24l.84-.66-8.07-10.77Z" fill="#8c8c8c" opacity="0.2"/>
      <path id="Path_42" data-name="Path 42" d="M398.61,331.92c1.06-12.4,3.5-26,3.93-38.16.39-10.8-2.31-17.74-1.92-23.52.38-5,7.32-29.69,7-47a142.629,142.629,0,0,0-7.29-43.11l-6.07.38c.26.94,6.74,24.89,6.74,46.45,0,22-5,34-5,43s2,12,2,24c0,8.95-1,28.6-1.47,38l-.31,5.25a11,11,0,0,0,1.94.65Z" fill="#8c8c8c" opacity="0.35"/>
      <path id="Path_43" data-name="Path 43" d="M425.43,145.35c8.91,14.58,11.14,25.3,11.14,25.3,1.82,1.62-.61,4.46-.61,4.46-4.45,9.71-14.37,19.43-17.61,23.68s-3.17,7.81-3.65,10.32a42.252,42.252,0,0,1-3,9.72c-1,1.82-3,2-1.82-.61.83-1.81,1.21-6.88,1.21-6.88-1.21,2-2.44,6.24-5.67,9.72-2.63,2.83-4.65,2.63-2-1S408,209.92,408,209.92a46.7,46.7,0,0,1-6.47,7.09c-1.46,1.16-4.46,4.25-5.47,3s1.05-2.6,3.65-5.07c4.25-4,5.06-7.08,5.06-7.08s-4.25,2.63-6.48,4.25-5.06,3.64-5.87,2.43,1.79-2.88,4.65-5.06a19.23,19.23,0,0,0,5.87-7.29,6.82,6.82,0,0,1-3.11-2.16c2.22-2.43,8.58-2.49,8.58-2.49a32,32,0,0,0,4.66-9.32c2-6.07,6.47-16.19,6.47-16.19-7.56-6.07-11.14-11.42-11.91-12.71l-.09-.16,17.36-13.45Z" fill="#d4a288"/>
      <path id="Path_44" data-name="Path 44" d="M419.56,172.07a29.418,29.418,0,0,1,2.43-4.25s-1.44,1.78-3.05,3.92Z" fill="#be8b72"/>
      <path id="Path_45" data-name="Path 45" d="M425.43,145.35l-.51.4L420.74,149A78.161,78.161,0,0,1,432,171s1,1,0,3c0,0,0,5-9,16,0,0-6,7-8,10s-1,10-3,15a37.249,37.249,0,0,1-2.36,5.06c.39.4,1.4-.1,2-1.23a42.252,42.252,0,0,0,3-9.72c.48-2.51.41-6.07,3.65-10.32s13.16-14,17.61-23.68c0,0,2.43-2.84.61-4.46C436.57,170.65,434.34,159.93,425.43,145.35Z" fill="#8c8c8c" opacity="0.2"/>
      <path id="Path_46" data-name="Path 46" d="M390.21,347.35a2.65,2.65,0,0,0,0,1.93l.77,1.92a33,33,0,0,0,1.15,6.56,6.68,6.68,0,0,0,6.56,4.24c3.85,0,4.63-1.93,4.63-1.93l.28-2.55Z" fill="#fff"/>
      <path id="Path_47" data-name="Path 47" d="M390.69,341.48s-1.38-1.83.06-3.14,9.11-2.36,8.65,2.22c.46,4.13,3.59,9.36,4.12,13.3.44,3.21.27,5.56-2.83,6.49a7,7,0,0,1-8.07-4.36C391.69,352.88,390.69,341.48,390.69,341.48Z" fill="#6ca5bf"/>
      <path id="Path_48" data-name="Path 48" d="M390.69,341.48a14.4,14.4,0,0,0-.46,6l1.83,4.13Z" fill="#6ca5bf"/>
      <path id="Path_49" data-name="Path 49" d="M399.27,358.53c-3.59,0-4.78-2.38-5.57-4-.24-.48-.53-.77-.82-.83a.75.75,0,0,0-.57.16.19.19,0,0,1-.27,0,.2.2,0,0,1,0-.28,1.16,1.16,0,0,1,.9-.24,1.66,1.66,0,0,1,1.09,1c.75,1.49,1.88,3.74,5.23,3.74a3.69,3.69,0,0,0,4.05-3.66.19.19,0,0,1,.19-.19.2.2,0,0,1,.19.19,4.12,4.12,0,0,1-4.42,4.11Z" fill="#fff"/>
      <path id="Path_50" data-name="Path 50" d="M391.94,353.9a.19.19,0,0,1-.19-.16c-.05-.35-1.15-8.56-.38-10.89a.2.2,0,0,1,.37.13c-.75,2.24.38,10.62.39,10.7a.19.19,0,0,1-.16.22Z" fill="#fff"/>
      <path id="Path_51" data-name="Path 51" d="M398.11,352.75c-2.79,0-3.25-1.23-4.36-4.21l-.06-.16a31.459,31.459,0,0,1-.89-3.07,28.717,28.717,0,0,0-1-3.48c-.05-.13-.14-.29-.26-.3a1.215,1.215,0,0,0-.57.35.191.191,0,1,1-.27-.27c.05-.06.47-.57.93-.5a.77.77,0,0,1,.56.55,29.57,29.57,0,0,1,1.05,3.53,31.01,31.01,0,0,0,.88,3l.06.15c1.11,3,1.48,4,4,4a2.32,2.32,0,0,0,1.89-.66c.59-.72.43-2,.23-3-.16-.82-.54-2.09-.91-3.31a22.371,22.371,0,0,1-1-4.06,1.28,1.28,0,0,1,.37-1,1,1,0,0,1,.69-.21.19.19,0,0,1,.16.22.18.18,0,0,1-.22.16.57.57,0,0,0-.38.12,1,1,0,0,0-.23.72,22.68,22.68,0,0,0,1,3.94c.37,1.24.76,2.52.92,3.35.22,1.09.38,2.44-.31,3.28a2.68,2.68,0,0,1-2.28.86Z" fill="#fff"/>
      <path id="Path_52" data-name="Path 52" d="M395.8,350.82a.2.2,0,0,1-.02-.39l3.85-.38a.191.191,0,1,1,.04.38l-3.85.39Z" fill="#fff"/>
      <path id="Path_53" data-name="Path 53" d="M395,348.89a.2.2,0,0,1-.2-.17.19.19,0,0,1,.18-.21l4.24-.39a.19.19,0,0,1,.21.18.18.18,0,0,1-.18.2l-4.24.39Z" fill="#fff"/>
      <path id="Path_54" data-name="Path 54" d="M394.25,346.58a.2.2,0,0,1-.01-.39l4.63-.38a.191.191,0,0,1,.03.38l-4.63.39Z" fill="#fff"/>
      <path id="Path_55" data-name="Path 55" d="M393.48,344.65a.19.19,0,0,1-.19-.18.18.18,0,0,1,.18-.2l4.62-.39a.191.191,0,0,1,.04.38l-4.63.39Z" fill="#fff"/>
      <path id="Path_56" data-name="Path 56" d="M393.1,342.34a.2.2,0,0,1-.02-.39l4.63-.38a.19.19,0,0,1,0,.38l-4.63.39Z" fill="#fff"/>
      <path id="Path_57" data-name="Path 57" d="M403.52,353.86c-.53-3.94-3.66-9.17-4.12-13.3.21-2.09-1.31-3-3.14-3.3h0A7.59,7.59,0,0,1,396,342c-1,2,4,10,4,15a17.66,17.66,0,0,1-.53,5c3.18-.24,3.85-1.9,3.85-1.9l.28-2.55h0a10.579,10.579,0,0,0-.08-3.69Z" fill="#8c8c8c" opacity="0.2"/>
      <path id="Path_58" data-name="Path 58" d="M378,221a78.678,78.678,0,0,0-8,19q-4.5,16.5-3,30c1,9,4,18,4,31s-1,34.33-1,40.67a6,6,0,0,0,2.25-1.58,20.859,20.859,0,0,0,.22-3.15c0-1.41,0-2.83.1-4.24.73-16.76,5.23-34.14-.1-59.38-3.13-14.84,3.43-30.75,6.14-51.09Z" fill="#8c8c8c" opacity="0.35"/>
      <path id="Path_59" data-name="Path 59" d="M364.54,338.33c-1.13,2.27-6.57,6.8-13.13,9.51-5.7,2.36-7,2.72-7,6.57,0,0,4.61,2.09,13.36.45,7.24-1.36,17.66-2.71,17.66-2.71a2.67,2.67,0,0,0,0-2,21.4,21.4,0,0,0-1.59-9.51c-.45-1.59-.45-3-.9-3-1.36,0-.61,1.82-1.66,3-2.19,2.4-4.07,1.92-5.59,1.13A2.1,2.1,0,0,0,364.54,338.33Z" fill="#6ca5bf"/>
      <path id="Path_60" data-name="Path 60" d="M375.42,350.11s-14.73,2.49-20.16,3.17a38.131,38.131,0,0,1-10.77-.39,6.341,6.341,0,0,0-.16,1.4c0,.77,5,1.66,9.64,1.09,5.78-.71,17-2.63,21.59-3a2.63,2.63,0,0,0-.14-2.27Z" fill="#fff"/>
      <path id="Path_61" data-name="Path 61" d="M359.24,352.76h0a.18.18,0,0,1-.16-.22.75.75,0,0,0-.26-.57c-.43-.44-1.55-.89-4.43-.58a29,29,0,0,1-8.87-.3.2.2,0,0,1-.14-.24.19.19,0,0,1,.23-.14,28.481,28.481,0,0,0,8.74.3c2.45-.27,4.06,0,4.77.71a1.14,1.14,0,0,1,.34.88.19.19,0,0,1-.22.16Z" fill="#fff"/>
      <path id="Path_62" data-name="Path 62" d="M369.51,351.28h0a.18.18,0,0,1-.18-.2c.2-4.19,4.93-4.65,5.88-4.69a.17.17,0,0,1,.2.18.19.19,0,0,1-.18.2c-.89.05-5.33.47-5.52,4.33a.19.19,0,0,1-.2.18Z" fill="#fff"/>
      <path id="Path_63" data-name="Path 63" d="M373.18,343.23a2.719,2.719,0,0,1-.69-.09,4,4,0,0,1-2.13-1.79.195.195,0,0,1,.34-.19,3.66,3.66,0,0,0,1.9,1.61,2.41,2.41,0,0,0,1.84-.28.19.19,0,0,1,.26.07.21.21,0,0,1-.07.27A3,3,0,0,1,373.18,343.23Z" fill="#fff"/>
      <path id="Path_64" data-name="Path 64" d="M355.28,348.85a2.57,2.57,0,0,1-2.46-1.37.19.19,0,0,1,.09-.26.18.18,0,0,1,.25.08c.86,1.72,3.14,1,3.16,1a28,28,0,0,0,9.43-6.72.192.192,0,0,1,.3.24,28.689,28.689,0,0,1-9.59,6.84,4.25,4.25,0,0,1-1.18.19Z" fill="#fff"/>
      <path id="Path_65" data-name="Path 65" d="M355.71,348a.15.15,0,0,1-.11,0l-1.86-1.24a.191.191,0,1,1,.21-.32l1.87,1.24a.2.2,0,0,1,.05.27.19.19,0,0,1-.16.05Z" fill="#fff"/>
      <path id="Path_66" data-name="Path 66" d="M357.52,347.13a.15.15,0,0,1-.11,0l-1.82-1.32a.19.19,0,0,1,.22-.31l1.82,1.32a.19.19,0,0,1,.05.27.21.21,0,0,1-.16.04Z" fill="#fff"/>
      <path id="Path_67" data-name="Path 67" d="M359.56,345.77a.19.19,0,0,1-.12,0l-1.67-1.25a.193.193,0,1,1,.23-.31l1.67,1.25a.19.19,0,0,1,0,.27A.17.17,0,0,1,359.56,345.77Z" fill="#fff"/>
      <path id="Path_68" data-name="Path 68" d="M361.6,344.41h-.12l-1.7-1.28a.19.19,0,0,1,0-.27.2.2,0,0,1,.27,0l1.69,1.28a.152.152,0,0,1-.14.27Z" fill="#fff"/>
      <path id="Path_69" data-name="Path 69" d="M363.63,342.83a.19.19,0,0,1-.1,0l-1.87-1.25a.19.19,0,0,1-.05-.27.18.18,0,0,1,.26,0l1.87,1.25a.18.18,0,0,1,.05.26A.17.17,0,0,1,363.63,342.83Z" fill="#fff"/>
      <path id="Path_70" data-name="Path 70" d="M361.6,352.55a.191.191,0,0,1-.09-.36c4.14-2.2,5.86-4.79,6.58-6.59a7.21,7.21,0,0,0,.56-3.39.21.21,0,0,1,.16-.22.19.19,0,0,1,.22.16c0,.06.84,6.05-7.34,10.38Z" fill="#fff"/>
      <path id="Path_71" data-name="Path 71" d="M351.45,157.71l-1.78-14.55-1,3.58C342.45,167.82,335,178,335,178c-1,3-3,2-3,2-4-1-16-5-24-13a96.664,96.664,0,0,0-10.72-9.42c10.28,12.7,19.08,24.42,35.85,26.84,0,0,1.82,2.23,3.44-.61,0,0,11.19-14.45,15.08-24.23Z" fill="#8c8c8c" opacity="0.2"/>
      <path id="Path_72" data-name="Path 72" d="M375.56,352.36a2.63,2.63,0,0,0-.14-2.25h0a19,19,0,0,0-.06-3.4.24.24,0,0,0,0-.14.22.22,0,0,0-.08-.15,23.491,23.491,0,0,0-.74-3.57h.05a.21.21,0,0,0,.07-.27.2.2,0,0,0-.23-.08c-.18-.61-.39-1.23-.65-1.88-.45-1.59-.45-3-.9-3-1.36,0-.61,1.82-1.66,3a7.466,7.466,0,0,1-.57.56.18.18,0,0,0-.25-.07.19.19,0,0,0-.08.26v.06a3.85,3.85,0,0,1-.4.26,13.51,13.51,0,0,1,.5,9.16,2.08,2.08,0,0,1,.19,2.11C372.63,352.68,374.32,352.46,375.56,352.36Z" fill="#8c8c8c" opacity="0.2"/>
      <path id="Path_73" data-name="Path 73" d="M399.32,54.46c-1.82-1-4.86,1-4.86,1,0-1.62,2.23-4.65,2.23-4.65a7,7,0,0,0-3.64,3c-3.65-11.74-16-5.06-21.06-4s-11.74-1.62-16.19,2.63S350.74,66,363.09,68s21.66-5.26,21.66-5.26L378.88,68s0,13.36-2.23,15.59S370,86.24,370,86.24c-3.85-6.68-12.75-3.84-12.75-3.84-1.83,7.49-2,15,6.07,15s18-5.06,19-6.48,1-5.06,3.64-6.68,7.49-3.85,11.13-11.74-1-14.78-1-14.78C396.49,55.68,399.32,54.46,399.32,54.46ZM361.67,92.11c-3-.6-3.44-2.63-2.43-7.49,0,0,5.26-.6,7.49,2.23S364.71,92.72,361.67,92.11Zm21.05-9.71s1.42-5.67-1-9.32c1.21-1.82,5.4-3.09,6.88.21C390.41,77.34,388.19,82.19,382.72,82.4Z" fill="#372a2b"/>
      <path id="Path_74" data-name="Path 74" d="M397.09,72.48a15.945,15.945,0,0,0-1-14.78c.41-2,3.24-3.24,3.24-3.24-1.82-1-4.86,1-4.86,1,0-1.62,2.23-4.65,2.23-4.65a7,7,0,0,0-3.64,3c-3.65-11.74-16-5.06-21.06-4-3.71.74-8.28-.47-12.22.5-.76,1.11-3,5,1.23,6.69,5,2,11,2,18-1s14-1,14,11-6.67,16.92-6.67,16.92h.13a23.16,23.16,0,0,0,10.62-11.44Z" fill="#282021"/>
      <path id="Path_75" data-name="Path 75" d="M153.37,145.91s17.6,38.06-.41,45S146.82,160.23,153.37,145.91Z" fill="#372a2b"/>
      <path id="Path_76" data-name="Path 76" d="M154,190.45c12.63-6.23,5.29-29.64,1.36-39.79L153,153l.33,2.67S159,177,152,183.5Z" fill="#282021"/>
      <path id="Path_77" data-name="Path 77" d="M95.91,188.43s6.36,4,11.63,4.54c0,0,10.4-14.1,11-19.17s9.06-28.3,9.06-28.3Z" fill="#372a2b"/>
      <path id="Path_78" data-name="Path 78" d="M98.54,329.2a29.6,29.6,0,0,1-.15,3.16c-.44,2.69-9.4,15.45-8,19.93s6,1.56,7.16-.9a113,113,0,0,0,4-12.31c.64-2.46,1.12-6.27,2-9.63" fill="#d4a288"/>
      <path id="Path_79" data-name="Path 79" d="M132.64,333.6v1.22c0,5.38-2.46,12.76-1.12,13.88s6.72,1.8,7.39,2.47,6.27,3.13,8.28,4,5.56,1.05,5.12-1.19-9.15-9.11-11.16-13.81c-1.35-3.15-2.1-4.79-2.38-6.73" fill="#d4a288"/>
      <path id="Path_80" data-name="Path 80" d="M126.16,271c1.34-2.24,2.46-9.85,2.46-9.85s.89,30,2.24,37.38c1.27,7,1.74,28.28,1.79,35.18a9.33,9.33,0,0,0,6.12-.4,16.411,16.411,0,0,1-.08-3.21c.23-4,10.75-32.69,10.08-44.1s-1.12-19-1.12-25.53,8.95-23.06,11.19-37.61-4-33.36-8.06-40.52l-41.86-2.24s-7.39,26.19-7.17,36.72,6.72,35.59,8.73,39.62,2,5.38-.44,9.18-11,15-11.42,26.42c-.37,9.46,0,29-.08,37a9.26,9.26,0,0,0,5,.39c.9-3.36,8.51-26.42,11.42-32.91S124.81,273.25,126.16,271Z" fill="#361e3a"/>
      <path id="Path_81" data-name="Path 81" d="M135.12,334.27a9.459,9.459,0,0,1-2.53-.34.24.24,0,0,1-.15-.2c0-5.59-.47-27.94-1.78-35.14-1.13-6.18-1.94-28.39-2.18-35.33-.43,2.43-1.23,6.33-2.15,7.86s-3.83,8.42-6.73,15.21c-1.73,4-3.36,7.87-4.45,10.29-2.93,6.55-10.55,29.65-11.41,32.88a.19.19,0,0,1-.16.15,9.46,9.46,0,0,1-5.11-.39.22.22,0,0,1-.14-.2c0-2.85,0-7.09,0-12-.06-8.87-.12-18.93.11-25,.4-10.19,7.17-20.17,10.42-25,.41-.6.76-1.12,1-1.55,2.38-3.69,2.44-4.95.43-9s-8.53-29.11-8.75-39.71c-.22-10.43,7.1-36.51,7.17-36.78a.22.22,0,0,1,.21-.15l41.86,2.24a.23.23,0,0,1,.17.11c3.53,6.27,10.46,25.21,8.09,40.65-1.2,7.8-4.26,16-7,23.25-2.27,6.09-4.23,11.35-4.23,14.33,0,6.49.45,14.06,1.12,25.51.46,7.71-4.2,23.36-7.28,33.71-1.52,5.1-2.72,9.12-2.79,10.42a16,16,0,0,0,.07,3.17.22.22,0,0,1-.12.22A9.59,9.59,0,0,1,135.12,334.27Zm-2.27-.7a9.16,9.16,0,0,0,5.69-.37,16.812,16.812,0,0,1,0-3.09c.07-1.35,1.28-5.39,2.8-10.52,3.08-10.32,7.72-25.93,7.27-33.56-.67-11.47-1.12-19-1.12-25.54,0-3.06,2-8.35,4.26-14.47,2.7-7.23,5.75-15.42,6.94-23.17,2.22-14.42-4.07-33.28-8-40.29l-41.59-2.23c-.61,2.2-7.32,26.55-7.11,36.5.22,10.55,6.76,35.65,8.71,39.54,2.08,4.16,2,5.57-.46,9.38-.28.43-.63.95-1,1.56-3.23,4.76-10,14.68-10.35,24.76-.23,6.07-.17,16.12-.11,25,0,4.83.06,9,0,11.86a9,9,0,0,0,4.64.35c1-3.66,8.49-26.34,11.4-32.81,1.08-2.43,2.71-6.25,4.44-10.29,2.91-6.81,5.91-13.84,6.76-15.26,1.31-2.18,2.43-9.7,2.44-9.77a.21.21,0,0,1,.21-.18.2.2,0,0,1,.19.2c0,.3.91,30.07,2.24,37.36s1.7,29.2,1.75,35.04Zm-29.31-4.12Z" fill="#361e3a"/>
      <path id="Path_82" data-name="Path 82" d="M128.62,261.37h0a.21.21,0,0,1-.17-.24s.25-1.69.6-4.42a.2.2,0,1,1,.4.05c-.34,2.74-.6,4.42-.6,4.44a.2.2,0,0,1-.23.17Z" fill="#fff"/>
      <path id="Path_83" data-name="Path 83" d="M129.73,252.59h0a.19.19,0,0,1-.18-.22c.94-8.4,2.38-24.2,1.36-35.88l-4.87-4.2a.205.205,0,0,1,.29-.29l4.93,4.25a.27.27,0,0,1,.07.14c1,11.73-.41,27.61-1.36,36a.2.2,0,0,1-.24.2Z" fill="#fff"/>
      <path id="Path_84" data-name="Path 84" d="M131.08,216.59a.21.21,0,0,1-.12-.37,46.481,46.481,0,0,0,9.14-8.69.21.21,0,0,1,.29,0,.2.2,0,0,1,0,.28,46.749,46.749,0,0,1-9.22,8.77.17.17,0,0,1-.09.01Z" fill="#fff"/>
      <path id="Path_85" data-name="Path 85" d="M130.63,205.85h-.09a.22.22,0,0,1-.11-.18l-.9-14.1a.22.22,0,0,1,.2-.22.2.2,0,0,1,.21.19l.88,13.75,1.62-1.08-.22-7.72a.21.21,0,0,1,.2-.21.2.2,0,0,1,.21.2l.22,7.83a.19.19,0,0,1-.09.18l-2,1.34A.28.28,0,0,1,130.63,205.85Z" fill="#fff"/>
      <path id="Path_86" data-name="Path 86" d="M152.32,354c-.44-2.15-8.49-8.59-10.89-13.27a8.581,8.581,0,0,0-1.24.73,8.06,8.06,0,0,0-2.76,3,48.888,48.888,0,0,1-5.59-2.61c-.57,3.34-1.11,6.2-.31,6.86,1.34,1.12,6.72,1.8,7.39,2.47s6.27,3.13,8.28,4S152.76,356.25,152.32,354Z" fill="#c970af"/>
      <path id="Path_87" data-name="Path 87" d="M150.09,356a7.64,7.64,0,0,1-3-.64l-.36-.15c-3.62-1.61-7.4-3.33-8-3.92a10.841,10.841,0,0,0-2.82-.88c-1.77-.43-3.77-.92-4.55-1.57s-.4-3.31.17-6.61l.07-.44a.19.19,0,0,1,.11-.15.21.21,0,0,1,.19,0,49.093,49.093,0,0,0,5.4,2.53,8.16,8.16,0,0,1,2.74-2.89,8.42,8.42,0,0,1,1.27-.74.2.2,0,0,1,.27.09c1.26,2.45,4.08,5.39,6.57,8,2.3,2.39,4.11,4.27,4.33,5.34h0a1.46,1.46,0,0,1-.49,1.53A3.1,3.1,0,0,1,150.09,356ZM132,342.16v.16c-.5,2.92-1,5.67-.31,6.23a15.512,15.512,0,0,0,4.39,1.48,9.17,9.17,0,0,1,3,1c.61.61,5.88,3,7.87,3.83l.35.16c1.44.64,3.63.86,4.5.17a1.06,1.06,0,0,0,.33-1.12c-.19-1-2.14-3-4.21-5.14-2.45-2.55-5.23-5.44-6.55-7.91a9.914,9.914,0,0,0-1,.63,7.7,7.7,0,0,0-2.7,2.91.2.2,0,0,1-.25.09,50,50,0,0,1-5.42-2.49Z" fill="#c970af"/>
      <path id="Path_88" data-name="Path 88" d="M147.2,355.2c2,.89,5.56,1.05,5.12-1.19a2,2,0,0,0-.17-.43c-4.64,1.29-8-1.11-13.65-4.24a27.41,27.41,0,0,0-7.33-3,3.227,3.227,0,0,0,.36,2.36c1.34,1.12,6.72,1.8,7.39,2.47S145.19,354.3,147.2,355.2Z" fill="#fff"/>
      <path id="Path_89" data-name="Path 89" d="M150.09,356a7.64,7.64,0,0,1-3-.64l-.35-.15c-3.63-1.61-7.41-3.33-8-3.92a10.841,10.841,0,0,0-2.82-.88c-1.77-.43-3.77-.92-4.55-1.57-.41-.36-.54-1.19-.43-2.54a.19.19,0,0,1,.08-.15.25.25,0,0,1,.17,0,27.641,27.641,0,0,1,7.38,3l1.9,1.07c4.56,2.57,7.58,4.27,11.59,3.15a.19.19,0,0,1,.23.1,1.719,1.719,0,0,1,.19.49,1.44,1.44,0,0,1-.48,1.53,3.1,3.1,0,0,1-1.91.51Zm-18.73-9.42c-.09,1.37.15,1.81.31,1.95.7.59,2.74,1.08,4.38,1.48a9.171,9.171,0,0,1,3,1c.61.61,5.89,3,7.87,3.83l.35.16h0c1.44.64,3.63.86,4.5.17a1.07,1.07,0,0,0,.33-1.13,1.19,1.19,0,0,0-.07-.23c-4.1,1.07-7.15-.65-11.74-3.24l-1.9-1.06a27.43,27.43,0,0,0-7.03-2.91Z" fill="#fff"/>
      <path id="Path_90" data-name="Path 90" d="M97.5,351.39c.89-1.94,2.46-7,3.42-10.2a4.15,4.15,0,0,0-3.67-1.84,6.13,6.13,0,0,0-2.69.62c-2.44,4.53-5,9.76-4.25,12.32C91.68,356.76,96.38,353.85,97.5,351.39Z" fill="#c970af"/>
      <path id="Path_91" data-name="Path 91" d="M92.93,354.82h-.19c-.87-.06-2-.53-2.63-2.47-.77-2.59,1.73-7.76,4.27-12.47a.2.2,0,0,1,.09-.09,6.52,6.52,0,0,1,2.78-.65,4.41,4.41,0,0,1,3.84,1.94.25.25,0,0,1,0,.17c-1.11,3.75-2.6,8.4-3.43,10.23a6.09,6.09,0,0,1-4.73,3.34Zm1.78-14.69c-2.49,4.62-4.93,9.67-4.21,12.1.43,1.38,1.19,2.11,2.26,2.18,1.72.11,3.86-1.58,4.55-3.1h0a103.083,103.083,0,0,0,3.39-10.08,4,4,0,0,0-3.44-1.68,5.91,5.91,0,0,0-2.55.58Z" fill="#c970af"/>
      <path id="Path_92" data-name="Path 92" d="M97.5,351.39c.35-.76.81-2,1.28-3.41-2,3.87-4.21,5.16-6.21,4.75-1.79-.35-1.79-3.62-1.72-4.72a7.73,7.73,0,0,0-.51,4.28C91.68,356.76,96.38,353.85,97.5,351.39Z" fill="#fff"/>
      <path id="Path_93" data-name="Path 93" d="M92.93,354.82h-.19c-.87-.06-2-.54-2.6-2.48a7.9,7.9,0,0,1,.53-4.41.18.18,0,0,1,.23-.12.2.2,0,0,1,.16.21c0,.42-.22,4.17,1.55,4.51,2.11.43,4.18-1.18,6-4.65a.21.21,0,0,1,.26-.09A.19.19,0,0,1,99,348c-.5,1.52-1,2.71-1.28,3.44h0a6.09,6.09,0,0,1-4.79,3.38Zm-2.29-5.52a7.52,7.52,0,0,0-.1,2.95c.4,1.35,1.15,2.09,2.22,2.16,1.72.12,3.86-1.57,4.55-3.1h0c.17-.37.37-.86.59-1.45-2,3-4,3.35-5.37,3.07s-1.82-2.23-1.89-3.63Z" fill="#fff"/>
      <path id="Path_94" data-name="Path 94" d="M211.94,150.59s3.32.78,9.95-1.17,7-2.73,7.6-2.14-3.12,2.73-6,3.7c0,0,7-.19,12.48-3.31,2.78-1.59,1.2,1-1,2.34a23.54,23.54,0,0,1-7.6,2.92s6.82-.58,10.14-2.34,3.31-.39,2.34.39a25.32,25.32,0,0,1-10,3.9s7,0,9.56-1.17,1.56,1.37-2.54,2.54-10.14.58-10.53,2.73,4.88,3.9,3.32,8.58c0,0-.59.39-1.37-1.17s-3.31-4.87-6-5.65-8.19-1.76-10.34-3.13S211.94,150.59,211.94,150.59Z" fill="#d4a288"/>
      <path id="Path_95" data-name="Path 95" d="M141.74,78.63s12.09,25.75-2.93,24.19c-8.58-1-11.11-3.9-11.11-3.9s-2.54,2.53-5.07,1.75-4.88-5.66-3.52-8.58,3.91-2.34,5.27-5.46,2.15-4.88,1-10.34C125.36,76.29,134.91,81.75,141.74,78.63Z" fill="#d4a288"/>
      <path id="Path_96" data-name="Path 96" d="M125.94,77.27s2.54,8.19-3.12,12.28c0,0-5.85,2.93-2.34,8s7.22,1.37,7.22,1.37,6.24,4.29,5.46,16.77c0,0-5.46,3.12-11.7,12.09s-11.12,19.3-17.56,25S91.81,158.4,77,171.07c0,0-10.72-10.53-1.75-22.62S103.51,126,108,113.15s-6.63-23.79-5.66-33.74,17-24.18,36.08-15.21S149.54,118,149.54,118s-5.07-1.76-9.17-2.93c0,0-1.17-7.6-1.56-12.28,0,0,5.27.78,6.63-2.93s-.19-10.73-3.9-20.09C141.54,79.8,131.4,83.7,125.94,77.27Z" fill="#372a2b"/>
      <path id="Path_97" data-name="Path 97" d="M125.51,100.1c1,2.4,3.26,8.25,2.49,12.9a115.77,115.77,0,0,0-14,18c-7,11-12,23-21.5,29,0,0,16.5-5,23.5-16s19-28,19-28l-2-12-5.09-4.92a4.17,4.17,0,0,1-2.4,1.02Z" fill="#282021"/>
      <path id="Path_98" data-name="Path 98" d="M125.1,107.13a2.45,2.45,0,0,1-1.22-.35,5.81,5.81,0,0,1-2.6-5.19c0-1.68.54-3.08,1.37-3.56a1.4,1.4,0,0,1,1.45,0,.42.42,0,0,1,.15.56.41.41,0,0,1-.56.15.58.58,0,0,0-.63,0,3.5,3.5,0,0,0-1,2.85c0,.76.16,3.32,2.19,4.48a1.22,1.22,0,0,0,1.65-.16c1-1.07,1-3.79-.3-5.71a.41.41,0,0,1,.67-.47c1.63,2.33,1.44,5.41.24,6.73a1.92,1.92,0,0,1-1.41.67Z" fill="#fcf7f1"/>
      <path id="Path_99" data-name="Path 99" d="M122.82,89.55s-10-13.5-8.24-25.37l-4.28,2.73s-.23,14,10,24.86a7.73,7.73,0,0,1,2.52-2.22Z" fill="#f9ebda"/>
      <path id="Path_100" data-name="Path 100" d="M67.72,194.28s-6.72,4.87-19.79,3.31c0,0,.39,1,2.93,1.56a29.43,29.43,0,0,0,5.65.59,34.859,34.859,0,0,1-8,1.36c-3.9.18-5.66-.39-5.66,0s2.53,1.76,6.24,1.76a27.6,27.6,0,0,0,8.39-1.17s-3.32,1.95-10,3.12-6,1.17-6,1.17.57.89,4.48.78A35.19,35.19,0,0,0,58.46,204s-9.16,6-11.11,6.43a3.89,3.89,0,0,0,3.7,0c2.34-1,8.78-4.48,9.76-4.87a1.14,1.14,0,0,1,1.36,1.75c-.78,1.17-2.34,2.54-2.53,4.29a1.35,1.35,0,0,0,.78,1.37s5.26-5.66,6.63-7.22,3.9-7.41,3.9-7.41S70.74,196.24,67.72,194.28Z" fill="#d4a288"/>
      <g id="Group_4" data-name="Group 4">
        <path id="Path_101" data-name="Path 101" d="M108,69l5.65,2L120,62h1c0,5-7.15,10.2-7.15,10.2L107,70Z" fill="#c7c7c7"/>
      </g>
      <path id="Path_102" data-name="Path 102" d="M142.32,85.34s2.46,2,3.68,2.86-1.22,2.46-2,2.87S142.32,85.34,142.32,85.34Z" fill="#d4a288"/>
      <path id="Path_103" data-name="Path 103" d="M125,123.29s-5.16,5.43-13.11,19.6c-7.18,11.8-14,13.78-18.29,16.4S71,172.63,68.22,183s-.59,11.31,0,11.89A7.55,7.55,0,0,1,71,198.37s10.33,3.12,25-9.94c7.73-6.91,10.11-8.48,14.49-14.69,4.91-7,12.64-20.3,13.51-21.69,0,0-8.6,17.19-13.92,24.55a62,62,0,0,0-3.87,12.4l48.48-.53c-2-6.66-3.88-10.8-4.5-13.91-.2-1-.56-11.09,4.31-21.43a12.12,12.12,0,0,0,3.87-8.86,50.8,50.8,0,0,0-.41-6.14c.82,3.28,1.08,6.79,1.23,7,3.81,4.26,21.55,23.38,36.66,23.64,11.5.2,16.18-11.12,16.18-11.12s-1.36-3.9,0-7c0,0-7.27-.92-28.08-13.06-9.36-5.46-19.11-14.82-34.32-19.5Z" fill="#c970af"/>
      <path id="Path_104" data-name="Path 104" d="M122.88,154.09h-.1a.21.21,0,0,1-.08-.28l2-3.6c-.32-.75-2.34-5.74-1.2-10.67a.21.21,0,0,1,.25-.15.19.19,0,0,1,.15.24c-1.2,5.19,1.19,10.46,1.21,10.51a.19.19,0,0,1,0,.18l-2,3.69a.2.2,0,0,1-.23.08Z" fill="#fff"/>
      <path id="Path_105" data-name="Path 105" d="M138.81,102.82l1.56,12.28s7.61,2.15,9.17,2.93c0,0-1.56,9.16-10.73,11.11s-13.89-5.89-13.89-5.89,4.34-5.61,8.24-7.56c0,0,1-9.33-4.57-16C128.59,99.71,132,102,138.81,102.82Z" fill="#d4a288"/>
      <g id="Group_5" data-name="Group 5" opacity="0.2">
        <path id="Path_106" data-name="Path 106" d="M138.81,102.82a30.11,30.11,0,0,1-10.14-3.12s2.3,3.84,3.1,5.62a14.65,14.65,0,0,0,7.49,1Z" fill="#8c8c8c"/>
      </g>
      <path id="Path_107" data-name="Path 107" d="M138.42,64.2a27,27,0,0,0-19.3-1.82C139,63,141.57,79.77,141.57,79.77L146,78c3,12,3,27.33-.5,38.67l.39.14c2.09.68,3.65,1.22,3.65,1.22S157.53,73.17,138.42,64.2Z" fill="#282021"/>
      <path id="Path_108" data-name="Path 108" d="M111.36,70.34c0-.29-11.36-3.41-9.41-8.28s7.22-2.15,10.14,2.73c0,0,1.56-8,6.63-6.63S117.16,68.3,113.65,71Z" fill="#c970af"/>
      <path id="Path_109" data-name="Path 109" d="M190,160c-14.5-4.53-28.86-16.18-31.43-18.32.3,1.87.44,3.3.53,3.41,3.81,4.26,21.55,23.38,36.66,23.64,9.61.16,14.46-7.7,15.79-10.29C209.89,159.89,203.51,164.22,190,160Z" fill="#8c8c8c" opacity="0.2"/>
      <path id="Path_110" data-name="Path 110" d="M158.18,141.35h0v.17a.76.76,0,0,0,0-.17Z" fill="#8c8c8c"/>
      <path id="Path_111" data-name="Path 111" d="M150.17,153S146,165,146,174s1.67,9,1.83,14.5h6.77c-2-6.66-3.88-10.8-4.5-13.91-.2-1-.56-11.09,4.31-21.43a12.12,12.12,0,0,0,3.87-8.86s0-2.64-.29-5.25C157.86,140.48,156.79,150.23,150.17,153Z" fill="#8c8c8c" opacity="0.2"/>
      <path id="Path_112" data-name="Path 112" d="M71.32,198.46c2,.41,11.58,1.59,24.59-10,7.73-6.91,10.11-8.48,14.49-14.69,4.91-7,12.64-20.3,13.51-21.69C123.91,152.05,104.73,182.12,71.32,198.46Z" fill="#8c8c8c" opacity="0.2"/>
      <path id="Path_113" data-name="Path 113" d="M126,77s3.67,6.43,15.42,2.56l.78,1.85C138.29,82.18,129.11,83.23,126,77Z" fill="#8c8c8c" opacity="0.2"/>
      <path id="Path_114" data-name="Path 114" d="M152,355.5a1.46,1.46,0,0,0,.49-1.53h0c-.22-1.07-2-3-4.33-5.34-2.49-2.59-5.31-5.53-6.57-8a.2.2,0,0,0-.27-.09h0c-.06-.12-.13-.24-.18-.36-1.33-3.11-2.08-4.75-2.36-6.67h0a.22.22,0,0,0,.12-.22,16,16,0,0,1-.07-3.17c.07-1.3,1.27-5.32,2.79-10.42,3.08-10.35,7.74-26,7.28-33.71-.67-11.45-1.12-19-1.12-25.51,0-3,2-8.24,4.23-14.33,2.71-7.24,5.77-15.45,7-23.25,1.85-12.07-2-26.29-5.43-34.91H146s8,15,6,36-8,29-8,36,3,16,1,30-8,35-8,40,.33,6,2,10,10,12,10,12,3.19,2,1.09,4A3.1,3.1,0,0,0,152,355.5Z" fill="#8c8c8c" opacity="0.35"/>
      <path id="Path_115" data-name="Path 115" d="M67,203a81.921,81.921,0,0,1-7.17,9.5h0a1.53,1.53,0,0,0,.59.5s5.26-5.66,6.63-7.22,3.9-7.41,3.9-7.41a3.341,3.341,0,0,0-.32-1v-.06S69,200,67,203Z" fill="#8c8c8c" opacity="0.2"/>
      <path id="Path_116" data-name="Path 116" d="M220,159c-3.41-.85-6.82-1.71-8.37-2.56l.31,1.17c2.15,1.37,7.61,2.35,10.34,3.13a10.08,10.08,0,0,1,4.46,3.32l.2.06C224.88,161.25,224,160,220,159Z" fill="#8c8c8c" opacity="0.2"/>
      <path id="Path_117" data-name="Path 117" d="M131,217c-2,17-6,41-8,49s-4,12-9,25-11,33-14,44-5,15-6,17a9.44,9.44,0,0,1-1.84,2.71,2.561,2.561,0,0,0,.58.11h.19a6,6,0,0,0,4.54-2.95c.07-.13.16-.26.22-.39l.25-.59v-.09l.29-.73h0c.85-2.25,2-5.8,2.85-8.78a.25.25,0,0,0,0-.17,1.474,1.474,0,0,0-.1-.13c.23-.76.41-1.4.54-1.87.66-2.41,1.1-6.11,2-9.42h.09a.19.19,0,0,0,.16-.15c.86-3.23,8.48-26.33,11.41-32.88,1.09-2.42,2.72-6.25,4.45-10.29,2.9-6.79,5.9-13.82,6.73-15.21s1.61-4.93,2.06-7.37C132.74,232.71,131,217,131,217Z" fill="#8c8c8c" opacity="0.35"/>
      <path id="Path_118" data-name="Path 118" d="M118.72,58.16a3.74,3.74,0,0,0-2.89.31c1.84.94,3.61,3.8-2.53,12.45l.21.06h.23C117.27,68.15,123.75,59.51,118.72,58.16Z" fill="#8c8c8c" opacity="0.2"/>
    </g>
  </g>
</svg>
