<svg xmlns="http://www.w3.org/2000/svg" width="104.972" height="104.973"><defs><clipPath id="a"><path d="M191.93 29.129H296.9V134.1H191.93Zm0 0" data-name="Path 31"/></clipPath></defs><g data-name="AI Chat"><path fill="#f2f6f8" d="M103.937 52.48a51.457 51.457 0 1 0-51.457 51.457 51.456 51.456 0 0 0 51.457-51.457" data-name="Path 29"/><g clip-path="url(#a)" data-name="Group 2" transform="translate(-191.93 -29.129)"><path fill="#29abe2" d="M244.41 31.176a50.434 50.434 0 1 0 50.434 50.434 50.491 50.491 0 0 0-50.434-50.434Zm0 102.914a52.48 52.48 0 1 1 37.11-15.371 52.137 52.137 0 0 1-37.11 15.371" data-name="Path 30"/></g><path fill="#fafcfd" d="M99.613 52.48A47.131 47.131 0 1 0 52.48 99.613 47.132 47.132 0 0 0 99.613 52.48" data-name="Path 32"/><path fill="#fff" d="M96.218 52.48A43.738 43.738 0 1 0 52.48 96.219 43.738 43.738 0 0 0 96.218 52.48" data-name="Path 33"/><path fill="#d4145a" d="M40.023 38.777a2.087 2.087 0 0 1-1.715-2.2 1.74 1.74 0 1 1 3.434 0 2.089 2.089 0 0 1-1.719 2.2Zm2.6.84a4.52 4.52 0 0 0 1.168-3.043 3.776 3.776 0 1 0-7.528 0 4.524 4.524 0 0 0 1.168 3.043 7.257 7.257 0 0 0-2.879 2.895 1.023 1.023 0 1 0 1.782 1 3.969 3.969 0 0 1 7.383 0 1.024 1.024 0 0 0 1.785-1 7.256 7.256 0 0 0-2.879-2.895" data-name="Path 34"/><path fill="#d4145a" d="M50.828 44.695a2.722 2.722 0 0 1-2.7 2.488h-6.746a1.464 1.464 0 0 0-1.043.43l-4.551 4.551v-3.5a1.478 1.478 0 0 0-1.477-1.477h-2.375a2.719 2.719 0 0 1-2.715-2.715V31.371a2.717 2.717 0 0 1 2.715-2.715h16.18a2.717 2.717 0 0 1 2.715 2.715Zm-2.715-18.082h-16.18a4.767 4.767 0 0 0-4.763 4.758v13.1a4.767 4.767 0 0 0 4.761 4.762h1.8v4.3a1.476 1.476 0 0 0 .914 1.367 1.439 1.439 0 0 0 .566.113 1.456 1.456 0 0 0 1.043-.434l5.356-5.352h6.508a4.773 4.773 0 0 0 4.746-4.426.415.415 0 0 0 0-.07v-13.36a4.768 4.768 0 0 0-4.762-4.762" data-name="Path 35"/><path fill="#29abe2" d="M48.015 71.812a1.029 1.029 0 0 0-1.093.954 3.442 3.442 0 0 1-3.422 3.187h-8.043a1.549 1.549 0 0 0-1.106.457l-5.761 5.761v-4.656a1.566 1.566 0 0 0-1.567-1.563h-2.832a3.44 3.44 0 0 1-3.433-3.434V56.902a3.44 3.44 0 0 1 3.433-3.434h6.527a1.023 1.023 0 1 0 0-2.047h-6.527a5.49 5.49 0 0 0-5.48 5.481v15.617A5.49 5.49 0 0 0 24.191 78h2.352v5.332a1.566 1.566 0 0 0 .965 1.449 1.63 1.63 0 0 0 .6.117 1.576 1.576 0 0 0 1.106-.457L35.655 78h7.844a5.5 5.5 0 0 0 5.465-5.094 1.029 1.029 0 0 0-.95-1.094" data-name="Path 36"/><path fill="#29abe2" d="M78.254 31.043h-8.309a1.023 1.023 0 0 0 0 2.047h8.309a5.956 5.956 0 0 1 5.949 5.953v23.144a5.958 5.958 0 0 1-5.949 5.953h-3.473a1.875 1.875 0 0 0-1.875 1.871v8.683l-10-10.008a1.87 1.87 0 0 0-1.324-.547h-12.84a5.962 5.962 0 0 1-5.953-5.953v-8.615a1.023 1.023 0 0 0-2.047 0v8.613a8.01 8.01 0 0 0 8 8h12.762l10.254 10.25a1.871 1.871 0 0 0 3.2-1.324v-8.923h3.3a8.007 8.007 0 0 0 8-8V39.043a8.007 8.007 0 0 0-8-8" data-name="Path 37"/><path fill="#29abe2" d="M33.84 60.496a2.452 2.452 0 0 1 2.246 2.609c0 1.477-1.071 2.824-2.246 2.824s-2.243-1.348-2.243-2.824a2.452 2.452 0 0 1 2.243-2.609Zm-4.29 2.609a5.162 5.162 0 0 0 1.52 3.68 8.373 8.373 0 0 0-3.586 3.5 1.023 1.023 0 1 0 1.781 1.008 4.925 4.925 0 0 1 9.149 0 1.022 1.022 0 1 0 1.781-1 8.32 8.32 0 0 0-3.586-3.492 5.164 5.164 0 0 0 1.524-3.684 4.306 4.306 0 1 0-8.583 0" data-name="Path 38"/><path fill="#29abe2" d="M58.894 47.629c0-2.883 2.067-5.23 4.606-5.23s4.6 2.348 4.6 5.23c0 2.984-2.152 5.6-4.6 5.6s-4.606-2.616-4.606-5.6Zm-5.308 14.117a1.036 1.036 0 0 0 .5.129 1.023 1.023 0 0 0 .89-.52c2.047-3.629 5.153-5.711 8.52-5.711s6.472 2.082 8.519 5.711a1.023 1.023 0 0 0 1.782-1 13.237 13.237 0 0 0-6.93-6.168 8.011 8.011 0 0 0 3.281-6.555c0-4.012-2.984-7.273-6.648-7.273s-6.653 3.262-6.653 7.273a8.014 8.014 0 0 0 3.282 6.555 13.242 13.242 0 0 0-6.934 6.168 1.023 1.023 0 0 0 .391 1.395" data-name="Path 39"/><path fill="#29abe2" d="M64.742 33.09h.289a1.023 1.023 0 0 0 0-2.047h-.289a1.023 1.023 0 1 0 0 2.047" data-name="Path 40"/><path fill="#29abe2" d="M60.97 33.09h.29a1.023 1.023 0 0 0 0-2.047h-.29a1.023 1.023 0 0 0 0 2.047" data-name="Path 41"/><path fill="#29abe2" d="M57.195 33.09h.289a1.023 1.023 0 1 0 0-2.047h-.289a1.023 1.023 0 0 0 0 2.047" data-name="Path 42"/></g></svg>