<svg xmlns="http://www.w3.org/2000/svg" xmlns:xlink="http://www.w3.org/1999/xlink" viewBox="0 0 500 500"><defs><style>.cls-1{fill:#fff;}.cls-2{fill:#87aedd;opacity:0.25;}.cls-3{isolation:isolate;}.cls-4{fill:#adcdfc;}.cls-5{fill:#e2edff;}.cls-6{fill:#c7d8f2;}.cls-7{fill:#7baeff;}.cls-8{fill:#4da5dc;}.cls-9{fill:#3aaeef;}.cls-10{fill:#e1e8f2;}.cls-11{fill:#e16b40;}.cls-12{fill:#ff8654;}.cls-13{fill:#0046a6;}.cls-14{fill:#003783;}.cls-15{fill:#ff9f75;}.cls-16{fill:#cfdae4;}.cls-17{fill:#00a5ff;}.cls-18{fill:#382747;}.cls-19{fill:#94a3c0;}.cls-20{fill:#ff5668;}.cls-21{fill:#b391ff;}.cls-22{fill:#d4d9df;}.cls-23{fill:#f2f8fd;}.cls-24{fill:url(#linear-gradient);}.cls-25{fill:url(#linear-gradient-2);}.cls-26{fill:#05ccff;}.cls-27{fill:#540cc7;}.cls-28{fill:#3f0995;}.cls-29{fill:#7974f5;}.cls-30{fill:#2689fd;}.cls-31{fill:#3548db;}.cls-32{fill:#58affb;}.cls-33{fill:#ee2c6a;}.cls-34{fill:#ee428c;}.cls-35{fill:#ff3d9d;}.cls-36{fill:#7cccff;}.cls-37{fill:#3eabff;}.cls-38{fill:#cc096a;}.cls-39,.cls-47{fill:none;}.cls-40{fill:#3278cc;}.cls-41{fill:#e2a029;}.cls-42{fill:#ffbe3d;}.cls-43{fill:url(#linear-gradient-3);}.cls-44{fill:url(#linear-gradient-4);}.cls-45{fill:#343996;}.cls-46{fill:#1ae5ff;}.cls-47{stroke:#16c5dc;stroke-miterlimit:10;}.cls-48{fill:#f1f1f1;}.cls-49{fill:#fdb913;}.cls-50{opacity:0.53;}.cls-51{fill:#ff4272;}.cls-52{fill:#212973;}.cls-53{fill:#1ce5ff;}.cls-54{fill:#00a935;}.cls-55{fill:#61e041;}.cls-56{fill:#00cc41;}.cls-57{fill:#14347c;}.cls-58{fill:#18388f;}.cls-59{fill:#ce7c56;}.cls-60{fill:#ffaa83;}.cls-61{fill:#4d2c63;}</style><linearGradient id="linear-gradient" x1="277.65" y1="255.25" x2="271.08" y2="305.78" gradientTransform="matrix(-1, 0, 0, 1, 528.93, 0)" gradientUnits="userSpaceOnUse"><stop offset="0" stop-color="#c6e6ff"/><stop offset="1" stop-color="#8d9fff"/></linearGradient><linearGradient id="linear-gradient-2" x1="412.68" y1="343.96" x2="431.41" y2="301.99" gradientTransform="translate(-165.5)" gradientUnits="userSpaceOnUse"><stop offset="0" stop-color="#1ae5ff"/><stop offset="1" stop-color="#eaeeee"/></linearGradient><linearGradient id="linear-gradient-3" x1="-63.34" y1="243.4" x2="-34.05" y2="25.76" gradientTransform="matrix(-1, 0, 0, 1, 291.82, 0)" gradientUnits="userSpaceOnUse"><stop offset="0" stop-color="#1ae5ff"/><stop offset="0.26" stop-color="#64e8f9"/><stop offset="0.7" stop-color="#eaeeee"/></linearGradient><linearGradient id="linear-gradient-4" x1="-120.26" y1="183.08" x2="-108.54" y2="183.08" gradientTransform="matrix(-1, 0, 0, 1, 291.82, 0)" gradientUnits="userSpaceOnUse"><stop offset="0" stop-color="#5155d4"/><stop offset="1" stop-color="#45f7ff"/></linearGradient></defs><title>Artboard 1</title><g id="BACKGROUND"><rect class="cls-1" width="500" height="500"/></g><g id="OBJECTS"><path class="cls-2" d="M381.09,388.48c-13.84-8-33.25-10.75-50.9-8.27l62.63-36.4c6.84-4,6.8-10.42-.08-14.4L249.38,246.65c-6.88-4-18-4-24.85,0l-49,28.47c-21.19-9.36-51.52-8.45-70.79,2.75s-20.77,28.78-4.55,41L82.11,329.42c-6.84,4-6.8,10.42.08,14.39l143.35,82.77c6.89,4,18,4,24.86,0l40.22-23.38c-4.22,10.23.59,21.47,14.43,29.46,21.13,12.21,55.32,12.21,76.31,0S402.22,400.68,381.09,388.48Z"/><g class="cls-3"><path class="cls-4" d="M164.88,297.07c-.57,6.29-6.48,10.55-11.82,12.85a45.35,45.35,0,0,1-18.49,3.43,43.9,43.9,0,0,1-18.8-4.17c-5.06-2.49-10.43-7-10.42-13.15,0,4.48.3,8.17,3.53,11.67,4.15,4.49,10.4,6.92,16.28,8.13,11.46,2.37,27.08,1.22,35.79-7.61,3.51-3.55,4-7.29,4-12C164.94,296.49,164.91,296.78,164.88,297.07Z"/><path class="cls-5" d="M156.15,283.91c11.67,6.74,11.75,17.67.15,24.41s-30.48,6.74-42.16,0-11.72-17.67-.12-24.41S144.47,277.17,156.15,283.91Z"/></g><g class="cls-3"><polygon class="cls-6" points="140.46 270.28 140.39 296.33 135.83 298.98 135.9 272.93 140.46 270.28"/><polygon class="cls-7" points="135.9 272.93 135.83 298.98 131.24 296.33 131.32 270.28 135.9 272.93"/><polygon class="cls-8" points="140.46 270.28 135.9 272.93 131.32 270.28 135.87 267.63 140.46 270.28"/></g><path class="cls-9" d="M106.27,185.83s-9.34,2.49-11.83,8.09-1.87,47.94,11.2,65.38,37.36,19.92,43,17.43,38-18.68,40.47-26.77-10-14.32-16.81-17.44-11.21-7.47-15-18.67-5.6-30.51-10-33.63S132.42,172.13,106.27,185.83Z"/><path class="cls-10" d="M162.09,174.56s-15.32-12.68-18.44-13c-3.73-.29-8.4,1-9.61,6.28a9.76,9.76,0,0,0,4.41,10.87c2.81,1.54,27.47,13.24,31.83,13.22s7.14-3.77,4.31-8.43S162.09,174.56,162.09,174.56Z"/><path class="cls-11" d="M135.61,158.69a1.59,1.59,0,0,0,0,.5c.23,1.14.94,4,1.11,5.26s-1.07,3.26-4.25,3.36-8.61-1-10.58-4.66A87.67,87.67,0,0,0,120.84,152Z"/><path class="cls-12" d="M142.42,135.63c-2.29-9.6-10.24-14.73-18.82-12.27,0,0-9.37,1.41-13.14,9.88s2.71,15.12,6.86,19.31c1.75,1.72,3.07,3,3.9,3.89.3.32.6.65.92.94l.08.09h0a19.82,19.82,0,0,0,8.29,4.49c3.84.94,8.29.07,10.58-2.63S144.71,145.23,142.42,135.63Z"/><path class="cls-13" d="M122.63,159.44s-15.09,11.94-16.45,15.73-1.19,14.15,2.38,20.89,3.63,32.16,5,37.06,14.86,5.81,23.06,3.8,21.23-8.87,18.61-18.18c-3.87-13.75-3-27.6-2.64-32s-.8-15.27-3.18-22.49c-.5-1.52-5.87-3.65-5.87-3.65S138,158,122.63,159.44Z"/><path class="cls-14" d="M125.36,216.34c-6.23-7.89,2.91-34.87-7.89-42.34-3.29-2.28-6.11-2.86-8.45-2.56a13.75,13.75,0,0,0-2.84,3.73c-1.36,3.79-1.19,14.15,2.38,20.89s3.63,32.16,5,37.06c1.27,4.47,12.53,5.61,20.73,4.26l11.79-12.33S131.59,224.22,125.36,216.34Z"/><path class="cls-10" d="M122.11,161.46c13.12-1.2,19.15,1,20.65,1.75a38.67,38.67,0,0,1-.19,9.31c-1,6.2-3.49,23.22-3.49,23.22s-8.09-14-13.42-19.74c-3.75-4.05-7.44-7.87-9.3-9.78C119.5,163.53,122.11,161.46,122.11,161.46Z"/><path class="cls-12" d="M135.61,158.69a1.59,1.59,0,0,0,0,.5c.23,1.14.94,4,1.11,5.26s-1.07,3.26-4.25,3.36-8.61-1-10.58-4.66A87.67,87.67,0,0,0,120.84,152Z"/><path class="cls-15" d="M142.42,135.63c-2.29-9.6-10.24-14.73-18.82-12.27,0,0-9.37,1.41-13.14,9.88s2.71,15.12,6.86,19.31c1.75,1.72,3.07,3,3.9,3.89.3.32.6.65.92.94l.08.09h0a19.82,19.82,0,0,0,8.29,4.49c3.84.94,8.29.07,10.58-2.63S144.71,145.23,142.42,135.63Z"/><path class="cls-16" d="M140.91,176l-5.85-5.17L130.39,179l-4.72-3c5.33,5.77,13.41,19.73,13.41,19.73s2.06-14.2,3.2-21.38Z"/><path class="cls-17" d="M140.51,186l-2.61-9.19.39-3.15-3.23-2.86-2.27,4,2.61,2.37.7,13.65c1.78,2.87,3,4.94,3,4.94S139.73,191.23,140.51,186Z"/><path class="cls-11" d="M109.38,132.28a14.27,14.27,0,0,0,.93,14c4.67,7.16,9.68,10.34,10.91,10.15s1.86-.5,1.55-1.43-1.87-4-1.87-4-5.29-.62-5.29-4.05,1.86-4,4-3.11,2.49,2.49,3.74,3.73,1.56,4.36,2.49,4.05,1.56-1.24,1.56-2.8a6.54,6.54,0,0,0-1.87-5.29c-1.87-1.87.31-5-1.56-7.48a18.33,18.33,0,0,0-3.11-3.42s1.24,1.87,7.47.62,9-.93,11.52-2.49,1.87-5,.31-6.22-5.29-1.87-9.65-3.43-6.85-.62-12.14.62S108.13,128.54,109.38,132.28Z"/><path class="cls-18" d="M197.17,319.7a6.47,6.47,0,0,0,3.12,5.39c3.32,2.28,3.94,3.74,6.64,4.78s5.19,4.56,3.94,7.05-7.06,2.91-10.79,1.87-4.36-4.36-7.89-5.6a13.05,13.05,0,0,1-5.81-3.74c-1-1-.62-5.19-.62-5.19l12.66-4.15"/><path class="cls-18" d="M213.36,307.66a6.48,6.48,0,0,0,3.11,5.39c3.33,2.29,3.95,3.74,6.65,4.78s5.18,4.56,3.94,7.05-7.06,2.91-10.79,1.87-4.36-4.36-7.89-5.6a13.05,13.05,0,0,1-5.81-3.74c-1-1-.62-5.19-.62-5.19l12.66-4.15"/><path class="cls-19" d="M114.57,233.25a22.8,22.8,0,0,1,.62,4.67c0,2.18-1.56,8.41,1.56,15.88s24,9,30.82,12.14a68.32,68.32,0,0,1,12.14,6.85c1.25.93,3,14.11,8.41,22s14.52,23.66,16.6,30.3A15.68,15.68,0,0,0,195.93,323c2.77-1.82,2.49-2.91,2.49-2.91s-10.79-23.66-13.29-33.62-5.39-21.59-10-24.49-19.09-13.29-22.41-15.36-12.27-8.64-14-12.62S120,223.6,114.57,233.25Z"/><path class="cls-19" d="M131.69,223a22.8,22.8,0,0,1,.62,4.67c0,2.18-1.55,8.4,1.56,15.87s24,9,30.82,12.15a67.24,67.24,0,0,1,12.14,6.85c1.25.93,3,14.11,8.41,22s14.53,23.66,16.6,30.3a15.72,15.72,0,0,0,11.21-2.08c2.78-1.81,2.49-2.9,2.49-2.9s-10.79-23.66-13.28-33.63-5.4-21.58-10-24.49-19.1-13.28-22.42-15.36-12.27-8.63-14-12.62S137.09,213.33,131.69,223Z"/><g class="cls-3"><polygon class="cls-6" points="215.74 301.7 215.56 365.01 204.49 371.45 204.67 308.13 215.74 301.7"/><polygon class="cls-7" points="204.67 308.13 204.49 371.45 193.34 365.01 193.52 301.7 204.67 308.13"/><polygon class="cls-8" points="215.74 301.7 204.67 308.13 193.52 301.7 204.59 295.26 215.74 301.7"/></g><path class="cls-4" d="M397.88,258.33c0,.18,0,.36-.06.55s-.08.3-.12.45a3.39,3.39,0,0,1-.15.52c-.05.15-.12.29-.18.43s-.16.37-.25.55-.16.26-.24.39-.26.41-.41.61-.3.39-.47.58l-.11.14c-.23.24-.48.48-.74.72l-.54.45-.49.39-.64.42-.66.43L250.4,347.72a19.71,19.71,0,0,1-3.85,1.7,27.47,27.47,0,0,1-3.33.83c-.74.13-1.49.23-2.24.31s-1.3.11-1.95.13-1.2,0-1.8,0-1.16-.05-1.73-.1l0,10.15c.57.05,1.15.08,1.73.1s1.2,0,1.8,0,1.3-.07,1.95-.13,1.5-.18,2.24-.31a27.47,27.47,0,0,0,3.33-.83,20,20,0,0,0,3.85-1.69l142.42-82.77L393,275c.16-.09.3-.2.45-.3l.64-.42.49-.39c.18-.15.37-.29.54-.45s.08-.05.11-.09c.22-.2.43-.42.63-.63l.12-.14c.11-.13.23-.26.34-.4l.12-.18c.15-.2.28-.4.41-.61s.13-.17.18-.26a.75.75,0,0,1,.06-.13,5.45,5.45,0,0,0,.25-.55,3.13,3.13,0,0,0,.15-.32s0-.07,0-.11.1-.35.15-.52.07-.24.1-.36a.28.28,0,0,1,0-.09,5.14,5.14,0,0,0,.06-.55c0-.12,0-.24,0-.36s0-.11,0-.16l0-10.15A4.73,4.73,0,0,1,397.88,258.33Z"/><path class="cls-4" d="M233.79,350.41q-.89-.12-1.74-.3c-.63-.13-1.24-.28-1.84-.45s-1.44-.45-2.13-.72a19.19,19.19,0,0,1-2.54-1.22L82.19,265c-3.46-2-5.19-4.63-5.19-7.25l0,10.15c0,2.62,1.73,5.25,5.19,7.25l143.35,82.77a20.48,20.48,0,0,0,2.54,1.21q1,.41,2.13.72c.6.17,1.22.32,1.84.45s1.15.22,1.74.3,1.13.15,1.71.19l0-10.15C234.92,350.56,234.35,350.49,233.79,350.41Z"/><path class="cls-5" d="M392.74,251c6.88,4,6.92,10.42.08,14.4L250.4,348.13c-6.84,4-18,4-24.86,0L82.19,265.36c-6.88-4-6.92-10.42-.08-14.39L224.53,168.2c6.84-4,18-4,24.85,0Z"/><polygon class="cls-1" points="238.66 280.94 277.91 303.75 305.51 287.81 266.27 265 238.66 280.94"/><path class="cls-20" d="M272,275.27l-6.18,3.58-7.81-2.3c2.18-2.5,7.45-3.49,11.77-2.22A10,10,0,0,1,272,275.27Z"/><path class="cls-21" d="M273.43,275.73c4.15,2.4,4.17,6.28.05,8.68a16.48,16.48,0,0,1-15,0c-3.32-1.92-4.1-4.71-2-7.12l9.45,2.78Z"/><path class="cls-4" d="M267.76,292.79c-.35.19-.35.51,0,.71a1.34,1.34,0,0,0,1.23,0l17.52-10.12c.35-.19.35-.51,0-.71a1.36,1.36,0,0,0-1.24,0Z"/><path class="cls-22" d="M279.86,288.14a.37.37,0,0,0,0,.71,1.34,1.34,0,0,0,1.23,0l7.44-4.29a.38.38,0,0,0,0-.72,1.42,1.42,0,0,0-1.24,0Z"/><path class="cls-22" d="M277.55,291.66c-.34.2-.35.52,0,.72a1.36,1.36,0,0,0,1.24,0l11.63-6.71c.35-.2.35-.52,0-.72a1.4,1.4,0,0,0-1.23,0Z"/><path class="cls-23" d="M284.87,313.42c.95.56,1,1.45,0,2l-28,16.26a3.79,3.79,0,0,1-3.44,0l-19.55-11.29a1.05,1.05,0,0,1,0-2l28-16.26a3.79,3.79,0,0,1,3.44,0Z"/><path class="cls-24" d="M285.58,314.5a.25.25,0,0,1,0,.08s0,0,0,.06,0,.05,0,.07l0,.06,0,.08,0,0a.22.22,0,0,1-.05.08l0,0-.11.11a.08.08,0,0,1,0,0l-.07.07-.07.05-.09.06-.09.06-28,16.26-.34.16-.1,0-.22.07L256,332l-.29.05h-.08l-.4,0h-.07l-.4,0h-.06a2.28,2.28,0,0,1-.39-.06l-.07,0-.34-.1-.06,0a2.12,2.12,0,0,1-.37-.18l-19.55-11.29a1.39,1.39,0,0,1-.68-.73.84.84,0,0,1,0-.27v1.12a.66.66,0,0,0,0,.14,1.3,1.3,0,0,0,.71.86l19.55,11.29a2.26,2.26,0,0,0,.35.17h0l.06,0,.22.07.12,0,.07,0h.06l.24.05h.24l.24,0h.14a.41.41,0,0,0,.11,0h.37a1.52,1.52,0,0,0,.21,0l.08,0,.25-.06.13,0,.1,0,.09,0a1.77,1.77,0,0,0,.34-.16l28-16.26,0,0,.07,0,.08-.06.07-.05.08-.06v0l0,0,.1-.11,0,0,0,0,.06-.09,0,0v0a.3.3,0,0,1,0-.08l0,0v0s0-.05,0-.07l0-.05h0a.22.22,0,0,1,0-.08v-1.19S285.58,314.47,285.58,314.5Z"/><path class="cls-25" d="M282,313.78c.31.18.31.46,0,.64L255.4,329.87a1.21,1.21,0,0,1-1.11,0L236.68,319.7a.34.34,0,0,1,0-.64l26.59-15.45a1.21,1.21,0,0,1,1.11,0Z"/><polygon class="cls-1" points="151.49 221.17 190.74 243.97 218.34 228.04 179.1 205.23 151.49 221.17"/><path class="cls-21" d="M184.85,215.49l-6.18,3.59-7.82-2.3c2.19-2.5,7.46-3.49,11.78-2.22A9.94,9.94,0,0,1,184.85,215.49Z"/><path class="cls-26" d="M186.26,216c4.15,2.39,4.17,6.28.05,8.68a16.54,16.54,0,0,1-15,0c-3.32-1.92-4.1-4.71-2-7.13l9.46,2.79Z"/><path class="cls-4" d="M180.59,233c-.35.2-.35.52,0,.71a1.34,1.34,0,0,0,1.23,0l17.52-10.11c.35-.2.35-.51,0-.71a1.36,1.36,0,0,0-1.24,0Z"/><path class="cls-22" d="M192.69,228.36a.38.38,0,0,0,0,.72,1.4,1.4,0,0,0,1.23,0l7.44-4.29a.38.38,0,0,0,0-.72,1.39,1.39,0,0,0-1.24,0Z"/><path class="cls-26" d="M190.38,231.89a.37.37,0,0,0,0,.71,1.36,1.36,0,0,0,1.24,0l11.63-6.72c.35-.2.35-.51,0-.71a1.34,1.34,0,0,0-1.23,0Z"/><g class="cls-3"><polygon class="cls-27" points="214.61 291.46 214.6 293.82 209.16 296.98 209.17 294.62 214.61 291.46"/><polygon class="cls-28" points="209.17 294.62 209.16 296.98 162.93 270.29 162.94 267.93 209.17 294.62"/><polygon class="cls-29" points="214.61 291.46 209.17 294.62 162.94 267.93 168.37 264.77 214.61 291.46"/></g><g class="cls-3"><polygon class="cls-30" points="194.06 291.92 194.05 294.27 188.62 297.43 188.62 295.07 194.06 291.92"/><polygon class="cls-31" points="188.62 295.07 188.62 297.43 152.3 276.46 152.31 274.11 188.62 295.07"/><polygon class="cls-32" points="194.06 291.92 188.62 295.07 152.31 274.11 157.74 270.95 194.06 291.92"/></g><g class="cls-3"><polygon class="cls-33" points="163.73 286.72 163.72 289.08 158.29 292.24 158.29 289.88 163.73 286.72"/><polygon class="cls-34" points="158.29 289.88 158.29 292.24 141.67 282.64 141.67 280.29 158.29 289.88"/><polygon class="cls-35" points="163.73 286.72 158.29 289.88 141.67 280.29 147.11 277.13 163.73 286.72"/></g><path class="cls-4" d="M127.05,273.7a.6.6,0,0,0,0,1.13,2.14,2.14,0,0,0,1.94,0l27.62-15.95a.59.59,0,0,0,0-1.12,2.14,2.14,0,0,0-1.94,0Z"/><path class="cls-4" d="M146.13,266.37a.6.6,0,0,0,0,1.13,2.16,2.16,0,0,0,1.95,0l11.72-6.76a.6.6,0,0,0,0-1.13,2.16,2.16,0,0,0-1.95,0Z"/><path class="cls-4" d="M142.49,271.93a.6.6,0,0,0,0,1.13,2.18,2.18,0,0,0,2,0l18.33-10.58c.54-.32.55-.82,0-1.13a2.14,2.14,0,0,0-1.94,0Z"/><g class="cls-3"><path class="cls-36" d="M140.83,246.39l-4.38,2.55a15.83,15.83,0,0,0-14.12.11l-.23.14-4.42-2.55.23-.14C124.21,242.84,134.41,242.81,140.83,246.39Z"/><path class="cls-36" d="M141.51,246.79c5.21,3.26,5.75,8.12,1.6,11.7l-4.55-2.63c1.83-2.09,1.34-4.69-1.44-6.52Z"/><path class="cls-37" d="M142.55,259a14.19,14.19,0,0,1-1.43.95c-6.21,3.61-16.21,3.7-22.64.27l4.39-2.55a15.89,15.89,0,0,0,13.83-.27,7.8,7.8,0,0,0,1.36-1Z"/></g><path class="cls-37" d="M121.47,249.62c-3,2.26-2.76,5.49.71,7.61l-4.39,2.55c-5.9-3.53-6.16-9-.76-12.72Z"/><path class="cls-32" d="M227.76,128.54a8.06,8.06,0,0,1,3.65,6.31l0,35.29c0,2.32-1.65,3.26-3.67,2.09l-9.84-5.68-.48.67-1.92,2.7-1.9-4.91-.48-1.22-9.84-5.68a8,8,0,0,1-3.64-6.31l0-35.29c0-2.31,1.65-3.26,3.66-2.09Z"/><path class="cls-1" d="M210.7,128.92v1a.76.76,0,0,1-1.14.66l-4.69-2.72a.78.78,0,0,1-.38-.66v-1a.76.76,0,0,1,1.14-.66l4.68,2.72A.76.76,0,0,1,210.7,128.92Z"/><path class="cls-4" d="M225.52,142.41v1a.76.76,0,0,1-1.14.65l-19.52-11.27a.74.74,0,0,1-.38-.66v-1a.76.76,0,0,1,1.14-.66l19.52,11.27A.76.76,0,0,1,225.52,142.41Z"/><polygon class="cls-1" points="209.52 142.02 209.52 143.16 206.87 152.18 205.74 151.53 208.37 142.53 204.92 140.53 204.93 139.37 209.52 142.02"/><path class="cls-1" d="M214.89,145.12v1.16l-3-1.72-.17,3.5c.32-.45.83-.49,1.51-.09a4.17,4.17,0,0,1,1.88,3.85v2.28c0,1.78-.75,2.52-2.29,1.63a4.68,4.68,0,0,1-2.28-4.27v-.78l1.07.62v.86a2.52,2.52,0,0,0,1.18,2.37c.8.47,1.19.05,1.19-1v-2.26a2.57,2.57,0,0,0-1.19-2.38c-.62-.36-1-.2-1.14.59v.27l-1.07-.62.3-6.32Z"/><path class="cls-1" d="M222.6,153.89a3,3,0,0,1,1.45,2.7l0,3.66c0,1.14-.45,1.63-1.45,1.05a3,3,0,0,1-1.45-2.73v-3.66C221.14,153.79,221.61,153.31,222.6,153.89Zm.71,6v-3.79a1.59,1.59,0,0,0-.72-1.46c-.51-.3-.73,0-.73.63v3.79a1.61,1.61,0,0,0,.72,1.48c.5.29.72,0,.73-.65"/><path class="cls-1" d="M219.06,153c0,1.13-.47,1.61-1.46,1a3,3,0,0,1-1.45-2.71l0-3.69c0-1.12.47-1.61,1.45-1a3,3,0,0,1,1.45,2.71Zm-.73-.35v-3.81a1.61,1.61,0,0,0-.72-1.48c-.53-.3-.72,0-.73.65v3.8a1.55,1.55,0,0,0,.72,1.46c.51.3.73,0,.73-.62"/><polygon class="cls-1" points="221.74 149.08 222.42 149.47 218.39 158.83 217.71 158.44 221.74 149.08"/><path class="cls-4" d="M272.37,201.72c11.68,6.74,11.75,17.67.15,24.41s-30.48,6.74-42.15,0-11.72-17.67-.12-24.41S260.7,195,272.37,201.72Z"/><polygon class="cls-38" points="272.65 194.5 272.64 198.79 265.22 203.1 265.23 198.81 272.65 194.5"/><path class="cls-38" d="M242.81,201.83l.15-.06c.41-.16.84-.3,1.27-.43s.61-.18.91-.26.46-.14.7-.19.65-.15,1-.21.47-.11.71-.15l.3-.05,1.23-.17.36,0q.72-.08,1.44-.12l.27,0,1,0h1l.81,0,.9,0,.82.07.89.1.79.11.94.17,1,.19.23.06c.45.1.9.22,1.34.35l.37.12c.37.11.73.24,1.08.37l.31.11c.32.12.63.26.94.4l.46.2c.44.21.88.44,1.3.68v-5c-.42-.24-.85-.46-1.3-.68l-.46-.19c-.26-.12-.52-.24-.8-.35l-.14-.05-.31-.12c-.35-.13-.71-.25-1.08-.37l-.37-.11-.25-.08-1.08-.28-.24-.05-.53-.12-.44-.08-.94-.16-.38-.07-.41,0-.89-.1-.42-.05-.4,0-.89,0-.46,0h-1.33c-.16,0-.32,0-.48,0l-.49,0h-.27l-1.21.1-.23,0-.36.05c-.41.05-.82.1-1.22.17l-.3.05-.15,0-.57.12c-.33.07-.66.13-1,.21l-.69.19-.92.26-.19.06c-.37.11-.73.24-1.08.38l-.15.06q-.58.22-1.14.48l-.32.16c-.41.19-.81.4-1.2.62l-.21.13-.2.12-.32.21-.28.19-.3.21-.26.2-.28.22a2.43,2.43,0,0,0-.25.2l-.25.22-.11.09-.09.09c-.14.13-.27.27-.4.4l-.13.14c-.16.17-.31.35-.46.53l0,0-.09.12-.25.34-.12.2a3.28,3.28,0,0,0-.2.31.22.22,0,0,1-.05.08.54.54,0,0,1-.07.13l-.13.27-.11.22c0,.09-.08.18-.11.27a.61.61,0,0,0-.05.12.49.49,0,0,0,0,.11,2.58,2.58,0,0,0-.08.26,2,2,0,0,0-.07.23,2.44,2.44,0,0,0-.06.26.74.74,0,0,0,0,.14s0,.06,0,.09,0,.18-.05.27a2,2,0,0,0,0,.23,2.45,2.45,0,0,0,0,.27.81.81,0,0,0,0,.16s0,.81,0,.87v4.29c0-.11,0-.21,0-.31s0-.18,0-.27l0-.24c0-.08,0-.17,0-.26a2,2,0,0,0,.05-.24,2.33,2.33,0,0,1,.07-.25l.06-.24.09-.25.09-.23c0-.09.07-.18.11-.27s.07-.15.1-.23.09-.17.14-.26l.12-.22.2-.31.12-.19c.08-.12.16-.23.25-.34l.11-.15c.14-.18.3-.36.46-.54l.13-.13.4-.4.2-.18.25-.23.25-.2.27-.22.27-.19a2.32,2.32,0,0,1,.3-.22l.28-.19.32-.2.41-.25q.58-.33,1.2-.63l.32-.15C242,202.15,242.42,202,242.81,201.83Z"/><polygon class="cls-38" points="240.25 213.33 240.23 217.62 232.81 221.93 232.82 217.64 240.25 213.33"/><path class="cls-39" d="M224.47,210.28V206c0,4.21,2.77,8.43,8.34,11.65v4.29C227.24,218.71,224.46,214.49,224.47,210.28Z"/><path class="cls-38" d="M232.82,217.64v4.29c-5.57-3.22-8.35-7.44-8.34-11.65V206c0,4.21,2.77,8.43,8.34,11.65"/><path class="cls-20" d="M272.65,194.5l-7.42,4.31c-7-4-18.17-4-25.07,0s-6.86,10.51.08,14.52l-7.42,4.31c-11.07-6.39-11.12-16.75-.13-23.14S261.58,188.1,272.65,194.5Z"/><path class="cls-40" d="M265.23,200.12v3c3.49,2,5.23,4.66,5.23,7.31v-4.3C270.47,203.47,268.72,202.14,265.23,200.12Z"/><polygon class="cls-40" points="272.56 219.07 272.54 222.05 265.07 217.74 265.09 214.76 272.56 219.07"/><path class="cls-40" d="M281,206.64a3.11,3.11,0,0,1,0,.43c0,.12,0,.25,0,.37s0,.28-.07.42-.05.25-.08.38-.06.27-.1.41-.07.25-.11.37-.08.27-.13.41-.09.24-.14.37l-.18.42c-.05.12-.11.24-.17.36l-.22.43-.19.34c-.09.17-.2.33-.31.5s-.12.2-.19.3-.26.37-.4.55l-.18.24c-.23.28-.47.57-.73.85l-.21.22-.64.63-.31.29-.41.36-.39.32-.44.35-.42.31c-.15.11-.31.23-.48.34l-.45.3-.51.33-.65.4-.22.12,0,4.29.22-.12.35-.21.31-.19.51-.33.45-.3.48-.34.42-.31.44-.35.39-.32.41-.36.17-.15a1.85,1.85,0,0,0,.14-.14l.64-.63.2-.22c.26-.28.51-.57.74-.85l0,0c.05-.07.09-.13.15-.2s.27-.36.39-.55.14-.2.2-.3l.31-.5.09-.14.1-.2c.08-.14.15-.29.22-.43l.17-.36.18-.42a1.08,1.08,0,0,1,.08-.19l.06-.18c0-.13.09-.27.13-.41s.08-.25.11-.37.07-.27.1-.41a1.89,1.89,0,0,0,0-.23l0-.15c0-.14.05-.28.07-.42s0-.25,0-.37,0-.28,0-.43a2,2,0,0,0,0-.25v-.24l0-4.3C281,206.31,281,206.48,281,206.64Z"/><path class="cls-32" d="M272.65,195.81c11.07,6.39,11.12,16.75.13,23.14l-.22.12-7.47-4.31.22-.12c6.9-4,6.86-10.51-.08-14.52Z"/><path class="cls-41" d="M268.36,224l.92-.37.54-.23.94-.44.45-.21c.45-.23.9-.46,1.33-.71l0-1c-.44.25-.88.49-1.34.71-.14.08-.3.15-.45.22l-.94.43-.54.23-.92.37-.57.22-1,.33-.61.2-.46.14-.86.25-.48.13-.92.22-.43.1c-.44.11-.91.2-1.36.29v1l1.35-.29.43-.1.92-.23.48-.13.86-.24.46-.14.24-.08.37-.12,1-.34Z"/><path class="cls-42" d="M272.56,221.09a35.68,35.68,0,0,1-10.83,3.84l-3.45-5.77a22.51,22.51,0,0,0,6.81-2.38Z"/><path class="cls-29" d="M260.51,224.31l-.85.13-1,.13-.85.1c-.53.06-1.06.1-1.59.14h-.14c-.59,0-1.18.07-1.78.09h-.45l-1.3,0H252l-1.44,0-.28,0c-.57,0-1.13-.07-1.7-.12l-.44,0-1.31-.14-.47-.06c-.57-.08-1.13-.16-1.68-.26h0l-1.64-.32-.58-.13-1.11-.27-.6-.16-.94-.27-.86-.27-.86-.29-.83-.31-1.24-.49-.12,0L234.5,221l-.33-.17q-.69-.35-1.35-.72v1.79q.66.38,1.35.72l.32.17c.46.22.92.44,1.4.64l.12,0,.91.38.33.12c.27.11.55.21.83.3l.85.3.86.27.53.16.42.11.6.16,1.11.27.57.13.26,0q.69.15,1.38.27h0l1.39.22.29,0c.15,0,.31,0,.47.06.43.06.87.11,1.3.15l.45,0,.23,0c.49,0,1,.08,1.47.1h.28l1,0h.95c.44,0,.88,0,1.31,0h.63l1.59-.08h.15l1.4-.12.19,0,.85-.1,1-.13.85-.14.73-.11.49-.09V224.1C261.33,224.18,260.92,224.24,260.51,224.31Z"/><path class="cls-21" d="M258.28,218.33l3.45,5.76c-9.81,1.89-21.07.57-28.91-4l7.42-4.31C245.14,218.65,252.15,219.48,258.28,218.33Z"/><path class="cls-43" d="M274.24,53.15,274,53l-.29-.15-.29-.14-.28-.12-.29-.11h-.07l-.21-.07-.29-.08-.29-.06-.31-.05-.21,0h-.44l-.36,0a2.7,2.7,0,0,0-.41.06h0a2.52,2.52,0,0,0-.47.13,2.94,2.94,0,0,0-.57.26l-4.69,2.72a3.43,3.43,0,0,1,1-.39h0a4.64,4.64,0,0,1,1.19-.06h0a5.5,5.5,0,0,1,1.31.28h0a8.42,8.42,0,0,1,1.42.65l130.8,75.52,4.68-2.72Z"/><path class="cls-44" d="M412.08,140.54c0-.11,0-.22,0-.34s0-.23,0-.34l0-.35c0-.12,0-.23-.05-.35h0c0-.11,0-.23-.06-.34s0-.25-.07-.37l-.09-.37c0-.12-.06-.25-.1-.37a2.45,2.45,0,0,0-.08-.29v0s0,0,0-.06l-.12-.36c0-.12-.08-.24-.13-.36s-.08-.23-.13-.35l-.13-.34-.12-.26v0l0-.06c-.05-.11-.1-.23-.16-.34a3.14,3.14,0,0,0-.18-.37l-.21-.42-.25-.45-.05-.08-.05-.09c-.17-.29-.34-.56-.52-.84l-.45-.63-.32-.42-.27-.33-.27-.32c-.09-.1-.18-.21-.28-.31l-.05-.05,0,0-.21-.22-.3-.29-.31-.29-.32-.28-.16-.13,0,0-.12-.09-.31-.24-.31-.22-.3-.2-.3-.18-.07,0-4.68,2.72a11.53,11.53,0,0,1,1.41,1l0,0a13.32,13.32,0,0,1,1.3,1.21l0,0a16.18,16.18,0,0,1,2.21,3s0,0,0,.08a14.83,14.83,0,0,1,.83,1.64v0a16.42,16.42,0,0,1,.64,1.73v0a13.64,13.64,0,0,1,.4,1.74h0a11.28,11.28,0,0,1,.14,1.72L407.15,233a9,9,0,0,1-.15,1.52v0a5,5,0,0,1-.4,1.24v0a3.85,3.85,0,0,1-.53.82,2.23,2.23,0,0,1-.19.24,3.59,3.59,0,0,1-.77.64l4.68-2.72a3.36,3.36,0,0,0,.77-.64l.2-.24a3.92,3.92,0,0,0,.25-.32,3.72,3.72,0,0,0,.27-.48V233l.15-.35.12-.38a3.1,3.1,0,0,0,.1-.36l0-.15v0a.8.8,0,0,0,0-.15c0-.11,0-.22.05-.34s0-.22,0-.34,0-.22,0-.33,0-.23,0-.35v0l.25-89.37Z"/><path class="cls-45" d="M400.36,131.39a15.52,15.52,0,0,1,7,12.2L407.15,233c0,4.48-3.19,6.29-7.09,4l-130.8-75.51a15.54,15.54,0,0,1-7-12.2l.25-89.37c0-4.48,3.19-6.29,7.09-4Z"/><path class="cls-30" d="M362.46,94.75a4.9,4.9,0,0,1,2.21,3.83l-.08,28.09c0,1.41-1,2-2.23,1.27L321.25,104.2a4.84,4.84,0,0,1-2.21-3.83l.08-28.09c0-1.41,1-2,2.22-1.27Z"/><path class="cls-1" d="M284.63,82.28v1.28a1,1,0,0,1-1.46.84l-6-3.49a1,1,0,0,1-.49-.85V78.79a1,1,0,0,1,1.46-.85l6,3.49A1,1,0,0,1,284.63,82.28Z"/><path class="cls-46" d="M303.65,99.61v1.27a1,1,0,0,1-1.46.85L277.12,87.26a1,1,0,0,1-.48-.85V85.13a1,1,0,0,1,1.46-.84l25.07,14.47A1,1,0,0,1,303.65,99.61Z"/><polyline class="cls-47" points="273.1 141.37 283.07 136.28 289.6 146.82 296.88 154.22 304.16 149.83 319.72 144.81 326.75 154.85 333.77 160.62 340.17 170.03 348.83 151.84 359.37 156.86 364.9 152.34 376.32 155.35 393.26 153.85"/><path class="cls-48" d="M332.09,83.93c-3.79-2.19-7.37-1.63-8.85,1.82-1.86,4.31.25,11.56,4.71,16.58l1-2.41c-3-3.52-4.43-8.51-3.15-11.49,1-2.43,3.57-2.82,6.24-1.28a11.38,11.38,0,0,1,2,1.47l1-2.41A15.27,15.27,0,0,0,332.09,83.93Z"/><path class="cls-49" d="M335.07,86.21l-1,2.41c.16.15.33.31.49.48,3.43,3.54,5.11,9,3.75,12.15l-.16.33-.07.11c-1,1.75-2.89,2.18-5,1.33a7.17,7.17,0,0,1-1-.49l-.27-.16-.41-.27-.06,0q-.41-.28-.81-.63l-.1-.09-.3-.27A1.14,1.14,0,0,1,330,101l-.39-.38q-.31-.31-.6-.66l-1,2.41.6.65.56.55.16.15c.14.13.28.26.43.38a.86.86,0,0,0,.14.13c.38.32.77.62,1.15.89l.09.07.53.34.06,0,.36.22c.28.16.56.31.85.44l.61.27c3.22,1.28,6.1.47,7.39-2.53,1.94-4.5-.45-12.22-5.32-17.24Z"/><path class="cls-1" d="M349.88,99.49v.74a.57.57,0,0,1-.85.49l-3.47-2a.56.56,0,0,1-.29-.49v-.74a.56.56,0,0,1,.84-.48l3.48,2A.55.55,0,0,1,349.88,99.49Z"/><path class="cls-1" d="M360.88,109.51v.74a.56.56,0,0,1-.85.48l-14.48-8.36a.56.56,0,0,1-.29-.49v-.74a.57.57,0,0,1,.84-.49L360.6,109A.56.56,0,0,1,360.88,109.51Z"/><g class="cls-50"><path class="cls-1" d="M354.89,113.4v.74a.57.57,0,0,1-.85.48l-8.51-4.91a.56.56,0,0,1-.29-.49v-.74a.57.57,0,0,1,.84-.49l8.52,4.92A.58.58,0,0,1,354.89,113.4Z"/></g><path class="cls-32" d="M358.62,111.88v.74a.56.56,0,0,1-.85.48L345.54,106a.56.56,0,0,1-.29-.49v-.74a.57.57,0,0,1,.84-.49l12.24,7.07A.55.55,0,0,1,358.62,111.88Z"/><path class="cls-51" d="M393.29,144.58c-4.22-2.44-7.66-.48-7.67,4.37s3.4,10.75,7.62,13.19,7.65.49,7.66-4.36A16.79,16.79,0,0,0,393.29,144.58Z"/><path class="cls-52" d="M393.27,149.39c-1.9-1.1-3.46-.21-3.47,2a7.6,7.6,0,0,0,3.45,6c1.91,1.1,3.46.22,3.46-2A7.58,7.58,0,0,0,393.27,149.39Z"/><path class="cls-53" d="M285.15,98.8v1.31a1,1,0,0,1-1.51.87l-6.21-3.58a1,1,0,0,1-.51-.87V95.22a1,1,0,0,1,1.51-.88l6.22,3.58A1,1,0,0,1,285.15,98.8Z"/><path class="cls-53" d="M304.83,116.6v1.32a1,1,0,0,1-1.5.88L277.43,104a1,1,0,0,1-.51-.87v-1.32a1,1,0,0,1,1.51-.87l25.9,14.84A1,1,0,0,1,304.83,116.6Z"/><g class="cls-50"><path class="cls-53" d="M294.16,123.58v1.32a1,1,0,0,1-1.51.87l-15.22-8.72a1,1,0,0,1-.5-.87v-1.32a1,1,0,0,1,1.51-.88l15.22,8.73A1,1,0,0,1,294.16,123.58Z"/></g><path class="cls-53" d="M300.82,120.85v1.32a1,1,0,0,1-1.51.87L277.43,110.5a1,1,0,0,1-.5-.87v-1.32a1,1,0,0,1,1.5-.88L300.31,120A1,1,0,0,1,300.82,120.85Z"/><g class="cls-3"><polygon class="cls-54" points="374.5 210.22 378.03 208.17 377.96 232.14 374.43 234.19 374.5 210.22"/><path class="cls-55" d="M381.71,209.58v-.21h0v-.21l0,0v0l0,0h0l-11-21.88v0l0-.05-.06-.09,0,0,0,0,0,0,0,0h0l0,0,0,0,0,0,0,0,0,0,0,0,0,0,0,0,0,0h-.05l0,0h-.32l0,0-3.53,2.05a.3.3,0,0,1,.21,0h0a.79.79,0,0,1,.23.08,1.05,1.05,0,0,1,.26.22h0a1.51,1.51,0,0,1,.22.32l11,21.88a1.05,1.05,0,0,1,.11.31h0a.8.8,0,0,1,0,.26h0a.52.52,0,0,1-.06.2h0a.3.3,0,0,1-.12.13l3.53-2.05a.47.47,0,0,0,.1-.1l0,0h0s0,0,0,0l0,0v-.12h0v0Z"/><path class="cls-56" d="M366.57,188.69a1.22,1.22,0,0,1,.48.54l11,21.88c.33.65,0,1.18-.48.88l-3.06-1.77-.07,24-16.05-9.27.06-24-2.95-1.71c-.53-.3-.81-1.16-.48-1.43l11.08-9.14A.42.42,0,0,1,366.57,188.69Z"/></g><polygon class="cls-1" points="252.61 239.8 284.38 272.22 315.23 264.2 283.46 231.78 252.61 239.8"/><g class="cls-3"><path class="cls-5" d="M286.72,241.78l-3,1.15a10.18,10.18,0,0,0-8.94-1.41l-.16.07-2.52-2.08.16-.06A16.36,16.36,0,0,1,286.72,241.78Z"/><path class="cls-5" d="M287.1,242.11c2.95,2.61,2.78,5.74-.22,7.56l-2.6-2.14c1.38-1.13,1.35-2.82-.22-4.27Z"/><path class="cls-37" d="M286.48,249.9a7.17,7.17,0,0,1-1,.45c-4.3,1.63-10.62.63-14.33-2.21l3-1.15a10.18,10.18,0,0,0,8.77,1.29,5.16,5.16,0,0,0,1-.48Z"/></g><path class="cls-37" d="M274.14,241.79c-2.13,1.11-2.32,3.18-.35,4.88l-3.05,1.15c-3.35-2.85-2.94-6.36.87-8.12Z"/><path class="cls-19" d="M283.56,400.17s-2.49,1.71-.15,5.76,4.36,1.56,9.65,5.61,7.16,4.82,10,4.51,4.52-1.71,5-3.27-.93-4.2-.93-4.2Z"/><path class="cls-18" d="M306,400.33s1.09,5.29,1.71,9.34c.16,1.87-2.33,4.41-5.91,4.25s-5.61-1.24-6.85-2.8-9-4.57-10.43-5.81-1.71-5-1.09-5.92a4.71,4.71,0,0,1,5.45-1.4c2.49,1.09,4.51,3.12,9.49,3.43S306,400.33,306,400.33Z"/><path class="cls-19" d="M308.26,386.68s-2.49,1.71-.15,5.76,4.36,1.56,9.65,5.61,7.16,4.82,10,4.51,4.52-1.71,5-3.27-.93-4.2-.93-4.2Z"/><path class="cls-18" d="M330.68,386.84s1.09,5.29,1.71,9.34c.16,1.87-2.33,4.41-5.91,4.25s-5.61-1.24-6.85-2.8-9-4.57-10.43-5.81-1.72-5-1.09-5.92a4.71,4.71,0,0,1,5.45-1.4c2.49,1.09,4.51,3.12,9.49,3.43S330.68,386.84,330.68,386.84Z"/><path class="cls-57" d="M311.32,343.77c1.25,10,6.23,36.11,7.06,45.25,0,0,2.08,3.32,8.3,2.49l3-1.23a2.86,2.86,0,0,0,1.74-3c-.62-5-2-17.72-1.38-25.24.83-9.55-1.66-15.36-1.66-15.36.21-3.12.63-13.91-5.6-16.81,0,0-15.26-2.81-11.42,13.9"/><path class="cls-58" d="M324,334.43l-1.66,3.32S296.8,339,290,346.47c0,0-4.57.83-3.32,10.79s6.22,36.12,7.05,45.25c0,0,2.08,3.32,8.3,2.49l3-1.23a2.88,2.88,0,0,0,1.75-3c-.63-5-2-17.72-1.38-25.24.83-9.55-1.66-15.36-1.66-15.36a130.26,130.26,0,0,1,23.24,7.05c12,5,22.42-.83,27-3.32a29.72,29.72,0,0,0,6.23-4.15,19,19,0,0,0,11.21-4.56c5.39-4.57,6.22-16.61.41-23.66S324,334.43,324,334.43Z"/><path class="cls-59" d="M333.12,271.34s4.12-1.53,3.85-7c-1.25-5.43-2.76-5.79-2.76-5.79s5.77-5.34,12.73-3.66c0,0,4.3,8.73,9.16,12.46C356.1,267.31,352.21,277.56,333.12,271.34Z"/><path class="cls-41" d="M342.15,274.45s15.25-12.76,18.36-13.08c3.74-.31,8.41.94,9.65,6.23a9.78,9.78,0,0,1-4.35,10.9c-2.81,1.55-27.4,13.38-31.76,13.38s-7.16-3.73-4.36-8.4S342.15,274.45,342.15,274.45Z"/><path class="cls-42" d="M346.82,265.94s-16.19,5.4-20.76,12.87-3.74,15.77-.41,27.39-3.33,22-1.67,28.23,13.29,12,30.31,9.13,18.26-9.54,19.51-13.28-3.32-21.58.83-36.11-4.15-24.49-7.47-27S357.19,261.37,346.82,265.94Z"/><path class="cls-41" d="M367.16,267.19c-3.33-2.5-10-5.82-20.34-1.25,0,0-16.19,5.4-20.76,12.87a20.7,20.7,0,0,0-2.4,5.61c6.55-8.52,15.85-12.26,21.91,2.28,5.65,13.56-8.73,53.43-21.29,40.89-.53,2.62-.81,4.93-.3,6.84,1.67,6.23,13.29,12,30.31,9.13s18.26-9.54,19.51-13.28-3.32-21.58.83-36.11S370.48,269.68,367.16,267.19Z"/><path class="cls-1" d="M331.35,273s4.36,2.8,15.26,1.24,11.52-9.34,10.58-10a20.39,20.39,0,0,1-2.8-3.11s-11.52,5.29-15.57,6.85-6.22,2.49-6.22,2.49Z"/><path class="cls-60" d="M324.19,239.06s-.93,11.21,5,18.68S341,260.86,344.74,259s5.29-5,6.54-14,1.24-17.75-5.29-20.55-13.7-3.42-17.75,3.42S324.19,239.06,324.19,239.06Z"/><path class="cls-61" d="M328.55,225.68s-5.29,4-5,10-1.56,6.85-.93,10,5.6,4.05,5.91,8.41,6.85,5.91,10.27,7.16,9-2.81,10.59-5,1.25-7.79,3.11-12.77.94-11.21-.62-15.57-4.67-5.29-4.67-5.29a7.59,7.59,0,0,0-5.29-4C338.2,217.89,326.68,218.52,328.55,225.68Z"/><g class="cls-3"><path class="cls-4" d="M378.44,409.77c-.56,6.28-6.47,10.55-11.81,12.85a45.38,45.38,0,0,1-18.49,3.43,43.87,43.87,0,0,1-18.8-4.17c-5.06-2.49-10.44-7-10.42-13.15,0,4.48.3,8.17,3.53,11.67,4.15,4.49,10.4,6.91,16.27,8.13,11.47,2.37,27.09,1.22,35.8-7.61,3.51-3.55,4-7.29,4-12C378.5,409.19,378.48,409.48,378.44,409.77Z"/><path class="cls-5" d="M369.71,396.6c11.68,6.74,11.75,17.67.16,24.41s-30.49,6.74-42.16,0-11.72-17.67-.12-24.41S358,389.86,369.71,396.6Z"/></g><g class="cls-3"><polygon class="cls-6" points="354.03 382.98 353.95 409.03 349.4 411.68 349.47 385.63 354.03 382.98"/><polygon class="cls-7" points="349.47 385.63 349.4 411.68 344.81 409.03 344.88 382.98 349.47 385.63"/><polygon class="cls-8" points="354.03 382.98 349.47 385.63 344.88 382.98 349.44 380.33 354.03 382.98"/></g><path class="cls-40" d="M407.15,294.05a5.35,5.35,0,0,0-7.12-4.87c-14.89,5.22-49,17.59-51.21,22-2.09,4.18-8.84,27.53-12.17,39.22a5.35,5.35,0,0,1-7.88,3.14l-20.63-12.16a5.36,5.36,0,0,0-8,5.5l3.31,19.87a5.35,5.35,0,0,0,2.62,3.77l22.07,12.68a42.46,42.46,0,0,0,40.12,1.16l17-8.51a42.44,42.44,0,0,0,23.43-39.51Z"/><path class="cls-9" d="M348.82,311.15c-2.09,4.18-8.84,27.53-12.17,39.22a5.35,5.35,0,0,1-7.88,3.14l-20.63-12.16a5.36,5.36,0,0,0-8,5.5l3.31,19.87a5.49,5.49,0,0,0,.42,1.32c.26.42.53.83.8,1.24a5.25,5.25,0,0,0,1.4,1.21l22.07,12.68a42.59,42.59,0,0,0,14.93,5.18c17.9-13.89,15.64-71.88,9.15-76.75a9,9,0,0,0-2.55-1.41A3.42,3.42,0,0,0,348.82,311.15Z"/><path class="cls-42" d="M308.94,293.54s15.25-12.76,18.37-13.07c3.73-.31,8.4.93,9.65,6.23a9.78,9.78,0,0,1-4.36,10.89c-2.8,1.56-27.4,13.39-31.76,13.39s-7.16-3.74-4.36-8.41S308.94,293.54,308.94,293.54Z"/><path class="cls-60" d="M287.46,273.31a11.36,11.36,0,0,1-.94-2.65c-.15-1.09.47-2.49-.15-5s-1.72-4.67-2.18-6.38c-1.25-1.56-2.34,1.24-1.4,3.58s.62,3.73-.31,3.89-4.83-2.18-5.92-3.42-7.32-7.32-7.94-6.54-.62,1.55,1.56,3.89,3,3.42,3.11,4.05a10.42,10.42,0,0,0,.78,3.11c.78,1.87.16,3.11,1.56,4.83s4,2,5.29,3.11l1.24,1.09Z"/><path class="cls-42" d="M300.84,311s-6.53,1.24-10.06-6-9.55-26.77-10.38-28.64a7.86,7.86,0,0,1,7.26-4.36s5.82,11.41,9.14,16.6S312,308.9,300.84,311Z"/><path class="cls-15" d="M204.63,187.23s2-1.29,3.23-.92a53.79,53.79,0,0,0,6.64,1.11c1.29.09,3.88-2.22,4.34-2.59s.74-1.2,1.29-1.75.83-.46.83-1.47,1-1.94,1.47-2.4,2.31-1.57,2.13-2.4-1.11-.37-1.66-.19-2.68,2.13-3.6,2.68a11.56,11.56,0,0,1-4.24,1.38,9.41,9.41,0,0,1-2.13-.27s-.27,0,.83-.37a14.29,14.29,0,0,1,2.68-.28c.92-.18,1.38-.74,1.29-1.2s-1.29-.46-1.75-.46a37.28,37.28,0,0,1-4.34-.09c-1.1-.19-2.95,1.66-3.32,2a8.75,8.75,0,0,1-3.32,1C204,181.14,204.63,187.23,204.63,187.23Z"/><path class="cls-10" d="M164.94,186.24s1.93,6.37,10,6.13,28.15-4,30.19-4.1a7.87,7.87,0,0,0,.49-8.46s-12.81.15-19-.38S161.63,175.44,164.94,186.24Z"/><path class="cls-10" d="M122.21,199s-3.37-19.61-5.54-21.86c-2.65-2.65-7-4.72-11.39-1.49a9.77,9.77,0,0,0-3.73,11.12c1.13,3,12.23,27.94,15.56,30.76s7.87,1.78,8.76-3.59S122.21,199,122.21,199Z"/><path class="cls-15" d="M156.23,209.43s2.65.16,3.58.16,8.1-.62,9.34-.62,1.25,1.4,1.25,1.4a9.66,9.66,0,0,1,1.24,2.8,7.53,7.53,0,0,0,.32,2.65c.31.78-.16,1.4-.47,2s-1.09.93-1.87,1.4a2.5,2.5,0,0,1-2.33.16c-.63-.31-.63-.47.15-.94a7.76,7.76,0,0,0,1.4-1.09,4.21,4.21,0,0,1-2.33,1.09,10.07,10.07,0,0,1-4.83-.46l-3.42-1.72-2.49-.31Z"/><path class="cls-10" d="M116.58,214.88s1.93,6.37,10,6.13,28.15-4,30.19-4.1a7.85,7.85,0,0,0,.49-8.45s-12.81.14-18.95-.39S113.27,204.09,116.58,214.88Z"/></g></svg>