<svg width="42" height="42" viewBox="0 0 42 42" fill="none" xmlns="http://www.w3.org/2000/svg">
<g clip-path="url(#clip0_180_2)">
<path d="M0.676003 36.559H1.703C1.77351 36.7589 1.85566 36.9546 1.94901 37.145L1.219 37.872C1.09202 37.9996 1.0202 38.172 1.019 38.352C1.01929 38.4407 1.0371 38.5286 1.07143 38.6104C1.10575 38.6923 1.1559 38.7666 1.219 38.829L3.137 40.747C3.26672 40.8685 3.43778 40.9361 3.6155 40.9361C3.79322 40.9361 3.96429 40.8685 4.094 40.747L4.821 40.02C5.01211 40.1105 5.2077 40.1913 5.40701 40.262V41.29C5.40701 41.3787 5.4245 41.4666 5.45848 41.5485C5.49247 41.6305 5.54227 41.7049 5.60506 41.7676C5.66784 41.8303 5.74238 41.88 5.82439 41.9139C5.9064 41.9478 5.99427 41.9651 6.083 41.965H8.79401C8.88303 41.9655 8.97128 41.9484 9.0537 41.9148C9.13611 41.8811 9.21106 41.8315 9.27424 41.7688C9.33742 41.706 9.38759 41.6315 9.42188 41.5493C9.45616 41.4671 9.47388 41.379 9.47401 41.29V40.258C9.66901 40.188 9.864 40.106 10.056 40.016L10.786 40.747C10.8484 40.8102 10.9226 40.8604 11.0045 40.8947C11.0864 40.929 11.1742 40.9468 11.263 40.947C11.4432 40.9464 11.6158 40.8745 11.743 40.747L13.653 38.827C13.7161 38.7646 13.7661 38.6903 13.8003 38.6084C13.8345 38.5265 13.8521 38.4387 13.8521 38.35C13.8521 38.2613 13.8345 38.1734 13.8003 38.0915C13.7661 38.0097 13.7161 37.9354 13.653 37.873L12.923 37.143C13.0148 36.9525 13.0956 36.7568 13.165 36.557H14.2C14.2889 36.5572 14.3769 36.5399 14.459 36.5061C14.5411 36.4722 14.6158 36.4224 14.6786 36.3596C14.7414 36.2968 14.7912 36.2221 14.8251 36.14C14.859 36.0579 14.8763 35.9698 14.876 35.881V33.17C14.8763 33.0812 14.859 32.9932 14.8251 32.9111C14.7912 32.829 14.7414 32.7545 14.6785 32.6917C14.6157 32.629 14.5411 32.5793 14.4589 32.5455C14.3768 32.5118 14.2888 32.4946 14.2 32.495H13.165C13.0983 32.295 13.019 32.0997 12.927 31.909L13.657 31.182C13.7819 31.0534 13.8518 30.8812 13.852 30.702C13.8528 30.5234 13.7826 30.3519 13.657 30.225L11.739 28.307C11.6093 28.1855 11.4382 28.1179 11.2605 28.1179C11.0828 28.1179 10.9117 28.1855 10.782 28.307L10.052 29.038C9.86233 28.947 9.66807 28.8659 9.47 28.795V27.76C9.46921 27.5809 9.39774 27.4095 9.27113 27.2829C9.14453 27.1562 8.97305 27.0848 8.79401 27.084H6.08601C5.90672 27.084 5.73478 27.1552 5.608 27.282C5.48123 27.4087 5.41 27.5807 5.41 27.76V28.791C5.20927 28.8617 5.01234 28.9428 4.82 29.034L4.093 28.307C4.03102 28.2433 3.95684 28.1928 3.87488 28.1584C3.79292 28.124 3.70487 28.1065 3.616 28.107C3.52676 28.107 3.43839 28.1247 3.356 28.159C3.27362 28.1933 3.19885 28.2436 3.136 28.307L1.223 30.227C1.1596 30.29 1.10929 30.365 1.07497 30.4475C1.04064 30.5301 1.02298 30.6186 1.023 30.708C1.0227 30.7967 1.04025 30.8845 1.07461 30.9663C1.10897 31.0481 1.15943 31.1221 1.223 31.184L1.95 31.911C1.8574 32.1031 1.77528 32.3 1.704 32.501H0.676003C0.587276 32.5009 0.499392 32.5182 0.417381 32.5521C0.335371 32.5859 0.260845 32.6356 0.198059 32.6983C0.135274 32.761 0.0854676 32.8355 0.0514832 32.9174C0.0174987 32.9994 -9.73675e-08 33.0873 0 33.176V35.887C0.00183704 36.0653 0.0737802 36.2358 0.200272 36.3615C0.326763 36.4873 0.497647 36.5582 0.676003 36.559ZM1.35201 33.848H2.204C2.35421 33.8481 2.50018 33.7982 2.61894 33.7062C2.7377 33.6143 2.8225 33.4854 2.86 33.34C2.967 32.9142 3.13543 32.5062 3.36 32.129C3.43601 31.9993 3.46694 31.8482 3.44794 31.6991C3.42895 31.55 3.3611 31.4114 3.255 31.305L2.65501 30.705L3.616 29.744L4.216 30.344C4.32266 30.4485 4.46081 30.5149 4.60905 30.533C4.75729 30.5511 4.90735 30.5198 5.036 30.444C5.41521 30.2205 5.82431 30.0521 6.251 29.944C6.39504 29.9048 6.52214 29.8192 6.61254 29.7004C6.70295 29.5816 6.75161 29.4363 6.751 29.287V28.436H8.11V29.287C8.10968 29.4374 8.15944 29.5836 8.25143 29.7025C8.34341 29.8215 8.47239 29.9064 8.618 29.944C9.04314 30.053 9.45081 30.2213 9.829 30.444C9.95799 30.5201 10.1087 30.551 10.2572 30.5318C10.4057 30.5126 10.5436 30.4444 10.649 30.338L11.255 29.738L12.216 30.699L11.61 31.299C11.5036 31.4044 11.4355 31.5424 11.4165 31.6909C11.3975 31.8395 11.4286 31.9901 11.505 32.119C11.7275 32.4987 11.8958 32.9076 12.005 33.334C12.044 33.4779 12.1294 33.605 12.2481 33.6954C12.3667 33.7858 12.5119 33.8345 12.661 33.834H13.52V35.193H12.665C12.5148 35.1929 12.3688 35.2427 12.2501 35.3347C12.1313 35.4267 12.0465 35.5555 12.009 35.701C11.8982 36.1255 11.73 36.533 11.509 36.912C11.4328 37.0407 11.4012 37.191 11.4193 37.3395C11.4374 37.488 11.5041 37.6263 11.609 37.733L12.215 38.333L11.258 39.294L10.652 38.688C10.5449 38.5828 10.406 38.516 10.257 38.4979C10.108 38.4798 9.95717 38.5115 9.828 38.588C9.44966 38.8104 9.04204 38.9787 8.617 39.088C8.47221 39.1253 8.34385 39.2095 8.25195 39.3275C8.16005 39.4454 8.10979 39.5905 8.109 39.74V40.596H6.762V39.744C6.76141 39.5939 6.7113 39.4483 6.61944 39.3297C6.52758 39.2111 6.39912 39.1261 6.25401 39.088C5.82755 38.9791 5.41853 38.8108 5.039 38.588C4.9103 38.5123 4.76027 38.4811 4.61208 38.4992C4.46388 38.5173 4.32575 38.5836 4.219 38.688L3.619 39.294L2.658 38.333L3.258 37.733C3.36425 37.6266 3.4322 37.488 3.4512 37.3389C3.4702 37.1898 3.43919 37.0386 3.36301 36.909C3.14062 36.5306 2.97232 36.123 2.86301 35.698C2.82568 35.5532 2.74148 35.4248 2.62353 35.3329C2.50558 35.241 2.36053 35.1908 2.21101 35.19H1.353L1.35201 33.848Z" fill="#23ADF0"/>
<path d="M7.44108 37.911C8.11022 37.9112 8.76439 37.7129 9.32085 37.3413C9.87731 36.9697 10.3111 36.4414 10.5673 35.8233C10.8235 35.2052 10.8906 34.5249 10.7602 33.8686C10.6298 33.2123 10.3077 32.6094 9.83458 32.1362C9.3615 31.663 8.75871 31.3407 8.10244 31.2101C7.44618 31.0795 6.76592 31.1464 6.1477 31.4024C5.52947 31.6584 5.00106 32.092 4.62929 32.6484C4.25752 33.2047 4.05908 33.8589 4.05908 34.528C4.05988 35.4248 4.41642 36.2847 5.05046 36.9189C5.68451 37.5531 6.54427 37.9099 7.44108 37.911V37.911ZM7.44108 32.497C7.84221 32.4974 8.23422 32.6167 8.56758 32.8398C8.90094 33.0629 9.16069 33.3798 9.31402 33.7504C9.46734 34.1211 9.50735 34.5289 9.429 34.9223C9.35064 35.3157 9.15744 35.6771 8.8738 35.9607C8.59016 36.2444 8.22881 36.4376 7.83541 36.5159C7.44201 36.5943 7.03421 36.5542 6.66354 36.4009C6.29287 36.2476 5.97596 35.9878 5.75286 35.6545C5.52976 35.3211 5.41048 34.9291 5.41008 34.528C5.41035 33.9894 5.62441 33.473 6.00524 33.0921C6.38607 32.7113 6.90251 32.4973 7.44108 32.497V32.497Z" fill="#23ADF0"/>
<path d="M41.8981 3.59398C41.8579 3.47664 41.7864 3.37249 41.6915 3.29268C41.5965 3.21287 41.4816 3.16043 41.3591 3.14098L38.9101 2.76998L37.8101 0.421982C37.7546 0.306473 37.6677 0.208981 37.5592 0.140747C37.4508 0.0725129 37.3252 0.0363159 37.1971 0.0363159C37.069 0.0363159 36.9434 0.0725129 36.835 0.140747C36.7265 0.208981 36.6396 0.306473 36.5841 0.421982L35.4841 2.76998L33.0391 3.14098C32.9166 3.16043 32.8017 3.21287 32.7067 3.29268C32.6118 3.37249 32.5403 3.47664 32.5001 3.59398C32.4601 3.71189 32.4535 3.83856 32.4811 3.95998C32.5086 4.0814 32.5692 4.19285 32.6561 4.28198L34.4451 6.11798L34.0231 8.71798C34.0024 8.84387 34.0176 8.97305 34.0671 9.09064C34.1166 9.20822 34.1983 9.30944 34.3029 9.3826C34.4074 9.45576 34.5305 9.4979 34.6579 9.50416C34.7853 9.51042 34.9119 9.48055 35.0231 9.41798L37.2031 8.21098L39.3831 9.41798C39.4943 9.48036 39.621 9.50981 39.7483 9.50291C39.8756 9.496 39.9983 9.45302 40.1021 9.37898C40.2053 9.30488 40.2859 9.20353 40.3348 9.08627C40.3837 8.96901 40.399 8.84046 40.3791 8.71498L39.9531 6.11498L41.7461 4.27898C41.8309 4.18918 41.8899 4.07807 41.9166 3.95746C41.9434 3.83685 41.937 3.71124 41.8981 3.59398V3.59398ZM38.7421 5.41798C38.6682 5.49395 38.6131 5.58613 38.5811 5.68718C38.5492 5.78823 38.5413 5.89535 38.5581 5.99998L38.8121 7.55898L37.5231 6.84798C37.424 6.79261 37.3126 6.76304 37.1991 6.76199C37.0844 6.76334 36.9717 6.79287 36.8711 6.84798L35.5821 7.55898L35.8361 5.99998C35.8531 5.89534 35.8454 5.78815 35.8134 5.68707C35.7815 5.58598 35.7262 5.49381 35.6521 5.41798L34.5431 4.28198L36.0431 4.05098C36.1529 4.03424 36.2568 3.99048 36.3455 3.92362C36.4341 3.85677 36.5048 3.76892 36.5511 3.66798L37.1951 2.30098L37.8361 3.66798C37.8833 3.76883 37.9547 3.85651 38.0438 3.9233C38.1329 3.99009 38.237 4.03394 38.3471 4.05098L39.8471 4.28198L38.7421 5.41798Z" fill="#D4145A"/>
<path d="M31.3669 8.20397C31.1839 8.17494 30.9969 8.18384 30.8175 8.23012C30.6381 8.27639 30.4701 8.35905 30.3239 8.47297L25.0189 12.625C25.26 12.1598 25.3895 11.645 25.3974 11.1212C25.4053 10.5974 25.2913 10.0789 25.0644 9.60669C24.8375 9.1345 24.5039 8.72154 24.0899 8.40043C23.676 8.07933 23.1931 7.85886 22.6793 7.75646C22.1655 7.65406 21.635 7.67253 21.1296 7.8104C20.6241 7.94828 20.1577 8.20178 19.7671 8.55089C19.3765 8.9 19.0724 9.33516 18.8789 9.82198C18.6853 10.3088 18.6076 10.834 18.6519 11.356C18.7147 12.1082 19.0322 12.8165 19.5519 13.364C18.7626 13.556 18.0698 14.0279 17.6019 14.692L12.2739 21.965C12.1274 22.176 12.0438 22.4243 12.033 22.681C12.0221 22.9376 12.0843 23.1921 12.2125 23.4148C12.3406 23.6374 12.5294 23.8191 12.7568 23.9386C12.9842 24.0582 13.2409 24.1107 13.4969 24.09L15.1179 23.95C15.3098 23.9353 15.4961 23.8792 15.6641 23.7855C15.8321 23.6917 15.9778 23.5626 16.0909 23.407L19.3089 19.176L19.5519 22.063L17.9529 33.027C17.3529 33.152 16.7419 33.261 16.1329 33.347L16.3199 34.687C18.4445 34.3913 20.5319 33.8714 22.5469 33.136C25.9875 31.8738 29.1744 30.006 31.9569 27.621L32.1089 27.574L32.0859 27.503C33.9524 25.8941 35.6238 24.072 37.0659 22.074C37.1311 21.9844 37.173 21.88 37.188 21.7703C37.203 21.6605 37.1906 21.5488 37.1519 21.445C37.1131 21.3423 37.0503 21.2504 36.9687 21.1769C36.8871 21.1035 36.7891 21.0507 36.6829 21.023L35.6399 20.761L39.4399 18.652L40.3349 22.691L39.4399 22.391C39.2988 22.3441 39.1461 22.3451 39.0055 22.3939C38.865 22.4428 38.7446 22.5366 38.6629 22.661L38.5499 22.833C30.0499 35.774 20.5969 38.915 14.1629 39.266L14.2369 40.618C20.9369 40.251 30.7369 37.032 39.5029 23.84L41.0419 24.352C41.1553 24.3889 41.2765 24.3953 41.3932 24.3703C41.5098 24.3454 41.6178 24.2901 41.7062 24.21C41.7946 24.13 41.8603 24.0279 41.8966 23.9143C41.9329 23.8007 41.9385 23.6795 41.9129 23.563L40.5609 17.477C40.5389 17.3738 40.493 17.2772 40.4267 17.1951C40.3605 17.1129 40.2758 17.0476 40.1796 17.0042C40.0834 16.9609 39.9784 16.9408 39.873 16.9456C39.7676 16.9505 39.6648 16.98 39.5729 17.032L33.4869 20.415C33.3675 20.4799 33.2706 20.5796 33.2091 20.7009C33.1477 20.8222 33.1246 20.9593 33.1429 21.094C33.1611 21.2285 33.2193 21.3544 33.3098 21.4555C33.4004 21.5566 33.5192 21.6282 33.6509 21.661L35.3699 22.09C34.256 23.5266 33.0153 24.8602 31.6629 26.075L30.4529 22.027C30.3992 21.8562 30.3117 21.698 30.1956 21.5617C30.0794 21.4255 29.937 21.314 29.7769 21.234L26.9959 19.785L26.5619 16.48L32.7539 11.761C33.0302 11.5521 33.2156 11.2449 33.2714 10.903C33.3273 10.5612 33.2494 10.2109 33.0539 9.92497L32.2719 8.77697C32.169 8.62394 32.0355 8.49398 31.8797 8.39534C31.7239 8.29669 31.5493 8.23153 31.3669 8.20397V8.20397ZM21.8509 9.05097C21.9059 9.05097 21.9649 9.04297 22.0229 9.04297C22.5015 9.04202 22.9645 9.21268 23.3279 9.52397C23.5321 9.69543 23.7004 9.90554 23.8231 10.1422C23.9458 10.3789 24.0206 10.6375 24.043 10.9032C24.0655 11.1688 24.0353 11.4363 23.9541 11.6903C23.8729 11.9442 23.7424 12.1796 23.5699 12.383C23.3115 12.6897 22.9678 12.9129 22.5825 13.0243C22.1971 13.1356 21.7874 13.1301 21.4051 13.0085C21.0229 12.8869 20.6853 12.6546 20.4352 12.341C20.1851 12.0274 20.0336 11.6467 19.9999 11.247C19.9773 10.9811 20.0073 10.7134 20.0882 10.4591C20.1691 10.2048 20.2993 9.96894 20.4714 9.765C20.6435 9.56106 20.854 9.39303 21.0911 9.27052C21.3282 9.148 21.587 9.0734 21.8529 9.05097H21.8509ZM22.7689 31.598L24.1759 23.473L26.6639 24.68L28.1329 28.805C26.4478 29.9215 24.6499 30.8577 22.7689 31.598V31.598ZM25.4369 15.641C25.3416 15.7133 25.2673 15.8097 25.2214 15.9202C25.1756 16.0307 25.1599 16.1514 25.1759 16.27L25.7069 20.313C25.7203 20.4212 25.76 20.5245 25.8226 20.6137C25.8852 20.703 25.9687 20.7755 26.0659 20.825L29.1659 22.425L30.5409 27.039C30.1409 27.363 29.7209 27.687 29.2789 28.007L27.9279 24.207C27.8045 23.8928 27.5675 23.6365 27.2639 23.489L23.9589 21.868C23.8646 21.8215 23.7607 21.7977 23.6555 21.7984C23.5504 21.7991 23.4468 21.8244 23.3531 21.8721C23.2594 21.9199 23.1782 21.9889 23.1158 22.0736C23.0535 22.1582 23.0117 22.2563 22.9939 22.36L21.3029 32.125C20.6659 32.336 20.0209 32.532 19.3689 32.7L20.9039 22.184C20.9099 22.1321 20.9099 22.0798 20.9039 22.028L20.5039 17.309C20.4917 17.1733 20.4389 17.0445 20.3523 16.9393C20.2657 16.8341 20.1494 16.7575 20.0186 16.7195C19.8878 16.6815 19.7486 16.6838 19.6191 16.7262C19.4896 16.7685 19.3759 16.849 19.2929 16.957L14.9999 22.606L13.3709 22.754L18.6989 15.481C18.8691 15.2369 19.0911 15.0333 19.349 14.8848C19.6069 14.7364 19.8944 14.6466 20.1909 14.622L22.2969 14.442L24.9969 14.215C25.1277 14.2042 25.2524 14.1555 25.3559 14.075L31.1559 9.53997L31.9369 10.688L25.4369 15.641Z" fill="#23ADF0"/>
<path d="M2.02686 0.710999H3.38286V2.063H2.02686V0.710999Z" fill="#D4145A"/>
<path d="M3.38281 2.06299H4.73481V3.41499H3.38281V2.06299Z" fill="#D4145A"/>
<path d="M0.675781 2.06299H2.02778V3.41499H0.675781V2.06299Z" fill="#D4145A"/>
<path d="M2.02686 3.41498H3.38286V4.76998H2.02686V3.41498Z" fill="#D4145A"/>
<path d="M7.44092 2.73898H8.79292V4.09398H7.44092V2.73898Z" fill="#D4145A"/>
<path d="M8.79297 4.09399H10.144V5.44599H8.79297V4.09399Z" fill="#D4145A"/>
<path d="M6.08594 4.09399H7.44094V5.44599H6.08594V4.09399Z" fill="#D4145A"/>
<path d="M7.44092 5.44598H8.79292V6.79698H7.44092V5.44598Z" fill="#D4145A"/>
<path d="M38.5532 37.227H39.9042V38.582H38.5532V37.227Z" fill="#D4145A"/>
<path d="M39.902 38.586H41.253V39.938H39.897L39.902 38.586Z" fill="#D4145A"/>
<path d="M37.1992 38.586H38.5532V39.938H37.2012L37.1992 38.586Z" fill="#D4145A"/>
<path d="M38.5532 39.938H39.9042V41.29H38.5532V39.938Z" fill="#D4145A"/>
</g>
<defs>
<clipPath id="clip0_180_2">
<rect width="41.953" height="42" fill="white"/>
</clipPath>
</defs>
</svg>
