<?xml version="1.0" encoding="utf-8"?>
<!-- Generator: Adobe Illustrator 25.0.0, SVG Export Plug-In . SVG Version: 6.00 Build 0)  -->
<svg version="1.1" id="Layer_1" xmlns="http://www.w3.org/2000/svg" xmlns:xlink="http://www.w3.org/1999/xlink" x="0px" y="0px"
	 viewBox="0 0 42.8 39" style="enable-background:new 0 0 42.8 39;" xml:space="preserve">
<style type="text/css">
	.st0{fill:#23ADF0;}
	.st1{fill:#D4145A;}
</style>
<path class="st0" d="M41.9,33.4h-2.2V17.3h2.2c0.1,0,0.2,0,0.3-0.1c0.1,0,0.2-0.1,0.3-0.2c0.1-0.2,0.2-0.4,0.1-0.6L38.8,0.7
	c-0.1-0.3-0.4-0.6-0.7-0.6H4.7c-0.2,0-0.3,0-0.5,0.2C4.1,0.4,4,0.6,4,0.7L0.1,16.4c-0.1,0.2,0,0.5,0.1,0.6c0.1,0.1,0.2,0.2,0.3,0.2
	c0.1,0,0.2,0.1,0.3,0.1H3v16.1H0.8c-0.2,0-0.4,0.1-0.5,0.2c-0.1,0.1-0.2,0.3-0.2,0.5v3.9c0,0.4,0.3,0.7,0.7,0.7h41.1
	c0.4,0,0.7-0.3,0.7-0.7v-3.9c0-0.2-0.1-0.4-0.2-0.5C42.3,33.5,42.1,33.4,41.9,33.4z M1.8,15.8L5.3,1.6h32.2L41,15.8h-2
	c-0.4,0-0.7,0.3-0.7,0.7v16.9h-4.4V16.6l1.7,1.5l1-1.1l-2.7-2.3v-0.1h-0.1L21.9,4.3c-0.3-0.2-0.7-0.2-1,0L9,14.6H8.9v0.1L6.2,17
	l1,1.1l1.7-1.5v16.8H4.5V16.6c0-0.2-0.1-0.4-0.2-0.5c-0.1-0.1-0.3-0.2-0.5-0.2H1.8z M32.4,15.3v18.1h-22V15.3l11-9.5L32.4,15.3z
	 M41.2,37.3H1.5v-2.4h39.7V37.3z"/>
<path class="st0" d="M29.8,19.8c-0.1-0.6-0.3-1.1-0.5-1.6c-0.9-2.1-2.5-3.8-4.6-4.6c-0.5-0.2-1.1-0.4-1.6-0.5s-1.1-0.2-1.7-0.2
	c-1.1,0-2.2,0.2-3.3,0.6c-4.4,1.8-6.4,6.9-4.6,11.2c1.8,4.3,6.8,6.4,11.1,4.6c0.5-0.2,1-0.5,1.5-0.8c0.9-0.6,1.7-1.4,2.4-2.4
	c0.3-0.5,0.6-1,0.8-1.5c0.4-1,0.7-2.1,0.7-3.3C30,20.9,29.9,20.3,29.8,19.8z M28.3,22.8c-0.1,0.4-0.2,0.9-0.4,1.3
	c-0.2,0.4-0.4,0.8-0.7,1.2c-0.3,0.4-0.6,0.8-0.9,1.1c-0.3,0.3-0.7,0.6-1.1,0.9c-0.4,0.3-0.8,0.5-1.2,0.6c-0.9,0.4-1.8,0.5-2.7,0.5
	s-1.9-0.2-2.7-0.5c-0.4-0.2-0.8-0.4-1.2-0.6c-0.4-0.3-0.8-0.6-1.1-0.9c-0.7-0.7-1.2-1.4-1.5-2.3c-0.7-1.7-0.7-3.7,0-5.4
	c0.2-0.4,0.4-0.8,0.6-1.2c0.3-0.4,0.6-0.7,0.9-1.1c0.3-0.3,0.7-0.6,1.1-0.9c0.4-0.3,0.8-0.5,1.2-0.7c1.3-0.5,2.7-0.7,4.1-0.4
	c0.4,0.1,0.9,0.2,1.3,0.4c0.4,0.2,0.8,0.4,1.2,0.7c0.4,0.3,0.8,0.5,1.1,0.9c0.7,0.7,1.2,1.4,1.5,2.3c0.2,0.4,0.3,0.9,0.4,1.3
	c0.1,0.5,0.1,0.9,0.1,1.4C28.5,21.9,28.4,22.4,28.3,22.8z"/>
<path class="st1" d="M20.2,19.2v1.5h3.2c0.2,0,0.4,0.1,0.5,0.2c0.1,0.1,0.2,0.3,0.2,0.5v2.9c0,0.4-0.3,0.7-0.7,0.7h-1.2v1.2h-1.5
	v-1.2h-2.2v-1.5h4.2v-1.5h-3.2c-0.2,0-0.4-0.1-0.5-0.2c-0.1-0.1-0.2-0.3-0.2-0.5v-2.9c0-0.4,0.3-0.7,0.7-0.7h1.2v-1.2h1.5v1.2h2.2
	v1.5H20.2z"/>
</svg>
