<svg xmlns="http://www.w3.org/2000/svg" width="99.722" height="99.726"><defs><clipPath id="a"><path d="M352.938 156.047h99.722v99.726h-99.722Zm0 0" data-name="Path 83"/></clipPath></defs><g data-name="Coding Skills"><path fill="#f2f6f8" d="M98.738 49.853A48.885 48.885 0 1 0 49.855 98.74a48.884 48.884 0 0 0 48.883-48.887" data-name="Path 81"/><g clip-path="url(#a)" data-name="Group 5" transform="translate(-352.938 -156.047)"><path fill="#29abe2" d="M402.793 157.992A47.912 47.912 0 1 0 450.7 205.9a47.967 47.967 0 0 0-47.907-47.908Zm0 97.77a49.859 49.859 0 1 1 35.254-14.606 49.532 49.532 0 0 1-35.254 14.606" data-name="Path 82"/></g><path fill="#fafcfd" d="M94.628 49.853a44.773 44.773 0 1 0-44.773 44.778 44.774 44.774 0 0 0 44.773-44.778" data-name="Path 84"/><path fill="#fff" d="M91.406 49.853a41.551 41.551 0 1 0-41.551 41.555 41.551 41.551 0 0 0 41.551-41.555" data-name="Path 85"/><path fill="#29abe2" d="M24.824 33.203h.519a.973.973 0 0 0 0-1.945h-.519a.973.973 0 1 0 0 1.945" data-name="Path 86"/><path fill="#29abe2" d="M76.492 71.437H23.218a3.5 3.5 0 0 1-3.5-3.5V37.664h60.274v30.273a3.5 3.5 0 0 1-3.5 3.5Zm-53.274-43.16h53.274a3.5 3.5 0 0 1 3.5 3.5v3.95H19.718v-3.95a3.5 3.5 0 0 1 3.5-3.5Zm58.715 3.5a5.447 5.447 0 0 0-5.441-5.441H23.218a5.448 5.448 0 0 0-5.445 5.441v36.164a5.45 5.45 0 0 0 5.445 5.446h53.274a5.449 5.449 0 0 0 5.441-5.446V31.773" data-name="Path 87"/><path fill="#29abe2" d="M29.492 33.203h.515a.973.973 0 1 0 0-1.945h-.515a.973.973 0 1 0 0 1.945" data-name="Path 88"/><path fill="#29abe2" d="M34.156 33.203h.519a.973.973 0 1 0 0-1.945h-.519a.973.973 0 1 0 0 1.945" data-name="Path 89"/><path fill="#d4145a" d="M41.625 47.418a.97.97 0 0 0-1.375-.008l-6.567 6.5a.956.956 0 0 0-.289.692.969.969 0 0 0 .289.691l6.567 6.5a.952.952 0 0 0 .683.277.969.969 0 0 0 .684-1.66l-5.871-5.8 5.871-5.805a.977.977 0 0 0 .008-1.375" data-name="Path 90"/><path fill="#d4145a" d="m66.027 53.906-6.567-6.5a.972.972 0 1 0-1.367 1.383l5.867 5.805-5.867 5.8a.972.972 0 0 0 1.367 1.383l6.567-6.5a.986.986 0 0 0 .289-.691.973.973 0 0 0-.289-.692" data-name="Path 91"/><path fill="#d4145a" d="M54.476 44.433a.975.975 0 0 0-1.289.481l-8.469 18.559a.974.974 0 0 0 .481 1.289 1 1 0 0 0 .4.086.979.979 0 0 0 .887-.567l8.469-18.562a.971.971 0 0 0-.481-1.286" data-name="Path 92"/></g></svg>