<svg xmlns="http://www.w3.org/2000/svg" xmlns:xlink="http://www.w3.org/1999/xlink" width="515.626" height="600.161" viewBox="0 0 515.626 600.161"><defs><linearGradient id="a" x1="0.92" y1="0.653" x2="0.022" y2="0.315" gradientUnits="objectBoundingBox"><stop offset="0" stop-color="#6d6afe"/><stop offset="1" stop-color="#3fb0f7"/></linearGradient><linearGradient id="b" x1="0.407" y1="0.176" x2="0.519" y2="0.738" gradientUnits="objectBoundingBox"><stop offset="0" stop-color="#5a2d68"/><stop offset="1" stop-color="#22043d"/></linearGradient><linearGradient id="c" x1="0.508" y1="0.934" x2="0.503" y2="0.36" gradientUnits="objectBoundingBox"><stop offset="0" stop-color="#1c8ef4"/><stop offset="1" stop-color="#00cfdd"/></linearGradient><linearGradient id="d" x1="0.504" y1="0.96" x2="0.498" y2="0.37" xlink:href="#c"/><linearGradient id="e" x1="0.472" y1="0.529" x2="0.696" y2="0.663" gradientUnits="objectBoundingBox"><stop offset="0" stop-color="#3e4795"/><stop offset="1" stop-color="#273088"/></linearGradient><linearGradient id="f" x1="0.457" y1="0.436" x2="0.689" y2="0.599" xlink:href="#e"/><linearGradient id="g" x1="0.51" y1="0.543" x2="0.631" y2="0.791" gradientUnits="objectBoundingBox"><stop offset="0" stop-color="#ff8a78"/><stop offset="1" stop-color="#ffa799"/></linearGradient><linearGradient id="h" x1="-0.023" y1="0.365" x2="0.633" y2="0.754" gradientUnits="objectBoundingBox"><stop offset="0" stop-color="#ffb89e"/><stop offset="1" stop-color="#ffa799"/></linearGradient><linearGradient id="i" x1="0" y1="0.5" x2="1" y2="0.5" xlink:href="#g"/><linearGradient id="j" x1="0.81" y1="0.719" x2="0.024" y2="0.337" xlink:href="#h"/><linearGradient id="k" x1="0.245" y1="0.406" x2="0.64" y2="0.552" gradientUnits="objectBoundingBox"><stop offset="0" stop-color="#d1e8ff"/><stop offset="1" stop-color="#eaefff"/></linearGradient><linearGradient id="l" x1="-0.332" y1="0.349" x2="1.708" y2="0.754" xlink:href="#k"/><linearGradient id="m" x1="0.298" y1="0.96" x2="0.658" y2="0.14" xlink:href="#c"/><linearGradient id="n" x1="-0.012" y1="1.393" x2="0.707" y2="0.14" xlink:href="#c"/><linearGradient id="o" x1="0.52" y1="0.906" x2="0.498" y2="0.46" xlink:href="#c"/><linearGradient id="p" x1="0.502" y1="0.543" x2="0.465" y2="-0.213" xlink:href="#c"/><linearGradient id="q" x1="0.367" y1="0.316" x2="0.604" y2="0.658" xlink:href="#c"/><linearGradient id="r" x1="0.522" y1="0.658" x2="0.471" y2="0.291" xlink:href="#a"/><linearGradient id="s" x1="0.508" y1="0.814" x2="0.492" y2="0.165" xlink:href="#c"/><linearGradient id="t" x1="0.508" y1="0.814" x2="0.492" y2="0.165" xlink:href="#c"/><linearGradient id="w" x1="0.522" y1="0.943" x2="0.498" y2="0.461" xlink:href="#c"/><linearGradient id="x" x1="0.436" y1="0.916" x2="0.497" y2="0.386" xlink:href="#c"/><linearGradient id="y" x1="0.296" y1="0.221" x2="0.747" y2="0.779" xlink:href="#e"/><linearGradient id="z" x1="0.148" y1="0.22" x2="1.056" y2="0.742" xlink:href="#e"/><linearGradient id="aa" x1="0.553" y1="0.938" x2="0.511" y2="0.402" xlink:href="#c"/><linearGradient id="ab" x1="0.32" y1="0.284" x2="0.633" y2="0.643" xlink:href="#g"/><linearGradient id="ac" x1="0.389" y1="0.316" x2="0.563" y2="0.791" xlink:href="#h"/><linearGradient id="ad" x1="0.011" y1="0.187" x2="0.668" y2="0.82" gradientUnits="objectBoundingBox"><stop offset="0" stop-color="#8a4791"/><stop offset="1" stop-color="#562e65"/></linearGradient><linearGradient id="ae" x1="0.427" y1="0.519" x2="0.331" y2="0.631" xlink:href="#h"/><linearGradient id="af" x1="0.48" y1="0.927" x2="0.501" y2="0.236" xlink:href="#c"/><clipPath id="ag"><path d="M853.308,889.827l-74.556,1.267L777.67,720.167l74.556-1.267Z" transform="translate(-777.67 -718.9)" fill="none"/></clipPath></defs><g transform="translate(0 0)"><path d="M2074.309,287.632c1.219,10.943-4.848,24.311-13.572,29.841s-17.083-1.587-18-9.841c-1.219-10.7,4.254-23.946,13.571-29.841,4.286-2.74,8.4-3.032,11.657-1.349.114.06.229.14.352.21,3.152,1.816,5.4,5.61,5.99,10.975Zm-24.5,20.41c2.076,3.175,6.031,4.927,10.136,2.333,5.6-3.552,9.5-12.14,8.714-19.165-.391-3.514-1.876-5.99-3.975-7.127s-4.791-.952-7.581.806c-6.467,4.1-11.718,16.356-7.3,23.152Z" transform="translate(-1603.302 -199.126)" fill-rule="evenodd" fill="url(#a)"/><path d="M1934.875,1408.681c-20.286-11.714-53.092-11.714-73.244,0-11.4,6.622-16.321,15.556-14.791,24.21l-28.3,16.121c-3.949,1.8-5.8,4.47-5.562,7.349.244,2.946,2.7,6.13,7.327,8.825q5.143,3,10.476,6.092a42.7,42.7,0,0,0,17.479,5.2c6.171.511,12.1-.279,16.136-2.473,8.625-4.692,17.162-9.587,25.664-14.511,15.927,1.521,32.825-1.27,45.079-8.391C1955.252,1439.392,1955.145,1420.392,1934.875,1408.681Z" transform="translate(-1446.583 -966.639)" fill="#eff5ff" fill-rule="evenodd"/><path d="M2029.037,847.793c-4.594-.029-7.689,3.584-8.889,7.978a24.622,24.622,0,0,0,1.019,14.514c4.5,10.225.029,15.629-1.133,20.876a21.856,21.856,0,0,0,.117,8.375c.692,3.81,3.175,5.438,5.53,8.572a30.422,30.422,0,0,0,4.079,9.051c6.549,9.362,24.273,11.746,40.483,8.571,12.971-2.54,24.914-9.013,29.841-15.168,5.413-6.756,4.038-21.676-6.72-21.629-2.5,0-5.441-.1-7.915-2.33-1.7-1.533-.984-6.349-1.543-12.521-.543-5.984-2.819-12.025-11.746-12.835-3.422-.317-6.689-.162-9.714-1.565-6.606-3.063-5.489-10.737-12.66-14.1-4.33-2.026-10.762-1.657-17.413,1.292C2031.278,847.189,2030.167,847.5,2029.037,847.793Z" transform="translate(-1587.548 -587.433)" fill-rule="evenodd" fill="url(#b)"/><path d="M2030.452,874.68c.054,2.952,1.486,5.317,3.565,7.5,4.854,5.079,6.9,4.317,10.159,11.213,3.257-2.946,5.682-3.679,7.073-1.467,2.238,3.562,1.514,5.968,2.486,9.841,1.587,6.308,7.937-3.6,14.66.422,6.613,3.952,3.064,7.937,6.349,14.429,1.232,2.429,2.391,5.692,4.943,6.47,7.936,2.419,12.086,10.841-.476,17.184-7.781,3.927-19.765,5-30.194,3.083-13.768-2.54-24.711-20.679-22.721-30.359.822-4.006,4.127-7.4,3.72-10.371C2028.582,892.413,2025.642,886.159,2030.452,874.68Z" transform="translate(-1592.036 -608.159)" fill="#22043d" fill-rule="evenodd"/><path d="M1954.919,1474.91l-.079,3.968c-.019,5.994,3.936,12,11.857,16.568,12.625,7.3,30.794,8.451,45.032,4.727,9.4-2.451,23.492-9.492,23.492-21.079l.083-3.968Z" transform="translate(-1543.424 -1017.84)" fill-rule="evenodd" fill="url(#c)"/><path d="M2023.634,1408.739c-15.74-9.086-41.19-9.086-56.825,0s-15.556,23.838.172,32.924,41.191,9.089,56.825,0S2039.373,1417.822,2023.634,1408.739Z" transform="translate(-1543.624 -968.024)" fill="#d1e3ff" fill-rule="evenodd"/><path d="M2068.33,1167.79v94.67a2.473,2.473,0,0,0,1.454,2.035,7.812,7.812,0,0,0,5.533.581c1.156-.317,2.883-1.168,2.883-2.59v-94.667Z" transform="translate(-1620.885 -808.218)" fill="#bed6ff" fill-rule="evenodd"/><path d="M1986.275,1013.906c-16.3-7.391-22.647-5.156-28.016-1.441-7.756,5.365-1.4,21.238-15.53,50.816-2.984,6.248-49.248,7.419-50.492,31.851-.34,6.727,13.651,25.444,56.391,22.619,13.143-.87,35.041-13.743,43.781-23.33,6.006-6.587,8.416-47.587,4.921-70.6C1996.326,1017.217,1991.98,1016.49,1986.275,1013.906Z" transform="translate(-1500.691 -699.848)" fill-rule="evenodd" fill="url(#d)"/><path d="M1980.838,1008.779c-16.3-7.391-22.727-8-28.1-4.283-7.756,5.368-1.4,21.238-15.53,50.816-2.984,6.248-49.248,7.419-50.476,31.851-.343,6.727,13.651,25.444,56.391,22.619,13.143-.87,35.038-13.743,43.778-23.327,6.006-6.591,8.5-44.762,5-67.762C1990.889,1012.09,1986.546,1011.363,1980.838,1008.779Z" transform="translate(-1496.937 -695.242)" fill="#d1e3ff" fill-rule="evenodd"/><path d="M1983.642,1007.886c-14.87-6.556-20.987-6.968-26.137-3.406-7.752,5.368-1.4,21.238-15.53,50.816-2.1,4.394-56.394,22.025-47.225,39.419,3.473,6.594,14.638,12.451,32.229,14.6l.244-1.019,18.892-2.079c15.682-1.743,25.371-4.784,31.178-9.81,7.936-6.86,7.936-17.981-.283-39.657,5.4-3.3,7.092,2.044,8.635-4.806,2.009-8.917,2.765-30.6.879-38.076a13.845,13.845,0,0,0-2.883-5.994Zm-60.124,128.889c-14.27,9.143-13.733,23.279,1.533,32.092a42.893,42.893,0,0,0,4.781,2.365,26.693,26.693,0,0,1,.552-2.654c1.952-7.368,3.448-12.921-5.241-24.248Z" transform="translate(-1501.699 -695.232)" fill="#afcfff" fill-rule="evenodd"/><path d="M1935.447,1170.421c.1-4.346.749-7.168.159-9.841l24.346,5.257c.27.908.521,1.93.762,3.051l13.378.918c5.337,8.524,11.206,24.187-.34,32.533-11.879,8.571-39.781,7.524-48.86,11.213-10.13,13.267-36.873-2.165-28.933-17.1a23.986,23.986,0,0,1,8.352-9.4C1911.914,1181.85,1923.574,1175.758,1935.447,1170.421Z" transform="translate(-1502.244 -803.297)" fill-rule="evenodd" fill="url(#e)"/><path d="M1965.936,1187.89l8.168.559c5.337,8.524,11.206,24.187-.34,32.533-11.879,8.571-39.781,7.524-48.86,11.213-9.768,12.794-34.978-1.1-29.648-15.5,8-3.3,22.663.225,29.454,8.209,11.524-2.9,24.422-4.165,33.352-8.7,13.175-6.667,12.063-15.873,8.432-27.644Z" transform="translate(-1502.257 -821.937)" fill-rule="evenodd" opacity="0.3" fill="url(#f)"/><path d="M1998.143,973.619a172.278,172.278,0,0,0-8.953,21.629c-1.384,3.9-.546,4.524-.241,8.1l7.372.245c3.263-5.619,12.063-17.114,15.349-24.168,2.1-4.482,7.359-18.959-.889-21.213C2000.847,955.489,2000.638,968.7,1998.143,973.619Z" transform="translate(-1566.342 -664.92)" fill="#e5efff" fill-rule="evenodd"/><path d="M2014.87,973.394c-1.756,2.857-5.022,7.9-5.248,11.575-.394,6.435.952,10.937-.27,14.4-1.384,3.9.209,5.556.514,9.127l2.927-5.4c2.5-6.819,6.848-14.835,10.159-21.9,2.1-4.486,9.87-17.721,1.587-19.854C2016.657,959.336,2017.749,968.7,2014.87,973.394Z" transform="translate(-1580.251 -667.12)" fill="#b6d1ff" fill-rule="evenodd" opacity="0.5"/><path d="M2054.516,1011.656c-3.886,8.994,2.72,13.968.34,20.162l.736,4.2c-7.092,5.079-32.457,5.47-38.819-4.625l-.13-5.035c-1.1-2.409-.375-8.5-.054-10.111,1.019-5.111.543-7.822,1.1-13.733.143-1.5.422-2.435.559-3.949-5.648-4.222-5.292-12.381-1.946-17.279a42.693,42.693,0,0,0,4.394-7.756,35.083,35.083,0,0,1,.978-4.444,7.342,7.342,0,0,1,1.184-2.425c1.613-2.3,4.219-2.578,9.543-1.356,10.549,2.419,21.416,7.9,26.263,13.063,3.53,3.756,3.387,7.937,1.365,16.933A96.643,96.643,0,0,1,2054.516,1011.656Z" transform="translate(-1583.719 -669.522)" fill="#e5efff" fill-rule="evenodd"/><path d="M2060.638,1053.348c-3.885,8.994,2.562,14.13.184,20.317l.733,4.127c-7.092,5.518-32.457,5.257-38.816-4.838l.133-4.394c0-.175,12.454,11.044,26.629,4.806,2.518-1.108,1.3-5.924-14.232-14.94-2.07-1.2.994-6.235.267-8.572-.225-.724,13.949.87,11.292-.251-1.832-.775-4.127-1.27-6.743-3.209,4.724,2,13.635,4.762,14.073-7.273.2-5.375.987-9.413,3.736-13.149,1.333-1.809,9.156,7.692,7.962,12.248A113.961,113.961,0,0,1,2060.638,1053.348Z" transform="translate(-1589.769 -711.268)" fill="#b6d1ff" fill-rule="evenodd" opacity="0.5"/><path d="M2077.856,942a27.822,27.822,0,0,0,3.025,13.254c-3.251,4.038-10.159,3.546-12.181.635.029-2.089.133-4.022.044-6.149Z" transform="translate(-1621.138 -654.107)" fill="#ffa698" fill-rule="evenodd"/><path d="M2077.965,942a26.6,26.6,0,0,0,.635,6.536c-.444,4.625-8.346,8.87-9.74,5.451.035-1.406.067-2.787,0-4.263Z" transform="translate(-1621.247 -654.107)" fill-rule="evenodd" fill="url(#g)"/><path d="M2035.96,888a15.136,15.136,0,0,0-.952,10.568,4.444,4.444,0,0,1,0,2.492c-1.168,4.219-.832,5.422.508,8.467,1.3,2.962,1.483,4.584,2.692,5.489a6.221,6.221,0,0,0,4.276.822c2.835-.238,7.384-2.8,9.959-4.762,1.9-1.441,1.714-2.222,2.3-4.3,2.555-2.987.384-4.568-.635-4.613-2.9-.13-2.876,3.175-4.445,4.146C2049.138,900.575,2036.842,892.549,2035.96,888Z" transform="translate(-1597.655 -617.25)" fill="#ffa698" fill-rule="evenodd"/><path d="M2035.083,895.77a14.84,14.84,0,0,0-.025,8.1,4.444,4.444,0,0,1,0,2.492c-1.168,4.219-.832,5.422.508,8.467.584,1.33.952,2.387,1.27,3.232a2.657,2.657,0,0,0,3.419.464,5.115,5.115,0,0,0,1.994-4.606c-.038-1.67,3.175-3.251,3.616-5.022.371-1.467-1.41-2.784-2.47-3.441A23.859,23.859,0,0,1,2035.083,895.77Z" transform="translate(-1597.689 -622.553)" fill-rule="evenodd" fill="url(#h)"/><path d="M2039.54,888c2.61,6.771,12.543,10.721,13.743,18.317C2049.613,898.794,2039.94,894.667,2039.54,888Z" transform="translate(-1601.235 -617.25)" fill="#ff8f7f" fill-rule="evenodd"/><path d="M1994.948,1085.61l1.13,3.111-6.257,2.156c-2.032-1.7-1.943-4.886-1.41-7.962C1989.983,1081.436,1995.618,1082.785,1994.948,1085.61Z" transform="translate(-1566.116 -749.873)" fill="#e7a376" fill-rule="evenodd"/><path d="M1984.818,1083.48l-1.073,1c-.317,2.324-.635,4.854.143,6.032a9.536,9.536,0,0,0,4.959,4.067c4.184,1.27,5.99-3.79,4.444-5.162C1990.945,1087.331,1987.025,1085.69,1984.818,1083.48Z" transform="translate(-1562.92 -750.673)" fill-rule="evenodd" fill="url(#i)"/><path d="M1970.02,1081.228l9.394,3.365.26-.81-9.4-3.254Z" transform="translate(-1553.785 -748.659)" fill="#583663" fill-rule="evenodd"/><path d="M1999.845,1089.97l-.235,1.067,14.479,4.346.124-.74Z" transform="translate(-1573.981 -755.103)" fill="#311b38" fill-rule="evenodd"/><path d="M1970.4,1080.4l9.394,3.365,14.483,4.349-11.362-4.184Z" transform="translate(-1554.044 -748.571)" fill="#160004" fill-rule="evenodd"/><path d="M1992.619,1081.816a18.7,18.7,0,0,1,1.9,2.5,2.837,2.837,0,0,1-2.914-.7,5.63,5.63,0,0,1-2.416-.679l-.848-.184-2.476-.676a3.654,3.654,0,0,1,3.33-1.27A7.973,7.973,0,0,1,1992.619,1081.816Z" transform="translate(-1564.603 -748.844)" fill="#ffa698" fill-rule="evenodd"/><path d="M2003.382,1085.006a35.984,35.984,0,0,1-3.9,1.346c1.025,2.508,2.987,1.244,5.819,1.089l1.832.635c-2.7.3-5.438.762-8.136,1.032-1.448-.464-2.965-1.1-4.371-1.676-1.587-.66-1.463-.692-1.638,1.327-.124,1.428-.206,2.8-.238,4.3l5.5,5.1a75.43,75.43,0,0,0,14.022-.927c2.175-.318,3.622-.263,7.53,1.1l.686-6.076c-4.143-1.14-5.241-1.479-6.844-2.981-2.175-2.038-2.9-3.337-4.044-4.038C2008.239,1084.4,2006.356,1084.482,2003.382,1085.006Z" transform="translate(-1569.299 -751.444)" fill="#ffa698" fill-rule="evenodd"/><path d="M2081.852,1022.487c-.222-6.181.581-12.146,7.279-12.946,6.375-.546,7.3,11.4,6.838,17-.486,5.9.336,21.762-1.683,27.054a4.007,4.007,0,0,1-2.479,2.5,3.91,3.91,0,0,1-2.457.337c-4.914-.536-17.581-5.143-24.949-8.194-.806-.337-1.791-1.483-2.448-1.746-.867-.346-1.667-.349-2.194-.549.822-2.911,1.159-4.337.635-7.238a11.883,11.883,0,0,0,2.127.54c.743.124,1.609-.162,2.419-.073,5.749.635,12.9.765,18.524,2.581A172.175,172.175,0,0,1,2081.852,1022.487Z" transform="translate(-1615.036 -700.194)" fill="#e5efff" fill-rule="evenodd"/><path d="M1923.557,1331.466c3.136,4.556-.6,4.172-.435,10.673,0,.6-2.641,10.864-2.641,10.864s-6.254,1.518-6.721,1.435-4.267-1.549-4.267-1.549c.318-.556.746-1.9,1.006-2.422a41.235,41.235,0,0,0,3.451-12.042c.657-4.054,1.152-7.076-.07-11.168-4.549-15.213-6.349-16.133-12.025-29.435-2.152-5.054-10.622-15.606-7.546-20.537,7.121-11.4,20.743,5.829,20.8,6.438,4.308,5.943,3.581-3.53,5.587,4.489,2.359,9.41.921,22.6,1.74,36.28C1922.516,1325.859,1922.846,1330.434,1923.557,1331.466Z" transform="translate(-1501.656 -880.297)" fill="#ff8b7b" fill-rule="evenodd"/><path d="M1938.838,1476.792a28.054,28.054,0,0,0-1.759,4.127,1.959,1.959,0,0,0,.086,1.679c1.429,2.06,9.051-1.352,11.641-3.492,1.673-1.381,1.759-3.076,2.222-5.133.679-3.089.791-3.435,1.641-6.606l.552,8.7.7.457a97.246,97.246,0,0,1,1.451-11.187c.26-1.2.676-2.54.752-3.222a6.9,6.9,0,0,0-3.175-7.076c.575,2.409-1.562,6.235-2.514,11.111C1949.26,1472.043,1944.06,1476.831,1938.838,1476.792Z" transform="translate(-1531.2 -1004.278)" fill="#161f69" fill-rule="evenodd"/><path d="M1937.684,1352.472a10.826,10.826,0,0,1,.235,1.238,49.862,49.862,0,0,1,.464,7.562,66.952,66.952,0,0,1-1.682,13.587c-.432,1.9-1.27,2.7-1.841,5.292l-11.149,1.819c1.1-4.216,2.606-12.759,3.746-19.908l1.635-10.244c.318-15.321-2.994-23.451-3.733-35.93-.333-5.66.454-10.01-.067-15.448-.419-4.365-1.54-4.857-1.53-8.254.057-18.133,19.657-9.524,19.489,2.978.768,7.457,1.9,15.873.914,27.248-.794,9.019-4.53,19.048-6.441,29.987Z" transform="translate(-1522.177 -886.03)" fill-rule="evenodd" fill="url(#j)"/><path d="M1936.155,1506c.635,2.222,1.381,3.432,1.476,6.486s-1.311,7.822-1.194,11.6l.187,6c.108,3.492-.778,5.917-4.762,8.806-3.6,2.619-7.1,3.689-9.006,2.759-1.406-.683-2.54-3.156-.375-9.679,1.794-5.435,2.254-10.746,3.308-16.644a59.428,59.428,0,0,1-1.9,13.41c-.39,1.587-.635,4.241,1.27,4.508,7.79,1.114,8.181-.978,8.825-3.384C1935.694,1523.435,1936.952,1512.032,1936.155,1506Z" transform="translate(-1520.513 -1039.06)" fill="#161f69" fill-rule="evenodd"/><path d="M676.261,1382.8,1043.1,1171.718c3.035-1.451,7.378-2.651,10.476-1.108,2.819,1.406,7.46,4.308,9.524,5.435,1.559.854,6.968,3.981,3.6,5.886-9.914,5.606-358.73,206.5-368.794,212.2a14.315,14.315,0,0,1-7.619,1.333,19.628,19.628,0,0,1-8.254-2.279l-4.94-2.768c-2.184-1.222-3.343-2.7-3.457-4.089S674.4,1383.692,676.261,1382.8Z" transform="translate(-668.946 -809.65)" fill="#eff5ff" fill-rule="evenodd"/><path d="M687.013,238.224c-15.794,9.1-28.181,31.111-28.133,48.724l14.514,18.559,13.016-2.54c7.124-12.448,34.527-23.308,28.13-48.727l265.048-144.8,80.048-54.451h0c-.343-2.051,2.159-12.162-.07-13.514-2.492-1.511-4.949-3.019-7.39-4.444-6.254-3.7-14.225-1.413-20.076,1.965h0Z" transform="translate(-658.88 -35.138)" fill="#ddebff" fill-rule="evenodd"/><path d="M659.58,1128.058c.025,8.889,3.175,15.149,8.254,18.1l7.213,4.343c29.9-14.054,18.019-146.765,19.886-190.841l-8.473-115.3-27.54-16Z" transform="translate(-658.907 -576.537)" fill="#d0e7ff" fill-rule="evenodd"/><path d="M1083.56,68.985c-.051-17.9-12.727-25.14-28.314-16.137L710.167,252.08c-15.555,8.994-28.178,30.829-28.127,48.727l.67,299.711c.051,17.9,12.743,25.127,28.317,16.133L1056.106,417.42c15.594-9,28.181-30.832,28.133-48.724Z" transform="translate(-674.687 -44.584)" fill-rule="evenodd" fill="url(#k)"/><path d="M1823.843,68.985c-.051-17.9-12.727-25.14-28.314-16.137L1766.64,69.534l.819,364.591,28.933-16.7c15.594-9,28.181-30.832,28.133-48.724Z" transform="translate(-1414.97 -44.584)" fill-rule="evenodd" fill="url(#l)"/><path d="M1084.2,62.81c-2.673-13.251-14.079-17.813-27.721-9.933L711.4,252.109c-13.622,7.87-24.978,25.568-27.571,41.86Z" transform="translate(-675.909 -44.603)" fill="#f2f4ff" fill-rule="evenodd"/><path d="M1795.784,126.9c2.327-1.343,4.213-.263,4.222,2.406a9.245,9.245,0,0,1-4.194,7.267c-2.324,1.343-4.216.263-4.222-2.41A9.238,9.238,0,0,1,1795.784,126.9Z" transform="translate(-1432 -97.374)" fill="#7980ff" fill-rule="evenodd"/><path d="M1839.577,98.311c2.324-1.34,4.213-.263,4.219,2.406a9.232,9.232,0,0,1-4.193,7.26c-2.324,1.337-4.213.263-4.222-2.406A9.237,9.237,0,0,1,1839.577,98.311Z" transform="translate(-1461.888 -77.863)" fill="#7980ff" fill-rule="evenodd"/><path d="M1879.684,74.338c2.327-1.343,4.213-.263,4.222,2.406a9.245,9.245,0,0,1-4.194,7.267c-2.324,1.343-4.216.263-4.222-2.406A9.254,9.254,0,0,1,1879.684,74.338Z" transform="translate(-1489.265 -61.5)" fill="#7980ff" fill-rule="evenodd"/><path d="M1809.031,240.228c12.318-7.121,23.064-23.917,24.006-37.53s-8.276-18.867-20.594-11.746-23.063,23.927-24.006,37.53S1796.72,247.345,1809.031,240.228Zm.267-3.873c-10.375,6-18.149,1.571-17.352-9.9s9.841-25.632,20.229-31.629,18.149-1.565,17.356,9.9-9.848,25.625-20.232,31.629Z" transform="translate(-1429.802 -139.319)" fill="#e0ebff" fill-rule="evenodd"/><path d="M1597.546,868.268c-8.8,2.222-16.632,12.648-17.492,23.286s5.578,17.46,14.378,15.238,16.632-12.648,17.492-23.286S1606.333,866.045,1597.546,868.268Z" transform="translate(-1287.565 -603.495)" fill-rule="evenodd" opacity="0.2" fill="url(#m)"/><path d="M1612.693,896.63c-4.762,1.2-8.968,6.822-9.432,12.556s3.006,9.416,7.752,8.219,8.962-6.819,9.432-12.562-3.01-9.416-7.752-8.219Zm-.394,4.87c2.521-.635,4.365,1.317,4.127,4.365s-2.489,6.032-5.01,6.667-4.365-1.318-4.127-4.365S1609.778,902.138,1612.3,901.5Z" transform="translate(-1303.429 -622.982)" fill-rule="evenodd" fill="url(#n)"/><path d="M1759.283,755.088c-.016-2.254-1.587-3.175-3.54-2.029l-58.73,32.876a7.806,7.806,0,0,0-3.473,6.146l.022,4.464c.019,2.254,1.587,3.175,3.54,2.029l58.73-32.876a7.869,7.869,0,0,0,3.492-6.146Z" transform="translate(-1365.076 -524.81)" fill-rule="evenodd" opacity="0.2" fill="url(#o)"/><path d="M1732.4,854.854c0-1.33-.952-1.87-2.089-1.2l-34.673,19.413a4.607,4.607,0,0,0-2.051,3.629v2.638c0,1.33.952,1.867,2.089,1.2l34.673-19.413a4.606,4.606,0,0,0,2.051-3.632Z" transform="translate(-1365.11 -593.612)" fill-rule="evenodd" opacity="0.2" fill="url(#p)"/><path d="M1344.873,1025.934c-.527-10.775-4.279-14.216-9.841-12.381a13.742,13.742,0,0,0-2.686,1.238c-5.641,3.33-11.981,11.549-14.413,24.762-1.543,8.368-4.057,16.1-11.482,20.483-19.441,10.879-5.752-47.689-24.232-36.775-15.914,9.4-10.794,39.8-18.978,59.708-2.857,6.9-6.854,10.308-9.524,11.883-11.19,6.245-10.159-11.521-10.622-18.943-2.092-34.3-5.873-35.984-12.727-31.94-7.168,4.3-10.476,7.121-13.651,43.254-1.3,14.778-3.428,28.067-14.536,34.921-12.365,7.3-11.717-6.245-16.035-12.575-2.568-3.762-6.425-4.34-10.292-2.057-4.181,2.464-8.368,8.273-10.949,17.019-4.33,14.667-5.609,65.464-5.714,72.432l185.991-109.1C1344.98,1077.306,1345.326,1035.252,1344.873,1025.934Z" transform="translate(-1000.361 -702.625)" fill="#d0e7ff" fill-rule="evenodd"/><path d="M841.422,1179.95c0-3.559-2.54-5-5.629-3.206-32.835,18.832-65.6,38.327-98.441,57.162a12.333,12.333,0,0,0-5.59,9.686l-.162,129.981c0,3.555,2.54,4.994,5.629,3.206,32.838-18.832,65.609-38.33,98.441-57.162a12.325,12.325,0,0,0,5.59-9.686Z" transform="translate(-708.514 -813.804)" fill="#92bae5" fill-rule="evenodd" opacity="0.2"/><path d="M863.419,1131.95l-2.743-1.451a4.3,4.3,0,0,0-3.492.635c-32.835,18.832-65.6,38.327-98.441,57.162a12.338,12.338,0,0,0-5.59,9.686L753,1327.95a4.094,4.094,0,0,0,1.391,3.432c1.032.765,3.175,2.422,4.851,1.444,32.838-18.832,65-40,97.829-58.832a12.334,12.334,0,0,0,5.591-9.686Z" transform="translate(-723.121 -782.663)" fill="#f2f4ff" fill-rule="evenodd"/><path d="M869.962,1138.23c0-3.559-2.54-5-5.629-3.206-32.835,18.832-65.6,38.327-98.441,57.162a12.341,12.341,0,0,0-5.59,9.686l-.162,129.981c0,3.559,2.54,5,5.632,3.206,32.835-18.832,65.606-38.33,98.438-57.162a12.316,12.316,0,0,0,5.59-9.686Z" transform="translate(-727.994 -785.328)" fill="#fff" fill-rule="evenodd"/><path d="M870.058,1138.232c0-3.555-2.54-5-5.629-3.206-32.835,18.832-65.6,38.327-98.441,57.162a12.333,12.333,0,0,0-5.591,9.686l-.117,102.143,109.66-62.9Z" transform="translate(-728.089 -785.329)" fill-rule="evenodd" fill="url(#q)"/><path d="M1004.986,1510.477c0-1.536-1.092-2.14-2.428-1.343l-30.245,17.089a5.424,5.424,0,0,0-2.413,4.222v3.038c0,1.536,1.092,2.14,2.429,1.346l30.244-17.089a5.424,5.424,0,0,0,2.413-4.222Z" transform="translate(-871.163 -1040.958)" fill="#03c8de" fill-rule="evenodd" opacity="0.25"/><path d="M937.1,1552.908c0-1.356-.952-1.886-2.14-1.184-17.143,9.686-45.244,25.5-62.391,35.19a4.8,4.8,0,0,0-2.13,3.721v2.679c0,1.352.952,1.883,2.14,1.184,17.143-9.689,45.245-25.5,62.391-35.194a4.778,4.778,0,0,0,2.13-3.721Z" transform="translate(-803.278 -1070.056)" fill="#03c8de" fill-rule="evenodd" opacity="0.25"/><path d="M796.027,1299.848l.117,64.591L778.014,1375l-.114-64.59Zm54.435-51.378.181,86.457-18.13,10.565-.178-86.457Zm-27.133,30.644.137,71.66-18.146,10.562-.137-71.66Zm54.406-24.625.114,64.59-18.127,10.565-.117-64.59Z" transform="translate(-740.116 -863.285)" fill="#03c8de" fill-rule="evenodd"/><path d="M876.265,1342.929a1.054,1.054,0,0,0-.092-1.654,1.549,1.549,0,0,0-1.94.076l-17.175,16.086-8.317,3.543-17.835-3.638-10.832-11.86a1.543,1.543,0,0,0-1.93-.206,1.27,1.27,0,0,0-.3.276l-25.451,27.3-15.514,3.829a1.3,1.3,0,0,0-1.419,1.124,1.266,1.266,0,0,0,1.321,1.21l16.19-3.81a1.481,1.481,0,0,0,1.175-.451L819,1348.088l10.032,10.987h0a1.375,1.375,0,0,0,.762.419l18.8,3.835a1.545,1.545,0,0,0,.93-.092l8.911-3.81a1.381,1.381,0,0,0,.5-.3Z" transform="translate(-738.449 -926.421)" fill="#1895f0" fill-rule="evenodd" opacity="0.5"/><path d="M875.955,1343.32a1.375,1.375,0,0,0-2.032-1.851l-17.175,18.879-8.317,4.159-17.835-4.27-10.832-13.921a1.375,1.375,0,0,0-1.93-.241,1.321,1.321,0,0,0-.3.317l-24.117,31.146-17.035-.635a1.371,1.371,0,0,0-.1,2.74l17.7.66a1.365,1.365,0,0,0,1.171-.53l23.536-30.368,10.032,12.9h0a1.372,1.372,0,0,0,.762.5l18.8,4.5a1.346,1.346,0,0,0,.93-.108l8.911-4.444a1.35,1.35,0,0,0,.5-.346Z" transform="translate(-738.139 -926.472)" fill="#fff" fill-rule="evenodd"/><path d="M1356.616,289.04c0-3.559-2.54-5-5.629-3.206-32.835,18.832-206.406,119.184-239.244,138.019a12.329,12.329,0,0,0-5.591,9.686L1106,563.52c0,3.559,2.54,5,5.629,3.21,32.835-18.835,206.413-119.19,239.244-138.022a12.333,12.333,0,0,0,5.594-9.686Z" transform="translate(-964.057 -205.722)" fill="#8bb3dd" fill-rule="evenodd" opacity="0.2"/><path d="M1379.661,236.648l-2.746-1.451a4.345,4.345,0,0,0-3.492.619C1340.582,254.648,1167.017,355,1134.172,373.836a12.346,12.346,0,0,0-5.594,9.686l-.159,129.984a4.092,4.092,0,0,0,1.387,3.432c1.035.765,3.175,2.422,4.854,1.444,32.835-18.832,205.8-120.86,238.632-139.683a12.33,12.33,0,0,0,5.594-9.689Z" transform="translate(-979.36 -171.584)" fill="#f2f4ff" fill-rule="evenodd"/><path d="M1386.235,242.925c0-3.559-2.54-5-5.629-3.21C1347.772,258.55,1174.2,358.9,1141.363,377.738a12.332,12.332,0,0,0-5.591,9.686L1135.61,517.4c0,3.559,2.54,5,5.629,3.209,32.838-18.835,206.413-119.19,239.245-138.022a12.333,12.333,0,0,0,5.594-9.686Z" transform="translate(-984.267 -174.245)" fill-rule="evenodd" fill="url(#r)"/><path d="M1187.652,578.522c.952-.708,1.733-.419,1.736.635a4.768,4.768,0,0,1-1.721,3.276c-.987.743-1.765.444-1.768-.635a4.627,4.627,0,0,1,1.752-3.263ZM1404.7,540.643l-.279-72.111,1.664-1.251.282,72.4-1.667.952Zm.552-78.264c.953-.708,1.733-.419,1.737.67a4.678,4.678,0,0,1-1.721,3.257c-.987.743-1.778.454-1.784-.616A4.746,4.746,0,0,1,1405.252,462.379Zm-27.74,93.933-.241-62,1.667-1.27.241,62.3-1.667.952Zm.578-68.149c.952-.721,1.749-.432,1.755.657a4.668,4.668,0,0,1-1.74,3.267c-.956.727-1.765.444-1.768-.635a4.728,4.728,0,0,1,1.752-3.3Zm-27.778,83.848L1350,488.332l1.679-1.27.318,83.975-1.679.952Zm.476-89.809c.971-.73,1.765-.444,1.768.635a4.711,4.711,0,0,1-1.756,3.283c-.975.743-1.73.419-1.733-.635a4.768,4.768,0,0,1,1.721-3.276Zm-27.66,105.508-.413-105.356,1.635-1.232.406,105.635Zm.391-111.489c.971-.733,1.733-.422,1.736.686a4.623,4.623,0,0,1-1.721,3.238c-.972.73-1.749.432-1.752-.619a4.666,4.666,0,0,1,1.737-3.3Zm-27.619,127.2-.413-105.854,1.664-1.254.413,106.149-1.663.952Zm.406-112c.952-.717,1.749-.429,1.753.657a4.7,4.7,0,0,1-1.737,3.27c-.956.73-1.765.441-1.768-.635a4.746,4.746,0,0,1,1.752-3.3Zm-27.619,127.708-.352-90.476,1.679-1.27.356,90.794-1.683.968Zm.483-96.625c.952-.711,1.733-.438,1.737.667a4.687,4.687,0,0,1-1.721,3.238c-.94.7-1.765.444-1.768-.606A4.7,4.7,0,0,1,1269.17,522.506ZM1241.5,634.827l-.273-69.813,1.663-1.27.273,70.108-1.663.952Zm.53-75.946c.971-.733,1.765-.441,1.771.635a4.717,4.717,0,0,1-1.756,3.282c-.971.743-1.746.429-1.752-.635a4.747,4.747,0,0,1,1.737-3.289Zm-27.7,91.625-.235-59.882,1.648-1.238.235,60.172-1.647.952Zm.568-65.994c.952-.721,1.733-.438,1.736.635a4.689,4.689,0,0,1-1.717,3.273c-.953.718-1.768.444-1.775-.635a4.636,4.636,0,0,1,1.756-3.264ZM1187.116,666.2l-.318-81.533,1.679-1.27.318,81.835Z" transform="translate(-1018.592 -326.483)" fill="#3856d8" fill-rule="evenodd" opacity="0.5"/><path d="M1154.458,610.751a4.672,4.672,0,0,1,1.175-1.362c.549-.413,1.1-.562,1.476-.343,3.362,2.1,6.454,3.876,9.384,5.349a66.664,66.664,0,0,0,8.187,3.584c11.943,4.2,21.27,2.467,31.222-5.054,9.781-7.556,20.063-21,33.651-39.711,15.2-20.933,28.1-35.74,40.317-44.946q2.7-2.038,5.368-3.714c13.8-8.686,26.794-9.94,41.4-4.533,1.521.514,2.978,1.117,4.444,1.683,11.206,4.381,21.708,8.476,35.035-1.571,6.933-5.225,14.629-14.286,23.584-29.108a4.669,4.669,0,0,1,1.165-1.349c.552-.416,1.108-.559,1.486-.317.635.432.521,1.863-.267,3.175-10.006,16.581-18.524,26.625-26.152,32.381-14.365,10.832-25.565,6.432-37.521,1.765-1.489-.54-2.946-1.108-4.444-1.648-13.927-5.178-26.222-4.057-39.152,4.063q-2.4,1.508-4.841,3.352c-11.546,8.67-23.927,22.886-38.6,43.1-14.092,19.365-24.787,33.333-35.406,41.559l-.609.464c-10.5,7.914-20.616,9.886-33.318,5.444a70.391,70.391,0,0,1-8.4-3.644c-2.946-1.533-6.1-3.33-9.467-5.435C1153.506,613.513,1153.62,612.132,1154.458,610.751Z" transform="translate(-996.642 -345.081)" fill="#3856d8" fill-rule="evenodd" opacity="0.5"/><path d="M1164.8,589.669a4.591,4.591,0,0,1,1.175-1.346,1.375,1.375,0,0,1,1.47-.318c3.355,2.162,6.441,3.984,9.365,5.5a67.476,67.476,0,0,0,8.168,3.714c11.921,4.391,21.213,2.787,31.162-4.6,9.759-7.429,20.029-20.749,33.591-39.292,15.172-20.749,28.054-35.39,40.241-44.444,1.8-1.336,3.584-2.54,5.359-3.641,13.778-8.5,26.743-9.562,41.314-3.927,1.517.54,2.968,1.165,4.422,1.756,11.181,4.556,21.66,8.816,34.965-1.054,6.917-5.133,14.6-14.092,23.54-28.816a4.55,4.55,0,0,1,1.165-1.333c.549-.41,1.1-.546,1.482-.3.635.441.518,1.876-.27,3.175-9.987,16.467-18.492,26.4-26.108,32.063-14.337,10.638-25.511,6.064-37.441,1.21-1.486-.565-2.94-1.156-4.422-1.717-13.9-5.4-26.168-4.444-39.073,3.492q-2.4,1.483-4.832,3.289c-11.5,8.53-23.857,22.587-38.508,42.625-14.067,19.2-24.746,33.048-35.346,41.114l-.606.457c-10.476,7.775-20.578,9.6-33.251,4.959a71.08,71.08,0,0,1-8.384-3.778c-2.943-1.587-6.1-3.429-9.448-5.587C1163.867,592.415,1163.979,591.038,1164.8,589.669Z" transform="translate(-1003.712 -332.938)" fill="aqua" fill-rule="evenodd"/><path d="M1794.015,897.923c0-.5-.362-.711-.8-.457-4.673,2.683-9.34,5.457-14.013,8.14a1.752,1.752,0,0,0-.8,1.378l-.022,18.5c0,.5.362.711.8.454,4.676-2.679,9.34-5.454,14.016-8.137a1.746,1.746,0,0,0,.794-1.378Z" transform="translate(-1422.983 -623.637)" fill-rule="evenodd" opacity="0.1" fill="url(#s)"/><path d="M1794.015,977.609c0-.508-.362-.714-.8-.457-4.673,2.679-9.34,5.457-14.013,8.136a1.759,1.759,0,0,0-.8,1.378l-.022,18.5c0,.508.362.711.8.457,4.676-2.682,9.34-5.457,14.016-8.136a1.754,1.754,0,0,0,.794-1.381Z" transform="translate(-1422.983 -678.024)" fill-rule="evenodd" opacity="0.1" fill="url(#t)"/><path d="M1794.015,1054.879c0-.508-.362-.714-.8-.457-4.673,2.679-9.34,5.454-14.013,8.136a1.759,1.759,0,0,0-.8,1.378l-.022,18.5c0,.508.362.711.8.457,4.676-2.682,9.34-5.457,14.016-8.136a1.753,1.753,0,0,0,.794-1.381Z" transform="translate(-1422.983 -730.764)" fill-rule="evenodd" opacity="0.1" fill="url(#t)"/><path d="M1794.015,1136.712c0-.508-.362-.711-.8-.457-4.673,2.679-9.34,5.457-14.013,8.136a1.759,1.759,0,0,0-.8,1.378l-.022,18.5c0,.508.362.711.8.457,4.676-2.682,9.34-5.457,14.016-8.136a1.75,1.75,0,0,0,.794-1.381Z" transform="translate(-1422.983 -786.619)" fill-rule="evenodd" opacity="0.1" fill="url(#t)"/><path d="M1864.9,864.876c0-2.257-1.587-3.175-3.54-2.029l-21.587,12.136a7.875,7.875,0,0,0-3.492,6.149l.022,4.463c.019,2.254,1.587,3.175,3.54,2.025l21.587-12.136a7.875,7.875,0,0,0,3.492-6.149Z" transform="translate(-1462.502 -599.745)" fill-rule="evenodd" opacity="0.1" fill="url(#w)"/><path d="M1864.9,945.576c0-2.257-1.587-3.175-3.54-2.029l-21.587,12.14a7.864,7.864,0,0,0-3.492,6.146l.022,4.464c.019,2.254,1.587,3.175,3.54,2.029l21.587-12.14a7.869,7.869,0,0,0,3.492-6.146Z" transform="translate(-1462.502 -654.826)" fill="#fff" fill-rule="evenodd" opacity="0.2"/><path d="M1289.228,1733.724l-67.835-38.635c-7.4-3.378-17.981-6.07-25.517-2.146-6.863,3.572-18.175,10.886-23.175,13.737-3.809,2.165-16.984,10.063-8.771,14.53,24.159,13.136,48.067,27.911,72.6,41.254,4.641,2.54,11.429,3.438,18.552,2.857a48.831,48.831,0,0,0,20.092-5.984l12.029-6.984c5.321-3.1,8.143-6.762,8.422-10.159C1295.895,1738.863,1293.768,1735.8,1289.228,1733.724Z" transform="translate(-1001.79 -1165.329)" fill="#eff5ff" fill-rule="evenodd"/><path d="M1401.267,1811.759c-1.552-.035-6.787-4.956-11.746-2.473-5.955,2.984-17.26.343-22.968,1.711-1.016.244-3-.5-3.4.2-1.229,2.184-2.419,5.454.606,7.594a50.718,50.718,0,0,0,10.111,4.762,85.247,85.247,0,0,0,12.794,3.619c4.213.66,6.133.933,7.711,2.149a11.222,11.222,0,0,0,5.882,1.416,9.9,9.9,0,0,0,7.5-5.235c.473-1.013.486-5.435-.06-8.3a41.768,41.768,0,0,0-2.651-7.248Z" transform="translate(-1138.689 -1245.587)" fill="#fff" fill-rule="evenodd"/><path d="M1447.68,1781.52c1.883,4.524,1.3,11.521,5.768,13.968,2.984,1.622,7.66,1.638,9.7-3,1.137-2.587-.371-7.006-.038-12.7Z" transform="translate(-1197.267 -1225.932)" fill="#ffa495" fill-rule="evenodd"/><path d="M1389.068,1799.012c-3.422.994-12.867.318-18.838.813-2.568.206-4.87.187-6.07,2.517-1.1,2.143-.524,3.981,1.975,5.749a41.686,41.686,0,0,0,9.124,4.476,85.646,85.646,0,0,0,12.794,3.622c4.213.657,6.133.93,7.711,2.146a11.193,11.193,0,0,0,5.883,1.416,10.358,10.358,0,0,0,7.5-5.565c.476-1.013.489-5.1-.057-7.975a14.748,14.748,0,0,0-.438-1.689c-.47-4.5-1.955-6.311-3.352-5.543-1.9,1.054-2.638,2.949-3.368,4.508a4.393,4.393,0,0,1-2.6,2.479c-2.292.724-4.381-.556-5.736-2.521a16.218,16.218,0,0,1-1.568-4.552v-.457c-.451-3.927-2.362-3.584-2.07-2.755A3.428,3.428,0,0,1,1389.068,1799.012Z" transform="translate(-1139.896 -1236.418)" fill="#273087" fill-rule="evenodd"/><path d="M1364.769,1814.574c.048,1.517-2.279,1.66-1.61,4.33-1.117-1.1.445-4.245,1.137-4.724C1364.578,1813.984,1364.819,1813.9,1364.769,1814.574Z" transform="translate(-1139.311 -1249.31)" fill="#fff" fill-rule="evenodd"/><path d="M1283.176,1739.927c-1.445-.568-4.67-6.984-10.178-6.349-2.222.254-5.8-.317-9.425-1.356-5.784-1.644-13.844-6.816-15.219-5.971-3,1.844-3.238,5.206-1.133,8.254a42.2,42.2,0,0,0,7.026,7.34c2.708,2.244,6.552,5.676,9.917,7.546,3.175,1.765,4.238,1.606,6.5,4.67a10.531,10.531,0,0,0,5.038,3.175c3.3.635,8.108-1.476,9.841-3.692,1.1-3.559,3.006-6.927,1.784-12.263Z" transform="translate(-1059.503 -1189.327)" fill="#fff" fill-rule="evenodd"/><path d="M1336.681,1721.79c.089,4.9-3.022,11.194.235,15.1,2.181,2.606,6.521,4.34,10.121.775,2.006-1.987,2.222-6.667,4.629-11.809Z" transform="translate(-1120.65 -1186.345)" fill="#ffa495" fill-rule="evenodd"/><path d="M1266.384,1729.484c-.318-.086-.657-.175-.987-.27-5.784-1.644-13.514-5.628-14.892-4.784-3,1.844-3.565,4.022-1.46,7.07a42.2,42.2,0,0,0,7.026,7.343c2.708,2.245,6.552,5.676,9.917,7.543,3.175,1.765,4.238,1.609,6.5,4.67a10.484,10.484,0,0,0,5.038,3.175c3.3.635,8.254-1.5,9.981-3.714.819-2.648,1.94-5.171,2.029-8.5.482-4.359.184-6.575-1.711-6.521-3.527.1-4.981,1.962-6.438,2.857-3.136,1.956-5.238-.571-5.749-3.7a18.207,18.207,0,0,1,.286-4.127q.076-.219.162-.428c1.029-3.81-.876-4.2-.911-3.324a3.27,3.27,0,0,1-2.908,3.333C1270.356,1730.418,1267.933,1729.611,1266.384,1729.484Z" transform="translate(-1060.832 -1188.068)" fill="#273087" fill-rule="evenodd"/><path d="M1250.19,1724.976c-.613,1.391-2.775.518-3.317,3.213-.536-1.47,2.222-3.638,3.06-3.771C1250.273,1724.36,1250.523,1724.392,1250.19,1724.976Z" transform="translate(-1060.161 -1188.124)" fill="#fff" fill-rule="evenodd"/><path d="M1439.488,1047.76c-11.508,13.333-11.679,14.391-34.152,27.59l-4.276-8.413c7.543-15.444,9.8-17.5,19.59-29.524-8.889-6.162-18.47-15.556-23.035-21.663-14.654-19.565-6.517-33.159,6.146-30.4,11.044,2.4,28.273,30.994,37.647,47.111C1445.31,1039.172,1446.256,1039.915,1439.488,1047.76Z" transform="translate(-1157.748 -683.451)" fill-rule="evenodd" fill="url(#x)"/><path d="M1417.153,1035.451c-7.714-5.968-15.327-13.651-19.248-18.883-14.654-19.565-6.092-32.765,6.571-30.01C1411.093,988.575,1422.871,1002.556,1417.153,1035.451Z" transform="translate(-1158.039 -684.272)" fill="#0960ac" fill-rule="evenodd" opacity="0.35"/><path d="M1335.371,1272.839c-1.27,14.2-8.381,59.533-6.4,71.981,2.978,18.73,2.127,41.327,2.092,61.19.5,8.346,11.981,12.7,15.321,7.406,2.682-17.752,6.5-33.3,8.048-43.175,1.74-11.044,1.165-24.463-1.638-31.724,1.149-7.937,6.559-28.387,11.073-42.565,1.632-5.114,10.867-21.645,1.308-38.073Z" transform="translate(-1116.006 -869.708)" fill-rule="evenodd" fill="url(#y)"/><path d="M1335.72,1707.71c0,1.47.045,3.717.041,5.162.5,8.346,12.124,12.873,15.463,7.571.2-1.311.486-2.606.692-3.889C1347.425,1721.4,1338.622,1715.1,1335.72,1707.71Z" transform="translate(-1120.85 -1176.735)" fill="#4c57b7" fill-rule="evenodd"/><path d="M1328.75,1376.732c3.74,18.768,14.324,43.841,20.1,62.714,3.01-16.171,10.537-43.708,4.025-60.562.654-4.517,2.692-13.1,5.156-22.264-5.006-9.5-.219-17.073-2.584-30.448-13.26-2.308,6.752-18.492-21.308-1.448C1331.633,1344.869,1329.274,1357.532,1328.75,1376.732Z" transform="translate(-1116.093 -910.068)" fill="#060921" fill-rule="evenodd" opacity="0.3"/><path d="M1304.823,1372.686c7.648,17.314,21.762,51.283,29.267,72.537,3.882,5.644,17.73,5.054,17.7-.21-3.054-17.778-6.648-45.171-13.016-60.755-1.952-4.762-9.159-16.245-11.746-19.651-2.019-7.841-4.549-29.022-6.5-40.482,1.749-9.486,9.4-25.34-5.3-39.124-5.93,4.219-24.263,6.857-32.578,2.159C1281.3,1324.619,1290.493,1340.238,1304.823,1372.686Z" transform="translate(-1084.54 -888.218)" fill-rule="evenodd" fill="url(#z)"/><path d="M1440.06,1778c.336.927,1,2.8,1.314,3.692,4,5.809,18.251,5.206,18.226-.213q-.229-1.317-.46-2.7C1455.743,1782.251,1445.466,1782.3,1440.06,1778Z" transform="translate(-1192.066 -1224.71)" fill="#4c57b7" fill-rule="evenodd"/><path d="M1320.764,1035.564c-1.235,11.127,2.111,22.07-1.3,32.232-.152,1.048-.251,5.168-.428,6.286-2.245,13.162-30.083,26.479-53.3,13.851-.13-1.632.019-3.337-.108-6.349.428-2.822-.791-5.848-.781-7.571.032-7.159,2.26-10.822,1.194-18.794-2.175-16.213-11.159-31.794-6.19-44.552,1.067-2.737,2.936-4.064,5.054-5.765,5.486-4.406,33.863-18.857,42.467-19.876C1332.351,981.776,1322.1,1023.491,1320.764,1035.564Z" transform="translate(-1068.062 -683.35)" fill-rule="evenodd" fill="url(#aa)"/><path d="M1266.237,1092.518c-.975-4.245-2.346-9.124-3.6-14.1-2.508-9.978-4.556-20.352-2.054-26.781,1.067-2.737,2.937-4.064,5.054-5.765,5.486-4.406,4.66,7.425,13.264,6.4,1.368,1.832.952,5.956.5,9.9C1277.771,1076.417,1270.942,1096.915,1266.237,1092.518Z" transform="translate(-1068.79 -724.327)" fill="#0960ac" fill-rule="evenodd" opacity="0.35"/><path d="M1298.579,894.212c1.587.781,9.594-.356,9.359.362-.114,3.587-1.184,5.762-1.53,10.676,8.816-1.232,20.378-2.5,20.838-9.263-.038-.543-.067-1.083-.089-1.616a.964.964,0,0,0-.032-.184h.022c-.092-2.457.025-4.683.711-5.791,1.867-3.019,5.714-6.381,7.06-10.956,2.171-7.3,1.381-15.435-5.438-20.851-12.448-9.886-28.368-2.857-32.4,11.609-.787,2.825,1.438,4.352,1.362,6.768,0,.473-.635.952-1.149,2.013C1296.6,878.434,1296.643,893.26,1298.579,894.212Z" transform="translate(-1094.344 -592.668)" fill="#e7a376" fill-rule="evenodd"/><path d="M1298.711,894.143c1.587.781,9.524-.273,9.276.444-.115,3.587-1.184,5.762-1.53,10.676,5.121,1.27,18.924-.584,20.99-8.349.035-1.635-.035-7.708.46-8.508,1.866-3.019,5.714-6.381,7.06-10.956,2.171-7.3,1.381-15.435-5.438-20.851-12.448-9.886-28.368-2.857-32.4,11.61-.787,2.825,1.438,4.352,1.362,6.768,0,.473-.635.952-1.149,2.013C1296.654,878.441,1296.775,893.184,1298.711,894.143Z" transform="translate(-1094.393 -592.675)" fill-rule="evenodd" fill="url(#ab)"/><path d="M1298.956,894.205c.838.448,4.3.152,6.876-.838a12.371,12.371,0,0,0,3.054-2.117c1.067-.432,3.438-3.81-.235-9.159-3.584-5.225,18.1,8.149,19.257,6.3,1.863-3.019,5.714-6.381,7.06-10.956,2.171-7.3,1.381-15.435-5.438-20.851-12.448-9.886-28.368-2.857-32.4,11.61-.787,2.825,1.438,4.352,1.362,6.768,0,.473-.635.952-1.149,2.013C1296.654,878.427,1297.054,893.189,1298.956,894.205Z" transform="translate(-1094.394 -592.662)" fill-rule="evenodd" fill="url(#ac)"/><path d="M1331.35,945.62c4.46-4.159,8.768,9.07,1.587,8.93C1335.741,951.582,1333.614,946.89,1331.35,945.62Z" transform="translate(-1117.867 -656.025)" fill="#ffa698" fill-rule="evenodd"/><path d="M1330.783,948.378c-.67-1.848-.1-2.521.708-2.321.9.219,2.165,1.5,2.825,3.419,1.067,3.092-.464,6.984-3.448,5.47,2.568.149,2.327-2.946,1.559-4.854C1331.919,948.794,1331.094,947.876,1330.783,948.378Z" transform="translate(-1117.278 -656.853)" fill="#ffb49c" fill-rule="evenodd"/><path d="M1333.377,956.08c-.717,1.337-.968,2.13-.736,2.59.162.318.657.686,1.467-.1A4.619,4.619,0,0,0,1333.377,956.08Z" transform="translate(-1118.691 -663.717)" fill="#ffa698" fill-rule="evenodd"/><path d="M1303.086,859.768l-.171-.092c-5.994-3.2-5.051-9.806-2.521-12.063,4.889-4.337,18.159-3.886,26.568.448,8.572,4.41,10.664,15.381,8.1,24-1.7,5.74-5.848,8.733-7.937,13.083a5.209,5.209,0,0,1-5.273,1.924c-5.937-1.229-7.3-7.492-10.876-10.248-1.959-1.514-3.968-1.9-4.7,2.222-.143,1.816-.168,3.654-.317,5.324-.206,2.625.448,3.114-1.775,4.013-2.133.867-6.286,1.711-6.984,1.432-.556-.216-.521-3.492-.416-5.94.222-.016.232.841.346.825.219-.032.486-.089.8-.117a9.552,9.552,0,0,0-.356-2.971,4.632,4.632,0,0,0-.978-2.222,3.78,3.78,0,0,1-.117-1.924,6.068,6.068,0,0,1,2.54,3.581,18.107,18.107,0,0,1,.66,3.257c1.27-.244,2.54-.435,3.041-1,1.251-1.444,1.473-3.257,1.924-6.089.1-4.975-.114-5.714-2.7-9.406-.718-1.022-.752-3.111,1.022-7.765A1.464,1.464,0,0,0,1303.086,859.768Z" transform="translate(-1094.02 -587.612)" fill="#562e65" fill-rule="evenodd"/><path d="M1303.779,854.126c1.847,2.314,9.781-3.035,20.889-.994-2.378-7.337-3.752-8.889-7.089-11.038-4.349-2.8-11.67-1.657-13.968,2.2C1301.4,847.99,1302.287,852.263,1303.779,854.126Z" transform="translate(-1098.027 -584.859)" fill-rule="evenodd" fill="url(#ad)"/><path d="M1334.612,986.78c2.406.74,4.829,3.124,4.387,4.711-2.394,9.791-20.59,11.645-31.746,9.289-.133-.029,4.343-5.9,6.479-6.591C1320.752,994.878,1332.444,992.564,1334.612,986.78Z" transform="translate(-1101.419 -684.671)" fill="#0ab7e4" fill-rule="evenodd"/><path d="M1049.733,1018.544c-2.368-2.2-4.159-4.844-6.851-7.711-4.733-5.038-13.483-10.536-19.3-15.279-2.029-1.654-3.784,1.819-2.1,3.492s6.168,5.848,6.184,5.857c.067.048.133.092.2.133a11.084,11.084,0,0,0-2.54,6.794c-.051,2.81,5.235,7.476,8.479,10.743,2.879,2.9,7.59,1.222,9.483,3.438C1047.448,1025.024,1048.54,1022.138,1049.733,1018.544Z" transform="translate(-905.914 -690.363)" fill-rule="evenodd" fill="url(#ae)"/><path d="M1123.112,1071.31c-5.994-5.864-14.47-13.559-20-16.229-1.473-.711-3.654-1.27-4.568-2.1-1-.917-2.438-2.267-2.994-2.727-2.489.768-5.568,4.27-7.53,7.619q1.467,1.9,2.892,4c.711,1.041.914,3.743,1.613,4.832,4.333,6.768,14.492,15.454,20.022,21.533,2.508,2.756,4.444,5.133,8.108,6.775a16.977,16.977,0,0,0,7.038-.114c.381-.029.768-.064,1.162-.117l.791-.635a7.227,7.227,0,0,0,2.311-1.873c1.333-1.092,2.721-2.251,4.019-3.375,4.9-4.235,15.921-14.451,22.311-23.12,8.917-12.1,2.044-22.978-6.759-23.353-7.562-.317-13.651,9.67-17.619,14.746C1130.325,1061.767,1126.3,1067.018,1123.112,1071.31Z" transform="translate(-951.785 -722.646)" fill-rule="evenodd" fill="url(#af)"/><path d="M1655.615,171.27a2.062,2.062,0,0,1-.575,1.533,2.222,2.222,0,0,1-1.619.575,2.3,2.3,0,0,1-1.971-.857l.714-.863a1.334,1.334,0,0,0,1.248.679.978.978,0,0,0,.746-.276.9.9,0,0,0,.248-.663q0-.686-1.2-1.06a2.881,2.881,0,0,1-1.235-.676,1.486,1.486,0,0,1-.384-1.06,1.724,1.724,0,0,1,.575-1.333,2.082,2.082,0,0,1,1.46-.521,2.5,2.5,0,0,1,1.686.679l-.635.867a1.489,1.489,0,0,0-1.035-.514.87.87,0,0,0-.6.2.661.661,0,0,0-.229.511.575.575,0,0,0,.248.476,3.748,3.748,0,0,0,.952.429,1.94,1.94,0,0,1,1.587,1.873Zm2.013,1.956h-1.191V166.9h1.191v6.33Zm7.187-3.092a3.254,3.254,0,0,1-.873,2.394,3,3,0,0,1-2.222.851,3.175,3.175,0,0,1-2.352-.927,3.228,3.228,0,0,1-.952-2.39,3.174,3.174,0,0,1,.952-2.362,3.254,3.254,0,0,1,2.384-.952,3.3,3.3,0,0,1,1.587.39,2.857,2.857,0,0,1,1.124,1.067l-1.019.59a1.978,1.978,0,0,0-3.213-.359,2.3,2.3,0,0,0-.616,1.625,2.368,2.368,0,0,0,.616,1.67,1.934,1.934,0,0,0,1.476.635,1.79,1.79,0,0,0,1.2-.435,1.375,1.375,0,0,0,.527-1.086h-1.546v-.952h2.9v.241Z" transform="translate(-1336.348 -124.965)" fill="#fff" fill-rule="evenodd"/><g transform="translate(37.711 217.067)"><g clip-path="url(#ag)"><path d="M849.995,719.049a4.347,4.347,0,0,1,1.879.394,1.514,1.514,0,0,1,.9,1.4l-.035,2.267a2.26,2.26,0,0,0-2.222-1.587,2.343,2.343,0,0,0-1.14.317l-64.965,37.4a5.806,5.806,0,0,0-2.968,5.079l1.333,122.73a3.07,3.07,0,0,0,3.175,2.974,3.125,3.125,0,0,0,.66-.079l-.114.07a5.507,5.507,0,0,1-3.019,1.117,3.619,3.619,0,0,1-3.644-3.333L778.49,764.084a7.768,7.768,0,0,1,3.971-6.787L847.89,719.63a4.356,4.356,0,0,1,2.1-.581" transform="translate(-778.23 -719.001)" fill="#2658c6"/><path d="M802.529,881.48a.667.667,0,0,0,.317-.092l8.321-4.794a.635.635,0,0,0,.238-.879.673.673,0,0,0-.911-.213l-8.317,4.791a.635.635,0,0,0-.238.879.66.66,0,0,0,.581.318m11.651-6.711a.665.665,0,0,0,.333-.092l14.067-8.1a.635.635,0,0,0,.235-.882.66.66,0,0,0-.578-.318.7.7,0,0,0-.333.092l-14.07,8.1a.635.635,0,0,0-.232.882.657.657,0,0,0,.578.318m-11.267-2.26a.674.674,0,0,0,.333-.1l13.778-7.937a.635.635,0,0,0,.238-.883.682.682,0,0,0-.914-.216l-13.778,7.937a.635.635,0,0,0-.238.879.667.667,0,0,0,.581.318m-.352-4.127a.667.667,0,0,0,.333-.092l22.94-13.213a.635.635,0,0,0,.238-.879.673.673,0,0,0-.584-.318.7.7,0,0,0-.318.092L802.224,867.2a.635.635,0,0,0-.238.883.667.667,0,0,0,.581.317m29.59-3.959a.678.678,0,0,0,.337-.092l16.851-9.7a.635.635,0,0,0,.235-.876.663.663,0,0,0-.578-.318.714.714,0,0,0-.336.092l-16.851,9.7a.635.635,0,0,0-.235.879.654.654,0,0,0,.578.318m-29.663-5a.694.694,0,0,0,.336-.1l10.975-6.321a.635.635,0,0,0,.235-.879.682.682,0,0,0-.914-.216l-10.975,6.324a.635.635,0,0,0-.238.876.673.673,0,0,0,.581.317m.029,4.549a.725.725,0,0,0,.336-.092l20.213-11.644a.635.635,0,0,0,.238-.879.66.66,0,0,0-.578-.318.714.714,0,0,0-.337.092L802.176,862.8a.635.635,0,0,0-.238.876.673.673,0,0,0,.581.318M821,862.169a.687.687,0,0,0,.336-.092l19.565-11.27a.635.635,0,0,0,.238-.879.667.667,0,0,0-.581-.317.7.7,0,0,0-.317.092l-19.568,11.27a.635.635,0,0,0-.238.879.666.666,0,0,0,.581.318m-18.679,14.9a.7.7,0,0,0,.317-.089l46.644-26.609a.635.635,0,0,0,.241-.879.667.667,0,0,0-.581-.318.711.711,0,0,0-.333.092l-46.644,26.61a.635.635,0,0,0-.241.876.664.664,0,0,0,.581.318m15.1-26.1a.681.681,0,0,0,.317-.1l7.956-4.581a.635.635,0,0,0,.235-.876.664.664,0,0,0-.578-.318.7.7,0,0,0-.317.092l-7.959,4.584a.635.635,0,0,0-.235.876.667.667,0,0,0,.581.318m26.413-1.94a.7.7,0,0,0,.317-.092l5.4-3.111a.635.635,0,0,0,.238-.876.673.673,0,0,0-.581-.318.723.723,0,0,0-.336.092l-5.4,3.111a.635.635,0,0,0-.238.879.664.664,0,0,0,.581.318m-17.178,1.314a.7.7,0,0,0,.317-.092l8.159-4.7a.635.635,0,0,0,.238-.883.676.676,0,0,0-.581-.318.7.7,0,0,0-.317.092l-8.159,4.7a.635.635,0,0,0-.238.883.667.667,0,0,0,.581.317m-24.5.952a.693.693,0,0,0,.333-.092l15.378-8.844a.635.635,0,0,0,.235-.88.654.654,0,0,0-.578-.317.679.679,0,0,0-.336.092L801.811,850.1a.635.635,0,0,0-.235.876.663.663,0,0,0,.578.318m27.476,1.619a.674.674,0,0,0,.318-.092l19.565-11.27a.635.635,0,0,0,.238-.879.654.654,0,0,0-.578-.318.667.667,0,0,0-.333.092l-19.571,11.267a.635.635,0,0,0-.235.883.663.663,0,0,0,.581.318m-.66-8.444a.667.667,0,0,0,.333-.092l7.752-4.467a.635.635,0,0,0,.235-.876.66.66,0,0,0-.578-.318.673.673,0,0,0-.317.1l-7.752,4.46a.635.635,0,0,0-.238.883.66.66,0,0,0,.581.318m-8.238-3.876a.68.68,0,0,0,.336-.092l4.762-2.737a.635.635,0,0,0,.235-.876.667.667,0,0,0-.581-.318.712.712,0,0,0-.318.092L820.4,839.4a.635.635,0,0,0-.235.879.66.66,0,0,0,.578.318m18.489,2.514a.665.665,0,0,0,.318-.092l9.949-5.714a.635.635,0,0,0,.238-.879.664.664,0,0,0-.581-.318.7.7,0,0,0-.318.089l-9.949,5.714a.635.635,0,0,0-.238.883.666.666,0,0,0,.581.317m2.171-5.53a.709.709,0,0,0,.333-.1l7.737-4.473a.635.635,0,0,0,.238-.879.657.657,0,0,0-.581-.318.666.666,0,0,0-.317.092l-7.749,4.467a.635.635,0,0,0-.238.876.67.67,0,0,0,.581.318m-13.74-.968a.677.677,0,0,0,.317-.092l8.8-5.079a.635.635,0,0,0,.238-.88.673.673,0,0,0-.581-.317.723.723,0,0,0-.337.092l-8.8,5.079a.635.635,0,0,0-.235.879.657.657,0,0,0,.581.318m-8.4.914a.71.71,0,0,0,.333-.092l11.559-6.667a.635.635,0,0,0,.235-.879.667.667,0,0,0-.581-.317.7.7,0,0,0-.317.092l-11.559,6.667a.635.635,0,0,0-.238.879.679.679,0,0,0,.584.317m-16.051,17a.605.605,0,0,0,.273-.073l45.917-25.667a.666.666,0,0,0,.254-.952.635.635,0,0,0-.54-.286.677.677,0,0,0-.317.083l-45.79,25.6a.736.736,0,0,0-.292,1.022.556.556,0,0,0,.486.264m30.2-25.146a.709.709,0,0,0,.318-.092l6.832-3.937a.635.635,0,0,0,.238-.879.663.663,0,0,0-.581-.318.7.7,0,0,0-.333.089l-6.835,3.94a.635.635,0,0,0-.235.876.667.667,0,0,0,.581.317m6.6.552a.675.675,0,0,0,.333-.092l8.8-5.079a.635.635,0,0,0,.238-.879.673.673,0,0,0-.581-.317.7.7,0,0,0-.333.092l-8.8,5.079a.635.635,0,0,0-.238.879.66.66,0,0,0,.581.317m3.378-6.225a.7.7,0,0,0,.333-.092l5.4-3.108a.635.635,0,0,0,.235-.883.67.67,0,0,0-.581-.318.7.7,0,0,0-.318.092l-5.4,3.111a.635.635,0,0,0-.235.876.673.673,0,0,0,.581.318m4.873-20.184c.067-.156.13-.318.194-.464,8.441-20.438,4.486-42.3-8.813-48.721a18.114,18.114,0,0,0-8.254-1.791c-11.648.2-24.394,10.794-31.175,27.2-7.956,19.273-4.9,39.806,6.632,47.473h0l.152.1h.029l.143.092h.025l.165.1.054.032.1.063.082.051.079.048.086.051.076.044.1.054.057.032.359.2.063.035.1.048.076.041.092.048.092.045.073.038.171.083a18.054,18.054,0,0,0,8.21,1.791h.248q.953-.029,1.9-.143c.283-.035.568-.073.854-.121h0l.254-.044h.124q.9-.156,1.794-.4h0c9.943-2.629,19.933-12.137,25.768-25.822.029-.06.054-.124.079-.184m8.638-76.765a2.261,2.261,0,0,1,2.222,1.587,2.126,2.126,0,0,1,.076.559l.787,124.251a6.076,6.076,0,0,1-3.092,5.267l-62.946,36.425a3.372,3.372,0,0,1-.93.365,3.132,3.132,0,0,1-.66.079,3.07,3.07,0,0,1-3.175-2.975l-1.333-122.73a5.806,5.806,0,0,1,2.968-5.079l64.959-37.406a2.342,2.342,0,0,1,1.14-.318" transform="translate(-784.611 -724.236)" fill="#dcefff"/><path d="M834.268,885.762h0m2.149-.146q-.952.114-1.9.143.952-.029,1.9-.143h0m1.108-.165-.254.044h0l.114-.019h.127m.124-.022h-.016m-11.74-1.549.171.083-.171-.083m-.165-.083.092.044-.092-.044m-.168-.089.076.041-.076-.041m-.159-.083.063.035-.063-.035m-.416-.229.057.032-.057-.032m-.171-.1.076.044-.076-.044m-.165-.1.079.048-.079-.048m-.187-.114.1.063-.1-.063m-.219-.137.165.1-.165-.1m-.168-.108.143.092-.143-.092m-.181-.117.152.1-.152-.1M865.2,859.225c-5.835,13.686-15.825,23.194-25.768,25.822h0a27.732,27.732,0,0,0,6.686-2.8h0c7.549-4.333,14.562-12.425,19.079-23.022m-16.781-51.175a18.111,18.111,0,0,1,8.254,1.79c13.3,6.425,17.254,28.283,8.813,48.721-.063.156-.127.318-.194.464.067-.156.13-.317.194-.464.019-.054.044-.1.063-.159-1.387-.073-3.127-.073-4.606-.048-1.235.022-2.289.06-2.8.083a27.023,27.023,0,0,0-3.435.387c-1.33.21-2.937.46-4.762.914a8.209,8.209,0,0,0-.844-1.375,3.556,3.556,0,0,0-1.083-.863h0l-.067-.035a1,1,0,0,0-.378-.111.21.21,0,0,0-.083.019l-.022.016h0l-.14-1.749a22.4,22.4,0,0,0,1.787-2.1,13.617,13.617,0,0,0,1.87-3.1,12.637,12.637,0,0,0,.825-3.956c.146-1.587.206-2.971.229-4.067a10.319,10.319,0,0,0,.8-.924,6.736,6.736,0,0,0,1.371-6c-.159-.873-.27-1.435-.635-1.667a.692.692,0,0,0-.384-.1,1.12,1.12,0,0,0-.409.1,15.959,15.959,0,0,0,.067-1.819c-.022-.717-.06-1.432-.137-2.857-.117-2.222-.181-3.356-.317-4.464a25.929,25.929,0,0,0-.609-3.476,9.544,9.544,0,0,0-1.343-3.3,2.829,2.829,0,0,0-.975-.984,2.315,2.315,0,0,0-1.073-.279,1.835,1.835,0,0,0-1.029.346,6.545,6.545,0,0,0-1.051.927,8.025,8.025,0,0,0-.7-1.638,2.15,2.15,0,0,0-1.244-.9,4.893,4.893,0,0,0-1.987-.365,4.568,4.568,0,0,0-.521.035,10.266,10.266,0,0,0-4.568,2.1,21.361,21.361,0,0,0-5.079,4.927,27.019,27.019,0,0,0-3.832,7.133,24.386,24.386,0,0,0-.952,4.476h0c.1-.152,2.035-3.025,2.3-3.47-.26.533-2.168,4.692-1.876,8.254.032.409.2,2.508.2,2.508l.841-1.187s.238,2.381.654,5.254v.057a1.74,1.74,0,0,0-.984.854,4.491,4.491,0,0,0-.34,2.149,6.762,6.762,0,0,0,.279,2.584,2.54,2.54,0,0,0,1.886,1.7,3.551,3.551,0,0,0,.711.111,36.717,36.717,0,0,0,.743,4.514,3.858,3.858,0,0,0,1.648,2.222c.543.286,2.813.952,4.333,1.413l.127,1.587a.15.15,0,0,0-.063-.038h-.025c-.2,0-.511.492-.984,2.076-.159.53-.292,1-.406,1.432a124.281,124.281,0,0,0-10.451,8.813c-1.864,1.679-3.54,3.756-5.375,5.5a19.683,19.683,0,0,0,3.209,2.686c-11.527-7.667-14.587-28.2-6.632-47.473,6.784-16.406,19.53-26.984,31.181-27.181" transform="translate(-801.649 -779.746)" fill="#24c5fe"/><path d="M854.3,993.74l-.114.019h0l.114-.019m.127-.022h0m.117-.022h0m8.5-3.2a27.733,27.733,0,0,1-6.686,2.8h0c.759-.2,1.521-.441,2.279-.724.432-.159.867-.318,1.3-.517h0l.114-.051.121-.051.044-.019h0a29.522,29.522,0,0,0,2.825-1.432m-9.638-16.508a13.273,13.273,0,0,0-.508,3.292v.213c-.752,1.587-1.06,2.321-1.06,2.321-2.781,6.486-2.775,7.032-2.775,7.032l4.5,3.641-2.387,3.54h.162c.435,0,.87-.035,1.308-.073h.1a4.557,4.557,0,0,0,.584-.06q-.952.114-1.9.143h-.248a18.055,18.055,0,0,1-8.209-1.79l-.168-.1-.073-.038-.092-.044-.092-.048-.076-.041-.1-.048-.063-.035-.359-.2-.057-.032-.1-.054-.076-.044-.086-.051-.079-.048-.083-.051-.1-.064-.054-.032-.165-.1h-.025l-.143-.092h-.029l-.152-.1h0a19.684,19.684,0,0,1-3.21-2.686c1.835-1.749,3.511-3.809,5.375-5.5a124.116,124.116,0,0,1,10.451-8.813m24.444-7.368c1.479-.025,3.219-.025,4.606.048-.019.054-.044.1-.064.159-.063.156-.127.317-.194.464-.025.06-.051.124-.079.184-4.517,10.6-11.53,18.689-19.079,23.022h0c.6-.346,1.19-.711,1.781-1.1h0a37.577,37.577,0,0,0,4.143-3.175h0l.044-.035.117-.108.092-.083.1-.083.156-.143.029-.025q.5-.448.984-.924h0q.524-.511,1.038-1.041l-2.33-.879,3.606-7.581s-.079-.511-3.654-3.911c0,0-.467-.444-1.587-1.368-.029-.149-.067-.317-.108-.473a8.29,8.29,0,0,0-.581-1.562c1.822-.454,3.428-.7,4.762-.914a27.006,27.006,0,0,1,3.432-.384c.514-.022,1.568-.06,2.8-.083" transform="translate(-818.568 -887.993)" fill="#20222d"/><path d="M899.439,1002.867a14.051,14.051,0,0,0,1.616,1.838s.159,5.568.317,10.336c-.432.184-.867.359-1.3.518-.73-3.781-1.3-7.178-1.784-10,.06-.168.124-.343.19-.521a21.392,21.392,0,0,1,.952-2.175m5.146-2.517a12.232,12.232,0,0,1,1.778,1.441c0,2.984-.016,6.552-.1,10.594-.591.391-1.184.756-1.781,1.1-.613-4.552-1.324-9.921-1.324-9.921s.689-1.327,1.241-2.717c.063-.165.127-.318.187-.5" transform="translate(-859.998 -911.001)" fill="#e2e2e2"/><path d="M901.176,958l.14,1.749a.317.317,0,0,0-.057.238c0,.41.213,1.27.216,2.349a7.4,7.4,0,0,1-.587,3,8.542,8.542,0,0,1-1.137,1.9,7.4,7.4,0,0,1-1.689,1.552,5.032,5.032,0,0,1-1.194.578,3.976,3.976,0,0,1-1.2.2h-.213a3.709,3.709,0,0,1-1.413-.352,3.058,3.058,0,0,1-1.324-1.01,5.7,5.7,0,0,1-.771-2.435c-.111-.682-.029-1.051-.13-1.146h0l-.127-1.587c.67.2,1.194.355,1.359.422a1.906,1.906,0,0,0,.711.124,5.2,5.2,0,0,0,2.022-.635,5.449,5.449,0,0,0,2.4-1.587c.419-.492,2.032-2.422,2.54-2.908a5.3,5.3,0,0,0,.457-.454" transform="translate(-855.493 -882.095)" fill="#e8ac8b"/><path d="M905.853,1013.139l-.121.051.121-.051m1.819-.876c.2-.1.4-.21.594-.318a69.541,69.541,0,0,0-1.248-9.025h0c-.127.067.219,4.5.657,9.346m-.727-11.029a.606.606,0,0,0,.489-.362l.508-.914a.755.755,0,0,0-.035-.9l-.5-.413a.3.3,0,0,0-.2-.07c-.292,0-.616.4-.61.844v1.276c-.022.356.156.546.368.54m-.394-3.521c.232,0,.413.162.854.492.283.213.7.5,1.222.838.063-.165.127-.317.187-.5-.06.165-.124.318-.187.5-.552,1.391-1.241,2.718-1.241,2.718s.711,5.368,1.324,9.921h0a29.51,29.51,0,0,1-2.825,1.432c-.159-3.784-.276-7.879-.213-9.718.022-.606.93-1.27.93-1.27s-2.1-.273-2.111-1.187a4.213,4.213,0,0,1,.737-1.968c.244-.4.692-1.121,1.2-1.244a.6.6,0,0,1,.127-.019" transform="translate(-864.243 -909.199)" fill="#3087b7"/><path d="M862.811,924.77a10.969,10.969,0,0,0,.317,1.378h0a.73.73,0,0,0-.635.365,1.9,1.9,0,0,0-.162,1.79h0a4.559,4.559,0,0,1,.194-1.34.933.933,0,0,1,.7-.5,6.759,6.759,0,0,0,.318.816,1.986,1.986,0,0,0-.676,1.178,1.736,1.736,0,0,0,.254,1.381,1.155,1.155,0,0,0,.933.5.51.51,0,0,0,.124,0c.07.635.143,1.27.216,1.841a3.551,3.551,0,0,1-.711-.111,2.54,2.54,0,0,1-1.886-1.7,6.929,6.929,0,0,1-.279-2.584,4.275,4.275,0,0,1,.34-2.149,1.74,1.74,0,0,1,.984-.854" transform="translate(-834.894 -859.414)" fill="#f2bc97"/><path d="M866.264,932.653a9.731,9.731,0,0,0,.425.908q.1,1.114.21,2.133a.51.51,0,0,1-.124,0,1.156,1.156,0,0,1-.933-.5,1.736,1.736,0,0,1-.254-1.381,1.924,1.924,0,0,1,.676-1.178" transform="translate(-837.645 -864.786)" fill="#e29d7f"/><path d="M864.518,929.1h0c.032.108.063.216.1.318a.933.933,0,0,0-.7.5,4.5,4.5,0,0,0-.194,1.34h0a1.9,1.9,0,0,1,.162-1.791.73.73,0,0,1,.635-.365" transform="translate(-836.302 -862.37)" fill="#e29d7f"/><path d="M937.522,888.929a.692.692,0,0,1,.384.1c.381.232.492.794.635,1.667a6.736,6.736,0,0,1-1.371,6,10.319,10.319,0,0,1-.8.924c.016-.952,0-1.667,0-2.067a3.867,3.867,0,0,0,.952-1.419,2.014,2.014,0,0,0,.044-1.524.863.863,0,0,0-.673-.451c.06-.365.121-.752.178-1.152a.768.768,0,0,1,.391-.149.291.291,0,0,1,.187.057c.286.213.356,1.06.391,1.06h0c.051-.025.229-1.2-.425-1.5a.27.27,0,0,0-.14-.029.634.634,0,0,0-.346.14c.07-.517.13-1.044.171-1.559a1.122,1.122,0,0,1,.41-.1" transform="translate(-885.989 -834.952)" fill="#f2bc97"/><path d="M936.635,899.11a.863.863,0,0,1,.673.451,2.077,2.077,0,0,1-.044,1.524,3.866,3.866,0,0,1-.952,1.419v-.346c0-.333-.029-.654-.041-.968.079-.4.229-1.159.378-2.079" transform="translate(-885.921 -841.9)" fill="#e29d7f"/><path d="M938.383,893.7a.27.27,0,0,1,.14.029c.654.318.476,1.479.425,1.5h0c-.035,0-.1-.848-.39-1.06a.292.292,0,0,0-.187-.057.768.768,0,0,0-.391.149l.057-.425a.635.635,0,0,1,.346-.14" transform="translate(-887.088 -838.207)" fill="#e29d7f"/><path d="M879.328,896.521a2.541,2.541,0,0,0,1-.254c.635-.318,1.222-.876,1.2-1,0-.019-.022-.025-.054-.025a4.542,4.542,0,0,0-.952.352c-.835.352-1.549.657-1.565.81,0,.073.133.117.359.114m-7.356-5.87a1.641,1.641,0,0,0,.476-.086,2.279,2.279,0,0,0,1.514-2.1,1.117,1.117,0,0,0-1.168-1.146,1.531,1.531,0,0,0-.476.083,2.289,2.289,0,0,0-1.518,2.1,1.121,1.121,0,0,0,1.171,1.146m6.533,3.81a4.381,4.381,0,0,0,1.844-.467,5.8,5.8,0,0,0,2.076-1.721,17.832,17.832,0,0,0,2.54-5.714.241.241,0,0,0-.06-.2.13.13,0,0,0-.086-.032c-.137,0-.318.232-.6.594-.206.267-.464.6-.781.952a9.567,9.567,0,0,1-3.276,2.2,8.028,8.028,0,0,1-3.251,1.181h-.317a4.1,4.1,0,0,1-1.524-.467,1.178,1.178,0,0,0-.451-.159.235.235,0,0,0-.209.146.362.362,0,0,0-.035.235c.1.59,2,3.054,3.2,3.371a3.173,3.173,0,0,0,.9.108m2.222-10.975a1.508,1.508,0,0,0,0-.317.9.9,0,0,0-.952-.908,1.486,1.486,0,0,0-.616.162,2.4,2.4,0,0,0-1.324,2.143,1.342,1.342,0,0,0,.057.286h-.032a1.168,1.168,0,0,0,1.073,1.27,1.089,1.089,0,0,0,.276-.044,2.732,2.732,0,0,0,1.527-2.622h-.032m-5.784,1.346a.635.635,0,0,0,.349-.127,2.279,2.279,0,0,0,.517-2.187c-.156-.657-.514-1.051-.892-1.044a.593.593,0,0,0-.349.124,2.271,2.271,0,0,0-.518,2.187c.152.657.511,1.054.892,1.048m10.117-.552a2.121,2.121,0,0,0,1.048-.356,3.157,3.157,0,0,0,1.568-2.622.835.835,0,0,0-.911-.778,2.069,2.069,0,0,0-1.044.356A3.142,3.142,0,0,0,884.1,883.5a.835.835,0,0,0,.911.778m-13.441-1.813c.206,0,.387-.464.908-1.156a7.706,7.706,0,0,1,1.73-1.708c.787-.521,1.206-.429,1.333-.81a1.025,1.025,0,0,0-.467-1.089.755.755,0,0,0-.419-.1,1.565,1.565,0,0,0-.432.076,4.6,4.6,0,0,0-2.184,1.876,4.274,4.274,0,0,0-.743,1.825c-.051.467.025,1.048.254,1.07h.019m11.476-1.549a.463.463,0,0,0,.111,0c.5-.13.952-1.032,1.006-2.013.048-.9-.264-1.562-.708-1.556a.47.47,0,0,0-.111,0c-.5.127-.952,1.029-1,2.01-.051.908.26,1.565.7,1.555m3.044-5.508a.216.216,0,0,0,.168-.083,1.619,1.619,0,0,0-.9-2.222,2.425,2.425,0,0,0-.9-.162,2.652,2.652,0,0,0-1.416.47,2.385,2.385,0,0,0-.784.813c-.26.476-.448,1.2-.267,1.432a.152.152,0,0,0,.127.064c.213,0,.581-.356,1.235-.562a3.346,3.346,0,0,1,.927-.149,3.6,3.6,0,0,1,.936.111,8.711,8.711,0,0,0,.867.289m-2.517-8.991a3.788,3.788,0,0,0,.635,1.66c.219.263.549.317,1.206.432a4.242,4.242,0,0,0,.787.057c.216,0,.419-.022.6-.038s.362-.032.5-.035a1.473,1.473,0,0,1,.213,0c.911.136,1.711,1.771,1.9,4.289.206,2.813.318,6.368.318,6.368l.06-.289c0,.318.029.635.041.968v.346c0,.4.019,1.117,0,2.067-.022,1.1-.083,2.5-.229,4.067a12.288,12.288,0,0,1-.825,3.956,13.616,13.616,0,0,1-1.87,3.1,22.392,22.392,0,0,1-1.787,2.1c-.264.273-.438.438-.457.454-.508.486-2.121,2.416-2.54,2.908a5.6,5.6,0,0,1-2.4,1.587,6.437,6.437,0,0,1-2.022.635,1.905,1.905,0,0,1-.711-.124c-.165-.067-.689-.222-1.359-.422-1.521-.454-3.791-1.127-4.333-1.413a3.915,3.915,0,0,1-1.648-2.222,36.726,36.726,0,0,1-.743-4.514c-.073-.578-.146-1.194-.216-1.841s-.143-1.391-.21-2.133l.089.156s-.124-1.384-.355-5.013c0-.194-.2-6.759,1.648-9.308a14.56,14.56,0,0,1,1.959-1.9s-.318.8-.889,2.406c-.206.584-.5,1.924-.5,1.924a9.372,9.372,0,0,1,1.924-2.314,5.327,5.327,0,0,1,1.851-.9c2.051-.721,2.206-.568,3.3-1a8.526,8.526,0,0,0,3.476-2.222,9.712,9.712,0,0,0,1.9-2.6,10.884,10.884,0,0,1,.654-1.156" transform="translate(-839.474 -819.575)" fill="#f5c7a3"/><path d="M901.5,920.21a2.732,2.732,0,0,1-1.527,2.622,1.081,1.081,0,0,1-.276.044,1.17,1.17,0,0,1-1.073-1.27h.032a.867.867,0,0,0,.879.635,1.464,1.464,0,0,0,.635-.162,2.489,2.489,0,0,0,1.314-1.822h.032" transform="translate(-860.223 -856.302)" fill="#e29d7f"/><path d="M888.683,934.84c.067.025.143.063.216.1a4.318,4.318,0,0,0,1.587.479h.054a1.1,1.1,0,0,1-.146,0c0,.159-.022.318-.022.5v.276a1.84,1.84,0,0,0,.022.359v.029h0a4,4,0,0,0,.079.476,10.2,10.2,0,0,1-1.8-2.222m9.962-4.244a20.617,20.617,0,0,1-1.432,3.609c.016-.194.025-.4.022-.619h0V933.5h0V933.3h0a4.327,4.327,0,0,0-.064-.559c-.019-.127-.044-.241-.07-.349a4.827,4.827,0,0,0,.457-.46c.317-.359.594-.7.806-.971a3.183,3.183,0,0,1,.317-.378" transform="translate(-853.432 -863.38)" fill="#7f4f3e"/><path d="M896.5,933.223a20.612,20.612,0,0,0,1.444-3.629c-.083.089-.2.238-.318.378-.213.273-.479.613-.806.971-.156.168-.317.318-.457.46h0a12.431,12.431,0,0,1-2.924,1.771,8.588,8.588,0,0,1-3.54,1.27H889.8a4.318,4.318,0,0,1-1.587-.479c-.073-.035-.149-.073-.216-.1a10.2,10.2,0,0,0,1.8,2.222.485.485,0,0,0,.022.092.232.232,0,0,1,0,.067,4.027,4.027,0,0,0,1.067.616,3.633,3.633,0,0,0,.952.1,4.847,4.847,0,0,0,3.752-2.152c.276-.391.606-.883.9-1.391v-.178m1.587-4.079a.13.13,0,0,1,.086.032.241.241,0,0,1,.06.2,18.392,18.392,0,0,1-2.54,5.714,5.8,5.8,0,0,1-2.076,1.721,4.381,4.381,0,0,1-1.844.467,3.173,3.173,0,0,1-.9-.108c-1.2-.318-3.1-2.781-3.2-3.371a.362.362,0,0,1,.035-.235.235.235,0,0,1,.21-.146,1.179,1.179,0,0,1,.451.159,4.1,4.1,0,0,0,1.524.467h.318a7.788,7.788,0,0,0,3.251-1.181,9.472,9.472,0,0,0,3.276-2.2,11.542,11.542,0,0,0,.781-.952c.283-.362.46-.59.6-.594" transform="translate(-852.736 -862.397)" fill="#dd947a"/><path d="M904.614,957.26c.032,0,.051,0,.054.025.025.121-.559.7-1.2,1a2.54,2.54,0,0,1-1,.254c-.225,0-.368-.041-.359-.114,0-.152.73-.457,1.565-.81a4.553,4.553,0,0,1,.952-.352" transform="translate(-862.604 -881.59)" fill="#eaa988"/><path d="M894.06,942.039a1.324,1.324,0,0,0,.025.318h0v.048c0-.111-.019-.229-.022-.359m6.841-2.6a5.533,5.533,0,0,1-.022.619v.178c-.3.508-.635,1-.9,1.39a4.851,4.851,0,0,1-3.752,2.152,3.633,3.633,0,0,1-.952-.1,4.031,4.031,0,0,1-1.067-.616,4.031,4.031,0,0,0,1.067.616,3.633,3.633,0,0,0,.952.1,4.847,4.847,0,0,0,3.752-2.152c.276-.39.606-.883.9-1.39v-.238c-1.121,1.86-2.949,3.362-4.806,3.394a3.453,3.453,0,0,1-1.9-.546.5.5,0,0,0,.032.146.486.486,0,0,0-.022-.092,4.014,4.014,0,0,1-.079-.476h0a.282.282,0,0,0,.022.133l.1-.083a2.97,2.97,0,0,0,1.187.2,4.621,4.621,0,0,0,.565-.048,5.9,5.9,0,0,0,1.765-.6l.235-.111a7.065,7.065,0,0,0,1.686-1.114,6.7,6.7,0,0,0,1.251-1.368m0-.292v.206a7.174,7.174,0,0,1-1.27,1.4,7.279,7.279,0,0,1-1.9,1.213,5.882,5.882,0,0,1-1.752.6,3.539,3.539,0,0,1-.444.035,4.014,4.014,0,0,1-1.248-.175,15.644,15.644,0,0,1,1.879-1.318A17.56,17.56,0,0,1,899.3,939.7c.635-.238,1.165-.416,1.587-.546" transform="translate(-857.111 -869.229)" fill="#fff"/><path d="M920.952,910.922a.835.835,0,0,1,.911.778,3.157,3.157,0,0,1-1.568,2.622,2.122,2.122,0,0,1-1.048.356.835.835,0,0,1-.911-.778,3.142,3.142,0,0,1,1.571-2.622,2.07,2.07,0,0,1,1.044-.356" transform="translate(-873.673 -849.96)" fill="#f9b89b"/><path d="M878.313,932.287a1.118,1.118,0,0,1,1.168,1.146,2.279,2.279,0,0,1-1.514,2.1,1.641,1.641,0,0,1-.476.086,1.121,1.121,0,0,1-1.171-1.146,2.289,2.289,0,0,1,1.517-2.1,1.533,1.533,0,0,1,.476-.083" transform="translate(-845.002 -864.545)" fill="#f9b89b"/><path d="M894.109,940.385l.117.051-.1.083a.282.282,0,0,0-.022-.133m6.667-4.2h0c.025.108.051.222.07.349a4.316,4.316,0,0,1,.063.559h0c-.425.13-.968.317-1.587.546a17.557,17.557,0,0,0-3.136,1.416,15.647,15.647,0,0,0-1.879,1.317,1.177,1.177,0,0,1-.2-.079c0-.1-.019-.2-.025-.318s0-.181,0-.276a3.706,3.706,0,0,1,.022-.5,1.121,1.121,0,0,0,.146,0h.07c1.038,0,1.9-.444,3.54-1.27a12.6,12.6,0,0,0,2.924-1.771" transform="translate(-857.125 -867.182)" fill="#ead6ba"/><path d="M900.986,939.77v.083h0a6.7,6.7,0,0,1-1.251,1.368,7.062,7.062,0,0,1-1.686,1.114l-.235.111a5.906,5.906,0,0,1-1.765.6,4.634,4.634,0,0,1-.565.048,2.972,2.972,0,0,1-1.187-.2l-.117-.051h0v-.076h0a1.173,1.173,0,0,0,.2.079,4.012,4.012,0,0,0,1.248.175,3.541,3.541,0,0,0,.444-.035,5.883,5.883,0,0,0,1.752-.6,7.283,7.283,0,0,0,1.9-1.213,7.174,7.174,0,0,0,1.27-1.4h0" transform="translate(-857.193 -869.653)" fill="#ccb293"/><path d="M901.125,941.83v.238c-.3.508-.635,1-.9,1.391a4.852,4.852,0,0,1-3.752,2.152,3.632,3.632,0,0,1-.952-.1,4.032,4.032,0,0,1-1.067-.616v-.067a1.438,1.438,0,0,0-.032-.146,3.454,3.454,0,0,0,1.9.546c1.857-.032,3.686-1.533,4.806-3.394" transform="translate(-857.357 -871.059)" fill="#ead6ba"/><path d="M911.651,1000.43a.3.3,0,0,1,.2.07l.5.413a.756.756,0,0,1,.035.9l-.508.914a.606.606,0,0,1-.489.362c-.213,0-.391-.184-.368-.54v-1.276c0-.448.317-.841.609-.844" transform="translate(-868.69 -911.055)" fill="#52b0d1"/><path d="M858.88,861.639h0m18.787-12.594a6.115,6.115,0,0,0,.708,1.81c.422.667,1.067.8,1.9.952.733.149.8-.019,1.559.146a3.731,3.731,0,0,1,1.587.657,3.563,3.563,0,0,1,.441.4c0-.13-.029-.257-.041-.387.13,1.108.194,2.241.317,4.464.076,1.435.114,2.149.136,2.857a15.974,15.974,0,0,1-.067,1.819c-.041.514-.1,1.041-.171,1.559l-.057.425c-.057.4-.117.787-.178,1.152-.149.921-.3,1.682-.378,2.079l-.06.289s-.114-3.556-.317-6.368c-.184-2.518-.984-4.152-1.9-4.289a1.482,1.482,0,0,0-.213,0c-.143,0-.317.019-.5.035s-.387.032-.6.038a4.236,4.236,0,0,1-.787-.057c-.657-.111-.987-.168-1.206-.432a3.787,3.787,0,0,1-.635-1.66,10.862,10.862,0,0,0-.654,1.156,9.579,9.579,0,0,1-1.9,2.6,8.525,8.525,0,0,1-3.476,2.222c-1.089.432-1.244.279-3.3,1a5.327,5.327,0,0,0-1.851.9,9.373,9.373,0,0,0-1.924,2.314s.3-1.34.5-1.924c.571-1.609.889-2.406.889-2.406a14.567,14.567,0,0,0-1.959,1.9c-1.848,2.54-1.66,9.114-1.648,9.308.232,3.629.356,5.013.356,5.013l-.089-.156a9.708,9.708,0,0,1-.425-.908c-.1-.238-.2-.514-.318-.816-.032-.1-.063-.21-.1-.318a10.955,10.955,0,0,1-.317-1.378v-.057c-.416-2.873-.654-5.254-.654-5.254l-.841,1.187s-.171-2.1-.2-2.508c-.292-3.575,1.616-7.733,1.876-8.254l.016-.025.019-.032-.019.032a22.216,22.216,0,0,0-1.384,3.81,17.93,17.93,0,0,1,4.467-5.34c.47-.317,1.479-.867,3.492-1.968a11.664,11.664,0,0,1,2.651-1.1l-1.384,2.019a8.264,8.264,0,0,0,5.94-3.238c.289-.4.733-1.1,1.587-2.222a3.669,3.669,0,0,1,1.108-1.076" transform="translate(-833.099 -807.712)" fill="#6d5b4f"/><path d="M861.207,845.148l.019-.032-.019.032m10.381-5.286c.054,0,.467-.441,2.724-2.81a14.9,14.9,0,0,0,1.521-1.638h0a12.469,12.469,0,0,0-2.489,2.2,13.3,13.3,0,0,0-1.752,2.245h0m10.14-2.873c.136,0,.222-.025.235-.057a5.33,5.33,0,0,1-1.587-1.213c-.451-.562-.667-1.124-.746-1.121h0a2.3,2.3,0,0,0,.318,1.289,2.054,2.054,0,0,0,1.781,1.1m-17.778,3.575A24.5,24.5,0,0,1,870,834.926c1.682-1.022,3.175-1.514,3.175-1.632a.172.172,0,0,0-.1-.025,9,9,0,0,0-2.857.952,16.571,16.571,0,0,0-6.276,6.327m9.9-10.562a4.892,4.892,0,0,1,1.987.371,2.163,2.163,0,0,1,1.244.9,8.019,8.019,0,0,1,.7,1.638,6.541,6.541,0,0,1,1.051-.927,1.835,1.835,0,0,1,1.029-.346,2.314,2.314,0,0,1,1.073.279,2.829,2.829,0,0,1,.968.971,9.541,9.541,0,0,1,1.343,3.3,25.916,25.916,0,0,1,.609,3.476c0,.13.029.257.041.387a3.564,3.564,0,0,0-.441-.4,3.733,3.733,0,0,0-1.587-.657c-.759-.165-.825,0-1.559-.146-.838-.165-1.483-.3-1.9-.952a6.118,6.118,0,0,1-.708-1.81,3.67,3.67,0,0,0-1.108,1.076c-.848,1.108-1.292,1.8-1.587,2.222a8.263,8.263,0,0,1-5.94,3.238l1.384-2.019a11.669,11.669,0,0,0-2.651,1.1c-2.022,1.1-3.032,1.651-3.492,1.968a17.931,17.931,0,0,0-4.467,5.34,22.224,22.224,0,0,1,1.384-3.809l.019-.032-.019.032-.016.025c-.27.444-2.2,3.317-2.3,3.47h0a24.374,24.374,0,0,1,.952-4.476,27.023,27.023,0,0,1,3.844-7.165,21.368,21.368,0,0,1,5.079-4.927,10.233,10.233,0,0,1,4.568-2.1c.121,0,.3-.032.521-.035" transform="translate(-833.106 -794.716)" fill="#7c6959"/><path d="M866.209,877.66l-.019.032.019-.032" transform="translate(-838.088 -827.26)" fill="#5b3b2e"/><path d="M883.935,840.35c.06,0,.1,0,.1.025,0,.117-1.492.609-3.175,1.632a24.44,24.44,0,0,0-6.048,5.635,16.654,16.654,0,0,1,6.276-6.327,9,9,0,0,1,2.857-.952" transform="translate(-843.969 -801.794)" fill="#6d5b4f"/><path d="M903.1,847.09h0a20.261,20.261,0,0,1-1.521,1.638c-2.257,2.368-2.67,2.81-2.724,2.81h0a12.731,12.731,0,0,1,1.752-2.244,13.1,13.1,0,0,1,2.489-2.2" transform="translate(-860.384 -806.395)" fill="#6d5b4f"/><path d="M924.225,844.53c.079,0,.3.559.746,1.121a4.924,4.924,0,0,0,1.587,1.213c0,.032-.1.054-.235.057a2.054,2.054,0,0,1-1.781-1.1,2.354,2.354,0,0,1-.317-1.289h0" transform="translate(-877.685 -804.647)" fill="#6d5b4f"/><path d="M900.493,916.366a.9.9,0,0,1,.952.908,1.517,1.517,0,0,1,0,.318,2.489,2.489,0,0,1-1.314,1.822,1.463,1.463,0,0,1-.635.162.866.866,0,0,1-.879-.635,1.342,1.342,0,0,1-.057-.286,2.4,2.4,0,0,1,1.324-2.143,1.485,1.485,0,0,1,.616-.162" transform="translate(-860.182 -853.667)" fill="#ffd2b3"/><path d="M904.71,996.083c.292,0,.737.206,1.8.952l.549.394c-.06.165-.124.317-.187.5a14.03,14.03,0,0,1-1.222-.838c-.441-.317-.635-.5-.854-.492a.616.616,0,0,0-.127.019c-.508.124-.927.8-1.2,1.244a3.974,3.974,0,0,0-.737,1.968c0,.914,2.111,1.187,2.111,1.187s-.908.657-.93,1.27c-.063,1.838.054,5.933.213,9.717h0l-.044.019-.121.051-.114.051c-.159-4.762-.317-10.336-.317-10.336a14.054,14.054,0,0,1-1.616-1.838c.317-.594.609-1.124.927-1.679,1.041-1.806,1.413-2.032,1.587-2.117a.661.661,0,0,1,.276-.073" transform="translate(-862.469 -908.086)" fill="#206da0"/><path d="M912.346,1014.1a69.648,69.648,0,0,1,1.248,9.025c-.2.111-.4.216-.594.318-.438-4.841-.784-9.279-.657-9.346h0" transform="translate(-869.571 -920.386)" fill="#52b0d1"/><path d="M877.362,1037.294c-.438.038-.873.063-1.308.073h0c.317,0,.66-.025.994-.048h.06l.254-.019m.1,0h0m3.619-.635h0q-.9.238-1.794.4h-.232l-.114.019h0q1.086-.175,2.175-.464m-7.3-6.448,5.4,2.337-.883,1.3-4.5-3.641" transform="translate(-843.289 -931.354)" fill="#191c26"/><path d="M938.582,993.91l-3.606,7.581-1.016-.384,4.622-7.2" transform="translate(-884.344 -906.605)" fill="#191c26"/><path d="M936.494,1025.2l-.044.035.044-.035m.21-.19-.092.083.092-.083m.251-.225-.156.143.156-.143m1.013-.952h0q-.489.476-.984.924.5-.454.984-.924" transform="translate(-886.044 -927.027)" fill="#333747"/><path d="M884.18,1052.189h0m1.81-.216h0c-.286.048-.571.086-.854.121h0c-.194.025-.39.045-.584.06h-.1l-.254.019c.6-.044,1.2-.114,1.794-.213" transform="translate(-850.367 -946.227)" fill="#333747"/><path d="M926.158,977.28c1.13.924,1.587,1.368,1.587,1.368,3.575,3.4,3.654,3.911,3.654,3.911l-4.606,7.2,1.016.384,2.33.879q-.514.533-1.038,1.041t-.984.924l-.029.025-.156.143-.1.083-.092.083-.117.108-.044.035a37.572,37.572,0,0,1-4.143,3.175h0c.086-4.041.092-7.619.1-10.594a4.853,4.853,0,0,1,.441.549c.61.892.727,1.483.953,1.479a.172.172,0,0,0,.067,0c.143-.067.368-.318,1.089-5.483a16.239,16.239,0,0,0,.222-4.327c-.022-.219-.07-.559-.152-.968" transform="translate(-877.164 -895.255)" fill="#292c3a"/><path d="M877.517,1000.77a12.321,12.321,0,0,0,.587,3.492c.209.791.213.578,1.159,3.175.571,1.565.717,2.041.927,2.038h.048c.384-.124.457-1.365,1.241-3.6.483,2.819,1.054,6.216,1.784,10-.759.283-1.521.524-2.279.724s-1.451.346-2.175.463c-.6.1-1.2.168-1.794.213h-.073c-.318.022-.664.038-.994.048h-.162l2.387-3.54.883-1.3-5.4-2.336s0-.546,2.775-7.032c0,0,.317-.721,1.06-2.321" transform="translate(-843.187 -911.288)" fill="#292c3a"/><path d="M897.892,963.363a3.557,3.557,0,0,1,1.083.864,8.432,8.432,0,0,1,1.425,2.936c.041.165.079.318.108.473.082.41.13.749.152.968a16.929,16.929,0,0,1-.222,4.327c-.721,5.152-.952,5.416-1.089,5.483a.174.174,0,0,1-.067,0c-.229,0-.346-.587-.952-1.479a4.843,4.843,0,0,0-.441-.549,12.231,12.231,0,0,0-1.778-1.441l-.549-.394c-1.06-.752-1.5-.952-1.8-.952a.66.66,0,0,0-.276.073c-.184.086-.556.318-1.587,2.117-.317.556-.635,1.086-.927,1.679a21.384,21.384,0,0,0-.952,2.175c-.067.178-.13.352-.19.521-.784,2.222-.857,3.473-1.241,3.6h-.048c-.21,0-.356-.473-.927-2.038-.952-2.59-.952-2.378-1.159-3.175a12.018,12.018,0,0,1-.587-3.492v-.213a13.278,13.278,0,0,1,.508-3.292c.114-.432.248-.9.406-1.432.473-1.587.787-2.073.984-2.076h0c-.063,0-.143.057-.232.181a4.774,4.774,0,0,0,.06.635c.156,1.324.356,2.971,1.352,4a2.883,2.883,0,0,0,2.2.863,5.546,5.546,0,0,0,1.27-.19,6.889,6.889,0,0,0,3.33-2.076,7.712,7.712,0,0,0,1.686-2.486,9.158,9.158,0,0,0,.587-3.273,11.385,11.385,0,0,0-.108-2.384m-.444-.146a1.007,1.007,0,0,1,.378.111.952.952,0,0,0-.378-.108.2.2,0,0,0-.083,0,.211.211,0,0,1,.083-.019" transform="translate(-851.521 -885.61)" fill="#efefef"/><path d="M900.977,963.37a.954.954,0,0,1,.378.108l.067.035h0a11.385,11.385,0,0,1,.108,2.384,9.219,9.219,0,0,1-.587,3.273,7.712,7.712,0,0,1-1.686,2.486,6.89,6.89,0,0,1-3.33,2.073,5.549,5.549,0,0,1-1.27.19,2.882,2.882,0,0,1-2.2-.864c-1-1.029-1.2-2.676-1.352-4-.029-.222-.044-.438-.06-.635.089-.124.168-.178.232-.181h.025a.147.147,0,0,1,.064.038h0c.1.1.019.464.13,1.146a5.7,5.7,0,0,0,.771,2.435,3.056,3.056,0,0,0,1.324,1.01,3.709,3.709,0,0,0,1.413.352h.213a3.976,3.976,0,0,0,1.2-.2,5.031,5.031,0,0,0,1.194-.578,7.4,7.4,0,0,0,1.689-1.552,8.542,8.542,0,0,0,1.136-1.9,7.4,7.4,0,0,0,.587-3c0-1.092-.213-1.94-.216-2.349a.317.317,0,0,1,.057-.238h0l.022-.016a.2.2,0,0,1,.083,0" transform="translate(-855.049 -885.76)" fill="#dfe2e5"/><path d="M913.92,887a2.426,2.426,0,0,1,.9.162,1.619,1.619,0,0,1,.9,2.222.216.216,0,0,1-.168.083,8.726,8.726,0,0,1-.867-.289,3.6,3.6,0,0,0-.937-.111,3.341,3.341,0,0,0-.927.149c-.654.206-1.022.559-1.235.562a.152.152,0,0,1-.127-.063c-.181-.232,0-.952.267-1.432a2.383,2.383,0,0,1,.784-.813,2.65,2.65,0,0,1,1.416-.47" transform="translate(-868.933 -833.635)" fill="#6d5b4f"/><path d="M881.216,901.707a.755.755,0,0,1,.419.1,1.025,1.025,0,0,1,.467,1.076c-.127.381-.546.289-1.333.81a7.706,7.706,0,0,0-1.73,1.708c-.521.692-.7,1.152-.908,1.156h-.019c-.229-.022-.317-.6-.254-1.07a4.271,4.271,0,0,1,.743-1.825,4.647,4.647,0,0,1,2.184-1.876,1.564,1.564,0,0,1,.432-.076" transform="translate(-846.038 -843.672)" fill="#6d5b4f"/><path d="M913.793,900.82c.444,0,.755.635.708,1.556-.054.981-.5,1.883-1.006,2.013a.457.457,0,0,1-.111,0c-.445,0-.756-.635-.7-1.556.051-.981.5-1.883,1-2.01a.473.473,0,0,1,.111,0" transform="translate(-869.815 -843.067)" fill="#20222d"/><path d="M887.262,913.92c.378,0,.737.387.892,1.044a2.278,2.278,0,0,1-.517,2.187.635.635,0,0,1-.349.127c-.381,0-.74-.39-.892-1.048a2.271,2.271,0,0,1,.517-2.187.594.594,0,0,1,.349-.124" transform="translate(-851.83 -852.009)" fill="#20222d"/><path d="M966.745,1018.38a.67.67,0,0,1,.581.317.635.635,0,0,1-.235.883l-5.4,3.108a.7.7,0,0,1-.333.092.673.673,0,0,1-.581-.318.635.635,0,0,1,.235-.876l5.4-3.111a.7.7,0,0,1,.318-.092" transform="translate(-902.59 -923.307)" fill="#f4c953"/><path d="M959.5,1031.82a.673.673,0,0,1,.581.317.635.635,0,0,1-.238.879l-8.8,5.079a.675.675,0,0,1-.333.092.659.659,0,0,1-.581-.317.635.635,0,0,1,.238-.879l8.8-5.079a.7.7,0,0,1,.333-.092" transform="translate(-895.319 -932.48)" fill="#f4c953"/><path d="M920.686,1052.87a.672.672,0,0,1,.581.318.635.635,0,0,1-.238.879l-8.8,5.079a.674.674,0,0,1-.318.092.657.657,0,0,1-.581-.318.635.635,0,0,1,.235-.879l8.8-5.079a.724.724,0,0,1,.336-.092" transform="translate(-868.835 -946.848)" fill="#f4c953"/><path d="M894.737,1072.763a.667.667,0,0,1,.581.318.635.635,0,0,1-.235.876l-4.762,2.736a.68.68,0,0,1-.337.092.661.661,0,0,1-.578-.318.635.635,0,0,1,.235-.879l4.762-2.737a.71.71,0,0,1,.317-.092" transform="translate(-853.874 -960.424)" fill="#f4c953"/><path d="M846.861,1087.226a.654.654,0,0,1,.578.318.635.635,0,0,1-.235.879l-15.352,8.835a.693.693,0,0,1-.333.092.664.664,0,0,1-.578-.318.635.635,0,0,1,.235-.876l15.356-8.844a.679.679,0,0,1,.336-.092" transform="translate(-813.969 -970.293)" fill="#f4c953"/><path d="M880.865,1044.34a.635.635,0,0,1,.54.286.667.667,0,0,1-.254.952l-45.917,25.667a.605.605,0,0,1-.273.073.555.555,0,0,1-.486-.263.737.737,0,0,1,.292-1.022l45.79-25.6a.677.677,0,0,1,.318-.083" transform="translate(-816.373 -941.026)" fill="#445091"/><path d="M962.832,1057.819a.657.657,0,0,1,.581.318.635.635,0,0,1-.238.879l-7.749,4.464a.709.709,0,0,1-.333.1.67.67,0,0,1-.581-.317.635.635,0,0,1,.238-.876l7.749-4.467a.665.665,0,0,1,.317-.092" transform="translate(-898.312 -950.226)" fill="#445091"/><path d="M958.186,1071.26a.663.663,0,0,1,.581.317.635.635,0,0,1-.238.879l-9.949,5.714a.683.683,0,0,1-.914-.216.635.635,0,0,1,.238-.883l9.949-5.714a.7.7,0,0,1,.318-.089" transform="translate(-893.637 -959.399)" fill="#445091"/><path d="M937.628,1084.7a.654.654,0,0,1,.578.318.635.635,0,0,1-.238.879l-19.565,11.27a.675.675,0,0,1-.317.092.664.664,0,0,1-.581-.318.635.635,0,0,1,.235-.882l19.543-11.264a.669.669,0,0,1,.333-.092" transform="translate(-873.05 -968.572)" fill="#445091"/><path d="M910.409,1113.84a.667.667,0,0,1,.581.318.635.635,0,0,1-.238.879l-19.565,11.27a.692.692,0,0,1-.337.092.667.667,0,0,1-.581-.318.635.635,0,0,1,.238-.879l19.568-11.27a.7.7,0,0,1,.317-.092" transform="translate(-854.463 -988.462)" fill="#445091"/><path d="M847.618,1156.93a.667.667,0,0,1,.581.317.635.635,0,0,1-.238.883l-13.778,7.937a.673.673,0,0,1-.333.1.666.666,0,0,1-.581-.318.635.635,0,0,1,.238-.879l13.778-7.937a.666.666,0,0,1,.318-.092" transform="translate(-815.558 -1017.873)" fill="#445091"/><path d="M968.181,1098.123a.673.673,0,0,1,.581.317.635.635,0,0,1-.238.876l-5.4,3.111a.7.7,0,0,1-.318.092.664.664,0,0,1-.581-.318.635.635,0,0,1,.238-.879l5.4-3.111a.723.723,0,0,1,.336-.092" transform="translate(-903.578 -977.733)" fill="#445091"/><path d="M878.687,1112.42a.666.666,0,0,1,.581.318.635.635,0,0,1-.241.879l-46.644,26.6a.7.7,0,0,1-.317.089.663.663,0,0,1-.581-.317.635.635,0,0,1,.241-.876l46.644-26.609a.712.712,0,0,1,.333-.092" transform="translate(-814.341 -987.486)" fill="#445091"/><path d="M942.8,1125.883a.663.663,0,0,1,.578.317.635.635,0,0,1-.235.876l-16.851,9.7a.68.68,0,0,1-.337.092.654.654,0,0,1-.578-.318.635.635,0,0,1,.235-.879l16.851-9.7a.712.712,0,0,1,.336-.092" transform="translate(-878.425 -996.68)" fill="#445091"/><path d="M883.427,1163.53a.66.66,0,0,1,.578.317.635.635,0,0,1-.235.883l-14.067,8.1a.666.666,0,0,1-.333.092.657.657,0,0,1-.578-.318.635.635,0,0,1,.232-.883l14.057-8.1a.7.7,0,0,1,.333-.092" transform="translate(-839.802 -1022.377)" fill="#445091"/><path d="M841.018,1195.09a.667.667,0,0,1,.578.318.635.635,0,0,1-.238.879l-8.321,4.794a.657.657,0,0,1-.9-.225.635.635,0,0,1,.238-.879l8.324-4.79a.674.674,0,0,1,.317-.1" transform="translate(-814.786 -1043.918)" fill="#445091"/><path d="M936.767,1033.65a.663.663,0,0,1,.581.318.635.635,0,0,1-.238.879l-6.832,3.937a.71.71,0,0,1-.317.092.667.667,0,0,1-.581-.318.635.635,0,0,1,.235-.876l6.835-3.94a.7.7,0,0,1,.333-.089" transform="translate(-881.158 -933.729)" fill="#f4c953"/><path d="M896.879,1050.74a.667.667,0,0,1,.581.318.635.635,0,0,1-.235.879l-11.559,6.667a.71.71,0,0,1-.333.092.679.679,0,0,1-.584-.317.635.635,0,0,1,.238-.879l11.559-6.667a.7.7,0,0,1,.317-.092" transform="translate(-850.695 -945.394)" fill="#f4c953"/><path d="M923.7,1079.523a.66.66,0,0,1,.578.317.635.635,0,0,1-.235.876l-7.752,4.467a.676.676,0,0,1-.914-.225.635.635,0,0,1,.238-.883l7.752-4.46a.673.673,0,0,1,.318-.1" transform="translate(-871.598 -965.037)" fill="#445091"/><path d="M916.83,1097.26a.676.676,0,0,1,.581.317.635.635,0,0,1-.238.883l-8.159,4.7a.7.7,0,0,1-.317.092.667.667,0,0,1-.581-.317.635.635,0,0,1,.238-.883l8.159-4.7a.7.7,0,0,1,.317-.092" transform="translate(-866.643 -977.146)" fill="#445091"/><path d="M887.511,1099.64a.664.664,0,0,1,.578.318.635.635,0,0,1-.235.876l-7.956,4.581a.681.681,0,0,1-.318.1.666.666,0,0,1-.581-.317.635.635,0,0,1,.235-.876l7.959-4.584a.7.7,0,0,1,.318-.092" transform="translate(-846.772 -978.77)" fill="#445091"/><path d="M843.528,1120.85a.67.67,0,0,1,.581.317.635.635,0,0,1-.235.879l-10.975,6.321a.694.694,0,0,1-.337.1.673.673,0,0,1-.581-.318.635.635,0,0,1,.238-.876l10.975-6.324a.666.666,0,0,1,.318-.092" transform="translate(-814.68 -993.247)" fill="#445091"/><path d="M852.862,1118.42a.66.66,0,0,1,.578.318.635.635,0,0,1-.238.879l-20.213,11.644a.724.724,0,0,1-.336.092.673.673,0,0,1-.581-.318.635.635,0,0,1,.238-.876l20.216-11.645a.714.714,0,0,1,.337-.092" transform="translate(-814.742 -991.588)" fill="#445091"/><path d="M855.664,1127.31a.673.673,0,0,1,.584.318.635.635,0,0,1-.238.879l-22.94,13.213a.683.683,0,0,1-.914-.216.635.635,0,0,1,.238-.883l22.937-13.209a.7.7,0,0,1,.317-.092" transform="translate(-814.797 -997.656)" fill="#445091"/></g></g></g></svg>