<svg xmlns="http://www.w3.org/2000/svg" viewBox="0 0 630 450"><defs><style>.cls-1{isolation:isolate;}.cls-19,.cls-2{fill:#e2e9fb;}.cls-2{mix-blend-mode:multiply;}.cls-3{fill:#b8c9f5;}.cls-4{fill:#ebf0fc;}.cls-5{fill:#819bea;}.cls-6{fill:#c8d5f7;}.cls-7{fill:#edf1fc;}.cls-8{fill:#eaeffc;}.cls-9{fill:#fcbac0;}.cls-10{fill:#343c6b;}.cls-11{fill:#424e7f;}.cls-12{fill:#343b65;}.cls-13{fill:#ff5463;}.cls-14{fill:#5278ff;}.cls-15{fill:#3754e0;}.cls-16{fill:#ff4a59;}.cls-17{fill:#445393;}.cls-18{fill:#81a0ea;}.cls-20{fill:#f8afac;}.cls-21{fill:#fec7c4;}.cls-22{fill:#535873;}.cls-23{fill:#fbb2b8;}.cls-24{fill:#6d83b1;}.cls-25{fill:#e4e9f9;}.cls-26{fill:#f7f9ff;}.cls-27{fill:#3e5aff;}.cls-28{fill:#6076d1;}.cls-29{fill:#e83349;}.cls-30{fill:#a3b4db;}.cls-31{fill:#d1d1de;}.cls-32{fill:#ef9b9b;}.cls-33{fill:#4f73e2;}.cls-34{fill:#fa8db2;}.cls-35{fill:#fcbad7;}</style></defs><title>Artboard 5</title><g class="cls-1"><g id="Layer_1" data-name="Layer 1"><path class="cls-2" d="M497,242.19l-11-6.3a5.36,5.36,0,0,0-5.34,0l-11,6.3a1.82,1.82,0,0,0-.91,1.83,1.42,1.42,0,0,0,0,.22,1.74,1.74,0,0,0,.86,1.14l11,6.3a5.36,5.36,0,0,0,5.34,0l11-6.3a1.74,1.74,0,0,0,.86-1.14,1.41,1.41,0,0,0,.06-.22A1.84,1.84,0,0,0,497,242.19Z"/><path class="cls-3" d="M479.42,211.12a7.66,7.66,0,0,0,7.64,0l10.39-6.55V237a2.63,2.63,0,0,1-1.32,2.28l-9.66,5.58a6.43,6.43,0,0,1-6.46,0l-9.67-5.58A2.65,2.65,0,0,1,469,237V204.33Z"/><path class="cls-4" d="M469.93,202.49l10.71-6.13a5.19,5.19,0,0,1,5.2,0l10.71,6.13a1.79,1.79,0,0,1,.89,1.78,1.41,1.41,0,0,1-.06.22,1.75,1.75,0,0,1-.83,1.11l-10.71,6.13a5.19,5.19,0,0,1-5.2,0l-10.71-6.13a1.74,1.74,0,0,1-.84-1.11,1.42,1.42,0,0,1,0-.22A1.77,1.77,0,0,1,469.93,202.49Z"/><path class="cls-2" d="M522.4,256.71l-11-6.3a5.41,5.41,0,0,0-5.34,0l-11,6.3a1.85,1.85,0,0,0-.92,1.84,1.66,1.66,0,0,0,.06.21,1.78,1.78,0,0,0,.86,1.15l11,6.3a5.41,5.41,0,0,0,5.34,0l11-6.31a1.77,1.77,0,0,0,.86-1.14,1.42,1.42,0,0,0,0-.22A1.82,1.82,0,0,0,522.4,256.71Z"/><path class="cls-5" d="M504.83,204.4a7.63,7.63,0,0,0,7.65,0l10.39-6.54v53.68a2.64,2.64,0,0,1-1.32,2.29l-9.66,5.58a6.48,6.48,0,0,1-6.46,0l-9.67-5.58a2.66,2.66,0,0,1-1.32-2.29V197.61Z"/><path class="cls-4" d="M495.35,195.78l10.7-6.14a5.26,5.26,0,0,1,5.21,0l10.7,6.14a1.77,1.77,0,0,1,.89,1.78,2.25,2.25,0,0,1-.05.22,1.74,1.74,0,0,1-.84,1.11L511.26,205a5.26,5.26,0,0,1-5.21,0l-10.7-6.14a1.69,1.69,0,0,1-.84-1.11,1.6,1.6,0,0,1-.05-.21A1.77,1.77,0,0,1,495.35,195.78Z"/><path class="cls-2" d="M547.82,271.24l-11-6.3a5.36,5.36,0,0,0-5.34,0l-11,6.3a1.82,1.82,0,0,0-.92,1.83c0,.07,0,.14.06.22a1.79,1.79,0,0,0,.86,1.14l11,6.3a5.38,5.38,0,0,0,5.35,0l11-6.3a1.86,1.86,0,0,0,.86-1.14,2.25,2.25,0,0,0,.05-.22A1.83,1.83,0,0,0,547.82,271.24Z"/><path class="cls-3" d="M530.25,197.69a7.61,7.61,0,0,0,7.64,0l10.4-6.55v74.92a2.65,2.65,0,0,1-1.32,2.29l-9.67,5.58a6.48,6.48,0,0,1-6.46,0l-9.66-5.58a2.63,2.63,0,0,1-1.32-2.29V190.9Z"/><path class="cls-4" d="M520.76,189.07l10.71-6.14a5.24,5.24,0,0,1,5.2,0l10.71,6.14a1.77,1.77,0,0,1,.89,1.78,1.6,1.6,0,0,1,0,.21,1.74,1.74,0,0,1-.84,1.11l-10.71,6.14a5.24,5.24,0,0,1-5.2,0l-10.71-6.14a1.75,1.75,0,0,1-.83-1.11,1.66,1.66,0,0,1-.06-.21A1.77,1.77,0,0,1,520.76,189.07Z"/><path class="cls-2" d="M573.24,285.76l-11-6.3a5.38,5.38,0,0,0-5.35,0l-11,6.3a1.84,1.84,0,0,0-.91,1.83,1.74,1.74,0,0,0,0,.22,1.86,1.86,0,0,0,.86,1.14l11,6.3a5.38,5.38,0,0,0,5.35,0l11-6.3a1.86,1.86,0,0,0,.86-1.14c0-.07,0-.15,0-.22A1.84,1.84,0,0,0,573.24,285.76Z"/><path class="cls-5" d="M555.67,191a7.66,7.66,0,0,0,7.64,0l10.39-6.55v96.16a2.63,2.63,0,0,1-1.32,2.28l-9.66,5.58a6.43,6.43,0,0,1-6.46,0l-9.66-5.58a2.63,2.63,0,0,1-1.32-2.28v-96.4Z"/><path class="cls-4" d="M546.18,182.35l10.71-6.13a5.24,5.24,0,0,1,5.2,0l10.71,6.13a1.78,1.78,0,0,1,.89,1.79,1.6,1.6,0,0,1-.05.21,1.77,1.77,0,0,1-.84,1.11l-10.71,6.13a5.19,5.19,0,0,1-5.2,0l-10.71-6.13a1.81,1.81,0,0,1-.84-1.11c0-.07,0-.14-.05-.22A1.79,1.79,0,0,1,546.18,182.35Z"/><path class="cls-2" d="M606.69,129.59,552.45,98.52a26.51,26.51,0,0,0-26.34,0l-54.24,31.07a9,9,0,0,0-4.5,9,10,10,0,0,0,.26,1.08,8.9,8.9,0,0,0,4.24,5.62l54.24,31.07a26.51,26.51,0,0,0,26.34,0l54.24-31.07a8.9,8.9,0,0,0,4.24-5.62,10.58,10.58,0,0,0,.26-1.08A9,9,0,0,0,606.69,129.59Z"/><path class="cls-3" d="M502.62,147.73a37.08,37.08,0,0,0,37.07,0L590.09,116v21.58a12.82,12.82,0,0,1-6.4,11.09L536.82,175.7a31.33,31.33,0,0,1-31.34,0l-46.87-27.06a12.82,12.82,0,0,1-6.4-11.09V114.79Z"/><path class="cls-4" d="M456.59,107.25l52-29.76a25.41,25.41,0,0,1,25.23,0l51.94,29.76A8.63,8.63,0,0,1,590,115.9a7.36,7.36,0,0,1-.25,1,8.5,8.5,0,0,1-4.06,5.39l-51.94,29.76a25.41,25.41,0,0,1-25.23,0l-52-29.76a8.53,8.53,0,0,1-4.06-5.39,8.76,8.76,0,0,1-.25-1A8.63,8.63,0,0,1,456.59,107.25Z"/><path class="cls-3" d="M447.4,182.14a20.65,20.65,0,0,0,20.68,0l28.12-17.71V170a7.16,7.16,0,0,1-3.57,6.19l-26.15,15.09a17.44,17.44,0,0,1-17.48,0l-26.16-15.09a7.16,7.16,0,0,1-3.57-6.19v-6.22Z"/><path class="cls-4" d="M421.72,159.56l29-16.6a14.15,14.15,0,0,1,14.08,0l29,16.6a4.82,4.82,0,0,1,2.4,4.82,3.77,3.77,0,0,1-.14.58,4.75,4.75,0,0,1-2.26,3l-29,16.6a14.15,14.15,0,0,1-14.08,0l-29-16.6a4.79,4.79,0,0,1-2.27-3,5.45,5.45,0,0,1-.14-.58A4.81,4.81,0,0,1,421.72,159.56Z"/><polygon class="cls-5" points="571.69 86.55 571.69 121.19 545.23 136.85 545.09 101.98 571.69 86.55"/><polygon class="cls-5" points="517.39 70.71 517.39 93.58 493.91 106.89 493.78 72.02 517.39 70.71"/><polygon class="cls-6" points="492.39 71.2 519 55.76 571.69 86.55 545.09 101.98 492.39 71.2"/><polygon class="cls-3" points="545.09 101.98 545.22 136.83 543.82 135.98 543.7 102.85 493.79 73.72 493.91 106.89 492.52 106.03 492.39 71.2 545.09 101.98"/><path class="cls-3" d="M546.06,81.26l3.32-10.94a1.27,1.27,0,0,0-.61-1.49l-15.22-8.35a1,1,0,0,0-1.38.56l-3,11.22a.86.86,0,0,0,.41,1L544.74,82A1,1,0,0,0,546.06,81.26Z"/><path class="cls-7" d="M545.57,81.58,549,70.18a.88.88,0,0,0-.41-1L533.1,60.65a.65.65,0,0,0-.93.39l-3.46,11.4a.86.86,0,0,0,.41,1L544.63,82A.66.66,0,0,0,545.57,81.58Z"/><polygon class="cls-5" points="544.07 80.41 547.2 70.08 533.67 62.66 530.54 72.98 544.07 80.41"/><path class="cls-3" d="M544.36,81.85l-15.47-8.09a1.63,1.63,0,0,0-1.64,0l-9.86,5.38a1.09,1.09,0,0,0,.09,1.77l15.19,8.44a1.65,1.65,0,0,0,1.64,0l10-5.73A1.24,1.24,0,0,0,544.36,81.85Z"/><path class="cls-8" d="M517.47,80.38l15.2,8.44a1.63,1.63,0,0,0,1.64,0l10-5.73a.82.82,0,0,0,0-1.43l-2.62-1.44L530.32,74l-1.43-.78a1.65,1.65,0,0,0-1.65,0L517.45,79A.83.83,0,0,0,517.47,80.38Z"/><path class="cls-3" d="M524.67,77.05,528,75.11a.78.78,0,0,1,.78,0l12,6.62a.39.39,0,0,1,0,.67l-3.36,1.94a.78.78,0,0,1-.78,0l-12-6.62A.39.39,0,0,1,524.67,77.05Z"/><path class="cls-2" d="M495.69,122.84c3.74-2.89,9.85-4.62,16.36-4.62q.68,0,1.35,0l.13-.1c2.48-1.92,6.55-3.07,10.87-3.07a20.86,20.86,0,0,1,7.78,1.41c2.72,1.12,4.48,2.78,4.7,4.44s-1,2.94-2.09,3.77a13.18,13.18,0,0,1-4,2c0,.1.05.2.06.3.33,2.42-1.53,4.42-3.15,5.68-3.74,2.89-9.86,4.61-16.37,4.61a31.19,31.19,0,0,1-11.7-2.12c-4.09-1.68-6.74-4.18-7.08-6.68S494.07,124.09,495.69,122.84Z"/><path class="cls-9" d="M523.29,99.17,518,98v.31c-1.32,4.3-2.11,18.72-2.24,19.57-.07.37-.48,1.8-.54,2.15,0,.06,0,.11,0,.17s0,.17,0,.24,0,.31,0,.4a1.45,1.45,0,0,0,1.51,1.52,2.18,2.18,0,0,0,1.39-.64,13.59,13.59,0,0,1,2.21-1.73c.29-.18.56-.37.76-.52a4.17,4.17,0,0,0,.74-.69,2.54,2.54,0,0,0,.66-1.48c0-.06,0-.13,0-.2a1.14,1.14,0,0,0-.47-.59,1,1,0,0,0-.58-.18H521l-.49,0a4.11,4.11,0,0,0-1.65.63L523,101.44a12.64,12.64,0,0,0,.37-1.75,4.43,4.43,0,0,0,.06-.51Z"/><path class="cls-10" d="M522.42,117.28a3,3,0,0,1-1.4,2.17c-.2.15-.47.34-.76.52a14.16,14.16,0,0,0-2.21,1.73,2.18,2.18,0,0,1-1.39.64c-.86,0-1.61-.23-1.51-1.52,0-.09,0-.25,0-.4l0-.21c0-.1,0-.15,0-.2.1.43.58.55,1,.53a2.15,2.15,0,0,0,1.44-.52c.69-.65,5.59-3.45,2.56-3.63l.36-.06c1.46-.17,1.68.31,1.83.75C522.39,117.15,522.41,117.22,522.42,117.28Z"/><path class="cls-9" d="M532.39,120.59l-2.76,0a2.65,2.65,0,0,1-2-.72,1,1,0,0,1-.31-.9c0-.22.06-.47.1-.75,0,0,1.46-10.3,2.09-18.91l-6.15-1.95h-.09l.07.52.06.4c-.17,2.42.37,14.86.54,21.28a12.12,12.12,0,0,1-.31,2.93,3.59,3.59,0,0,0,.52,2.24c.78,1,2.31.46,3.49.1l3.49-1a3.13,3.13,0,0,0,2.21-2.2A1,1,0,0,0,532.39,120.59Z"/><path class="cls-10" d="M532.39,120.59l-1.77,0c.72.13,1,.75.35,1.3s-7.2,2.16-7.36.66c0,.3,0,.53,0,.65a2.7,2.7,0,0,0,.52,1.55c.78,1,2.31.45,3.49.1l3.49-1a3.15,3.15,0,0,0,2.21-2.2A1,1,0,0,0,532.39,120.59Z"/><path class="cls-10" d="M518.42,133.08a1.07,1.07,0,1,0,1.07-1.07A1.07,1.07,0,0,0,518.42,133.08Z"/><path class="cls-10" d="M498.82,133.08a1.07,1.07,0,1,0,1.07-1.07A1.07,1.07,0,0,0,498.82,133.08Z"/><path class="cls-10" d="M518.41,121.86a1.07,1.07,0,1,0,1.07-1.07A1.07,1.07,0,0,0,518.41,121.86Z"/><path class="cls-10" d="M498.82,121.86a1.07,1.07,0,1,0,1.07-1.07A1.07,1.07,0,0,0,498.82,121.86Z"/><path class="cls-10" d="M499.05,120.71l6.19,3.58v1.29L499.05,122a2.22,2.22,0,0,1-1-2.58A2.16,2.16,0,0,0,499.05,120.71Z"/><path class="cls-10" d="M520.33,120.71a2.2,2.2,0,0,0,1-1.28,2.23,2.23,0,0,1-1,2.58l-6.19,3.57v-1.29Z"/><path class="cls-10" d="M498.23,130.9a2.24,2.24,0,0,0,3,.82l8.42-4.86,8.41,4.86a2.24,2.24,0,0,0,3-.82,2.07,2.07,0,0,0,.2-.46,2.22,2.22,0,0,1-2.13,2.87,2.16,2.16,0,0,1-1.11-.3l-8.41-4.86L501.27,133a2.13,2.13,0,0,1-1.11.3,2.22,2.22,0,0,1-2.13-2.87A2.07,2.07,0,0,0,498.23,130.9Z"/><path class="cls-11" d="M519.21,132a2.25,2.25,0,0,1-1.11-.29l-8.41-4.86-8.42,4.86a2.24,2.24,0,0,1-3-.82,2.07,2.07,0,0,1-.2-.46,2.2,2.2,0,0,1,1-1.28l6.2-3.58v-1.29l-6.19-3.58a2.16,2.16,0,0,1-1-1.28,2,2,0,0,1,.19-.46,2.24,2.24,0,0,1,3-.82l8.42,4.86,8.41-4.86a2.23,2.23,0,0,1,3,.82,2.07,2.07,0,0,1,.2.46,2.2,2.2,0,0,1-1,1.28l-6.19,3.58v1.29l6.19,3.58a2.2,2.2,0,0,1,1,1.28,2.07,2.07,0,0,1-.2.46A2.23,2.23,0,0,1,519.21,132Z"/><path class="cls-10" d="M507.87,120.13a1,1,0,0,0,.68.69,3,3,0,0,0,1.1.2,2.66,2.66,0,0,0,1.55-.44.78.78,0,0,0,.3-.47v4.5a.64.64,0,0,1-.3.54,2.66,2.66,0,0,1-1.55.43,3,3,0,0,1-1.1-.2c-.39-.16-.64-.39-.67-.63a.33.33,0,0,1,0-.14S507.86,120.09,507.87,120.13Z"/><path class="cls-12" d="M508.55,120.82a3,3,0,0,0,1.1.2,2.66,2.66,0,0,0,1.55-.44.63.63,0,0,0,.29-.54c0-.23-.28-.47-.66-.63a3,3,0,0,0-1.11-.2,2.63,2.63,0,0,0-1.54.44.62.62,0,0,0-.3.54C507.91,120.42,508.16,120.66,508.55,120.82Z"/><path class="cls-10" d="M510.77,119.9a.37.37,0,0,1-.18.32,1.59,1.59,0,0,1-.92.26,1.78,1.78,0,0,1-.67-.12.58.58,0,0,1-.4-.38V109h2.17Z"/><path class="cls-12" d="M492.68,106.84v-1.52l.7,0a3,3,0,0,1,.62-.49l10.94-6.31a5.3,5.3,0,0,1,5.28,0l15.17,8.7a2.67,2.67,0,0,1,.88.82l.44-.1v1.57a2.64,2.64,0,0,1-1.32,2.3l-10.94,6.31a5.27,5.27,0,0,1-5.28,0L494,109.38A2.62,2.62,0,0,1,492.68,106.84Z"/><path class="cls-11" d="M494,103.09l10.94-6.32a5.32,5.32,0,0,1,5.28,0l15.17,8.7a2.65,2.65,0,0,1,0,4.59l-10.94,6.32a5.32,5.32,0,0,1-5.28,0L494,107.68A2.65,2.65,0,0,1,494,103.09Z"/><path class="cls-13" d="M529.32,98.08c-.65-2-6.68-5.37-6.68-5.37a3.37,3.37,0,0,0-3.22-.07l-7.67,3.9a3.15,3.15,0,0,1-.76.32c-3.29-5.13-8.32-3.43-11-2a3.34,3.34,0,0,0-1.75,2.86,24.84,24.84,0,0,1-.35,3.51,12,12,0,0,0,0,5.55c1.2,3.38,6.81,5.44,8.7,5.72a17.5,17.5,0,0,0,13.79-4.06c2.7-2.3,5.92-5,7.87-6.67A3.42,3.42,0,0,0,529.32,98.08Z"/><path class="cls-14" d="M497,88.72c.67,7.63.91,10.8,1.25,11.15,3.81,4,10,4.44,13.22,2a2.2,2.2,0,0,0,1-2.27c-.26-1-.62-2.47-.89-3.79a2.23,2.23,0,0,1,0-.23,9.16,9.16,0,0,1,.15-4.1l.06-.24a3.58,3.58,0,0,0,1.8-3.09,3.46,3.46,0,0,0-.25-1.3L515,81.5l0-.12a5.33,5.33,0,0,0-1.38-3,12.94,12.94,0,0,0-2.95-2.25l-.15-.08-.74-.44-.26-.16-.6-.34-.66-.38-2-1.16-.48-.27-.27-.15a2,2,0,0,0-.64.17,4.86,4.86,0,0,1-1.37.51,5.9,5.9,0,0,0-1.53-.41,4.67,4.67,0,0,0-3.67,1,5.73,5.73,0,0,0-1.64,4.13A50.73,50.73,0,0,0,497,88.72Z"/><path class="cls-15" d="M509.53,88.72a20.36,20.36,0,0,0,2,6.87,9.16,9.16,0,0,1,.15-4.1l.06-.24a3.58,3.58,0,0,0,1.8-3.09,3.46,3.46,0,0,0-.25-1.3l.45-1.42L510,82.89A13.89,13.89,0,0,0,509.53,88.72Z"/><path class="cls-9" d="M512.23,70.75c-.91,3.81-3.47,4.09-5.83,2.84a8.65,8.65,0,0,1-4.23-6.88c-.12-3.51,2.16-5.71,5.07-5.81C513.86,60.68,512.55,69.43,512.23,70.75Z"/><path class="cls-9" d="M503.54,67.76V75.4c0,.36.33.71.93.92a4.19,4.19,0,0,0,3.3-.21.89.89,0,0,0,.46-.71l0-7.64Z"/><path class="cls-16" d="M501.65,70.05c.7,3,3.81,3.21,5.46,2.66,2.64-.87,3.89-4.29,4-6.44.11-3.28-2-5.35-4.75-5.44C500.12,60.62,501.35,68.81,501.65,70.05Z"/><path class="cls-9" d="M522.43,87.57c1.77-.54,3.76-1.21,4.83-1.58l.81-.28c1.39-.17,3.35-4.07,4-2.83a1.42,1.42,0,0,1,1.22,2.2A6.15,6.15,0,0,1,531,86.92a5.36,5.36,0,0,1-1.76.64l-.27.07a46,46,0,0,1-5.44,3.64Z"/><path class="cls-14" d="M514.24,79.2s6.11,7.09,6.66,8.13a35.41,35.41,0,0,0,4.34-.81,3,3,0,0,1,1.82,3.14s-4.95,3.59-7,3.13c-1.07-.23-10.07-7.68-10.46-9.42l.56-5.47C511.2,78.21,514.24,79.2,514.24,79.2Z"/><path class="cls-9" d="M510.49,69.42c.54.72.6,1.59.13,1.94s-1.29,0-1.83-.67-.6-1.59-.13-1.94S510,68.7,510.49,69.42Z"/><path class="cls-16" d="M512.41,62.74c-1.08-1.52-5-2-6.09-1.91-.19,0,1.34.65,1.19.76a3.58,3.58,0,0,0-.55,5,3.88,3.88,0,0,0,3.15,1.69,3.57,3.57,0,0,1-.86,4,3.25,3.25,0,0,0,.81-.41A3.58,3.58,0,0,0,511.33,68a2.86,2.86,0,0,0,.54-.3A3.57,3.57,0,0,0,512.41,62.74Z"/><path class="cls-16" d="M500.3,64.28a3.51,3.51,0,0,0,3.07,1.62,3.2,3.2,0,0,0,1.79-.64,3.84,3.84,0,0,0,.74-5.16,3.43,3.43,0,0,0-4.34-1.3,2.8,2.8,0,0,0-.52.32A3.82,3.82,0,0,0,500.3,64.28Z"/><path class="cls-10" d="M502.74,115.22a.38.38,0,0,1-.18.32,1.59,1.59,0,0,1-.92.26,1.81,1.81,0,0,1-.67-.12c-.23-.1-.38-.24-.4-.38v-11h2.17Z"/><path class="cls-12" d="M490.22,90.61l1.3-.7a1.66,1.66,0,0,1,1.56,0l14.93,8a6.13,6.13,0,0,1,2.6,4.06L513,112.29a2.08,2.08,0,0,1-1,2.24l-1.32.68.1-1.35a1.07,1.07,0,0,1-.19-.07l-15.52-8.5a6.13,6.13,0,0,1-2.6-4.06l-2.07-9.08a5.59,5.59,0,0,1-.09-.88Z"/><path class="cls-17" d="M489.55,93.44l2.06,9.09a6.13,6.13,0,0,0,2.6,4.06l15.52,8.5c1.28.71,2.33-.88,1.9-2.86l-2.07-9.09a6.18,6.18,0,0,0-2.6-4.07l-15.52-8.49C490.16,89.87,489.11,91.46,489.55,93.44Z"/><path class="cls-2" d="M474.1,240.6,335.37,161.11a67.84,67.84,0,0,0-67.39,0L129.24,240.6a23.05,23.05,0,0,0-11.52,23.09,24.28,24.28,0,0,0,.67,2.77,22.77,22.77,0,0,0,10.85,14.38L268,360.33a67.86,67.86,0,0,0,67.4,0L474.1,280.84A22.74,22.74,0,0,0,485,266.45a22.33,22.33,0,0,0,.67-2.77A23,23,0,0,0,474.1,240.6Z"/><path class="cls-3" d="M324.86,314.44a101.48,101.48,0,0,1-101.51,0l-138-86.95v25a35.05,35.05,0,0,0,17.52,30.36L231.2,356.92a85.85,85.85,0,0,0,85.81,0l128.35-74.11a35,35,0,0,0,17.53-30.35V224.24Z"/><path class="cls-4" d="M450.89,203.6,308.65,122.12a69.54,69.54,0,0,0-69.09,0L97.32,203.61A22.28,22.28,0,0,0,86.2,230.12a23.32,23.32,0,0,0,11.12,14.75l142.24,81.49a69.59,69.59,0,0,0,69.09,0l142.24-81.5A23.32,23.32,0,0,0,462,230.11a25,25,0,0,0,.69-2.84A23.64,23.64,0,0,0,450.89,203.6Z"/><path class="cls-3" d="M137.43,334.3a22.29,22.29,0,0,0,22.34,0l30.38-19.13v6a7.72,7.72,0,0,1-3.86,6.68L158,344.16a18.89,18.89,0,0,1-18.88,0l-28.25-16.31a7.72,7.72,0,0,1-3.86-6.68v-6.72Z"/><path class="cls-4" d="M109.69,309.91,141,292a15.29,15.29,0,0,1,15.21,0l31.3,17.93a5.2,5.2,0,0,1,2.6,5.21,3.6,3.6,0,0,1-.15.63A5.13,5.13,0,0,1,187.5,319l-31.3,17.94a15.34,15.34,0,0,1-15.21,0L109.69,319a5.15,5.15,0,0,1-2.45-3.25,6.23,6.23,0,0,1-.15-.62A5.21,5.21,0,0,1,109.69,309.91Z"/><path class="cls-3" d="M95.88,384.25a22.34,22.34,0,0,0,22.34,0l30.38-19.14v6a7.71,7.71,0,0,1-3.86,6.68L116.49,394.1a18.84,18.84,0,0,1-18.88,0L69.36,377.79a7.69,7.69,0,0,1-3.86-6.68V364.4Z"/><path class="cls-4" d="M68.14,359.86l31.31-17.94a15.32,15.32,0,0,1,15.2,0L146,359.86a5.18,5.18,0,0,1,2.59,5.21,3.5,3.5,0,0,1-.15.62,5.1,5.1,0,0,1-2.44,3.25l-31.31,17.93a15.27,15.27,0,0,1-15.2,0L68.14,368.94a5.18,5.18,0,0,1-2.45-3.25c0-.21-.12-.41-.15-.62A5.2,5.2,0,0,1,68.14,359.86Z"/><path class="cls-3" d="M421.49,328.27a22.34,22.34,0,0,1-22.34,0l-30.38-19.14v6a7.73,7.73,0,0,0,3.85,6.68l28.25,16.31a18.91,18.91,0,0,0,18.89,0L448,321.81a7.74,7.74,0,0,0,3.86-6.68v-6.72Z"/><path class="cls-4" d="M449.22,303.87l-31.3-17.93a15.29,15.29,0,0,0-15.21,0l-31.3,17.93a5.22,5.22,0,0,0-2.6,5.21c0,.21.1.42.15.63a5.13,5.13,0,0,0,2.45,3.24l31.3,17.94a15.34,15.34,0,0,0,15.21,0L449.22,313a5.13,5.13,0,0,0,2.45-3.24,4.8,4.8,0,0,0,.15-.63A5.2,5.2,0,0,0,449.22,303.87Z"/><path class="cls-3" d="M463,378.21a22.36,22.36,0,0,1-22.35,0l-30.37-19.14v6a7.71,7.71,0,0,0,3.85,6.68l28.25,16.31a18.86,18.86,0,0,0,18.89,0l28.25-16.31a7.71,7.71,0,0,0,3.85-6.68v-6.71Z"/><path class="cls-4" d="M490.77,353.82l-31.3-17.94a15.34,15.34,0,0,0-15.21,0L413,353.82a5.19,5.19,0,0,0-2.6,5.21c0,.21.1.41.15.62A5.12,5.12,0,0,0,413,362.9l31.3,17.93a15.29,15.29,0,0,0,15.21,0l31.3-17.93a5.15,5.15,0,0,0,2.45-3.25c0-.21.12-.41.15-.62A5.18,5.18,0,0,0,490.77,353.82Z"/><path class="cls-3" d="M371.12,179.15l-.06-.07c.25-1-.41-2.12-1.95-3l-9.42-5.42a5.17,5.17,0,0,1-2.59-4.48v-4.52l-17.49-10.16v3.13a2.58,2.58,0,0,1-3.88,2.24l-4.16-2.39c-2.4-1.38-6-1.64-8-.57l-11,5.74a2.11,2.11,0,0,0-1.32,1.89s0,2.61,0,2.61c0,.88.72,1.82,2.05,2.59l37.47,21.6c2.4,1.39,6,1.64,8,.57l11-5.74C371.49,182.1,371.12,180.67,371.12,179.15Z"/><polygon class="cls-5" points="357.1 159.46 357.1 144.34 339.61 135.83 339.61 151.49 357.1 161.65 357.1 159.46"/><path class="cls-18" d="M357.11,159.52V144.41L354.2,143v21.42a5.17,5.17,0,0,0,2.59,4.49l2,1.17a5.14,5.14,0,0,1-1.72-3.83v-6.72Z"/><path class="cls-5" d="M371.06,179A1.82,1.82,0,0,0,371,178a2.71,2.71,0,0,1-1.2,1.33l-11,5.75c-2,1.06-5.63.81-8-.57l-37.47-21.61a4.11,4.11,0,0,1-1.93-2,1.52,1.52,0,0,0-.1.6s0,2.61,0,2.61c0,.87.72,1.82,2.05,2.58l37.47,21.61c2.4,1.38,6,1.64,8,.57l11-5.74c1.74-1.07,1.37-2.5,1.37-4Z"/><path class="cls-10" d="M294.83,48.45l2.35,64.45a12.46,12.46,0,0,0,6.19,10.76l91.72,56.4c4.14,2.41,12.25-.17,12.25-6.82V107.15a12.41,12.41,0,0,0-6.21-10.76L306.51,41.66C301.07,39,294.83,43.66,294.83,48.45Z"/><path class="cls-17" d="M294.27,106.65v7.69a12.42,12.42,0,0,0,6.19,10.76l94.63,55a6.22,6.22,0,0,0,9.34-5.37v-4.05Z"/><path class="cls-19" d="M404.43,108.59a12.43,12.43,0,0,0-6.21-10.76L303.6,43.1a6.21,6.21,0,0,0-9.33,5.38v58.17l110.16,64Z"/><polygon class="cls-5" points="301.16 49.1 301.16 104.14 397.54 160.12 397.54 104.85 301.16 49.1"/><polygon class="cls-19" points="390.35 128.38 390.35 150.88 373.75 141.24 373.75 118.78 390.35 128.38"/><polygon class="cls-19" points="323.26 69.43 345.89 82.52 345.89 104.97 323.26 91.83 323.26 69.43"/><polygon class="cls-15" points="349.35 83.93 390.35 107.6 390.35 109.14 349.35 85.41 349.35 83.93"/><polygon class="cls-19" points="349.35 89.39 390.35 113.06 390.35 114.6 349.35 90.87 349.35 89.39"/><polygon class="cls-17" points="349.35 94.84 390.35 118.52 390.35 120.06 349.35 96.33 349.35 94.84"/><polygon class="cls-19" points="307.34 60.57 307.34 62.09 319.57 69.16 319.57 67.62 307.34 60.57"/><polygon class="cls-15" points="307.34 71.79 307.34 73.31 319.57 80.38 319.57 78.84 307.34 71.79"/><path class="cls-2" d="M289.6,182.24c0,4.95,8.07,9,18,9s18-4,18-9-8.06-9-18-9S289.6,177.29,289.6,182.24Z"/><path class="cls-9" d="M336.74,92.3l-.17-.32c.19-.54,1.72-1.93,1.47-2.23-.71-.91-3.77,2.57-3.77,2.57s.33-.94.46-1.24a.73.73,0,0,0-.16-.86c-.37-.26-.79.2-.86.45l-1.14,2a3.21,3.21,0,0,0-.32.88l-.11.61a23,23,0,0,1-.87,2.36l.72,2.76a23.38,23.38,0,0,1,2.38-3,12.09,12.09,0,0,0,1.42-1.25,5.31,5.31,0,0,0,1.11-1.63A1.59,1.59,0,0,0,336.74,92.3Z"/><path class="cls-17" d="M307,175.88a3,3,0,0,1-1.42,2.19c-.2.15-.47.33-.75.51a20,20,0,0,0-2.58,2.09,2.14,2.14,0,0,1-1.4.65c-.86,0-1.62-.23-1.51-1.53,0-.09,0-.25,0-.41l0-.21c0-.09.07-2.5.08-2.55.1.43.71-1.27,1.08-1.29.57,0,.49,1.33.87,1,.69-.65,1.43-.35,3.32-1.32l.36-.06c1.47-.17,1.7.31,1.84.76A1.94,1.94,0,0,1,307,175.88Z"/><path class="cls-17" d="M318.05,181.83s-1.33-.13-1.78-.14c-1,0-3.33-.7-4-.2s-2.62,1-2.65-.49l-1,.34c0,.32-.11,2.2-.12,2.32a2.69,2.69,0,0,0,.38,1.59c.68,1.08,2.81.45,4,.21l3.63-.49a3.18,3.18,0,0,0,2.43-2A1,1,0,0,0,318.05,181.83Z"/><path class="cls-10" d="M298.78,129.68l-.43,1.57a8,8,0,0,0-.21,1.19,32.66,32.66,0,0,0-.07,5.68l.31,4.13.94,34c-.1,1.36,4.46,1.5,4.45-.14l.91-35.23,1.29.5,2.45,39.79c0,1.4,4.56,1.53,4.6-.16,0,0,1.35-40.43,1.51-46.77.11-4.47-8-3.27-8-3.46l4.21-3.29Z"/><path class="cls-15" d="M310.13,122.88s-14.9,2.66-17-.61c-.94-1.47,4.58-16.44,4.58-16.44l1.32-1.64,3.73,1.07c.5.14,1.22-.61,1.22-.61-.61,2-3.82,11.76-4.58,14-.12.35,10.88,1.11,10.88,1.11C309.47,120,309.34,122.54,310.13,122.88Z"/><path class="cls-14" d="M298.71,123.1l-.44,7.59c.2,3.85,15.69,4.56,16.93,2,.24-.51,0-6.4-.19-10.28a24.56,24.56,0,0,1,.62-6.72c0-.1.05-.21.08-.32a5.08,5.08,0,0,1,2.61-3.36c1.91-1,5.9-2.65,7.16-3.24a5,5,0,0,0,2-1.6l6.3-8.3c.69-.83-2.35-3.45-3.17-2.81l-7.3,7.72-4.24,1.4a5.68,5.68,0,0,1-2.89.21,17,17,0,0,0-3.88-.15,8.42,8.42,0,0,1-1.86-.78c-.51-.27-.86-.48-.86-.48l-.08,0-2.59-1.39-.21-.1c-.1-.06-.53.14-1,.34a4.81,4.81,0,0,1-1,.43,6.35,6.35,0,0,0-1.76-.39c-.23,0-.47,0-.69,0a4.82,4.82,0,0,0-4.84,5.12l1.28,13.26A13.26,13.26,0,0,1,298.71,123.1Z"/><path class="cls-9" d="M303.55,104.69c0,1.22,2,2.21,4.44,2.21,2.06,0,3.81-.71,4.29-1.67a8.93,8.93,0,0,1-1.86-.78c-.51-.27-.86-.48-.86-.48l-.08,0-2.59-1.39a7.54,7.54,0,0,0-1.17.24,5.24,5.24,0,0,0-1,.43A1.81,1.81,0,0,0,303.55,104.69Z"/><path class="cls-9" d="M313,99.23c-.74,3.67-3.19,4-5.48,2.92a8.33,8.33,0,0,1-4.28-6.44c-.23-3.34,1.88-5.53,4.66-5.72C314.22,89.55,313.26,98,313,99.23Z"/><path class="cls-9" d="M304.8,97.5l.26,7.3c0,.34.33.66.92.85a4,4,0,0,0,3.14-.33.83.83,0,0,0,.43-.68l-.25-7.3Z"/><path class="cls-10" d="M307.71,94.65a3.8,3.8,0,0,0,3.13,1.55c.37,0,.72-.92,1.19-1.45.3-.34.76-.32,1-.49a3.1,3.1,0,0,0-.89-4.42,7.13,7.13,0,0,0-4.87-.82c-.18,0,1,.6.84.72A3.49,3.49,0,0,0,307.71,94.65Z"/><path class="cls-10" d="M307,100.14l.54-2.17a3.46,3.46,0,0,1,.83-1.54,3.51,3.51,0,0,1,1.51-1l2.18-.71a8.12,8.12,0,0,1-2.61,5.15,5.19,5.19,0,0,1-2.54,1.57l0-.35A3.6,3.6,0,0,1,307,100.14Z"/><path class="cls-10" d="M307.22,89c2.66-.24,4.83,1.94,4.83,5.16,0,.19,0,.38,0,.57l-2.18.71a3.51,3.51,0,0,0-1.51,1,3.46,3.46,0,0,0-.83,1.54l-.54,2.17a3.6,3.6,0,0,0-.11,1l0,.35c-1.63.37-3.5-.84-4.13-3.12C302.42,97.15,299.51,89.72,307.22,89Z"/><path class="cls-9" d="M311.19,98.47c.61.75.71,1.68.22,2.08s-1.38.1-2-.65-.71-1.69-.22-2.08S310.58,97.71,311.19,98.47Z"/><path class="cls-20" d="M356.26,161.59l-1,16.68a11.23,11.23,0,0,1-.46,2.7l-3.95,15.17a4,4,0,0,1,1.6-.62l.49,0h.28a1.1,1.1,0,0,1,1,.75,1.94,1.94,0,0,1,.05.2,2.89,2.89,0,0,1-1.38,2.12,7.56,7.56,0,0,1-.73.5,13.66,13.66,0,0,0-2.17,1.7,2.06,2.06,0,0,1-1.35.62,1.4,1.4,0,0,1-1.48-1.49c0-.08,0-.23,0-.39s0-.13,0-.2,0-.13,0-.19c.05-.35.11-.74.17-1.1a20.83,20.83,0,0,0,.25-2.48c.18-3.59.76-12.64,2.3-17.66l-2.14-18.11Z"/><path class="cls-21" d="M361.94,202.14l-2.69-.22a2.6,2.6,0,0,1-1.89-.86,1,1,0,0,1-.22-.91c1.48-6.47,8.91-40.9,5.21-48.72-4.14-8.73-13.13-1.79-13.13-1.79s-2.7,6.4-1.37,10.13c1.2,3.35,6.42,4.75,6.42,4.75l.92,15.13c-.89,5.42-1.69,22-2,23.62a3.57,3.57,0,0,0,.32,2.19c.68,1,2.21.65,3.39.41l3.49-.68a3.06,3.06,0,0,0,2.35-1.94A1,1,0,0,0,361.94,202.14Z"/><path class="cls-22" d="M354.24,196.25a1.94,1.94,0,0,1,.05.2,2.49,2.49,0,0,1-.66,1.46c.05-.71.1-1.45.16-2.23A1.06,1.06,0,0,1,354.24,196.25Z"/><path class="cls-10" d="M354.29,196.45a2.89,2.89,0,0,1-1.38,2.12,7.56,7.56,0,0,1-.73.5,13.66,13.66,0,0,0-2.17,1.7,2.06,2.06,0,0,1-1.35.62c-.84.05-1.58-.22-1.48-1.49,0-.08,0-.23,0-.39s0-.13,0-.2,0-.14,0-.19c.1.42.57.53.93.51a2.15,2.15,0,0,0,1.41-.5c.67-.64,5.46-3.37,2.5-3.55l.34-.06c1.43-.17,1.65.3,1.79.73A1.94,1.94,0,0,1,354.29,196.45Z"/><path class="cls-14" d="M347.85,159.77a10.37,10.37,0,0,1-.09-5.12,27,27,0,0,1,1.46-5s8.65-6.77,13.13,1.79a10.4,10.4,0,0,1,.93,3.21c1.94,12.65-5.95,45.38-5.95,45.38a1.17,1.17,0,0,1-.79.49.59.59,0,0,1-.22.05,3.54,3.54,0,0,1-3-.67s1.33-17,1.86-20.24l0-.41a13,13,0,0,1-.37,1.73l-3.6,14.12a2,2,0,0,1-1,.51l-.23.05a2.36,2.36,0,0,1-2.31-.54s-.13-12.47,2.37-17.23Z"/><polygon class="cls-15" points="354.87 173.57 354.17 161.32 351.44 160.12 354.87 173.57"/><path class="cls-10" d="M361.94,202.14l-1.72-.14c.68.19.91.82.22,1.3s-7.2,1.45-7.23,0c0,.29,0,.53,0,.64a2.63,2.63,0,0,0,.37,1.55c.67,1,2.21.65,3.39.41l3.49-.68a3.06,3.06,0,0,0,2.35-1.94A1,1,0,0,0,361.94,202.14Z"/><path class="cls-10" d="M360.12,144.82s-13.64,2.76-15.63-.2c-.89-1.33,4-15.88,4-15.88l1-.86,3.46.9c.46.12,1.1-.59,1.1-.59-.52,1.85-3.26,10.89-3.91,13-.1.33,10,.79,10,.79C359.44,142.22,359.38,144.52,360.12,144.82Z"/><path class="cls-23" d="M354.27,128.3a4.33,4.33,0,0,0,2.79,1.41,5.65,5.65,0,0,0,1.37-.18c.83-.23,2.25-.69,3-.93l-.72-.44-.86-.49-3.11-1.8-1.95.68A1.1,1.1,0,0,0,354.27,128.3Z"/><path class="cls-21" d="M362.87,122.52c-.91,3.78-3.45,4-5.78,2.82a8.59,8.59,0,0,1-4.19-6.82c-.12-3.47,2.14-5.66,5-5.76C364.48,112.54,363.18,121.21,362.87,122.52Z"/><path class="cls-23" d="M354.44,120.43V128c0,.36.33.7.92.91a4.16,4.16,0,0,0,3.27-.21.87.87,0,0,0,.46-.7l0-7.56Z"/><path class="cls-23" d="M375.13,142.13l1.46,2.37c.85-.59,1.38-1,1.38-1a10.54,10.54,0,0,0,2.09-.73,2,2,0,0,0,.56-3l-.15-.16,1.26-1.13c.27-.24.39-.5.28-.7-.22-.38-.61-.21-.94,0l-2.51,1.68a2.78,2.78,0,0,0-.65.63l-.35.48a3.65,3.65,0,0,1-1.54,1.18Z"/><path class="cls-10" d="M348.8,140.55l-.48-4-.65-5.47c0-3.85,2.61-5.41,5.26-5.06a5.47,5.47,0,0,1,1.51.41c.21.08,1.79-.79,2-.69l.26.15,2.46,1.42.65.38.86.49.72.44.15.09a13,13,0,0,1,2.93,2.22,5.35,5.35,0,0,1,1.36,3s1.15,9.65,1.36,10.75c.09.45,9.15-3,9.15-3a2.64,2.64,0,0,1,1.17,2.21s-10.2,7.46-13.57,5a4.94,4.94,0,0,1-1-2c-.14,3,.53,5.35.42,5.84-3.64,2.72-14.18,2.05-15.38-.88-.16-.4.72-3.18,1-4.37C349.53,145.14,349.08,142.86,348.8,140.55Z"/><path class="cls-16" d="M363,113.94c-1.71-2.33-8.3-3.78-12.83-.27a4.37,4.37,0,0,1-.69.53,6.55,6.55,0,0,0-2.81,3.14,7.68,7.68,0,0,0-.64,3.8,2.06,2.06,0,0,1-.52,1.57,5,5,0,0,0-.82,1.28,4.75,4.75,0,0,0,.78,5.44,3,3,0,0,0,.51.37,2.88,2.88,0,0,0,.69.26,4.32,4.32,0,0,0,1.21,3.94,3,3,0,0,0,.51.37c1.45.79,3.22.17,4.36-1.35l.16.1c2.37,1.3,5.42-.15,6.81-3.23a7.14,7.14,0,0,0,.1-5.86,6.15,6.15,0,0,0-.44-.75,9,9,0,0,0,1.9-2.83,2.26,2.26,0,0,1,.91-1.07,1.58,1.58,0,0,0,.24-.15A3.75,3.75,0,0,0,363,113.94Z"/><path class="cls-21" d="M361,121.66c.6.8.67,1.77.15,2.16s-1.43.06-2-.74-.67-1.77-.15-2.16S360.42,120.86,361,121.66Z"/><polygon class="cls-24" points="181.42 194.87 213.42 213.42 175.16 235.1 175.03 198.46 181.42 194.87"/><polygon class="cls-5" points="333.54 223.91 333.54 260.33 276.79 293.49 276.65 256.85 333.54 223.91"/><polygon class="cls-6" points="173.66 197.65 230.55 164.71 333.54 223.91 276.65 256.85 173.66 197.65"/><polygon class="cls-3" points="276.65 256.85 276.78 293.47 275.4 292.63 275.28 257.7 175.04 200.14 175.16 235.1 173.79 234.26 173.66 197.65 276.65 256.85"/><path class="cls-25" d="M280.16,235.35,282,222.71a2,2,0,0,0-.88-2.09l-15.5-8.82a1.1,1.1,0,0,0-1.12.06l-.08,0-.38.26a1.68,1.68,0,0,0-1,1.25L261.24,226a2,2,0,0,0,.87,2.07L277.6,237a1.13,1.13,0,0,0,1.12-.05s.67-.41.67-.41A1.72,1.72,0,0,0,280.16,235.35Z"/><path class="cls-5" d="M281.81,222.73a1.8,1.8,0,0,0-.8-1.92L265.51,212a.83.83,0,0,0-.47-.1,1.33,1.33,0,0,0-.45.15,1,1,0,0,1,.46.12l15.5,8.82a1.74,1.74,0,0,1,.87,2.09l-1.86,12.65a1.56,1.56,0,0,1-.22.59,1.43,1.43,0,0,0,.62-.94Z"/><polygon class="cls-5" points="262.71 225.72 264.36 214.5 279.92 223.4 278.27 234.64 262.71 225.72"/><path class="cls-19" d="M278.6,237.46a1.16,1.16,0,0,0-.58-1.05l-3.57-2.07-10-5.78-2.94-1.7a2.34,2.34,0,0,0-2.32,0l-10.05,5.8a1.18,1.18,0,0,0-.58,1.09v.65a1.15,1.15,0,0,0,.58.95l16.53,9.54a2.29,2.29,0,0,0,2.32,0l10-5.8a1.15,1.15,0,0,0,.57-.91,1,1,0,0,0,0-.14Z"/><path class="cls-5" d="M278,238.42l-10,5.8a2.34,2.34,0,0,1-2.32,0l-16.53-9.54a1.12,1.12,0,0,1-.38-.37,1,1,0,0,0,.48.87l16.53,9.54a2.09,2.09,0,0,0,1.06.29,2.15,2.15,0,0,0,1.07-.29l10-5.79a1,1,0,0,0,.48-.77C278.31,238.2,278.18,238.33,278,238.42Z"/><path class="cls-3" d="M257,230.8l3.78-2.19a.92.92,0,0,1,.88,0l13.54,7.82a.43.43,0,0,1,0,.75l-3.78,2.19a.92.92,0,0,1-.88,0L257,231.56A.43.43,0,0,1,257,230.8Z"/><path class="cls-25" d="M219.9,198.78l1.86-12.64a2,2,0,0,0-.87-2.09l-15.5-8.83a1.13,1.13,0,0,0-1.12.07l-.08,0-.39.25a1.68,1.68,0,0,0-1,1.26L201,189.45a2,2,0,0,0,.87,2.07l15.5,8.87a1.11,1.11,0,0,0,1.11-.06s.68-.41.68-.41A1.65,1.65,0,0,0,219.9,198.78Z"/><path class="cls-5" d="M221.56,186.15a1.79,1.79,0,0,0-.8-1.91l-15.5-8.82a.76.76,0,0,0-.47-.1,1,1,0,0,0-.45.15.89.89,0,0,1,.45.12l15.5,8.82a1.74,1.74,0,0,1,.88,2.09l-1.86,12.64a1.42,1.42,0,0,1-.23.6,1.36,1.36,0,0,0,.62-.94Z"/><polygon class="cls-5" points="202.46 189.14 204.1 177.92 219.67 186.83 218.01 198.07 202.46 189.14"/><path class="cls-19" d="M218.34,200.89a1.15,1.15,0,0,0-.58-1.06l-3.57-2.06-10-5.78-2.94-1.7a2.29,2.29,0,0,0-2.32,0l-10,5.8a1.14,1.14,0,0,0-.58,1.09v.64a1.15,1.15,0,0,0,.58,1l16.53,9.54a2.29,2.29,0,0,0,2.32,0l10-5.8a1.13,1.13,0,0,0,.58-.91v-.72Z"/><path class="cls-5" d="M217.76,201.85l-10,5.8a2.34,2.34,0,0,1-2.32,0l-16.53-9.55a1.13,1.13,0,0,1-.39-.36,1,1,0,0,0,.49.87l16.52,9.54a2.12,2.12,0,0,0,1.07.29,2.09,2.09,0,0,0,1.06-.29l10-5.8a.93.93,0,0,0,.47-.76C218.05,201.63,217.93,201.75,217.76,201.85Z"/><path class="cls-3" d="M196.7,194.23l3.79-2.19a.85.85,0,0,1,.87,0l13.55,7.81a.44.44,0,0,1,0,.76l-3.79,2.19a.9.9,0,0,1-.87,0L196.7,195A.43.43,0,0,1,196.7,194.23Z"/><path class="cls-26" d="M272.18,194.58a1.18,1.18,0,0,0-.58-1.06L255.08,184a2.31,2.31,0,0,0-2.33,0l-10.05,5.8a1.15,1.15,0,0,0-.57,1.09v.64a1.17,1.17,0,0,0,.58,1L259.23,202a2.34,2.34,0,0,0,2.32,0l10.05-5.8a1.11,1.11,0,0,0,.57-.91,1,1,0,0,0,0-.14Z"/><path class="cls-5" d="M271.6,195.54l-10.05,5.8a2.34,2.34,0,0,1-2.32,0l-16.53-9.55a1.1,1.1,0,0,1-.38-.36,1,1,0,0,0,.48.87l16.53,9.54a2.09,2.09,0,0,0,1.06.29,2.12,2.12,0,0,0,1.07-.29l10-5.8a1,1,0,0,0,.48-.76C271.89,195.32,271.76,195.44,271.6,195.54Z"/><path class="cls-3" d="M263.84,197.11l-3.78,2.18a.87.87,0,0,1-.88,0l-13.54-7.81a.44.44,0,0,1,0-.76l3.78-2.18a.87.87,0,0,1,.88,0l13.54,7.81A.43.43,0,0,1,263.84,197.11Z"/><path class="cls-3" d="M261,200.53l1.86-12.64a2,2,0,0,0-.88-2.09L246.44,177a1.13,1.13,0,0,0-1.12.07l-.08,0-.38.25a1.69,1.69,0,0,0-1,1.26L242,191.2a2,2,0,0,0,.87,2.07l15.49,8.87a1.15,1.15,0,0,0,1.12-.06s.67-.41.67-.41A1.7,1.7,0,0,0,261,200.53Z"/><path class="cls-5" d="M262.61,187.9a1.79,1.79,0,0,0-.8-1.91l-15.5-8.82a.74.74,0,0,0-.47-.1,1,1,0,0,0-.45.15,1,1,0,0,1,.46.12l15.5,8.82a1.74,1.74,0,0,1,.87,2.09l-1.86,12.64a1.55,1.55,0,0,1-.22.6,1.43,1.43,0,0,0,.62-.94Z"/><path class="cls-25" d="M246.27,213.06,247,200.3a2,2,0,0,0-1.06-2l-16.22-7.42a1.13,1.13,0,0,0-1.11.17l-.07,0-.37.28a1.68,1.68,0,0,0-.85,1.34l-.73,12.72a2,2,0,0,0,1.05,2l16.22,7.46a1.15,1.15,0,0,0,1.11-.15s.63-.47.63-.47A1.7,1.7,0,0,0,246.27,213.06Z"/><path class="cls-5" d="M246.81,200.34a1.81,1.81,0,0,0-1-1.84l-16.22-7.41a.79.79,0,0,0-.48-.06,1.13,1.13,0,0,0-.44.19,1,1,0,0,1,.47.08l16.22,7.41a1.75,1.75,0,0,1,1.05,2l-.73,12.76a1.47,1.47,0,0,1-.17.61,1.4,1.4,0,0,0,.53-1Z"/><polygon class="cls-5" points="228.04 205.01 228.69 193.69 244.98 201.18 244.33 212.52 228.04 205.01"/><path class="cls-19" d="M244.9,215.3a1.12,1.12,0,0,0-.67-1l-3.73-1.74L230,207.69l-3.08-1.43a2.33,2.33,0,0,0-2.31.2l-9.5,6.67a1.17,1.17,0,0,0-.48,1.13l.06.65a1.12,1.12,0,0,0,.66.9l17.31,8a2.31,2.31,0,0,0,2.31-.21l9.49-6.66a1.16,1.16,0,0,0,.5-1,1,1,0,0,1,0-.14Z"/><path class="cls-5" d="M244.41,216.31,234.92,223a2.31,2.31,0,0,1-2.31.21l-17.31-8a1.26,1.26,0,0,1-.42-.33,1,1,0,0,0,.56.82l17.31,8a2,2,0,0,0,1.08.19,2.06,2.06,0,0,0,1-.38l9.49-6.66a1,1,0,0,0,.41-.8C244.68,216.06,244.57,216.2,244.41,216.31Z"/><path class="cls-3" d="M222.76,210.58l3.58-2.51a.88.88,0,0,1,.87-.08l14.18,6.58a.44.44,0,0,1,.07.76l-3.58,2.51a.87.87,0,0,1-.87.08l-14.18-6.58A.44.44,0,0,1,222.76,210.58Z"/><path class="cls-2" d="M153,236.54c3.77-2.92,9.94-4.66,16.5-4.66.46,0,.91,0,1.36,0l.13-.1c2.5-1.94,6.6-3.1,11-3.1a20.9,20.9,0,0,1,7.84,1.43c2.74,1.12,4.52,2.8,4.74,4.47s-1,3-2.11,3.81a13.31,13.31,0,0,1-4,2c0,.1,0,.2.05.3.33,2.44-1.54,4.46-3.18,5.72-3.77,2.92-9.93,4.66-16.49,4.66A31.48,31.48,0,0,1,157,249c-4.13-1.7-6.8-4.22-7.14-6.74S151.41,237.8,153,236.54Z"/><path class="cls-10" d="M183.84,228.25a3.15,3.15,0,0,1-1.48,2.3c-.21.16-.5.35-.8.54a20.27,20.27,0,0,0-2.7,2.2,2.3,2.3,0,0,1-1.47.68c-.91,0-1.7-.25-1.59-1.61,0-.1,0-.26,0-.43l0-.22c0-.1.08-2.63.09-2.68.11.45.74-1.33,1.14-1.35.59,0,.51,1.39.91,1,.72-.69,1.5-.38,3.48-1.39l.38-.06c1.54-.18,1.78.33,1.93.79C183.81,228.12,183.83,228.19,183.84,228.25Z"/><path class="cls-10" d="M194.91,234.43s-1.45-.14-1.94-.15c-1.15-.05-3.65-.76-4.43-.22s-2.86,1.13-2.89-.53l-1.13.36c0,.35-.12,2.41-.13,2.54a2.92,2.92,0,0,0,.41,1.74c.75,1.18,3.08.5,4.41.23l4-.53a3.47,3.47,0,0,0,2.66-2.19A1.15,1.15,0,0,0,194.91,234.43Z"/><path class="cls-10" d="M181.68,208.28s-.73,20.19-.73,20.19c0,1.72-5.62,1.6-5.53.17l-.35-20.36Z"/><path class="cls-10" d="M189.74,233.82c0,1.42-5.1,2.27-5.47.42l-2.55-20.94h8.39Z"/><circle class="cls-10" cx="178.96" cy="246.4" r="1.08"/><circle class="cls-10" cx="159.2" cy="246.4" r="1.08"/><circle class="cls-10" cx="178.95" cy="235.09" r="1.08"/><circle class="cls-10" cx="159.2" cy="235.09" r="1.08"/><path class="cls-10" d="M158.35,233.93l6.24,3.61v1.31l-6.24-3.61a2.24,2.24,0,0,1-1-2.6A2.21,2.21,0,0,0,158.35,233.93Z"/><path class="cls-10" d="M179.81,233.93a2.21,2.21,0,0,0,1-1.29,2.24,2.24,0,0,1-1,2.6l-6.25,3.61v-1.31Z"/><path class="cls-10" d="M157.53,244.21a2.23,2.23,0,0,0,1.94,1.12,2.27,2.27,0,0,0,1.12-.3l8.49-4.9,8.48,4.9a2.3,2.3,0,0,0,1.12.3,2.25,2.25,0,0,0,1.95-1.12,2.76,2.76,0,0,0,.2-.47,2.25,2.25,0,0,1-2.15,2.9,2.3,2.3,0,0,1-1.12-.3l-8.48-4.9-8.49,4.9a2.27,2.27,0,0,1-1.12.3,2.25,2.25,0,0,1-2.14-2.9A2.14,2.14,0,0,0,157.53,244.21Z"/><path class="cls-11" d="M178.68,245.33a2.3,2.3,0,0,1-1.12-.3l-8.48-4.9-8.49,4.9a2.27,2.27,0,0,1-1.12.3,2.23,2.23,0,0,1-1.94-1.12,2.14,2.14,0,0,1-.2-.47,2.27,2.27,0,0,1,1-1.29l6.24-3.6v-1.31l-6.24-3.61a2.21,2.21,0,0,1-1-1.29,2.07,2.07,0,0,1,.2-.46,2.24,2.24,0,0,1,3.06-.82l8.49,4.9,8.48-4.9a2.25,2.25,0,0,1,3.07.82,2.67,2.67,0,0,1,.2.46,2.21,2.21,0,0,1-1,1.29l-6.25,3.61v1.31l6.25,3.6a2.27,2.27,0,0,1,1,1.29,2.76,2.76,0,0,1-.2.47A2.25,2.25,0,0,1,178.68,245.33Z"/><path class="cls-10" d="M167.25,233.35a1,1,0,0,0,.68.69,3,3,0,0,0,1.11.2,2.62,2.62,0,0,0,1.56-.44.8.8,0,0,0,.31-.47v4.54a.62.62,0,0,1-.3.54,2.67,2.67,0,0,1-1.56.44,2.82,2.82,0,0,1-1.11-.21c-.39-.16-.64-.39-.68-.63a.61.61,0,0,1,0-.14S167.24,233.3,167.25,233.35Z"/><path class="cls-12" d="M167.93,234a3,3,0,0,0,1.11.2,2.62,2.62,0,0,0,1.56-.44.64.64,0,0,0,.3-.54c0-.24-.28-.47-.67-.63a2.87,2.87,0,0,0-1.12-.21,2.64,2.64,0,0,0-1.55.44.6.6,0,0,0-.3.54C167.29,233.64,167.54,233.88,167.93,234Z"/><path class="cls-10" d="M170.17,233.11a.39.39,0,0,1-.18.33,1.6,1.6,0,0,1-.93.26,1.74,1.74,0,0,1-.67-.12c-.23-.1-.39-.24-.41-.38V222.12h2.19Z"/><path class="cls-12" d="M151.93,220v-1.54l.71,0a2.74,2.74,0,0,1,.62-.49l11-6.37a5.35,5.35,0,0,1,5.32,0l15.3,8.77a2.81,2.81,0,0,1,.88.83l.45-.1v1.59a2.65,2.65,0,0,1-1.34,2.31l-11,6.37a5.32,5.32,0,0,1-5.32,0l-15.3-8.77A2.62,2.62,0,0,1,151.93,220Z"/><path class="cls-11" d="M153.25,216.17l11-6.37a5.35,5.35,0,0,1,5.32,0l15.3,8.77a2.67,2.67,0,0,1,0,4.63l-11,6.37a5.32,5.32,0,0,1-5.32,0l-15.3-8.77A2.66,2.66,0,0,1,153.25,216.17Z"/><path class="cls-10" d="M168.86,209,170.21,220a19,19,0,0,0,3.8-1.89l9.18-5.92A3.61,3.61,0,0,0,180,205.8l-8.58,3A3.74,3.74,0,0,1,168.86,209Z"/><path class="cls-10" d="M189.63,211.33a4.44,4.44,0,0,1-1.54,5.74c-2.34,1.53-6.54,3.91-9.1,5.51-4.5,2.8-8.78,3.24-13.77,2.51-1.9-.28-6.27-2.18-7.89-5.41s-.81-10.36-.81-10.36,8.8-6.89,13.36,1.82l.43.83a3.58,3.58,0,0,0,5,1.45l8.35-4A4.45,4.45,0,0,1,189.63,211.33Z"/><path class="cls-14" d="M154.28,204.53a13.4,13.4,0,0,0,.16-1.9l-.37-11.18a4.85,4.85,0,0,1,5.38-4.63c.23,0,.47,0,.7.08a5.6,5.6,0,0,1,1.69.56c.21.1,1.92-.68,2.12-.56l2.65,1.79.08.05,1.47,1,.82.57.58.42c2.49,1.83,4.56,3.93,4.34,7.07l-3.39,6.39c0,.07-.92,10.21-.92,10.21a2.36,2.36,0,0,1-2.45,2.08c-4.51-.23-14.35-1.07-14.19-4.06Z"/><path class="cls-9" d="M170.86,184.19c-1.19,3.78-3.79,3.88-6.09,2.46A8.81,8.81,0,0,1,161,179.4c.13-3.54,2.59-5.61,5.53-5.51C173.21,174.13,171.27,182.88,170.86,184.19Z"/><path class="cls-9" d="M162.6,181.74l-.51,7.35c0,.34.27.69.83.95a4.05,4.05,0,0,0,3.19,0,.83.83,0,0,0,.5-.64l.52-7.34Z"/><path class="cls-10" d="M171.85,174.53a9.31,9.31,0,0,0-5.94-1.73c-9.14,0-5.6,8.39-5.38,9.69.41,2.46,1.88,3.58,3.64,3.38a5.49,5.49,0,0,0,2.85-1.38,8.52,8.52,0,0,0,3.31-5.13C172,178.32,173.48,175.94,171.85,174.53Z"/><path class="cls-9" d="M169,183.18c.56.86.56,1.85,0,2.21s-1.46,0-2-.9-.56-1.85,0-2.21S168.48,182.32,169,183.18Z"/><path class="cls-27" d="M170.59,203.39l-2.73-5.4-.39,4.28a10.16,10.16,0,0,0,0,1.56,19.41,19.41,0,0,0,2.32,9Z"/><path class="cls-10" d="M162.08,228.39a.41.41,0,0,1-.18.33,1.66,1.66,0,0,1-.94.26,1.73,1.73,0,0,1-.66-.12c-.24-.09-.39-.24-.41-.38V217.4h2.19Z"/><path class="cls-12" d="M149.45,203.59l1.32-.7a1.63,1.63,0,0,1,1.56,0l15.06,8A6.16,6.16,0,0,1,170,215l2.37,10.46a2.06,2.06,0,0,1-1,2.25l-1.33.68.1-1.35A1.07,1.07,0,0,1,170,227l-15.65-8.57a6.18,6.18,0,0,1-2.62-4.09l-2.08-9.16a3.93,3.93,0,0,1-.09-.88Z"/><path class="cls-17" d="M148.77,206.44l2.09,9.16a6.21,6.21,0,0,0,2.61,4.1l15.66,8.57c1.29.71,2.35-.89,1.9-2.89L169,216.22a6.18,6.18,0,0,0-2.62-4.1l-15.65-8.56C149.39,202.85,148.33,204.45,148.77,206.44Z"/><path class="cls-3" d="M190.68,197l-3.41,12.31a.8.8,0,0,1-1.1.52l-8-3.67a.87.87,0,0,1-.48-1l3.5-12.47a.81.81,0,0,1,1.1-.51l7.8,3.65A1,1,0,0,1,190.68,197Z"/><path class="cls-3" d="M190.35,197l-3.46,12.44a.79.79,0,0,1-1.09.52l-8-3.67a.89.89,0,0,1-.49-1l3.51-12.46a.79.79,0,0,1,1.1-.51l7.92,3.7A.88.88,0,0,1,190.35,197Z"/><path class="cls-26" d="M186.14,209.51a.24.24,0,0,0,.21-.18l3.46-12.43a.34.34,0,0,0-.18-.38l-7.92-3.7-.13,0a.24.24,0,0,0-.2.18l-3.51,12.46a.33.33,0,0,0,.18.39l8,3.66A.17.17,0,0,0,186.14,209.51Z"/><path class="cls-9" d="M177.39,207.1c2-.54,4.31-1.22,5.55-1.59l.92-.28c1.59-.14,4-4.47,4.65-3a1.61,1.61,0,0,1,1.29,2.54,7.07,7.07,0,0,1-2.63,2,6.51,6.51,0,0,1-2,.66,2.84,2.84,0,0,0-.31.06c-.15.11-2.84,1.22-6.14,2.91Z"/><path class="cls-14" d="M172.77,195.72s2,10,2.39,11.27c.06.21,8-2.16,8-2.16a3.43,3.43,0,0,1,1.34,3.89s-10.36,4.88-12.43,3.65-5.62-12.42-5.68-14.44l1.81-6C169.36,192.54,172.43,194.26,172.77,195.72Z"/><path class="cls-28" d="M196.5,235s-14.85,3.33-17.1.14c-1-1.43,3.41-15.11,3.41-15.11l1.33-1,3.8.91c.51.12,1.19-.67,1.19-.67-.52,2-2.92,9.66-3.58,12-.1.36,11,.64,11,.64C195.71,232.2,195.69,234.71,196.5,235Z"/><path class="cls-2" d="M179.59,267.29c3.79-2.93,10-4.68,16.6-4.68.46,0,.92,0,1.37,0l.13-.11c2.53-1.95,6.65-3.11,11-3.11a21,21,0,0,1,7.89,1.43c2.76,1.13,4.55,2.82,4.78,4.51s-1,3-2.13,3.83a13.75,13.75,0,0,1-4.07,2.06l.06.29c.33,2.47-1.56,4.5-3.2,5.77-3.8,2.93-10,4.68-16.61,4.68a31.67,31.67,0,0,1-11.88-2.15c-4.15-1.71-6.84-4.24-7.18-6.78S177.94,268.56,179.59,267.29Z"/><path class="cls-9" d="M209.79,261c.07,2.89.12,5.06.07,5.6a3.63,3.63,0,0,0,.54,2.23c.79,1,2.34.47,3.54.1l3.54-1a3.2,3.2,0,0,0,2.25-2.24,1,1,0,0,0-1-1.06l-2.8,0a2.73,2.73,0,0,1-2-.73,1,1,0,0,1-.31-.91c.11-.83.27-2.09.46-3.67l-4.32.78Z"/><path class="cls-9" d="M201.28,264.78a1.46,1.46,0,0,0,1.53,1.55,2.24,2.24,0,0,0,1.41-.65,13.06,13.06,0,0,1,2.24-1.76c.3-.19.57-.37.77-.52a4.8,4.8,0,0,0,.76-.7,2.63,2.63,0,0,0,.66-1.51c0-.06,0-.13,0-.2a1.12,1.12,0,0,0-.47-.6,1.08,1.08,0,0,0-.59-.18h-.29l-.51,0a4.21,4.21,0,0,0-1.67.64l.79-3-4,1.55c0,.3,0,.58,0,.83a24.58,24.58,0,0,1-.26,2.57c-.07.38-.13.78-.19,1.14a1.1,1.1,0,0,1,0,.18,2.12,2.12,0,0,0,0,.24C201.3,264.53,201.29,264.69,201.28,264.78Z"/><path class="cls-10" d="M201.8,260.38c0,.56,2.8.54,3.65-.9l3.74-14.36a11,11,0,0,0,.37-1.78,3,3,0,0,0,.07-.51l-.09,0-5.36-1.21v.32C202.59,247.12,201.8,260.34,201.8,260.38Z"/><path class="cls-29" d="M208.65,261.19a3,3,0,0,1-1.42,2.21c-.2.15-.48.34-.77.52a14.12,14.12,0,0,0-2.24,1.76,2.19,2.19,0,0,1-1.41.65c-.87,0-1.64-.24-1.53-1.55,0-.09,0-.24,0-.4l0-.21a1,1,0,0,0,0-.21.88.88,0,0,0,1,.54,2.24,2.24,0,0,0,1.47-.53c.69-.65,5.67-3.5,2.59-3.68l.36-.06c1.48-.17,1.71.31,1.86.76A.79.79,0,0,1,208.65,261.19Z"/><path class="cls-12" d="M209.83,262.64c.37.93,3.36.82,3.89-.46,0,0,1.48-10.44,2.12-19.18l-6.24-2h-.1l.08.52.06.41C209.4,245.33,209.63,262.16,209.83,262.64Z"/><path class="cls-29" d="M218.77,264.55l-1.79,0c.73.14,1,.76.35,1.32s-7.3,2.19-7.47.67c0,.3,0,.54,0,.66a2.74,2.74,0,0,0,.53,1.57c.79,1,2.34.46,3.54.1l3.54-1a3.2,3.2,0,0,0,2.25-2.24A1,1,0,0,0,218.77,264.55Z"/><path class="cls-10" d="M204.6,277.23a1.08,1.08,0,1,0,1.08-1.09A1.08,1.08,0,0,0,204.6,277.23Z"/><circle class="cls-10" cx="185.78" cy="277.23" r="1.08"/><path class="cls-10" d="M204.58,265.84a1.09,1.09,0,1,0,1.09-1.08A1.08,1.08,0,0,0,204.58,265.84Z"/><path class="cls-10" d="M184.7,265.84a1.09,1.09,0,1,0,1.09-1.08A1.08,1.08,0,0,0,184.7,265.84Z"/><path class="cls-10" d="M184.93,264.67l6.28,3.63v1.32L184.93,266a2.25,2.25,0,0,1-1-2.62A2.19,2.19,0,0,0,184.93,264.67Z"/><path class="cls-10" d="M206.53,264.67a2.21,2.21,0,0,0,1-1.3,2.26,2.26,0,0,1-1,2.62l-6.28,3.63V268.3Z"/><path class="cls-10" d="M184.1,275a2.26,2.26,0,0,0,2,1.12,2.23,2.23,0,0,0,1.13-.3l8.54-4.93,8.54,4.93a2.23,2.23,0,0,0,1.13.3,2.26,2.26,0,0,0,2-1.12,2.76,2.76,0,0,0,.2-.47,2.28,2.28,0,0,1-.2,1.78,2.25,2.25,0,0,1-2,1.13,2.23,2.23,0,0,1-1.13-.3l-8.54-4.93-8.54,4.93a2.23,2.23,0,0,1-1.13.3,2.25,2.25,0,0,1-2-1.13,2.28,2.28,0,0,1-.2-1.78A2.14,2.14,0,0,0,184.1,275Z"/><path class="cls-11" d="M205.4,276.14a2.23,2.23,0,0,1-1.13-.3l-8.54-4.93-8.54,4.93a2.23,2.23,0,0,1-1.13.3,2.26,2.26,0,0,1-2-1.12,2.14,2.14,0,0,1-.2-.47,2.24,2.24,0,0,1,1-1.3l6.28-3.63V268.3l-6.28-3.63a2.19,2.19,0,0,1-1-1.3,2,2,0,0,1,.19-.46,2.27,2.27,0,0,1,3.09-.83l8.54,4.93,8.54-4.93a2.27,2.27,0,0,1,3.09.83,2.67,2.67,0,0,1,.2.46,2.21,2.21,0,0,1-1,1.3l-6.28,3.63v1.32l6.28,3.63a2.24,2.24,0,0,1,1,1.3,2.76,2.76,0,0,1-.2.47A2.26,2.26,0,0,1,205.4,276.14Z"/><path class="cls-10" d="M193.89,264.09a1,1,0,0,0,.68.69,3.1,3.1,0,0,0,1.12.2,2.63,2.63,0,0,0,1.57-.44.75.75,0,0,0,.31-.48v4.57a.65.65,0,0,1-.31.55,2.71,2.71,0,0,1-1.57.44,3.1,3.1,0,0,1-1.12-.2c-.39-.17-.64-.4-.68-.64a.76.76,0,0,1,0-.15S193.88,264,193.89,264.09Z"/><path class="cls-12" d="M194.57,264.78a3.1,3.1,0,0,0,1.12.2,2.63,2.63,0,0,0,1.57-.44.6.6,0,0,0,.3-.54c0-.24-.28-.48-.67-.64a2.92,2.92,0,0,0-1.13-.21,2.62,2.62,0,0,0-1.56.45.6.6,0,0,0-.3.54C193.93,264.38,194.18,264.62,194.57,264.78Z"/><path class="cls-10" d="M196.83,263.85a.37.37,0,0,1-.18.32,1.59,1.59,0,0,1-.94.27,1.74,1.74,0,0,1-.67-.12c-.24-.1-.39-.24-.41-.39s0-11.15,0-11.15h2.2Z"/><path class="cls-12" d="M178.47,250.6v-1.55l.71,0a3.12,3.12,0,0,1,.63-.49l11.1-6.41a5.37,5.37,0,0,1,5.36,0l15.4,8.83a2.85,2.85,0,0,1,.89.83l.45-.1v1.6a2.67,2.67,0,0,1-1.35,2.33L200.56,262a5.37,5.37,0,0,1-5.36,0l-15.4-8.83A2.67,2.67,0,0,1,178.47,250.6Z"/><path class="cls-11" d="M179.8,246.79l11.1-6.41a5.37,5.37,0,0,1,5.36,0l15.4,8.83a2.69,2.69,0,0,1,0,4.66l-11.1,6.41a5.37,5.37,0,0,1-5.36,0l-15.4-8.83A2.68,2.68,0,0,1,179.8,246.79Z"/><path class="cls-10" d="M195,241.51l2.67,10.38a18.15,18.15,0,0,0,3.37-2.28c2.75-2.32,6-5.1,8-6.77a3.45,3.45,0,0,0-3.79-5.71l-7.78,4A3.54,3.54,0,0,1,195,241.51Z"/><path class="cls-12" d="M215.66,241.71a3.47,3.47,0,0,1-1,3.73l-8,6.76a17.7,17.7,0,0,1-14,4.13c-1.91-.28-7.6-2.38-8.83-5.81a12.43,12.43,0,0,1,0-5.63,24.06,24.06,0,0,0,.36-3.56,3.43,3.43,0,0,1,1.78-2.91c2.83-1.52,8.35-3.35,11.66,3l.43.83a3.61,3.61,0,0,0,5,1.46l7.78-4A3.46,3.46,0,0,1,215.66,241.71Z"/><path class="cls-5" d="M182.89,232.21c.68,7.74.93,10.95,1.27,11.31a11.27,11.27,0,0,0,13.42,2,2.05,2.05,0,0,0,1-2.3c-.26-1-.62-2.51-.9-3.85a2,2,0,0,1,0-.24,9.28,9.28,0,0,1,.15-4.16,2.17,2.17,0,0,0,.07-.24,3.62,3.62,0,0,0,1.57-4.46l1.72-5.43,0-.13a5.37,5.37,0,0,0-1.4-3.07,13.07,13.07,0,0,0-3-2.28,1.29,1.29,0,0,1-.16-.09l-.74-.44-.26-.16-.61-.35-.68-.38-2-1.18-.49-.28-.28-.15a1.89,1.89,0,0,0-.65.18,5.29,5.29,0,0,1-1.39.52,5.78,5.78,0,0,0-1.55-.42,4.74,4.74,0,0,0-3.73,1,5.87,5.87,0,0,0-1.66,4.2A51.51,51.51,0,0,0,182.89,232.21Z"/><path class="cls-28" d="M195.57,232.21a20.43,20.43,0,0,0,2,7,9.28,9.28,0,0,1,.15-4.16,2.17,2.17,0,0,0,.07-.24,3.62,3.62,0,0,0,1.57-4.46l.45-1.43L196,226.29A14.12,14.12,0,0,0,195.57,232.21Z"/><path class="cls-9" d="M198.12,213.08c-.92,3.87-3.53,4.15-5.92,2.89a8.81,8.81,0,0,1-4.3-7c-.12-3.55,2.2-5.79,5.15-5.89C199.78,202.86,198.44,211.75,198.12,213.08Z"/><path class="cls-9" d="M189.49,210.94v7.75c0,.36.33.71.94.94a4.22,4.22,0,0,0,3.35-.23.89.89,0,0,0,.48-.71v-7.75Z"/><path class="cls-30" d="M196.68,219.4a3.38,3.38,0,0,0-1.22-1.41c-.71-.32-6.07.28-6-.56,0-.12.51-.36.51-.36v-.71a6.07,6.07,0,0,0-1.1.54,1.53,1.53,0,0,0-.16,2.21C190.76,221.28,196.68,219.4,196.68,219.4Z"/><path class="cls-9" d="M204.17,237.17c2,.25,4.24.47,5.47.59l.91.08c1.45.45,4.23-2.47,5.2-1,0,0,2.95,4.75-.6,3.57a5.56,5.56,0,0,0-2.21,0,6.39,6.39,0,0,1-2-.14l-.3-.06a48.42,48.42,0,0,1-7,1.18Z"/><path class="cls-5" d="M201.16,224.75S204,234.92,204.53,236c.09.17,6.6,1.51,6.6,1.51,1.13.29.94,1.9.65,3,0,0-8.17,1.59-10.51.5-1.94-.92-5.49-11.57-5.9-13.33l.81-6.47C197.27,221.54,201.16,224.75,201.16,224.75Z"/><path class="cls-9" d="M196.47,211.23c.55.73.61,1.62.13,2s-1.3.06-1.85-.68-.61-1.61-.14-2S195.92,210.5,196.47,211.23Z"/><path class="cls-10" d="M188.68,259.1a.37.37,0,0,1-.18.32,1.59,1.59,0,0,1-.94.27,1.74,1.74,0,0,1-.67-.12c-.24-.1-.39-.24-.41-.39s0-11.15,0-11.15h2.2Z"/><path class="cls-12" d="M176,234.13l1.33-.71a1.65,1.65,0,0,1,1.57,0L194,241.48a6.28,6.28,0,0,1,2.64,4.12l2.39,10.53a2.1,2.1,0,0,1-1,2.27l-1.34.69.09-1.37a.67.67,0,0,1-.18-.07L180.88,249a6.26,6.26,0,0,1-2.63-4.13l-2.1-9.22a3.93,3.93,0,0,1-.09-.88Z"/><path class="cls-17" d="M175.29,237l2.1,9.22a6.21,6.21,0,0,0,2.63,4.12L195.78,259c1.3.72,2.36-.89,1.92-2.9l-2.1-9.23a6.22,6.22,0,0,0-2.64-4.12l-15.75-8.62C175.91,233.38,174.84,235,175.29,237Z"/><path class="cls-16" d="M198.56,203.37c-1.73-2.34-8.37-3.81-12.94-.27a5.22,5.22,0,0,1-.7.54,6.59,6.59,0,0,0-2.83,3.16,7.6,7.6,0,0,0-.64,3.84,2.08,2.08,0,0,1-.54,1.57,5.14,5.14,0,0,0-.82,1.3,4.78,4.78,0,0,0,.79,5.48,2.35,2.35,0,0,0,.52.37,3,3,0,0,0,.68.27,4.39,4.39,0,0,0,1.23,4,2.35,2.35,0,0,0,.52.37c1.45.8,3.24.18,4.39-1.35l.16.1c2.39,1.31,5.47-.15,6.87-3.26a7.22,7.22,0,0,0,.1-5.91,6.28,6.28,0,0,0-.44-.76,9.09,9.09,0,0,0,1.91-2.85,2.31,2.31,0,0,1,.92-1.08l.24-.15A3.8,3.8,0,0,0,198.56,203.37Z"/><path class="cls-9" d="M196.6,211.16c.61.81.67,1.78.15,2.18s-1.44.06-2.05-.75-.68-1.79-.15-2.18S196,210.35,196.6,211.16Z"/><path class="cls-2" d="M229,280.34c3.8-2.93,10-4.68,16.61-4.68.46,0,.92,0,1.37,0l.13-.11c2.52-1.95,6.65-3.11,11-3.11a21,21,0,0,1,7.89,1.43c2.76,1.13,4.55,2.82,4.77,4.5s-1,3-2.12,3.83a13.29,13.29,0,0,1-4.07,2.06c0,.1,0,.2.05.3.34,2.46-1.55,4.5-3.2,5.77-3.79,2.93-10,4.68-16.61,4.68A31.66,31.66,0,0,1,233,292.89c-4.16-1.71-6.84-4.24-7.19-6.78S227.38,281.61,229,280.34Z"/><path class="cls-9" d="M259.23,274c.07,2.89.11,5.06.07,5.61a3.63,3.63,0,0,0,.54,2.23c.79,1,2.34.47,3.54.1l3.54-1.05a3.17,3.17,0,0,0,2.25-2.23,1,1,0,0,0-1-1.06l-2.8,0a2.67,2.67,0,0,1-2-.72,1,1,0,0,1-.32-.91c.12-.83.28-2.09.47-3.67l-4.32.78C259.21,273.42,259.22,273.71,259.23,274Z"/><path class="cls-9" d="M250.72,277.83a1.45,1.45,0,0,0,1.52,1.54,2.1,2.1,0,0,0,1.41-.65A13.58,13.58,0,0,1,255.9,277c.29-.19.57-.37.77-.52a4,4,0,0,0,.75-.71,2.57,2.57,0,0,0,.67-1.5c0-.06,0-.13,0-.2a1.17,1.17,0,0,0-.47-.6,1.11,1.11,0,0,0-.59-.18h-.29a4.26,4.26,0,0,0-.51,0,4.07,4.07,0,0,0-1.67.64l.78-3-4,1.55c0,.3,0,.58,0,.83a24.56,24.56,0,0,1-.25,2.57c-.07.38-.13.78-.19,1.14a1.1,1.1,0,0,1,0,.18c0,.09,0,.16,0,.23S250.73,277.74,250.72,277.83Z"/><path class="cls-10" d="M251.24,273.43c0,.56,2.79.54,3.65-.9l3.74-14.37a11.84,11.84,0,0,0,.37-1.77c0-.17.05-.34.07-.52H259l-5.36-1.21,0,.32C252,260.17,251.24,273.39,251.24,273.43Z"/><path class="cls-10" d="M258.09,274.24a3,3,0,0,1-1.42,2.21c-.2.15-.48.33-.77.52a15.25,15.25,0,0,0-2.25,1.75,2.1,2.1,0,0,1-1.41.65c-.87.05-1.63-.23-1.52-1.54,0-.09,0-.25,0-.41l0-.21c0-.09,0-.15,0-.2.11.44.59.55,1,.54a2.21,2.21,0,0,0,1.46-.53c.7-.66,5.68-3.5,2.6-3.69l.36-.05c1.48-.18,1.71.31,1.86.76C258.06,274.11,258.08,274.18,258.09,274.24Z"/><path class="cls-12" d="M259.26,275.69c.38.92,3.36.82,3.9-.46,0,0,1.48-10.44,2.11-19.18l-6.24-2h-.09l.07.53.07.4C258.83,258.38,259.06,275.21,259.26,275.69Z"/><path class="cls-10" d="M268.21,277.6l-1.8,0c.73.13,1,.76.36,1.32s-7.31,2.19-7.47.67a6.13,6.13,0,0,0,0,.66,2.7,2.7,0,0,0,.53,1.57c.79,1,2.34.46,3.54.1l3.54-1.05a3.19,3.19,0,0,0,2.25-2.23A1,1,0,0,0,268.21,277.6Z"/><circle class="cls-10" cx="255.12" cy="290.28" r="1.08"/><circle class="cls-10" cx="235.22" cy="290.28" r="1.08"/><path class="cls-10" d="M254,278.89a1.09,1.09,0,1,0,1.08-1.09A1.09,1.09,0,0,0,254,278.89Z"/><path class="cls-10" d="M234.14,278.89a1.09,1.09,0,1,0,1.08-1.09A1.09,1.09,0,0,0,234.14,278.89Z"/><path class="cls-10" d="M234.37,277.72l6.28,3.63v1.32L234.37,279a2.27,2.27,0,0,1-1-2.62A2.24,2.24,0,0,0,234.37,277.72Z"/><path class="cls-10" d="M256,277.72a2.26,2.26,0,0,0,1-1.3,2.25,2.25,0,0,1-1,2.62l-6.29,3.63v-1.32Z"/><path class="cls-10" d="M233.54,288.06a2.25,2.25,0,0,0,2,1.13,2.17,2.17,0,0,0,1.12-.3l8.55-4.93,8.54,4.93a2.2,2.2,0,0,0,1.13.3,2.25,2.25,0,0,0,2-1.13,2,2,0,0,0,.19-.46,2.24,2.24,0,0,1-2.15,2.91,2.3,2.3,0,0,1-1.13-.3l-8.54-4.94-8.55,4.94a2.26,2.26,0,0,1-3.08-.83,2.24,2.24,0,0,1-.2-1.78A2.07,2.07,0,0,0,233.54,288.06Z"/><path class="cls-11" d="M254.84,289.19a2.2,2.2,0,0,1-1.13-.3L245.17,284l-8.55,4.93a2.17,2.17,0,0,1-1.12.3,2.25,2.25,0,0,1-2-1.13,2.07,2.07,0,0,1-.2-.46,2.21,2.21,0,0,1,1-1.3l6.28-3.63v-1.32l-6.28-3.63a2.24,2.24,0,0,1-1-1.3,2.37,2.37,0,0,1,.2-.47,2.27,2.27,0,0,1,3.09-.82l8.54,4.93,8.54-4.93a2.27,2.27,0,0,1,3.09.82,2.32,2.32,0,0,1,.19.47,2.26,2.26,0,0,1-1,1.3l-6.29,3.63v1.32L256,286.3a2.23,2.23,0,0,1,1,1.3,2,2,0,0,1-.19.46A2.25,2.25,0,0,1,254.84,289.19Z"/><path class="cls-10" d="M243.32,277.14a1.08,1.08,0,0,0,.69.69,3.06,3.06,0,0,0,1.12.2,2.63,2.63,0,0,0,1.57-.44.75.75,0,0,0,.31-.48v4.57a.6.6,0,0,1-.3.54,2.64,2.64,0,0,1-1.57.45,2.87,2.87,0,0,1-1.12-.21c-.39-.16-.65-.4-.68-.64a.33.33,0,0,1,0-.14S243.32,277.09,243.32,277.14Z"/><path class="cls-12" d="M244,277.83a3.06,3.06,0,0,0,1.12.2,2.63,2.63,0,0,0,1.57-.44.62.62,0,0,0,.3-.54c0-.24-.28-.48-.68-.64a2.83,2.83,0,0,0-1.12-.21,2.73,2.73,0,0,0-1.57.44.66.66,0,0,0-.3.55C243.37,277.43,243.62,277.67,244,277.83Z"/><path class="cls-10" d="M246.27,276.9a.37.37,0,0,1-.18.32,1.59,1.59,0,0,1-.94.27,1.83,1.83,0,0,1-.68-.12c-.23-.1-.39-.24-.4-.39s0-11.15,0-11.15h2.2Z"/><path class="cls-12" d="M227.91,263.65l0-1.55.72,0a2.74,2.74,0,0,1,.62-.49l11.11-6.41a5.35,5.35,0,0,1,5.35,0l15.4,8.83a2.64,2.64,0,0,1,.89.83l.45-.1v1.6a2.66,2.66,0,0,1-1.34,2.33L250,275.05a5.37,5.37,0,0,1-5.36,0l-15.4-8.83A2.65,2.65,0,0,1,227.91,263.65Z"/><path class="cls-11" d="M229.23,259.83l11.11-6.4a5.35,5.35,0,0,1,5.35,0l15.4,8.83a2.68,2.68,0,0,1,0,4.65L250,273.31a5.37,5.37,0,0,1-5.36,0l-15.4-8.83A2.69,2.69,0,0,1,229.23,259.83Z"/><path class="cls-10" d="M244.81,253.62,247.48,264a18.6,18.6,0,0,0,3.37-2.27l8-6.78a3.45,3.45,0,0,0-3.8-5.71l-7.78,4A3.56,3.56,0,0,1,244.81,253.62Z"/><path class="cls-12" d="M265.1,254.76a3.45,3.45,0,0,1-1.05,3.72l-8,6.77a17.73,17.73,0,0,1-14,4.13c-1.91-.28-7.6-2.38-8.83-5.81a12.16,12.16,0,0,1,0-5.63,24.32,24.32,0,0,0,.36-3.56,3.41,3.41,0,0,1,1.78-2.91c2.83-1.52,8.35-3.36,11.66,3l.43.84a3.61,3.61,0,0,0,5,1.46l7.78-4A3.46,3.46,0,0,1,265.1,254.76Z"/><path class="cls-16" d="M232.33,245.26c.68,7.74.93,10.95,1.27,11.31a11.29,11.29,0,0,0,13.42,2,2.06,2.06,0,0,0,1-2.31c-.27-1-.62-2.5-.91-3.84a2,2,0,0,0,0-.24,9.43,9.43,0,0,1,.16-4.16c0-.08,0-.16.07-.24a3.63,3.63,0,0,0,1.82-3.14,3.41,3.41,0,0,0-.26-1.32l1.73-5.43,0-.13a5.44,5.44,0,0,0-1.4-3.07,13.15,13.15,0,0,0-3-2.28l-.15-.09-.74-.44-.27-.16-.61-.35-.67-.39-2-1.17-.48-.28-.28-.15a1.89,1.89,0,0,0-.65.18,5.4,5.4,0,0,1-1.39.51,6.11,6.11,0,0,0-1.56-.41,4.72,4.72,0,0,0-3.72,1,5.85,5.85,0,0,0-1.66,4.19A51.58,51.58,0,0,0,232.33,245.26Z"/><path class="cls-29" d="M245,245.25a20.7,20.7,0,0,0,2,7,9.43,9.43,0,0,1,.16-4.16c0-.08,0-.16.07-.24a3.63,3.63,0,0,0,1.82-3.14,3.41,3.41,0,0,0-.26-1.32l.46-1.44-3.81-2.58A13.93,13.93,0,0,0,245,245.25Z"/><path class="cls-9" d="M247.56,226.13c-.92,3.87-3.53,4.15-5.92,2.89a8.82,8.82,0,0,1-4.3-7c-.12-3.56,2.2-5.8,5.15-5.9C249.21,215.91,247.88,224.79,247.56,226.13Z"/><path class="cls-9" d="M238.92,224v7.76c0,.36.34.71,1,.93a4.23,4.23,0,0,0,3.35-.22.88.88,0,0,0,.47-.71l0-7.76Z"/><path class="cls-29" d="M246.12,232.45A3.4,3.4,0,0,0,244.9,231c-.71-.32-6.07.27-6-.56,0-.12.51-.36.51-.36v-.71a6.2,6.2,0,0,0-1.1.53,1.54,1.54,0,0,0-.16,2.22C240.2,234.32,246.12,232.45,246.12,232.45Z"/><path class="cls-10" d="M237,224.86c.86,3.62,3,3.33,5.54,2.7,2.74-.68,3.95-4.35,4-6.54.11-3.33-2.06-5.42-4.82-5.52C235.46,215.29,236.71,223.61,237,224.86Z"/><path class="cls-10" d="M235.46,237.09c6.58-5.7,2.66-11.46,4.34-13.35a4.26,4.26,0,0,0,.59-5.45,3.94,3.94,0,0,0-5.34-1.25C228.62,221.07,236.38,228.17,235.46,237.09Z"/><path class="cls-10" d="M242.41,221.36a3.93,3.93,0,0,0,3.19,1.72,3,3,0,0,0,1.78-.56,3.62,3.62,0,0,0,.55-5.08c-1.09-1.54-5.31-2.14-6.61-1.94-.2,0,1.79.66,1.63.78A3.62,3.62,0,0,0,242.41,221.36Z"/><path class="cls-9" d="M258.1,244.08c1.8-.55,3.81-1.23,4.91-1.6l.81-.28c1.42-.18,3.4-4.13,4.06-2.87a1.43,1.43,0,0,1,1.23,2.23,6,6,0,0,1-2.28,1.86,5.64,5.64,0,0,1-1.78.66l-.28.07a47.44,47.44,0,0,1-5.52,3.7Z"/><path class="cls-16" d="M249.79,235.59s6.2,7.19,6.76,8.25A34.71,34.71,0,0,0,261,243a3,3,0,0,1,1.84,3.19s-5,3.64-7.14,3.18c-1.08-.24-10.21-7.8-10.62-9.57l.58-5.55C246.71,234.59,249.79,235.59,249.79,235.59Z"/><path class="cls-9" d="M245.9,224.28c.55.73.61,1.61.14,2s-1.31.05-1.86-.68-.6-1.61-.13-2S245.36,223.55,245.9,224.28Z"/><path class="cls-10" d="M238.12,272.15a.38.38,0,0,1-.18.32,1.59,1.59,0,0,1-.94.27,1.74,1.74,0,0,1-.67-.13c-.24-.09-.39-.24-.41-.38s0-11.15,0-11.15h2.2Z"/><path class="cls-12" d="M225.41,247.18l1.32-.72a1.7,1.7,0,0,1,1.58,0l15.16,8.07a6.21,6.21,0,0,1,2.63,4.12l2.4,10.53a2.1,2.1,0,0,1-1,2.27l-1.34.68.09-1.36a1.34,1.34,0,0,1-.18-.07l-15.76-8.63a6.22,6.22,0,0,1-2.64-4.12l-2.09-9.22a4,4,0,0,1-.09-.89Z"/><path class="cls-17" d="M224.73,250.05l2.09,9.22a6.25,6.25,0,0,0,2.64,4.12L245.21,272c1.31.72,2.37-.89,1.93-2.91l-2.1-9.22a6.24,6.24,0,0,0-2.64-4.13l-15.75-8.62C225.35,246.42,224.28,248,224.73,250.05Z"/><ellipse class="cls-2" cx="450.42" cy="359.97" rx="18.01" ry="8.97"/><path class="cls-9" d="M431.11,290.41l-2.26,2c-.88-.77-1.43-1.28-1.43-1.28a19.54,19.54,0,0,1-2.32-.91l-3.5-1.78a.39.39,0,0,1-.19-.52.42.42,0,0,1,.23-.24,1.33,1.33,0,0,1-.4-1.16c.37-1.2,4.35.68,4.35.68s-.6-.76-.82-1a.69.69,0,0,1-.13-.83c.25-.36.79-.08.94.13l1.71,1.49a2.83,2.83,0,0,1,.57.71l.31.52a3.68,3.68,0,0,0,1.4,1.37Z"/><path class="cls-12" d="M428.5,292.09S438,301,441,299.58c1.38-.62,5-14.84,5-14.84a.81.81,0,0,0-.52-1l-3.23-1a2.38,2.38,0,0,1-.78-.44c-.5,1.75-2.76,9.68-3.3,11.71-.08.32-8.24-4.26-8.24-4.26A2.85,2.85,0,0,1,428.5,292.09Z"/><path class="cls-9" d="M452.58,356.15a3,3,0,0,1,0,1.15c-.51,2.92-.79,7.9,1.14,7.94s2.59-1.62,2.59-3.15c0-3-1.19-4.26-1.17-6.37,0-1.16.1-2.6.2-4.21l-3.87-.7Z"/><path class="cls-9" d="M441.25,359.38c1,1.09,2.87.79,5.86-1.39.37-.26.9-.18,1.49-.48a2.19,2.19,0,0,0,1.1-1.22,1.21,1.21,0,0,0,.06-.8,3.5,3.5,0,0,0-.24-.73,1.55,1.55,0,0,1-.08-.23,8,8,0,0,1-.25-1.87s0-.85,0-2.27l-3.66-.65c.41,1.84.68,3.13.7,3.43.09,1.46-2.09,3.12-3.44,4.11a10.5,10.5,0,0,0-1,.76C441.47,358.38,440.86,359,441.25,359.38Z"/><path class="cls-5" d="M441.16,302.07a91.46,91.46,0,0,0,0,26.95c.1.55.2,1.1.26,1.67a9.3,9.3,0,0,0,.15,1c.75,3.7,2.93,21.92,2.93,21.92.16,1.06,5.66.84,5.58-.15,0,0-1-10.15-1.47-16.62L451.38,357c.21,1.13,5.42.87,5.44,0,0,0-.23-16.65-2.34-24.28a8.27,8.27,0,0,1-.29-1.78l0-.32a8.68,8.68,0,0,1,.16-2.22c.71-3.53,3.34-16.34,1.57-26.32l-5.84,1.85S441.56,299.65,441.16,302.07Z"/><path class="cls-10" d="M443.63,275.27c.65.45,1.34.85,1.63,1l2.51,1.19a2.14,2.14,0,0,0,.18-2.15c-.49-1.73-4-6.71-4-6.71l-1.29,3.82A2.48,2.48,0,0,0,443.63,275.27Z"/><path class="cls-31" d="M450.19,288.19a1.29,1.29,0,0,1-1.83,1.83,1.29,1.29,0,0,1,1.83-1.83Z"/><path class="cls-11" d="M456.12,308.36a1.54,1.54,0,0,0,.89-1.7c-.16-1.07-.4-2.79-.57-4.34a27.83,27.83,0,0,1-.19-3v-5.79l1.14-3.87.77-2.63c0-3.05-1.55-4.36-4.11-5.92l-.82-.49-4-2.29c-.19-.1-1.68.72-1.88.64a6.64,6.64,0,0,0-1.42-.38c-1.81-.34-4.8,1.88-4.77,4.47l.27,3.43.32,4,.33,4.18a9.4,9.4,0,0,1,0,1.83v.09a.34.34,0,0,1,0,.1c-.13,1.43-1.51,6.51-2.15,8.79a1.45,1.45,0,0,0,.79,1.6C443.7,308.94,448.74,310.86,456.12,308.36Z"/><path class="cls-9" d="M447.38,273.39v7.11c0,.33.31.65.87.85a3.89,3.89,0,0,0,3.07-.2.82.82,0,0,0,.44-.65v-7.11Z"/><path class="cls-32" d="M447.38,273.56v4.92a1.19,1.19,0,0,0,1.68,1.09,6.76,6.76,0,0,0,2.2-1.72,2.09,2.09,0,0,0,.51-1.37v-2.92Z"/><path class="cls-9" d="M444.46,275.92c.6,2.48,2,3.34,3.45,3.24a5,5,0,0,0,2-.62,7.74,7.74,0,0,0,3.41-4.1,7.19,7.19,0,0,0,.5-2.32c.09-3.27-2.05-5.31-4.75-5.39C442.9,266.56,444.16,274.7,444.46,275.92Z"/><path class="cls-33" d="M444.52,313.14c.15,4.43,1.35,14.16,1.85,17.24a13.57,13.57,0,0,0,.76,2.74l1.51,3.82-.43-2.06-.84-1.65a5,5,0,0,1-.31-1.72v-16a1.67,1.67,0,0,0,0-.28,1.26,1.26,0,0,0-.64-1Z"/><path class="cls-11" d="M441.16,290.27a4.41,4.41,0,1,0,4.41-4.41A4.42,4.42,0,0,0,441.16,290.27Z"/><path class="cls-10" d="M443.7,270.27l.1-.19c-.13-3.6,3.9-6.83,7.21-4.83,4.78-.82,6.35,6.42,6.12,9.7-.21,2.87-4.82,3.41-6.71,2.53,0,0,2.08-1.72,1.22-5.27a3.82,3.82,0,0,0-.33-.91,12.64,12.64,0,0,1-4.11,0,9.06,9.06,0,0,1-1-.19c0-.82,0-1.81,0-1.9a7.39,7.39,0,0,0-.8,1.68c-.35-.11-.68-.22-1-.34-.05.12-.1.24-.14.37a4.72,4.72,0,0,0-.16,1c-.08-.43-.29-1.12-.34-1.57C443.77,270.3,443.73,270.28,443.7,270.27Z"/><path class="cls-12" d="M445.75,290.27s-2.67,8.08-.92,9.88c3.18,3.26,8.71-1.3,11.26-3.56l.17-.16c.1-1,.23-2,.4-3.05l.06-.32-9.58,5.27C447.06,299.22,446.23,289.7,445.75,290.27Z"/><path class="cls-12" d="M447.48,295.16a17.9,17.9,0,0,0,.29,2.59l4-6.27s-.8-6.31-1.06-8c0,0-2,.29-2.25,1C448.34,284.93,447.65,293.92,447.48,295.16Z"/><path class="cls-32" d="M447.91,279.16a5,5,0,0,0,2-.62,6.58,6.58,0,0,0,1.2-.83,4.91,4.91,0,0,1-.68-.23,4.73,4.73,0,0,0,1.43-3.41,1.92,1.92,0,0,0-.82.77l-.11.16a2.74,2.74,0,0,0-2,1.4l-.42.62a3.55,3.55,0,0,0-.55,1.53A4.07,4.07,0,0,1,447.91,279.16Z"/><path class="cls-16" d="M453.34,272.37c-.81,1.07-2.95,4-3.85,5.27a.66.66,0,0,0,.16.94l2.41,1.67a.52.52,0,0,0,.7-.12l3.81-5.17a.68.68,0,0,0-.14-.94l-2.37-1.75A.51.51,0,0,0,453.34,272.37Z"/><path class="cls-9" d="M448.61,278.61a2.87,2.87,0,0,1,.46-1.26q.18-.3.39-.6c.46-.64,1-1.17,1.55-1.13s.62-1.32,1.62-1c.52.17.17,1.83.16,2.47,0,.37,1.39-2.5,2.07-2,.46.37-.65,2-1.48,3.27l.62-.54.16-.15a.68.68,0,0,1,.82-.18c.35.22.1.73-.1.89l-1.36,1.66a2.59,2.59,0,0,1-.63.56l-.48.3a3.44,3.44,0,0,0-1.24,1.38,3.76,3.76,0,0,0-.4,1.35l-.63,6.65-4.1-.5C446.78,286.1,448.37,280.88,448.61,278.61Z"/><path class="cls-11" d="M445.86,299.79c4,2.11,10.61-5.75,11.39-6.93,2.69-4.11,2.25-7.25-.82-9.95-.73-.69-6.53,10.15-6.53,10.15l.32-2.89c-.14-.64-3.56-1.47-4.18-1.07C446,289.1,443.45,298.53,445.86,299.79Z"/><path class="cls-16" d="M449.76,355.49a3,3,0,0,0-.24-.73c0-.07,0-.14-.08-.23-.24,1.39-4.21,3.5-5.49,3.62-.86.08-1.45-.54-1.17-.88a10.62,10.62,0,0,0-1,.77l-.1.11c-.33.34-.79.85-.43,1.23a2.1,2.1,0,0,0,2,.56,9.71,9.71,0,0,0,3.86-1.95c.37-.26.9-.17,1.49-.48a2.23,2.23,0,0,0,1.1-1.22A1.21,1.21,0,0,0,449.76,355.49Z"/><path class="cls-16" d="M456,359.65c.16,1.4-.37,2.9-2.2,2.84a1.56,1.56,0,0,1-1.61-1.77,9.25,9.25,0,0,0,0,2.95,5.56,5.56,0,0,0,.15.67,1.14,1.14,0,0,0,1.23,1,2.2,2.2,0,0,0,2.46-1.67A7.66,7.66,0,0,0,456,359.65Z"/><ellipse class="cls-2" cx="104.3" cy="368.11" rx="15.02" ry="7.75"/><path class="cls-9" d="M103.55,316.51a29.79,29.79,0,0,1-6.1,1.32c-.35.06-2.17.48-3.46.83a7.62,7.62,0,0,1-3.2-.76c-1.78-1.36.83-3.07.83-3.07.18-1.38,3.59,1.57,4.9,1,2.79-1.15,3.83-2,5.47-2.67Z"/><path class="cls-27" d="M100,314c.26,1.21,1.82,2.39,1.57,3.14,0,0,4.89-1.08,5.59-2.07s.24-9.3,0-12.8a1.11,1.11,0,0,0-.34-.81,1.21,1.21,0,0,0-.86-.35s-3.57-.52-3.55.06c.06,1.47.16,9.39.25,10.91a.38.38,0,0,1-.21.34Z"/><path class="cls-21" d="M108.86,364.74a2.58,2.58,0,0,1,0,.4,1,1,0,0,1-.42.84l-4.29,2.93a4.84,4.84,0,0,1-1.61.75,3.18,3.18,0,0,1-.52.1l-.21,0h-.13a2.54,2.54,0,0,1-.39,0h-.11a3.07,3.07,0,0,1-.42-.07c-.71-.18-1.29-.82-.86-1.58a.73.73,0,0,1,.11-.13l.07-.08.08-.08.11-.1.08-.09a.47.47,0,0,0,.1-.1l.11-.1.71-.72c.43-.45.89-1,1.27-1.43A13.64,13.64,0,0,0,105,361.1s1.49.28,1.89-.25a21.59,21.59,0,0,1,1.22,1.93,6.66,6.66,0,0,1,.77,2Z"/><path class="cls-16" d="M108.49,366.09l-4.27,2.9a4.8,4.8,0,0,1-3.43.84c-.73-.14-1.57-.87-1.13-1.63,0,0,1.4-1.22,1.65-1.48l.62.41a1.44,1.44,0,0,0,1.52-.07c2.94-1.54,4.93-2.74,4.62-4.28C109.84,365.28,108.77,365.9,108.49,366.09Z"/><path class="cls-21" d="M134.23,337.89l.37.09a.92.92,0,0,1,.62.65l1.26,4.78a5,5,0,0,1,.16,1.67c0,.17,0,.34-.08.5a1.8,1.8,0,0,0-.05.19c0,.05,0,.09,0,.13a2.37,2.37,0,0,1-.13.34l-.05.1a2.27,2.27,0,0,1-.19.34c-.39.59-1.15.9-1.69.27,0,0,0-.07-.08-.13a.93.93,0,0,1-.05-.1l-.05-.09a1.12,1.12,0,0,0,0-.13l-.06-.11a1,1,0,0,0-.05-.12l-.06-.12c-.12-.26-.26-.56-.42-.87-.26-.53-.56-1.1-.87-1.6a13.2,13.2,0,0,0-3-3.45s.73-1.25.38-1.78a18,18,0,0,1,2.12-.47,6.62,6.62,0,0,1,2-.07Z"/><path class="cls-16" d="M135.32,338.65l1.24,4.75a4.6,4.6,0,0,1-.35,3.34c-.35.61-1.28,1.12-1.82.49,0,0-.64-1.64-.8-2l.56-.42a1.37,1.37,0,0,0,.43-1.39c-.44-3.12-.88-5.28-2.35-5.49C135,337.19,135.24,338.34,135.32,338.65Z"/><path class="cls-10" d="M100.32,297.46c.06-3.64,2.39-6.33,5.21-6,.3,0,.14-8,.14-8,3.25-2.41,9.63.36,10.54,4.69,2,.59,3.65,2.8,3.94,5.45a6.26,6.26,0,0,1-.49,3.29c2,2.89,1.79,6.33-.61,7.75a4.65,4.65,0,0,1-2.91.58,7.86,7.86,0,0,1-5.42-3.24,7.42,7.42,0,0,1-.6-.94c-.79,2.34-2.66,3.85-4.8,3.59a4.63,4.63,0,0,1-2.67-1.31A7.87,7.87,0,0,1,100.32,297.46Z"/><path class="cls-10" d="M130.14,338.14c-2.71.05-7.87-.9-9.42-.7,0,0,1.15-17.27-1.89-20.24-1.93-1.88-10.76-.74-10.76-.74a18.47,18.47,0,0,0,.58,3.63,10,10,0,0,0-2-.45,9.79,9.79,0,0,0-1.17,1.5c-3.09,7.33-3.73,19.63-3.74,21,0,4.46,2.33,19.45,2.33,19.45.19,1.1,3.71.82,3.69-.21-.06-4.58.83-18.35.83-18.35s2.4-8.08,3.89-15.81l.66,0c.31,5.43,2.27,15.72,3.74,15.82,3.9.28,13-.62,14.19-1.55C131.8,340.88,131.2,338.11,130.14,338.14Z"/><path class="cls-14" d="M120,319.43a1.53,1.53,0,0,1-.67,1.07,5.7,5.7,0,0,1-1.27.67.66.66,0,0,1-.12.06,20.46,20.46,0,0,1-5.48,1.08c-2.63.15-5.37-.2-7-1.63-.51-.44.37-6,.24-6.63a3.44,3.44,0,0,0-.21-.76l-.4-1-.3-.8a8.09,8.09,0,0,0-1.81-2.73,3.59,3.59,0,0,1-1-1.72,3.83,3.83,0,0,1-.1-1.16c.05-.53.28-2.39.48-3.8a17.73,17.73,0,0,1,.74-3.38,2.77,2.77,0,0,1,1-1.45,2.65,2.65,0,0,1,1.65-.58h.23c.21,0,1.41-1,1.62-1l4.21,1.15c.3.07.58.16.86.24,2.74.8,4.47,1.63,5.15,4.32l-.66,2.47a51.46,51.46,0,0,0,.74,7.19c0,.18.08.35.11.53a45.06,45.06,0,0,0,1.47,5.95c.16.45.3.76.39,1A1.47,1.47,0,0,1,120,319.43Z"/><path class="cls-27" d="M120,319.43a1.53,1.53,0,0,1-.67,1.07,5.7,5.7,0,0,1-1.27.67.66.66,0,0,1-.12.06,20.46,20.46,0,0,1-5.48,1.08c0-1.56.26-7.53.48-8.73.42-2.37.53-9.44.53-9.72l4.41,7.19c0,.18.08.35.11.53a45.06,45.06,0,0,0,1.47,5.95c.16.45.3.76.39,1A1.47,1.47,0,0,1,120,319.43Z"/><path class="cls-9" d="M104.7,291.71l1.59,6.26c.07.29.43.5,1,.56a3.87,3.87,0,0,0,2.81-.86.72.72,0,0,0,.26-.67l-1.57-6.26Z"/><path class="cls-32" d="M104.77,292l1.1,4.32a1.15,1.15,0,0,0,1.8.6,6.49,6.49,0,0,0,1.67-2,1.8,1.8,0,0,0,.17-1.32l-.66-2.57Z"/><path class="cls-9" d="M102.64,294.31c1.46,3,3.76,2.77,5.6,1.34a7.21,7.21,0,0,0,2.5-6.43,4.57,4.57,0,0,0-5.45-3.92C99.46,286.27,102.14,293.27,102.64,294.31Z"/><path class="cls-10" d="M109.37,284c-3.05-1.43-7-.15-8.1,1.83a5,5,0,0,0,.39,5,10,10,0,0,1,0-2,2.33,2.33,0,0,0,1.13.14c2-.13,5.4-1.46,6,2.19,0,0,.52.33.75-.16s.85-.61,1-.37c.41.65-.51,3-.51,3C113.72,290.89,112,285.25,109.37,284Z"/><path class="cls-9" d="M108.65,291.28c-.39.78-.28,1.6.25,1.83s1.28-.2,1.67-1,.27-1.6-.25-1.83S109,290.51,108.65,291.28Z"/><path class="cls-9" d="M115.46,330.24l.23-1.91a2.81,2.81,0,0,1,.22-.75l.22-.46a3.09,3.09,0,0,0,.28-1.64l-1.09-10.57a8.6,8.6,0,0,0-.15-1.23c-.34-1.83-1.36-7.31-1.59-8.83a.69.69,0,0,1,.59-.79l2.9-.37a.69.69,0,0,1,.78.61l1,9.41a8.11,8.11,0,0,1,0,1l-.24,11.55a18.6,18.6,0,0,1,.35,2.07l.42,3.3a.34.34,0,0,1-.27.39.41.41,0,0,1-.28-.05c-.14.45-.34.76-.62.84-1,.31-1.61-3.38-1.61-3.38s-.24.79-.3,1.06a.55.55,0,0,1-.52.43C115.38,330.88,115.39,330.44,115.46,330.24Z"/><path class="cls-14" d="M117.76,301.39l.4,2.24,1.25,10a7.45,7.45,0,0,1,0,1.05l-.28,4.82c0,1-2.6.66-3.68.44l-.74-5a8.81,8.81,0,0,0-.14-1.15c-.17-1-2.61-13.76-2.61-13.76Z"/><path class="cls-3" d="M143.44,158a20.7,20.7,0,0,1-20.68,0L94.64,140.32v5.55a7.16,7.16,0,0,0,3.57,6.19l26.15,15.1a17.49,17.49,0,0,0,17.48,0L168,152.06a7.16,7.16,0,0,0,3.57-6.19v-6.21Z"/><path class="cls-4" d="M171.53,140.27c0,.21-.09.39-.14.58a4.71,4.71,0,0,1-2.26,3l-29,16.61a14.2,14.2,0,0,1-14.08,0l-.41-.23-25.8-14.79-2.77-1.59a4.74,4.74,0,0,1-2.28-3,3.61,3.61,0,0,1-.12-.57,4.76,4.76,0,0,1,2.4-4.82l29-16.61a14.2,14.2,0,0,1,14.08,0l29,16.61A4.8,4.8,0,0,1,171.53,140.27Z"/><path class="cls-2" d="M140.24,149.88c0,4.84-6.12,9-14.58,10.35l-25.8-14.79c3.29-3.8,10.67-6.45,19.26-6.45C130.78,139,140.24,143.87,140.24,149.88Z"/><path class="cls-16" d="M117.22,119a8.76,8.76,0,0,1,.79-2.49,9.6,9.6,0,0,1,0-2.93,6.72,6.72,0,0,1,2.78-4.76l1.21,4.85a3.32,3.32,0,0,1,1.06.18c.27.09,2.61-8,2.61-8,2.48-1.27,6.06,1.12,7.42,4a6.22,6.22,0,0,1,.61,2.66c1.8,1,3.06,3.59,2.93,6.38a6.74,6.74,0,0,1-1,3.28c1.5,3.37.75,6.85-1.73,7.84a4.19,4.19,0,0,1-2.86,0,8.19,8.19,0,0,1-4.67-4.4,9.7,9.7,0,0,1-.43-1.08c-1.1,2.25-3.1,3.44-5.1,2.75a4.76,4.76,0,0,1-2.34-1.86A9,9,0,0,1,117.22,119Z"/><path class="cls-34" d="M113.15,138.52c-1.31,1-2.6,1.9-3.31,2.43a16.56,16.56,0,0,1-1.58.76,2,2,0,0,0-.54-.46l-2.79-1.58a1.44,1.44,0,0,1,.68-.11,7.66,7.66,0,0,0,2.74-.2,1.89,1.89,0,0,0,.37-.21,10.87,10.87,0,0,0,2.09-2Z"/><path class="cls-10" d="M120.35,120.29l-3,3.09s-.94,7.45-1.63,8.77c-.58,1.13-6.51,5.88-6.33,6.31A2.94,2.94,0,0,0,112,140c2.44-1.59,7.51-5.25,8.38-6.51.74-1.08,1.69-12,1.69-12A2.75,2.75,0,0,0,120.35,120.29Z"/><path class="cls-35" d="M104.73,183.3c.12-.14.48-.42.92-.79,1.24-1,3-2.7,3.07-4.11,0-1.57-1.17-13.37-1.83-18.63a33.87,33.87,0,0,1-.2-5.87c.12-2.7,7.85-9.54,10.82-12l.18-.16v-.15a3.26,3.26,0,0,1,2.37-1.72c1.28,0,3,.11,5.08.22l-.62,3.41-.78,4.2-6.23,4.46L111.84,156v.35c1.48,5.59.35,17.14-.15,20.55a5.66,5.66,0,0,0,.12,2.39l.09.25a1.43,1.43,0,0,0,.08.22,2.64,2.64,0,0,1,.27.68,1.19,1.19,0,0,1,0,.77,2.12,2.12,0,0,1-1,1.23c-.55.33-1.07.27-1.4.55-2.75,2.24-4.49,2.62-5.54,1.63C103.9,184.24,104.45,183.64,104.73,183.3Z"/><path class="cls-10" d="M104.3,184.61c1,1,2.79.61,5.54-1.63.33-.28.85-.22,1.4-.55a2.12,2.12,0,0,0,1-1.23,1.19,1.19,0,0,0,0-.77,2.64,2.64,0,0,0-.27-.68,1.43,1.43,0,0,1-.08-.22c-.16,1.35-4.75,4.05-5.61,4.12s-1-.56-.63-1.14c-.44.37-.8.65-.92.79C104.45,183.64,103.9,184.24,104.3,184.61Z"/><path class="cls-35" d="M114.08,158.84c-.1-.63-.19-1.24-.24-1.83-.09-1,.93-2.83,2.64-4.8.51-.57,1-1.15,1.43-1.7,2.28-2.94,4.45-5.72,4.22-7.39a.25.25,0,0,1,0-.08l.57.2.8.31a1.72,1.72,0,0,0,.51.1l.22,0,.13-.08a.69.69,0,0,1,.41-.13,2.62,2.62,0,0,1,.62.11,4,4,0,0,0,1,.16,7.69,7.69,0,0,0,2.46-.63,10,10,0,0,1,2.42-.68v.1A9.46,9.46,0,0,1,127.59,153l-8,5.95v.49c2.25,5.27-.17,17,0,20.42,0,.8.17.79.53,1.51a1.83,1.83,0,0,0,.13.24l.12.2a2.75,2.75,0,0,1,.39.62,1.17,1.17,0,0,1,.13.76,2.12,2.12,0,0,1-.75,1.38c-.48.42-1,.47-1.28.8-2.29,2.7-3.93,3.39-5.14,2.61-.47-.29,0-1,.18-1.36.1-.16.39-.5.76-.94,1-1.23,2.5-3.22,2.27-4.61C116.57,178.89,114.08,158.84,114.08,158.84Z"/><path class="cls-10" d="M113.72,187.94c1.21.78,2.85.09,5.14-2.61.28-.33.8-.38,1.28-.8a2.12,2.12,0,0,0,.75-1.38,1.17,1.17,0,0,0-.13-.76,2.75,2.75,0,0,0-.39-.62l-.12-.2c.09,1.35-3.93,4.84-4.76,5.07s-1.13-.36-.83-1c-.37.44-.66.78-.76.94C113.69,187,113.25,187.65,113.72,187.94Z"/><path class="cls-5" d="M116.64,141.31a21,21,0,0,1,2.4-1.9c1.61,0,3.69.14,5.69.25l-.63,3.44c.74-.47,1.42.07,2.2.08,1.4,0,3.6-1.41,5.35-1.32l.08.48a10,10,0,0,1-3.83,11l-6.81,4.44c-2.52.47-14-4.53-13.73-6.05C108.23,147.5,116.64,141.31,116.64,141.31Z"/><path class="cls-17" d="M116.64,141.31a17.07,17.07,0,0,0,6.73,2.68,27.08,27.08,0,0,0,3,.18c2.55,0,4.57-.46,5.57-1.35a6.71,6.71,0,0,1-.19-.89,10.91,10.91,0,0,1-.16-2.22l0-1.26-.14-3.66-.08-2.08,1.88-5.83c0-2.73-1.57-3.87-3.88-5.28l-.56-.32-.15-.09-1.91-1.11-1.61-.94c-.19-.08-1.51.64-1.69.57a4.9,4.9,0,0,0-1.4-.36,4.78,4.78,0,0,0-4.81,4.85l.87,10.67A11.31,11.31,0,0,1,116.64,141.31Z"/><path class="cls-35" d="M127.2,120.37c0-.07,0-6.39,0-6.39h-4.3v6s-.27.08-.39.13c-.85.35-.35,2.13,0,2.39.54.41,2.36-.16,3.93-.64A1.22,1.22,0,0,0,127.2,120.37Z"/><path class="cls-10" d="M125.66,142.38a14.23,14.23,0,0,0,6.11-.45,10.91,10.91,0,0,1-.16-2.22l0-1.26-.14-3.66-2.63-7.31-2.06,10.13-.38,3.67Z"/><path class="cls-34" d="M122.94,117.77l.37,2.72c.1.51,1.19.64,2,.14a3.66,3.66,0,0,0,1.9-3v-2.18Z"/><path class="cls-35" d="M119.9,117.59c1.25,3.34,3.51,3.28,5.41,1.88a5.11,5.11,0,0,0,2.33-3.81c0-1,.59-2.1.5-2.92-.32-3.19-2.57-4.92-5.1-4.66C117.27,108.66,119.47,116.43,119.9,117.59Z"/><path class="cls-19" d="M127.7,148.5a1,1,0,0,0-.51-.91l-14.4-8.33a2,2,0,0,0-2,0L102,144.32a1,1,0,0,0-.5,1v.56a1,1,0,0,0,.51.84l14.4,8.31a2,2,0,0,0,2,0l8.76-5a1,1,0,0,0,.5-.8Z"/><path class="cls-5" d="M117.73,153.5l-4-9.9a2.89,2.89,0,0,0-1.24-1.41L99.81,135a1,1,0,0,0-1,.06l-.4.25a1.24,1.24,0,0,0-.64,1.59l3.82,9.8a2.29,2.29,0,0,0,1,1.19l13.07,7.5a1,1,0,0,0,1,0l.61-.38A1.2,1.2,0,0,0,117.73,153.5Z"/><path class="cls-35" d="M115.83,143.62a8.28,8.28,0,0,0,2.77.91,7.15,7.15,0,0,0,2.57-.68c.81-.32,2.17-.81,3.63-1.36l-.93-2.67a13.57,13.57,0,0,1-2.8,1.4,3.5,3.5,0,0,1-.53.16c-1.22.17-3.46-1.61-3.73-.41C116.81,141,114.38,142.27,115.83,143.62Z"/><path class="cls-17" d="M121.09,141a2.26,2.26,0,0,1,.81,2.52s8.47-1.89,10.54-4.47c1-1.25,1.27-7.93.88-12.21,0,0-.95-1.94-2.25-1.89a2.26,2.26,0,0,0-2.16,2.14c-.14,2.62.09,8.4-.2,9.39C128.52,137.18,121.09,141,121.09,141Z"/><path class="cls-16" d="M126.21,105.62c-1.58-1-3.08-.33-4.84.3-2.71,1-3.18,2.1-2.87,4.37a21.12,21.12,0,0,0,.64,3.26,11.73,11.73,0,0,1,.18-2.14s.4.34,1.88.32a13.65,13.65,0,0,0,2.58-.48,2,2,0,0,1,2.24,1.21,7.34,7.34,0,0,1,.58,2.22,7.18,7.18,0,0,1,.46-1c.26-.46,1.18-.84,1.32-.56.37.74-.5,3.94-.5,3.94C132,114.46,128.75,107.2,126.21,105.62Z"/><path class="cls-35" d="M126.47,113.75c-.4.85-.27,1.76.29,2s1.32-.22,1.72-1.08.27-1.76-.29-2S126.87,112.89,126.47,113.75Z"/><path class="cls-2" d="M32.48,324.17a4,4,0,0,0-4,0L14,332.87a2,2,0,0,0,0,3.5L25.37,343l-2,2.61H29a11.5,11.5,0,0,0,5.72-1.53l11.33-6.77a3,3,0,0,0,0-5.15Z"/><path class="cls-3" d="M36.76,326.74l-2.56,1-7.89-4.62a5.41,5.41,0,0,0-5.42,0l-7.79,4.5-2.45-1.09v10.1a3.75,3.75,0,0,0,1.87,3.25l8.58,5a5.41,5.41,0,0,0,5.42,0L34.9,340a3.77,3.77,0,0,0,1.86-3.24Z"/><path class="cls-4" d="M35.67,328.62l-9.15,5.28a5.41,5.41,0,0,1-5.42,0l-9.37-5.47a2.18,2.18,0,0,1,0-3.76l9.16-5.28a5.43,5.43,0,0,1,5.42,0l9.36,5.47a2.37,2.37,0,0,1,.63.54A2.18,2.18,0,0,1,35.67,328.62Z"/><path class="cls-5" d="M23.7,326.64a.58.58,0,0,0,.59-.59v-16.9l-1.17-.64v17.54A.58.58,0,0,0,23.7,326.64Z"/><polygon class="cls-16" points="23.12 306.48 23.12 315.15 34.41 321.75 31.94 315.88 34.41 312.89 23.12 306.48"/></g></g></svg>