<svg xmlns="http://www.w3.org/2000/svg" width="41.25" height="41.25"><defs><clipPath id="a"><path d="M104.57 23.445h41.25V64.7h-41.25Zm0 0"/></clipPath></defs><g clip-path="url(#a)" transform="translate(-104.57 -23.445)"><path fill="#f2f6f8" d="M145.41 44.066a20.219 20.219 0 1 0-20.219 20.223 20.217 20.217 0 0 0 20.219-20.223"/><path fill="#67c0eb" d="M125.191 24.25a19.818 19.818 0 1 0 19.821 19.816 19.841 19.841 0 0 0-19.821-19.816Zm0 40.441a20.627 20.627 0 1 1 14.582-6.043 20.478 20.478 0 0 1-14.582 6.043"/></g><path fill="#fafcfd" d="M39.141 20.621a18.52 18.52 0 1 0-18.52 18.52 18.522 18.522 0 0 0 18.52-18.52"/><path fill="#fff" d="M37.809 20.621a17.188 17.188 0 1 0-17.188 17.188 17.188 17.188 0 0 0 17.188-17.187"/><path fill="#67c0eb" d="M13.344 13.032a2.086 2.086 0 1 1-2.086 2.086 2.086 2.086 0 0 1 2.086-2.086Zm0 4.976a2.891 2.891 0 1 0-2.891-2.891 2.894 2.894 0 0 0 2.891 2.891M20.653 13.032a2.086 2.086 0 1 1-2.086 2.086 2.086 2.086 0 0 1 2.086-2.086Zm0 4.976a2.891 2.891 0 1 0-2.891-2.891 2.894 2.894 0 0 0 2.891 2.891M23.543 21.094a.4.4 0 0 0-.4.4v10.475a.714.714 0 0 1-.668.8.785.785 0 0 1-.773-.8v-4.734a1.047 1.047 0 0 0-2.094 0v4.734a.782.782 0 0 1-.77.8.717.717 0 0 1-.672-.8V21.496a.4.4 0 1 0-.8 0v10.473a1.507 1.507 0 0 0 1.476 1.6 1.59 1.59 0 0 0 1.574-1.6v-4.734a.242.242 0 0 1 .485 0v4.734a1.591 1.591 0 0 0 1.578 1.6 1.507 1.507 0 0 0 1.473-1.6V21.496a.4.4 0 0 0-.4-.4M27.899 13.032a2.086 2.086 0 1 1-2.09 2.086 2.088 2.088 0 0 1 2.09-2.086Zm0 4.976a2.891 2.891 0 1 0-2.891-2.891 2.893 2.893 0 0 0 2.891 2.891"/><path fill="#67c0eb" d="M30.348 18.434H10.895a2.945 2.945 0 0 0-2.938 2.938V25.2a1.425 1.425 0 0 0 1.395 1.512 1.449 1.449 0 0 0 .7-.176v5.434a1.51 1.51 0 0 0 1.477 1.6 1.59 1.59 0 0 0 1.574-1.6v-4.735a.242.242 0 1 1 .484 0v4.734a1.591 1.591 0 0 0 1.578 1.6 1.51 1.51 0 0 0 1.477-1.6V21.496a.402.402 0 0 0-.805 0v10.473a.717.717 0 0 1-.672.8.786.786 0 0 1-.773-.8v-4.734a1.045 1.045 0 1 0-2.09 0v4.734a.786.786 0 0 1-.773.8.717.717 0 0 1-.672-.8V21.496a.402.402 0 0 0-.805 0v3.609a.376.376 0 0 0-.012.094.7.7 0 0 1-.687.711.635.635 0 0 1-.59-.711v-3.828a2.136 2.136 0 0 1 2.133-2.133h19.453a2.136 2.136 0 0 1 2.133 2.133v3.828a.635.635 0 0 1-.59.711.7.7 0 0 1-.688-.711.374.374 0 0 0-.011-.094v-3.609a.4.4 0 0 0-.8 0v10.473a.717.717 0 0 1-.672.8.785.785 0 0 1-.773-.8v-4.734a1.045 1.045 0 1 0-2.09 0v4.734a.786.786 0 0 1-.774.8.717.717 0 0 1-.671-.8V21.496a.402.402 0 0 0-.805 0v10.473a1.51 1.51 0 0 0 1.476 1.6 1.591 1.591 0 0 0 1.579-1.6v-4.734a.24.24 0 1 1 .48 0v4.734a1.594 1.594 0 0 0 1.578 1.6 1.51 1.51 0 0 0 1.477-1.6v-5.434a1.449 1.449 0 0 0 .7.176 1.425 1.425 0 0 0 1.394-1.512v-3.828a2.944 2.944 0 0 0-2.937-2.937"/><path fill="#d4145a" d="M24.23 10.655h-5.434a.5.5 0 0 0-.355.145l-.738.738v-.379a.5.5 0 0 0-.5-.5h-.18a1.41 1.41 0 0 1 0-2.82h7.207a1.41 1.41 0 0 1 0 2.82Zm0-3.625h-7.211a2.214 2.214 0 0 0-.117 4.426v.8a.5.5 0 0 0 .308.465.488.488 0 0 0 .2.039.5.5 0 0 0 .355-.148l1.16-1.16h5.305a2.213 2.213 0 1 0 0-4.426"/><path fill="#d4145a" d="M20.575 8.855h-.125a.4.4 0 1 0 0 .8h.125a.4.4 0 0 0 0-.8M18.946 8.855h-.125a.4.4 0 1 0 0 .8h.125a.4.4 0 0 0 0-.8M22.2 8.855h-.125a.4.4 0 1 0 0 .8h.125a.4.4 0 0 0 0-.8"/></svg>