<svg xmlns="http://www.w3.org/2000/svg" xmlns:xlink="http://www.w3.org/1999/xlink" width="453" height="453" viewBox="0 0 453 453">
  <defs>
    <clipPath id="clip-path">
      <rect id="Rectangle_2" data-name="Rectangle 2" width="453" height="453" transform="translate(603 202)" fill="#fff" stroke="#707070" stroke-width="1"/>
    </clipPath>
    <linearGradient id="linear-gradient" x1="3.968" y1="0.5" x2="4.968" y2="0.5" gradientUnits="objectBoundingBox">
      <stop offset="0" stop-color="#29abe2"/>
      <stop offset="1" stop-color="#2382aa"/>
    </linearGradient>
    <linearGradient id="linear-gradient-2" x1="1.754" y1="0.5" x2="2.754" y2="0.5" gradientUnits="objectBoundingBox">
      <stop offset="0" stop-color="#ffc444"/>
      <stop offset="0.996" stop-color="#f36f56"/>
    </linearGradient>
    <linearGradient id="linear-gradient-3" x1="1.472" y1="0.5" x2="2.472" y2="0.5" gradientUnits="objectBoundingBox">
      <stop offset="0.004" stop-color="#e38ddd"/>
      <stop offset="1" stop-color="#9571f6"/>
    </linearGradient>
    <linearGradient id="linear-gradient-4" x1="0" y1="0.5" x2="1" y2="0.5" xlink:href="#linear-gradient"/>
    <linearGradient id="linear-gradient-5" x1="0.11" y1="1.033" x2="-0.981" y2="2.524" xlink:href="#linear-gradient-2"/>
    <linearGradient id="linear-gradient-6" x1="0.274" y1="0.363" x2="0.895" y2="0.706" gradientUnits="objectBoundingBox">
      <stop offset="0" stop-color="#444b8c"/>
      <stop offset="0.996" stop-color="#26264f"/>
    </linearGradient>
    <linearGradient id="linear-gradient-7" x1="0.707" y1="0.204" x2="-0.293" y2="1.635" xlink:href="#linear-gradient-3"/>
    <linearGradient id="linear-gradient-8" x1="0.761" y1="0.152" x2="0.453" y2="0.563" xlink:href="#linear-gradient-3"/>
    <linearGradient id="linear-gradient-9" x1="0.169" y1="-0.343" x2="0.648" y2="0.878" xlink:href="#linear-gradient-3"/>
    <linearGradient id="linear-gradient-10" x1="-0.122" y1="2.096" x2="0.853" y2="-0.405" gradientUnits="objectBoundingBox">
      <stop offset="0.004" stop-color="#ebeff2"/>
      <stop offset="1" stop-color="#fff"/>
    </linearGradient>
    <linearGradient id="linear-gradient-11" x1="0.771" y1="0.088" x2="-0.679" y2="2.118" xlink:href="#linear-gradient-3"/>
    <linearGradient id="linear-gradient-12" x1="-3.826" y1="-7.183" x2="5.975" y2="10.228" xlink:href="#linear-gradient"/>
    <linearGradient id="linear-gradient-13" x1="-4.973" y1="-1.032" x2="10.54" y2="3.312" xlink:href="#linear-gradient"/>
    <linearGradient id="linear-gradient-14" x1="-1.294" y1="-9.423" x2="2.407" y2="11.052" xlink:href="#linear-gradient"/>
    <linearGradient id="linear-gradient-15" x1="4.913" y1="-0.598" x2="3.833" y2="4.867" xlink:href="#linear-gradient"/>
    <linearGradient id="linear-gradient-16" x1="3.294" y1="-0.249" x2="2.656" y2="1.807" xlink:href="#linear-gradient"/>
    <linearGradient id="linear-gradient-17" x1="2.865" y1="1.627" x2="3.118" y2="0.675" xlink:href="#linear-gradient"/>
    <linearGradient id="linear-gradient-18" x1="3.996" y1="-0.53" x2="3.171" y2="2.631" xlink:href="#linear-gradient"/>
    <linearGradient id="linear-gradient-19" x1="3.528" y1="3.338" x2="3.407" y2="0.667" gradientUnits="objectBoundingBox">
      <stop offset="0" stop-color="#311944"/>
      <stop offset="1" stop-color="#893976"/>
    </linearGradient>
    <linearGradient id="linear-gradient-20" x1="8.69" y1="-0.345" x2="8.816" y2="1.228" xlink:href="#linear-gradient-19"/>
    <linearGradient id="linear-gradient-21" x1="3.155" y1="0.5" x2="4.155" y2="0.5" xlink:href="#linear-gradient-2"/>
    <linearGradient id="linear-gradient-22" x1="0.178" y1="-1.576" x2="0.581" y2="1.338" xlink:href="#linear-gradient-2"/>
    <linearGradient id="linear-gradient-23" x1="3.61" y1="-0.325" x2="3.23" y2="0.794" xlink:href="#linear-gradient-6"/>
    <linearGradient id="linear-gradient-24" x1="0.565" y1="-0.048" x2="0.199" y2="3.198" xlink:href="#linear-gradient-2"/>
    <linearGradient id="linear-gradient-25" x1="-22.892" y1="0.209" x2="-22.66" y2="5.256" xlink:href="#linear-gradient-6"/>
    <linearGradient id="linear-gradient-26" x1="-9.072" y1="0.978" x2="-9.072" y2="-0.236" xlink:href="#linear-gradient-6"/>
    <linearGradient id="linear-gradient-27" x1="2.895" y1="0.691" x2="2.706" y2="0.249" xlink:href="#linear-gradient-6"/>
    <linearGradient id="linear-gradient-28" x1="2.56" y1="1.422" x2="2.981" y2="0.015" xlink:href="#linear-gradient-19"/>
    <linearGradient id="linear-gradient-29" x1="2.547" y1="0.5" x2="3.547" y2="0.5" xlink:href="#linear-gradient-19"/>
    <linearGradient id="linear-gradient-30" x1="0" y1="0.5" x2="1" y2="0.5" xlink:href="#linear-gradient-2"/>
    <linearGradient id="linear-gradient-31" y1="0.5" x2="1" y2="0.5" gradientUnits="objectBoundingBox">
      <stop offset="0" stop-color="#aa80f9"/>
      <stop offset="0.996" stop-color="#6165d7"/>
    </linearGradient>
  </defs>
  <g id="Mask_Group_1" data-name="Mask Group 1" transform="translate(-603 -202)" clip-path="url(#clip-path)">
    <g id="Wavy_Bus-44_Single-12_Converted_" data-name="Wavy_Bus-44_Single-12 [Converted]" transform="translate(529.412 128.15)">
      <g id="Illustration" transform="translate(73.588 74.85)">
        <g id="Group_33" data-name="Group 33">
          <path id="Path_1" data-name="Path 1" d="M901.185,655.156C888.91,574.811,838.6,476.127,739.169,465.792c0,0-75.477-9.186-149.887,4.739C545.115,478.8,506.4,503.377,481.9,538.714s-32.685,78.421-22.755,119.5c6.453,26.685,10.8,54.291,9.623,81.7-1.5,34.577-4.35,70.933,10.933,103.164,22.4,47.24,77.03,61.148,124.706,65.6,17.563,1.634,35.208,2.3,52.787,3.687,33.736,2.668,71.563-1.65,104.086-10.431C926.964,857.151,913.46,735.5,901.185,655.156Z" transform="translate(-455.021 -462.82)" fill="#f4f7fa"/>
          <path id="Path_2" data-name="Path 2" d="M1701.22,671.536l-13-1.7a107.054,107.054,0,0,0-2.393-18.469l12.065-5.046a6.709,6.709,0,0,0,3.59-8.749l-8.814-21.3a6.632,6.632,0,0,0-8.669-3.606l-12.129,5.062a105.581,105.581,0,0,0-11.191-14.6l8.022-10.464a6.636,6.636,0,0,0-1.213-9.3l-18.113-13.925a6.623,6.623,0,0,0-9.283,1.229l-8.07,10.48a102.414,102.414,0,0,0-16.884-6.906l1.8-13.148a6.553,6.553,0,0,0-5.66-7.407l-22.642-2.976a6.68,6.68,0,0,0-7.472,5.693l-1.86,13.261a103.242,103.242,0,0,0-18.081,2.393l-5.014-12.372a6.56,6.56,0,0,0-8.62-3.574l-21.251,8.749a6.713,6.713,0,0,0-3.7,8.668l5.03,12.518a106.362,106.362,0,0,0-14.539,11.11l-10.69-8.28a6.694,6.694,0,0,0-9.348,1.229l-14.28,18.275a6.654,6.654,0,0,0,1.084,9.364l10.722,8.329a106.243,106.243,0,0,0-7.181,16.933l-13.6-1.779a6.839,6.839,0,0,0-7.6,5.79l-3.412,23.046a6.578,6.578,0,0,0,5.644,7.553l13.633,1.8a105.221,105.221,0,0,0,2.054,18.291l-12.792,5.337a6.917,6.917,0,0,0-3.784,8.863l8.523,21.671a6.6,6.6,0,0,0,8.733,3.671l12.809-5.369a105.19,105.19,0,0,0,10.965,14.766l-8.539,11.078a6.881,6.881,0,0,0,1.1,9.59l18.291,14.345a6.711,6.711,0,0,0,9.477-1.294l8.426-11.013a103.726,103.726,0,0,0,17.03,7.164l-1.925,13.73a6.736,6.736,0,0,0,5.741,7.682l23.094,3.024a6.867,6.867,0,0,0,7.617-5.935l1.86-13.633a104.231,104.231,0,0,0,18.453-2.442l5.062,12.6a6.666,6.666,0,0,0,8.8,3.687l21.542-9.121a6.925,6.925,0,0,0,3.671-8.96l-5.062-12.5a107.089,107.089,0,0,0,14.8-11.515l10.528,8.183a6.674,6.674,0,0,0,9.429-1.278l14.1-18.7a6.853,6.853,0,0,0-1.245-9.526l-10.431-8.086a106.585,106.585,0,0,0,7.083-17.4l13.035,1.714a6.7,6.7,0,0,0,7.488-5.838l2.96-23.094A6.735,6.735,0,0,0,1701.22,671.536Zm-35.919,13.73c-6.081,45.865-47.952,78.421-93.493,72.437-45.526-5.968-77.078-48.146-70.5-93.946,6.55-45.526,48.323-77.45,93.364-71.531C1639.716,598.129,1671.349,639.676,1665.3,685.266Z" transform="translate(-1296.41 -536.45)" fill="#d8dee8"/>
          <g id="Group_9" data-name="Group 9" transform="translate(288.215 244.677)">
            <g id="Group_4" data-name="Group 4" transform="translate(0 43.255)">
              <path id="Path_3" data-name="Path 3" d="M2271.977,2384.288c.049.016.1.016.162.032,8.555,1.358,19.278.4,26.2-5.288a18.855,18.855,0,0,0,6.889-11.644,27.311,27.311,0,0,0,.259-8.507,24.828,24.828,0,0,0-3.041-8.329,38.958,38.958,0,0,0-2.733-4.14c-2.814-3.784-9.493-9.1-6.4-14.474,1.876-3.25,6.178-5.24,9.024-7.52,6.081-4.868,10.447-11.871,10.512-19.876.049-6.291-3.9-12.517-8.345-16.739-18.113-17.208-4.771-46.8-30.4-44.474-25.65,2.329-31.213,27.914-21.606,51.817,3.218,8.005,7.132,16.173,9.315,24.534,1.714,6.582-.712,11.127-6.065,15.024-2.879,2.086-7.1,3.526-9.606,5.984-5.6,5.515-10.075,13.229-8.749,21.3,1.326,8.021,8.151,13.908,15.348,16.949A82.77,82.77,0,0,0,2271.977,2384.288Z" transform="translate(-2237.149 -2243.198)" fill="url(#linear-gradient)"/>
              <g id="Group_3" data-name="Group 3" transform="translate(32.015 29.141)" opacity="0.8">
                <path id="Path_4" data-name="Path 4" d="M2440.93,2528.463a.691.691,0,0,0,.178-.032.514.514,0,0,0,.307-.679c-.113-.291-10.739-29.968-1.423-53.741,9.461-24.162-1.116-50.038-1.229-50.3a.533.533,0,0,0-.987.4c.113.259,10.512,25.747,1.213,49.5-9.445,24.146,1.31,54.178,1.423,54.485A.618.618,0,0,0,2440.93,2528.463Z" transform="translate(-2435.11 -2423.389)" fill="#fff"/>
              </g>
            </g>
            <g id="Group_6" data-name="Group 6" transform="translate(21.857)">
              <path id="Path_5" data-name="Path 5" d="M2379.849,2115.513a75.555,75.555,0,0,1,7.165-9.493,86.625,86.625,0,0,0,18.647-32.652c3.073-9.849,2.992-21.121,4.9-31.31,1.375-7.375,3.881-14.507,6.469-21.526,5.531-14.943,13.811-32.3,27.736-41.272,6.437-4.156,15.995-4.561,23.111-1.585,9.2,3.865,17.353,11.369,17.935,21.833.809,14.377-11.741,30.485-1.359,43.7,15.9,20.232,8.458,42.712-13.391,53.725-7.116,3.59-15.461,6.906-21.412,12.42-5.968,5.531-2.41,14.943-1.747,21.946.615,6.566,1.31,14.2-2.879,19.811-7.051,9.477-24.113,13.6-35.191,14.539-10.722.906-22.9-.275-30.42-8.863C2368.108,2143.831,2371.812,2128.257,2379.849,2115.513Z" transform="translate(-2372.296 -1975.74)" fill="url(#linear-gradient-2)"/>
              <g id="Group_5" data-name="Group 5" transform="translate(24.47 50.585)" opacity="0.8">
                <path id="Path_6" data-name="Path 6" d="M2524.135,2418.92a.505.505,0,0,0,.485-.34c.356-.922,35.013-92.41,54.792-129.283a.512.512,0,0,0-.21-.711.525.525,0,0,0-.712.21c-19.811,36.938-54.5,128.49-54.857,129.412a.527.527,0,0,0,.307.679A.815.815,0,0,0,2524.135,2418.92Z" transform="translate(-2523.602 -2288.525)" fill="#fff"/>
              </g>
            </g>
            <g id="Group_8" data-name="Group 8" transform="translate(38.423 121.821)">
              <path id="Path_7" data-name="Path 7" d="M2498.161,2801.1c-2.313-.323-4.609-.712-6.906-1.067-6.4-1.035-14.329-3.024-16.35-10.156-.566-2.038.421-5.66.647-7.779a54.185,54.185,0,0,1,1.051-6.421,33.136,33.136,0,0,1,3.235-8.28c2.49-4.544,5.337-7.973,10.642-8.992a55.96,55.96,0,0,1,12.081-.792c21.428.7,24.065-7.035,35.838-23.547s89.256,10.189,42.517,39.526c0,0-7.035,4.561-32.685,1.585-4.69-.55-10.625-.906-14.6,2.119-7.019,5.353.032,16.69-7.051,21.137-4.124,2.587-10.771,3.364-15.51,3.542A72.168,72.168,0,0,1,2498.161,2801.1Z" transform="translate(-2474.732 -2729.001)" fill="url(#linear-gradient-3)"/>
              <g id="Group_7" data-name="Group 7" transform="translate(8.577 19.943)" opacity="0.8">
                <path id="Path_8" data-name="Path 8" d="M2528.307,2895.621a.537.537,0,0,0,.421-.21c.129-.178,13.7-18.631,32.959-22.981,7.536-1.7,14.038-5.515,20.329-9.2,10.609-6.21,20.636-12.081,35.434-9.073a.52.52,0,1,0,.21-1.019c-15.186-3.105-25.86,3.154-36.178,9.186-6.226,3.639-12.663,7.407-20.038,9.089-19.65,4.448-33.445,23.208-33.574,23.4a.538.538,0,0,0,.113.744A1.265,1.265,0,0,0,2528.307,2895.621Z" transform="translate(-2527.768 -2852.313)" fill="#fff"/>
              </g>
            </g>
          </g>
          <g id="Group_14" data-name="Group 14" transform="translate(328.929 142.865)">
            <g id="Group_12" data-name="Group 12" transform="translate(0 0)">
              <g id="Group_11" data-name="Group 11">
                <g id="Group_10" data-name="Group 10">
                  <circle id="Ellipse_1" data-name="Ellipse 1" cx="37.084" cy="37.084" r="37.084" fill="#fff"/>
                  <circle id="Ellipse_2" data-name="Ellipse 2" cx="32.943" cy="32.943" r="32.943" transform="translate(4.14 4.14)" fill="url(#linear-gradient-4)"/>
                </g>
              </g>
            </g>
            <g id="Group_13" data-name="Group 13" transform="translate(16.69 24.049)">
              <path id="Path_9" data-name="Path 9" d="M2619.345,1504.959a1.648,1.648,0,0,0,1.407,0l18.129-9.3a3.843,3.843,0,0,0-2.49-.76h-32.717a3.818,3.818,0,0,0-2.474.744Z" transform="translate(-2599.728 -1494.9)" fill="#f4f7fa"/>
              <path id="Path_10" data-name="Path 10" d="M2614.612,1524.235a4.833,4.833,0,0,1-2.232.534,5.511,5.511,0,0,1-2.393-.534L2592.1,1515v19.585a4.162,4.162,0,0,0,3.962,3.768h32.717a3.754,3.754,0,0,0,3.51-3.768V1515Z" transform="translate(-2592.1 -1511.749)" fill="#f4f7fa"/>
            </g>
          </g>
          <g id="Group_19" data-name="Group 19" transform="translate(286.493 52.137)">
            <g id="Group_17" data-name="Group 17">
              <g id="Group_16" data-name="Group 16">
                <g id="Group_15" data-name="Group 15">
                  <circle id="Ellipse_3" data-name="Ellipse 3" cx="37.084" cy="37.084" r="37.084" fill="#fff"/>
                  <circle id="Ellipse_4" data-name="Ellipse 4" cx="32.943" cy="32.943" r="32.943" transform="translate(4.14 4.14)" fill="url(#linear-gradient-5)"/>
                </g>
              </g>
            </g>
            <g id="Group_18" data-name="Group 18" transform="translate(12.808 16.802)">
              <path id="Path_11" data-name="Path 11" d="M2333.709,970.306l-1.213-.032a13.5,13.5,0,0,0-.825-3.526l1.051-.615a1.394,1.394,0,0,0,.485-1.811l-.146-.291a1.217,1.217,0,0,0-1.7-.55l-1.067.615a12.778,12.778,0,0,0-2.361-2.652l.631-1.116a1.425,1.425,0,0,0-.437-1.86l-.259-.178a1.194,1.194,0,0,0-1.73.421l-.631,1.116a11.729,11.729,0,0,0-3.315-1.084l.016-1.326a1.361,1.361,0,0,0-1.261-1.407l-.307-.016a1.28,1.28,0,0,0-1.31,1.294l-.016,1.326a11.341,11.341,0,0,0-3.4.809l-.615-1.181a1.319,1.319,0,0,0-1.779-.582l-.275.162a1.387,1.387,0,0,0-.5,1.86l.631,1.181a12.673,12.673,0,0,0-2.555,2.539l-1.1-.712a1.272,1.272,0,0,0-1.811.437l-.162.291a1.453,1.453,0,0,0,.453,1.908l1.116.712a13.124,13.124,0,0,0-.97,3.574l-1.294-.032a1.343,1.343,0,0,0-1.359,1.342v.34a1.369,1.369,0,0,0,1.31,1.407l1.294.032a13.506,13.506,0,0,0,.889,3.623l-1.132.647a1.4,1.4,0,0,0-.518,1.876l.162.291a1.293,1.293,0,0,0,1.8.534l1.132-.647a12.854,12.854,0,0,0,2.474,2.652l-.647,1.148a1.409,1.409,0,0,0,.453,1.876l.275.162a1.284,1.284,0,0,0,1.8-.485l.647-1.148a11.312,11.312,0,0,0,3.38.97l-.016,1.326a1.3,1.3,0,0,0,1.261,1.358h.307a1.319,1.319,0,0,0,1.294-1.342l.016-1.326a11.673,11.673,0,0,0,3.348-.922l.6,1.132a1.206,1.206,0,0,0,1.714.5l.259-.162a1.4,1.4,0,0,0,.485-1.827l-.6-1.132a12.137,12.137,0,0,0,2.442-2.539l1.035.663a1.2,1.2,0,0,0,1.7-.469l.162-.275a1.388,1.388,0,0,0-.42-1.827l-1.035-.663a13.585,13.585,0,0,0,.922-3.477l1.213.032a1.281,1.281,0,0,0,1.261-1.294v-.323A1.353,1.353,0,0,0,2333.709,970.306Zm-13.213,7.116a5.856,5.856,0,0,1-5.58-6.081,5.719,5.719,0,0,1,5.758-5.806,5.875,5.875,0,0,1,5.5,6.081A5.723,5.723,0,0,1,2320.5,977.422Z" transform="translate(-2305.698 -945.172)" fill="#fff"/>
              <path id="Path_12" data-name="Path 12" d="M2492.111,899.765l-.906-.032a9.4,9.4,0,0,0-.615-2.62l.792-.453a1,1,0,0,0,.356-1.342l-.113-.21a.9.9,0,0,0-1.261-.4l-.792.453a10.353,10.353,0,0,0-1.763-1.989l.469-.825a1.068,1.068,0,0,0-.323-1.391l-.194-.129a.9.9,0,0,0-1.294.307l-.469.825a8.714,8.714,0,0,0-2.474-.809l.016-.987a1.008,1.008,0,0,0-.938-1.051l-.227-.016a.934.934,0,0,0-.97.97l-.016.987a8.341,8.341,0,0,0-2.539.615l-.453-.873a.972.972,0,0,0-1.326-.437l-.21.113a1.03,1.03,0,0,0-.372,1.391l.469.89a9.615,9.615,0,0,0-1.908,1.892l-.825-.534a.953.953,0,0,0-1.358.323l-.129.21a1.076,1.076,0,0,0,.34,1.423l.825.534a10.321,10.321,0,0,0-.728,2.668l-.97-.032a.987.987,0,0,0-1,1v.243a1.037,1.037,0,0,0,.987,1.051l.97.016a9.871,9.871,0,0,0,.663,2.7l-.841.485a1.044,1.044,0,0,0-.388,1.391l.113.21a.948.948,0,0,0,1.342.388l.841-.485a9.315,9.315,0,0,0,1.844,1.973l-.485.857a1.029,1.029,0,0,0,.34,1.391l.21.129a.953.953,0,0,0,1.342-.356l.485-.857a8.891,8.891,0,0,0,2.523.728l-.016.987a.979.979,0,0,0,.938,1.019h.227a1,1,0,0,0,.97-1l.016-.987a8.609,8.609,0,0,0,2.491-.679l.453.841a.9.9,0,0,0,1.278.372l.194-.113a1.03,1.03,0,0,0,.356-1.359l-.453-.857a9.143,9.143,0,0,0,1.811-1.892l.776.5a.908.908,0,0,0,1.278-.34l.113-.21a1.036,1.036,0,0,0-.323-1.359l-.776-.5a9.84,9.84,0,0,0,.679-2.588l.906.016a.946.946,0,0,0,.938-.97v-.243A.925.925,0,0,0,2492.111,899.765Zm-9.849,5.321a4.376,4.376,0,0,1-4.173-4.544,4.273,4.273,0,0,1,4.286-4.334,4.386,4.386,0,0,1,4.108,4.544A4.26,4.26,0,0,1,2482.262,905.086Z" transform="translate(-2444.434 -889.09)" fill="#fff"/>
            </g>
          </g>
          <g id="Group_22" data-name="Group 22" transform="translate(32.406 26.956)">
            <path id="Path_13" data-name="Path 13" d="M755.556,681.964c.065,28.609-15.137,51.946-42.21,52.706-.421.016-7.326,0-7.747,0-27.655.065-50.135-23.418-50.2-52.464s22.3-52.642,49.973-52.706c.647,0,6.712.065,7.358.081C739.48,630.584,755.491,653.6,755.556,681.964Z" transform="translate(-655.399 -629.5)" fill="url(#linear-gradient-6)"/>
            <path id="Path_14" data-name="Path 14" d="M813.372,684.963c.065,29.046-22.3,52.642-49.973,52.706-27.655.065-50.135-23.418-50.2-52.464s22.3-52.642,49.973-52.706C790.844,632.418,813.307,655.917,813.372,684.963Z" transform="translate(-703.851 -632.014)" fill="url(#linear-gradient-7)"/>
            <path id="Path_15" data-name="Path 15" d="M818.649,691.753c.065,28.318-21.752,51.315-48.712,51.38S721.064,720.3,721,691.979s21.752-51.315,48.712-51.38S818.584,663.435,818.649,691.753Z" transform="translate(-710.39 -638.804)" fill="url(#linear-gradient-8)"/>
            <ellipse id="Ellipse_5" data-name="Ellipse 5" cx="47.353" cy="49.714" rx="47.353" ry="49.714" transform="translate(12.081 3.348)" fill="url(#linear-gradient-9)"/>
            <ellipse id="Ellipse_6" data-name="Ellipse 6" cx="46.334" cy="48.663" rx="46.334" ry="48.663" transform="translate(12.097 4.399)" fill="url(#linear-gradient-10)"/>
            <g id="Group_20" data-name="Group 20" transform="translate(63.299 12.113)">
              <path id="Path_16" data-name="Path 16" d="M1046.816,743.958,1082.1,757.64a42.922,42.922,0,0,0,1.763-12.243c0-21.962-16.415-39.881-37.067-41v39.558Z" transform="translate(-1046.8 -704.4)" fill="url(#linear-gradient-11)"/>
            </g>
            <g id="Group_21" data-name="Group 21" transform="translate(9.364 2.571)" opacity="0.54">
              <path id="Path_17" data-name="Path 17" d="M750.722,694.791c-3.671-11.871,9.59-20.426,7.488-34.27-.922-6.1-4.512-11.111-8.927-15.121-20.83,6.4-36.048,26.652-35.984,50.62.065,29.046,22.544,52.544,50.2,52.464a47.973,47.973,0,0,0,19.132-4.027c-.857-16.787-6-26.264-11.483-31.973C762.706,703.67,753.52,703.831,750.722,694.791Z" transform="translate(-713.299 -645.4)" fill="#d8dee8"/>
            </g>
            <ellipse id="Ellipse_7" data-name="Ellipse 7" cx="2.943" cy="3.089" rx="2.943" ry="3.089" transform="translate(55.359 50.733)" fill="url(#linear-gradient-12)"/>
            <path id="Path_18" data-name="Path 18" d="M1006.26,809.9a1.9,1.9,0,0,0-1.86,1.957V832.7a1.862,1.862,0,1,0,3.72,0V811.857A1.914,1.914,0,0,0,1006.26,809.9Z" transform="translate(-947.958 -780.725)" fill="url(#linear-gradient-13)"/>
            <path id="Path_19" data-name="Path 19" d="M838.16,909.448l-33.364-9.8a1.183,1.183,0,0,0-1.439.728,1.048,1.048,0,0,0,.679,1.375l33.364,9.8a1.183,1.183,0,0,0,1.439-.728A1.048,1.048,0,0,0,838.16,909.448Z" transform="translate(-779.373 -855.917)" fill="url(#linear-gradient-14)"/>
          </g>
          <g id="Group_29" data-name="Group 29" transform="translate(9.779 85.502)">
            <path id="Path_20" data-name="Path 20" d="M1638.054,1536.608c10.739-11.466-18.986-54.517-34.884-73.391-13.892-16.48-28.173-33.428-45.72-31.278-15.4,1.876-30.388,18.129-31.278,33.687C1523.747,1507.481,1622.787,1552.894,1638.054,1536.608Z" transform="translate(-1362.683 -1360.555)" fill="url(#linear-gradient-15)"/>
            <path id="Path_21" data-name="Path 21" d="M831.648,1430.373a287.8,287.8,0,0,1,61.682-10.3c37.067-2.1,55.585-3.138,68.717,5.677,30.323,20.377,6.841,67.423,19.261,184.059,1.779,16.658,2.167,33.428,3.461,50.135,2.119,27.655,2.6,29.143.679,31.957-12.065,17.563-57.073-8.927-123.04,1.536-36.906,5.854-53.66,19.359-63.768,9.623-11.79-11.353-1.682-41.9,7.035-68.2,9.995-30.194,16.173-30.582,21.849-53.3,5.935-23.757,2.345-36,1.423-73.472A654.8,654.8,0,0,1,831.648,1430.373Z" transform="translate(-748.358 -1349.544)" fill="url(#linear-gradient-16)"/>
            <g id="Group_23" data-name="Group 23" transform="translate(44.914 123.33)" opacity="0.3">
              <path id="Path_22" data-name="Path 22" d="M921.291,1930.542c-17.24-1.342-28.431,8.394-43.31.809-20.41-10.415-26.976-42.825-25.666-65.774,1.973-34.852,21.881-44.038,18.453-66.582-1.86-12.178-10.561-28.367-41.79-44.895-.42,13.908-.34,25.763-.113,35.191.922,37.472,4.512,49.714-1.423,73.472-5.677,22.739-11.854,23.127-21.849,53.3-8.7,26.3-18.825,56.846-7.035,68.2,10.108,9.736,26.846-3.768,63.768-9.623,56.846-9.024,98.1,9.38,116.151,3.412C956.676,1942.025,936.9,1931.755,921.291,1930.542Z" transform="translate(-793.205 -1754.1)" fill="url(#linear-gradient-17)"/>
            </g>
            <path id="Path_23" data-name="Path 23" d="M622.294,1484.883c-12.307-10.124-37.083,1.342-43.7,4.4-36.906,17.078-70.059,63.089-61.844,111.7,1.229,7.294,6.938,41.4,35.822,57.93,26.054,14.911,61.245,11.078,89.45-10.043l11.563-10.253,11.369-12.291a91.04,91.04,0,0,0-30.307-16.69c-18.744-6.048-32.394,4.8-41.094-3.445-6-5.693-6.016-15.752-4.528-21.849,2.992-12.291,13.811-15.736,22.852-24.469C633.13,1539.369,637.043,1497,622.294,1484.883Z" transform="translate(-515.489 -1401.661)" fill="url(#linear-gradient-18)"/>
            <g id="Group_24" data-name="Group 24" transform="translate(112.886 239.326)">
              <path id="Path_24" data-name="Path 24" d="M1414.573,2474.774,1249.5,2472.3l43.892,21.186,121.6-7.957Z" transform="translate(-1243.678 -2472.145)" fill="url(#linear-gradient-19)"/>
              <path id="Path_25" data-name="Path 25" d="M1213.5,2475.893h0a7.356,7.356,0,0,0,4.836,6.906l52.739,20.685.243-14.329-51.995-17.628A4.541,4.541,0,0,0,1213.5,2475.893Z" transform="translate(-1213.5 -2471.338)" fill="url(#linear-gradient-20)"/>
            </g>
            <path id="Path_26" data-name="Path 26" d="M1370.1,2383.031c-1.019-.226,4.933-12.081,9.606-10.706s27.51,14.6,29.58,20.054l2.07,5.45s-9.962.776-16.14-1.294C1389.041,2394.449,1378.335,2384.859,1370.1,2383.031Z" transform="translate(-1231.794 -2148.919)" fill="url(#linear-gradient-21)"/>
            <g id="Group_25" data-name="Group 25" transform="translate(111.663)">
              <path id="Path_27" data-name="Path 27" d="M1279.936,1223.631c-.825-4.447-15.59-2.07-19.989-10.124-3.057-5.612.372-13.569,4.431-20.151-3.93-7.359-18.453-8.8-22.367-16.156a127.657,127.657,0,0,1-2.3,25.666c-1.326,6.841-2.28,8.6-3.509,10.043-1.844,2.151-4.625,3.962-20.377,7.876-8.571,2.119-9.671,2.07-9.865,2.911-.922,4.14,22.448,18.291,46.577,14.879C1267.322,1236.489,1280.761,1228.063,1279.936,1223.631Z" transform="translate(-1205.937 -1147.169)" fill="url(#linear-gradient-22)"/>
              <path id="Path_28" data-name="Path 28" d="M1391.682,1018.3c7.261-5.854,12.243-17.806,8.83-23.224-4.706-7.456-24.534-1.407-34.544,1.65-10.043,3.073-13.326,6.032-14.717,9.429-1.423,3.477-1.051,7.973.178,11.321.663,1.827,1.989,4.108,4.933,8.458,2.6,3.865,2.426,3.736,3.234,4.852a60.259,60.259,0,0,0,12.5,12.55,41.648,41.648,0,0,1,2.1-6.987,37.214,37.214,0,0,1,4.593-8.28C1383.159,1022.4,1387.267,1021.862,1391.682,1018.3Z" transform="translate(-1326.982 -991.508)" fill="url(#linear-gradient-23)"/>
              <path id="Path_29" data-name="Path 29" d="M1388.016,1146.1s7.035,10.787,20.345,9.509c11.919-1.148,12.841-27.978,5.046-33.429-2.6-1.811-7.73-2.442-11.838-1.164-2.426.76-3.218,1.811-7.213,2.976-3.687,1.067-4.739.7-5.838,1.666-1.359,1.229-2.3,4.14.275,11.9-2.345-2.232-5.11-3.04-7.019-2.07a4.029,4.029,0,0,0-1.536,1.6C1378.668,1140.214,1381.579,1144.031,1388.016,1146.1Z" transform="translate(-1351.699 -1099.51)" fill="url(#linear-gradient-24)"/>
            </g>
            <g id="Group_26" data-name="Group 26" transform="translate(147.01 90.807)">
              <path id="Path_30" data-name="Path 30" d="M1439.686,1553q-1.383,3.154-3.154,6.5c-.517.97-1.035,1.908-1.552,2.83-2.135.291-4.253.582-6.388.889-1.359-3.105-2.733-6.21-4.092-9.315a40.753,40.753,0,0,0,7.7.275A41.632,41.632,0,0,0,1439.686,1553Z" transform="translate(-1424.5 -1553)" fill="url(#linear-gradient-25)"/>
              <path id="Path_31" data-name="Path 31" d="M1440.413,1607s7.326,71.741,29.9,82.933c-.55,2.313.275,20.976.275,20.976s-20.976-6.016-22.172-5.6-25.828-39.234-14.329-96.857Z" transform="translate(-1429.982 -1598.267)" fill="url(#linear-gradient-26)"/>
            </g>
            <g id="Group_28" data-name="Group 28" transform="translate(163.435 146.18)">
              <g id="Group_27" data-name="Group 27">
                <path id="Path_32" data-name="Path 32" d="M1537.711,1905.738l-11.628,105.946c-.4,3.655,4.722,9.105,8.394,8.927l170.685-10.48a5.98,5.98,0,0,0,5.612-4.965l21.429-102.323c.647-3.72-6.049-7.569-9.833-7.456l-178.868,5.03A5.987,5.987,0,0,0,1537.711,1905.738Z" transform="translate(-1526.061 -1895.385)" fill="url(#linear-gradient-27)"/>
                <path id="Path_33" data-name="Path 33" d="M1561.736,1924.756,1550.108,2030.7a5.978,5.978,0,0,0,6.226,6.631l172.852-8.183a5.98,5.98,0,0,0,5.612-4.965l17.66-102.792a6,6,0,0,0-6.065-7l-178.868,5.03A6.015,6.015,0,0,0,1561.736,1924.756Z" transform="translate(-1546.188 -1911.314)" fill="url(#linear-gradient-28)"/>
              </g>
              <path id="Path_34" data-name="Path 34" d="M1663.319,2028.562c-15.089-6.4-9.768-18.6-27.59-33.8-23.515-20.054-47.483-11.353-55.86-26.895-2.62-4.835-3.865-12.372.7-24.566l-12.954.372a5.971,5.971,0,0,0-5.774,5.321l-11.628,105.946a5.978,5.978,0,0,0,6.226,6.631l172.852-8.183a5.98,5.98,0,0,0,5.612-4.965l2.442-14.183a65.146,65.146,0,0,0-18.825-7.051C1693.141,2022.044,1680.688,2035.92,1663.319,2028.562Z" transform="translate(-1546.272 -1935.551)" opacity="0.3" fill="url(#linear-gradient-29)"/>
            </g>
            <path id="Path_35" data-name="Path 35" d="M2578.812,2518.574c-3.542-.049-11.774.194-16.2,3.137-5.758,3.833-13.116,10.706-6.582,13.8,2.086,1.278,4.286,3.057,6.906,2.733a18.564,18.564,0,0,0,3.17-.906c.825-.259,1.65-.453,2.474-.647,1.65-.356,3.315-.744,4.949-1.165a6.516,6.516,0,0,0,1.439-.469c.873-.485,3.9-10.755,5.078-14.814A1.3,1.3,0,0,0,2578.812,2518.574Z" transform="translate(-2223.873 -2271.604)" fill="url(#linear-gradient-30)"/>
          </g>
          <g id="Group_32" data-name="Group 32" transform="translate(218.843 115.323)">
            <g id="Group_31" data-name="Group 31">
              <g id="Group_30" data-name="Group 30">
                <circle id="Ellipse_8" data-name="Ellipse 8" cx="39.251" cy="39.251" r="39.251" fill="#fff"/>
                <circle id="Ellipse_9" data-name="Ellipse 9" cx="34.868" cy="34.868" r="34.868" transform="translate(4.383 4.383)" fill="url(#linear-gradient-31)"/>
              </g>
            </g>
            <path id="Path_36" data-name="Path 36" d="M1932.6,1306.1c-13.2,0-23.9,8.151-23.9,18.194a15.033,15.033,0,0,0,3.461,9.445l-2.313,6.129a.8.8,0,0,0,.89,1.067c2.07-.388,5.984-1.1,8.507-1.536a29.363,29.363,0,0,0,13.359,3.105c13.2,0,23.9-8.151,23.9-18.194C1956.506,1314.251,1945.8,1306.1,1932.6,1306.1Zm.356,24.6h-15.3a.853.853,0,0,1-.922-.825.844.844,0,0,1,.922-.825h15.3a.853.853,0,0,1,.922.825A.844.844,0,0,1,1932.959,1330.7Zm13.779-5.531h-29.062a.853.853,0,0,1-.922-.825.844.844,0,0,1,.922-.825h29.062a.83.83,0,1,1,0,1.65Zm0-4.981h-29.062a1.1,1.1,0,0,1-.922-1.1,1.089,1.089,0,0,1,.922-1.1h29.062a1.1,1.1,0,0,1,.922,1.1C1947.643,1319.588,1947.239,1320.186,1946.738,1320.186Z" transform="translate(-1892.447 -1285.043)" fill="#fff"/>
          </g>
        </g>
      </g>
    </g>
  </g>
</svg>
