<svg width="40" height="40" viewBox="0 0 40 40" fill="none" xmlns="http://www.w3.org/2000/svg">
<g clip-path="url(#clip0_181_31)">
<path d="M12.7 17C15.8 15 16.6 10.8 14.6 7.69999C12.6 4.59999 8.4 3.79999 5.3 5.79999C2.2 7.79999 1.4 12 3.4 15.1C3.9 15.8 4.5 16.5 5.2 17C2.2 17.7 0 20.4 0 23.5V34.3C0 34.7 0.3 35 0.7 35H17.2C17.6 35 17.9 34.7 17.9 34.3V23.5C17.8 20.4 15.7 17.7 12.7 17ZM3.7 11.4C3.7 8.49999 6 6.09999 9 6.09999C12 6.09999 14.3 8.49999 14.3 11.4C14.3 14.3 11.9 16.7 9 16.7C6 16.7 3.7 14.4 3.7 11.4ZM14.5 33.7V23.5C14.5 23.1 14.2 22.8 13.8 22.8C13.4 22.8 13.1 23.1 13.1 23.5V33.7H4.9V23.5C4.9 23.1 4.6 22.8 4.2 22.8C3.8 22.8 3.5 23.1 3.5 23.5V33.7H1.4V23.5C1.4 20.5 3.8 18.2 6.7 18.2H11.1C14 18.2 16.4 20.6 16.4 23.5V33.6H14.5V33.7Z" fill="#23ADF0"/>
<path d="M28.1001 12.3H39.1001C39.5001 12.3 39.8001 12 39.8001 11.6V0.599994C39.8001 0.199994 39.5001 -0.100006 39.1001 -0.100006H28.1001C27.7001 -0.100006 27.4001 0.199994 27.4001 0.599994V5.39999H21.9001C21.5001 5.39999 21.2001 5.69999 21.2001 6.09999V19.1H19.8001C19.4001 19.1 19.1001 19.4 19.1001 19.8C19.1001 20.2 19.4001 20.5 19.8001 20.5H21.2001V33.5C21.2001 33.9 21.5001 34.2 21.9001 34.2H27.4001V39C27.4001 39.4 27.7001 39.7 28.1001 39.7H39.1001C39.5001 39.7 39.8001 39.4 39.8001 39V28C39.8001 27.6 39.5001 27.3 39.1001 27.3H28.1001C27.7001 27.3 27.4001 27.6 27.4001 28V32.8H22.6001V20.6H27.4001V25.4C27.4001 25.8 27.7001 26.1 28.1001 26.1H39.1001C39.5001 26.1 39.8001 25.8 39.8001 25.4V14.4C39.8001 14 39.5001 13.7 39.1001 13.7H28.1001C27.7001 13.7 27.4001 14 27.4001 14.4V19.2H22.6001V6.79999H27.4001V11.6C27.4001 12 27.7001 12.3 28.1001 12.3ZM28.8001 1.39999H38.4001V11H28.8001V1.39999V1.39999ZM28.8001 28.8H38.4001V38.4H28.8001V28.8V28.8ZM28.8001 15.1H38.4001V24.7H28.8001V15.1V15.1Z" fill="#23ADF0"/>
<path d="M36.8998 31.1L34.1998 36.6C34.0998 36.8 33.8998 36.9 33.6998 37H33.5998C33.3998 37 33.1998 36.9 33.0998 36.8L30.3998 34C30.0998 33.7 30.0998 33.3 30.3998 33C30.6998 32.7 31.0998 32.7 31.3998 33L33.4998 35.1L35.7998 30.5C35.9998 30.2 36.3998 30 36.6998 30.2C36.9998 30.4 37.0998 30.8 36.8998 31.1Z" fill="#D4145A"/>
<path d="M36.8998 17.4L34.1998 22.9C34.0998 23.1 33.8998 23.2 33.6998 23.3H33.5998C33.3998 23.3 33.1998 23.2 33.0998 23.1L30.3998 20.4C30.0998 20.1 30.0998 19.7 30.3998 19.4C30.6998 19.1 31.0998 19.1 31.3998 19.4L33.4998 21.5L35.7998 16.9C35.9998 16.6 36.3998 16.4 36.6998 16.6C36.9998 16.7 37.0998 17.1 36.8998 17.4Z" fill="#D4145A"/>
<path d="M36.8998 3.69999L34.1998 9.19999C34.0998 9.39999 33.8998 9.5 33.6998 9.6H33.5998C33.3998 9.6 33.1998 9.49999 33.0998 9.39999L30.3998 6.69999C30.0998 6.39999 30.0998 5.99999 30.3998 5.69999C30.6998 5.39999 31.0998 5.39999 31.3998 5.69999L33.4998 7.79999L35.7998 3.19999C35.9998 2.89999 36.3998 2.69999 36.6998 2.89999C36.9998 2.99999 37.0998 3.39999 36.8998 3.69999Z" fill="#D4145A"/>
</g>
<defs>
<clipPath id="clip0_181_31">
<rect width="39.8" height="39.8" fill="white"/>
</clipPath>
</defs>
</svg>
