<svg xmlns:xlink="http://www.w3.org/1999/xlink" xmlns="http://www.w3.org/2000/svg" version="1.1" viewBox="0 0 261.96 261.96">
	<g >
		<path d="M7.78,406.26A7.78,7.78,0,0,1,2.28,393l123.2-123.2a7.779,7.779,0,1,1,11,11L13.28,404a7.76,7.76,0,0,1-5.5,2.26Z" transform="translate(0 -144.3)" fill="#29abe2" />
		<path d="M154.1,259.94a7.78,7.78,0,0,1-5.5-13.28L248.68,146.58a7.779,7.779,0,1,1,11,11L159.6,257.66a7.76,7.76,0,0,1-5.5,2.28Z" transform="translate(0 -144.3)" fill="#d4145a" />
		<path d="M254.18,406.26a7.76,7.76,0,0,1-5.5-2.28L2.28,157.58a7.779,7.779,0,1,1,11-11L259.68,393a7.78,7.78,0,0,1-5.5,13.28Z" transform="translate(0 -144.3)" fill="#29abe2" />
	</g>
</svg>
