<svg xmlns="http://www.w3.org/2000/svg" xmlns:xlink="http://www.w3.org/1999/xlink" width="870.13" height="261.96" viewBox="0 0 870.13 261.96">
	<defs>
		<clipPath id="a">
			<rect width="870.13" height="261.96" fill="none" />
		</clipPath>
	</defs>
	<g clip-path="url(#a)">
		<path d="M7.78,406.26A7.78,7.78,0,0,1,2.28,393l123.2-123.2a7.779,7.779,0,1,1,11,11L13.28,404a7.76,7.76,0,0,1-5.5,2.26Z" transform="translate(0 -144.3)" fill="#29abe2" />
		<path d="M154.1,259.94a7.78,7.78,0,0,1-5.5-13.28L248.68,146.58a7.779,7.779,0,1,1,11,11L159.6,257.66a7.76,7.76,0,0,1-5.5,2.28Z" transform="translate(0 -144.3)" fill="#d4145a" />
		<path d="M254.18,406.26a7.76,7.76,0,0,1-5.5-2.28L2.28,157.58a7.779,7.779,0,1,1,11-11L259.68,393a7.78,7.78,0,0,1-5.5,13.28Z" transform="translate(0 -144.3)" fill="#29abe2" />
		<path d="M271.61,281.31q0-35.19,15.76-55.08t46.05-19.89q25.09,0,38.56,15T385.44,263q0,3.06-.61,9.79L369.22,288.4l-79.56-.61q.61,25.4,11.48,38.1t33.2,12.7q13.46,0,22.95-2.91a87.328,87.328,0,0,0,19.58-9L383,341a106.9,106.9,0,0,1-22.49,10.25q-11.17,3.51-27.08,3.52Q271.61,354.75,271.61,281.31Zm94.86-8.57a60.361,60.361,0,0,0,1.84-14.69q0-16.52-9.18-26t-26.93-9.49q-22.65,0-32.13,12.55T289.36,274Z" transform="translate(0 -144.3)" fill="#fff" />
		<path d="M432.41,347q-9.34-7.8-9.33-25.55V208.79h18.36V334.86a76.941,76.941,0,0,0,22.64,3.37,65.06,65.06,0,0,0,49.57-22V208.79H532V352H516.41l-1.22-22h-2.45q-11.32,12.24-23.56,18.51T461,354.75Q441.74,354.75,432.41,347Z" transform="translate(0 -144.3)" fill="#fff" />
		<path d="M581,209.4h15l1.53,27.54h2.75A54.71,54.71,0,0,1,620,215.52a50.13,50.13,0,0,1,27.08-8q2.14,0,5.35,2.29a15.15,15.15,0,0,1,4.44,4.44l-2.14,14.38H642.17q-15.6,0-26.77,7a39.35,39.35,0,0,0-16.07,19.89V352H581Z" transform="translate(0 -144.3)" fill="#fff" />
		<path d="M691.13,154H710.4v28.46H691.13Zm.31,55.08h18.05V352H691.43Z" transform="translate(0 -144.3)" fill="#fff" />
		<path d="M745,350.47q18-32.13,45-69.77a800.387,800.387,0,0,1-44.06-69.77l19-3.37a639.4,639.4,0,0,0,38.86,64.87h7.65a476.946,476.946,0,0,0,40.7-64.87l18.05,3.06q-18.06,32.44-45,68.85a824.362,824.362,0,0,1,43.76,71l-18.36,3.67q-13.77-26.92-39.17-66.1h-7.65q-26.93,39.47-40.7,66.1Z" transform="translate(0 -144.3)" fill="#fff" />
	</g>
</svg>
