<svg xmlns="http://www.w3.org/2000/svg" width="105.722" height="105.723"><defs><clipPath id="a"><path d="M350.1 28.605h105.724v105.723H350.1Zm0 0" data-name="Path 45"/></clipPath></defs><g data-name="Presentation Skills"><path fill="#eef2f5" d="M104.679 52.856a51.824 51.824 0 1 0-51.824 51.824 51.823 51.823 0 0 0 51.824-51.824" data-name="Path 43"/><g clip-path="url(#a)" data-name="Group 3" transform="translate(-350.102 -28.605)"><path fill="#29abe2" d="M402.957 30.664a50.795 50.795 0 1 0 50.8 50.8 50.853 50.853 0 0 0-50.8-50.8Zm0 103.652a52.854 52.854 0 1 1 37.375-15.48 52.526 52.526 0 0 1-37.375 15.48" data-name="Path 44"/></g><path fill="#f8fafb" d="M100.324 52.856a47.467 47.467 0 1 0-47.469 47.465 47.471 47.471 0 0 0 47.469-47.465" data-name="Path 46"/><path fill="#fefefe" d="M96.906 52.856a44.051 44.051 0 1 0-44.051 44.051 44.049 44.049 0 0 0 44.051-44.051" data-name="Path 47"/><path fill="#d4145a" d="M31.91 45.504a1.061 1.061 0 0 0-1.059 1.063v4.465a1.059 1.059 0 1 0 2.117 0v-4.465a1.06 1.06 0 0 0-1.058-1.062" data-name="Path 48"/><path fill="#d4145a" d="M35.89 43.274a1.056 1.056 0 0 0-1.058 1.059v6.7a1.059 1.059 0 1 0 2.117 0v-6.7a1.057 1.057 0 0 0-1.059-1.059" data-name="Path 49"/><path fill="#d4145a" d="M39.871 41.04a1.057 1.057 0 0 0-1.059 1.059v8.934a1.061 1.061 0 1 0 2.121 0v-8.938a1.06 1.06 0 0 0-1.062-1.059" data-name="Path 50"/><path fill="#d4145a" d="M43.851 44.387a1.062 1.062 0 0 0-1.058 1.063v5.582a1.061 1.061 0 1 0 2.121 0V45.45a1.064 1.064 0 0 0-1.063-1.062" data-name="Path 51"/><path fill="#d4145a" d="M47.836 42.528a1.061 1.061 0 0 0-1.063 1.059v7.445a1.061 1.061 0 1 0 2.121 0v-7.446a1.059 1.059 0 0 0-1.058-1.059" data-name="Path 52"/><path fill="#d4145a" d="M51.816 40.295a1.061 1.061 0 0 0-1.059 1.063v9.676a1.059 1.059 0 1 0 2.118 0v-9.678a1.061 1.061 0 0 0-1.059-1.062" data-name="Path 53"/><path fill="#d4145a" d="M55.798 38.059a1.06 1.06 0 0 0-1.058 1.063v11.91a1.059 1.059 0 1 0 2.117 0v-11.91a1.061 1.061 0 0 0-1.059-1.062" data-name="Path 54"/><path fill="#d4145a" d="M57.242 33.844a1.063 1.063 0 0 0-1.446-.4l-11.781 6.621-3.417-3.225a1.069 1.069 0 0 0-1.25-.152l-8.859 4.98a1.06 1.06 0 0 0 .519 1.984 1.035 1.035 0 0 0 .52-.137l8.18-4.6 3.414 3.223a1.063 1.063 0 0 0 1.246.152l12.465-7a1.064 1.064 0 0 0 .406-1.445" data-name="Path 55"/><path fill="#29abe2" d="M63.207 62.188a1.064 1.064 0 0 0-1.063-1.062H26.613a1.889 1.889 0 0 1-1.856-1.559H58.39a1.061 1.061 0 0 0 0-2.121H24.73V29.051a1.887 1.887 0 0 1 1.883-1.887h15.558v.172a2.04 2.04 0 0 0 2.036 2.039h16.8a1.061 1.061 0 0 0 0-2.121h-16.71v-2.3h18.511a1.061 1.061 0 0 0 0-2.121h-18.6a2.04 2.04 0 0 0-2.036 2.035v.176H26.613a4.01 4.01 0 0 0-4 4v30.199a4.009 4.009 0 0 0 4 4h35.531a1.061 1.061 0 0 0 1.063-1.059" data-name="Path 56"/><path fill="#29abe2" d="M71.998 25.254a5.644 5.644 0 1 1-5.645 5.644 5.651 5.651 0 0 1 5.645-5.644Zm0 13.406a7.762 7.762 0 1 0-7.766-7.762 7.771 7.771 0 0 0 7.766 7.762" data-name="Path 57"/><path fill="#29abe2" d="M74.761 39.801h-5.535a8.353 8.353 0 0 0-8.344 8.344v6.906a3.362 3.362 0 0 0 3.3 3.558 3.444 3.444 0 0 0 1.418-.3v5.286a1.061 1.061 0 0 0 2.121 0v-15.95a1.061 1.061 0 1 0-2.121 0v7.168a1.252 1.252 0 0 0-.031.238 1.414 1.414 0 0 1-1.387 1.438c-.816 0-1.18-.723-1.18-1.437v-6.907a6.23 6.23 0 0 1 6.223-6.223h5.535a6.232 6.232 0 0 1 6.223 6.223v6.906c0 .715-.367 1.438-1.18 1.438a1.417 1.417 0 0 1-1.39-1.437 1.215 1.215 0 0 0-.028-.242v-7.165a1.061 1.061 0 1 0-2.121 0v16.816a1.061 1.061 0 0 0 2.121 0v-6.16a3.328 3.328 0 0 0 4.719-3.25v-6.906a8.355 8.355 0 0 0-8.344-8.344" data-name="Path 58"/><path fill="#29abe2" d="M57.148 76.649a3.859 3.859 0 1 1-3.859-3.859 3.861 3.861 0 0 1 3.859 3.859Zm-9.84 0a5.98 5.98 0 1 0 5.981-5.981 5.985 5.985 0 0 0-5.981 5.981" data-name="Path 59"/><path fill="#29abe2" d="M55.498 83.695h-4.42a6.925 6.925 0 0 0-6.422 4.4 1.06 1.06 0 0 0 1.976.766 4.8 4.8 0 0 1 4.446-3.047h4.42a4.8 4.8 0 0 1 4.445 3.047 1.057 1.057 0 0 0 .988.676 1.032 1.032 0 0 0 .383-.071 1.062 1.062 0 0 0 .605-1.371 6.925 6.925 0 0 0-6.421-4.4" data-name="Path 60"/><path fill="#29abe2" d="M39.789 71.668a3.857 3.857 0 1 1-3.856-3.859 3.865 3.865 0 0 1 3.856 3.859Zm-9.836 0a5.979 5.979 0 1 0 5.98-5.98 5.985 5.985 0 0 0-5.98 5.98" data-name="Path 61"/><path fill="#29abe2" d="M44.562 83.11a6.921 6.921 0 0 0-6.418-4.4h-4.426a6.921 6.921 0 0 0-6.418 4.4 1.06 1.06 0 1 0 1.977.765 4.786 4.786 0 0 1 4.441-3.046h4.426a4.8 4.8 0 0 1 4.442 3.046 1.065 1.065 0 0 0 .988.676 1.085 1.085 0 0 0 .383-.07 1.056 1.056 0 0 0 .605-1.371" data-name="Path 62"/><path fill="#29abe2" d="M74.503 72.122a3.857 3.857 0 1 1-3.855-3.86 3.862 3.862 0 0 1 3.855 3.86Zm-9.835 0a5.979 5.979 0 1 0 5.98-5.977 5.988 5.988 0 0 0-5.98 5.977" data-name="Path 63"/><path fill="#29abe2" d="M72.859 79.165h-4.426a6.926 6.926 0 0 0-6.418 4.4 1.06 1.06 0 1 0 1.977.766 4.788 4.788 0 0 1 4.441-3.043h4.426a4.788 4.788 0 0 1 4.441 3.043 1.061 1.061 0 0 0 .989.679 1.08 1.08 0 0 0 .382-.07 1.062 1.062 0 0 0 .606-1.371 6.924 6.924 0 0 0-6.418-4.4" data-name="Path 64"/><path fill="#29abe2" d="M72.925 60.52a1.061 1.061 0 0 0-2.121 0v3.075h2.121V60.52" data-name="Path 65"/></g></svg>