<svg xmlns="http://www.w3.org/2000/svg" width="101.211" height="101.226"><defs><clipPath id="a"><path d="M37.789 29.129H139v101.226H37.789Zm0 0" data-name="Path 3"/></clipPath></defs><g data-name="real estate"><path fill="#f2f6f8" d="M100.223 50.605a49.619 49.619 0 1 0-49.617 49.621 49.618 49.618 0 0 0 49.617-49.621" data-name="Path 1"/><g clip-path="url(#a)" data-name="Group 1" transform="translate(-37.789 -29.129)"><path fill="#29abe2" d="M88.395 31.1a48.633 48.633 0 1 0 48.632 48.633A48.69 48.69 0 0 0 88.395 31.1Zm0 99.242a50.605 50.605 0 1 1 35.785-14.822 50.277 50.277 0 0 1-35.785 14.824" data-name="Path 2"/></g><path fill="#fafcfd" d="M96.051 50.605a45.447 45.447 0 1 0-45.445 45.45 45.447 45.447 0 0 0 45.445-45.45" data-name="Path 4"/><path fill="#fff" d="M92.781 50.605a42.176 42.176 0 1 0-42.176 42.18 42.175 42.175 0 0 0 42.176-42.18" data-name="Path 5"/><path fill="#29abe2" d="m25.711 47.59 3.867-3.367v27.035h-3.867Zm20.59-4.5v28.168H31.559V43.09Zm-3.812-13.4 3.813-3.32v14.75h-3.81Zm20.621-4.5v46.071H48.277V25.187Zm12.2 25.941V71.26H65.086V46.312Zm6.871 20.129h-4.9V50.504a.989.989 0 0 0-.562-.895l-11.633-5.477V24.199a.986.986 0 0 0-.988-.984H47.234l-.105.012a.741.741 0 0 0-.09.019.859.859 0 0 0-.094.031.9.9 0 0 0-.09.039.828.828 0 0 0-.082.043c-.027.02-.059.039-.086.063a.4.4 0 0 0-.043.031l-5.789 5.035a.99.99 0 0 0-.336.746v11.883h-9.984a.977.977 0 0 0-.668.238l-5.789 5.035a.99.99 0 0 0-.336.746v24.118h-4.715a.986.986 0 0 0 0 1.972H82.18a.986.986 0 1 0 0-1.972" data-name="Path 6"/><path fill="#29abe2" d="M76.297 76.027H49.344a.987.987 0 1 0 0 1.973h26.953a.987.987 0 0 0 0-1.973" data-name="Path 7"/><path fill="#29abe2" d="M33.676 76.027h-8.765a.987.987 0 1 0 0 1.973h8.762a.987.987 0 0 0 0-1.973" data-name="Path 8"/><path fill="#d4145a" d="M60.66 30.394h-9.414a.987.987 0 0 0 0 1.973h9.414a.987.987 0 1 0 0-1.973" data-name="Path 9"/><path fill="#d4145a" d="M60.66 34.82h-9.414a.987.987 0 0 0 0 1.973h9.414a.987.987 0 1 0 0-1.973" data-name="Path 10"/><path fill="#d4145a" d="M60.66 39.246h-9.414a.987.987 0 0 0 0 1.973h9.414a.987.987 0 1 0 0-1.973" data-name="Path 11"/><path fill="#d4145a" d="M60.66 43.671h-9.414a.988.988 0 0 0 0 1.977h9.414a.988.988 0 1 0 0-1.977" data-name="Path 12"/><path fill="#d4145a" d="M60.66 48.101h-9.414a.987.987 0 0 0 0 1.973h9.414a.987.987 0 1 0 0-1.973" data-name="Path 13"/><path fill="#d4145a" d="M60.66 52.527h-9.414a.987.987 0 0 0 0 1.973h9.414a.987.987 0 1 0 0-1.973" data-name="Path 14"/><path fill="#d4145a" d="M39.411 76.027h-.473a.987.987 0 1 0 0 1.973h.473a.987.987 0 0 0 0-1.973" data-name="Path 15"/><path fill="#d4145a" d="M44.031 76.027h-.473a.987.987 0 1 0 0 1.973h.473a.987.987 0 0 0 0-1.973" data-name="Path 16"/><path fill="#d4145a" d="M60.66 56.953h-9.414a.987.987 0 0 0 0 1.973h9.414a.987.987 0 1 0 0-1.973" data-name="Path 17"/><path fill="#d4145a" d="M60.66 61.379h-9.414a.987.987 0 0 0 0 1.973h9.414a.987.987 0 1 0 0-1.973" data-name="Path 18"/><path fill="#d4145a" d="M34.223 50.071h9.414a.987.987 0 1 0 0-1.973h-9.414a.987.987 0 0 0 0 1.973" data-name="Path 19"/><path fill="#d4145a" d="M34.223 54.5h9.414a.987.987 0 1 0 0-1.973h-9.414a.987.987 0 0 0 0 1.973" data-name="Path 20"/><path fill="#d4145a" d="M34.223 58.926h9.414a.987.987 0 1 0 0-1.973h-9.414a.987.987 0 0 0 0 1.973" data-name="Path 21"/><path fill="#d4145a" d="M44.625 62.371a.987.987 0 0 0-.988-.988h-9.414a.987.987 0 0 0 0 1.973h9.414a.986.986 0 0 0 .988-.984" data-name="Path 22"/><path fill="#d4145a" d="M72.172 54.5h.422a.987.987 0 0 0 0-1.973h-.422a.987.987 0 1 0 0 1.973" data-name="Path 23"/><path fill="#d4145a" d="M68.227 52.527h-.422a.987.987 0 1 0 0 1.973h.422a.987.987 0 0 0 0-1.973" data-name="Path 24"/><path fill="#d4145a" d="M68.227 56.953h-.422a.987.987 0 1 0 0 1.973h.422a.987.987 0 0 0 0-1.973" data-name="Path 25"/><path fill="#d4145a" d="M72.594 56.953h-.422a.987.987 0 1 0 0 1.973h.422a.987.987 0 0 0 0-1.973" data-name="Path 26"/><path fill="#d4145a" d="M72.594 61.379h-.422a.987.987 0 1 0 0 1.973h.422a.987.987 0 0 0 0-1.973" data-name="Path 27"/><path fill="#d4145a" d="M68.227 61.379h-.422a.987.987 0 1 0 0 1.973h.422a.987.987 0 0 0 0-1.973" data-name="Path 28"/></g></svg>